<svg version="1.1" id="レイヤー_1" xmlns="http://www.w3.org/2000/svg" x="0" y="0" viewBox="0 0 860 667" xml:space="preserve"><style>.st0,.st1,.st8{stroke-miterlimit:10}.st0{fill:none;stroke:#8dc21f;stroke-width:9}.st1,.st8{stroke:#231815}.st1{fill:none;stroke-width:3}.st8{stroke-width:2.6824}.st11,.st8{fill:#fff}.st12{fill:none;stroke:#231815;stroke-width:1.0341;stroke-miterlimit:10}.st13{fill:#98b13b}</style><path class="st0" d="M298.9 451.1c-6.4-15.9-9.9-33.3-9.9-51.4 0-17 3.1-33.3 8.7-48.4"/><path class="st1" d="M299.8 345.9c20.9-49.5 70-84.3 127.2-84.3 76.2 0 138 61.8 138 138 0 5.8-.4 11.5-1.1 17.1"/><path d="M298.9 451.1c-6.4-15.9-9.9-33.3-9.9-51.4 0-17 3.1-33.3 8.7-48.4" fill="none" stroke="#006934" stroke-width="3" stroke-miterlimit="10"/><path class="st1" d="M641.7 614.2L492.3 464.9"/><path d="M287.2 527.7h92.5v38.7h-92.5z"/><path class="st0" d="M290.4 614.2h85.5"/><path fill="none" stroke="#b4b4b5" stroke-width="1.653" stroke-miterlimit="10" d="M212.4 614.2h78"/><path fill="none" stroke="#006934" stroke-width="1.653" stroke-miterlimit="10" d="M290.4 614.2h85.5"/><path class="st0" d="M724.2 337.2c4.2 20.1 6.4 41 6.4 62.4 0 25.9-3.2 51.1-9.4 75.1"/><path d="M212.4 614.2c-27.5-27.5-49.7-60.2-65.1-96.5s-23.9-76.2-23.9-118.2 8.5-81.8 23.9-118.2 37.6-69 65.1-96.5 60.2-49.7 96.5-65.1S385.1 96 427 96s81.8 8.5 118.2 23.9 69 37.6 96.5 65.1c27.5 27.5 49.7 60.2 65.1 96.5s23.9 76.2 23.9 118.2-8.5 81.8-23.9 118.2-37.6 69-65.1 96.5" fill="none" stroke="#98b13b" stroke-width="3" stroke-miterlimit="10"/><circle class="st1" cx="427" cy="399.6" r="92.7"/><path class="st1" d="M90.2 136.1l210 209.9c7-16.5 17.1-31.3 29.5-43.8s27.3-22.5 43.8-29.5 34.6-10.8 53.6-10.8 37.1 3.9 53.6 10.8 31.3 17.1 43.8 29.5C537 314.7 547 329.5 554 346M518 382.3l248.4-248.4M427 306.9V0M518 416.9h124.4l123.8-123.8M334.4 396.1H7.2M317.7 431.6l-169.1 169H13.7"/><circle cx="133.6" cy="319.9" r="14.1" fill="#faed00" stroke="#231815" stroke-width="2.682" stroke-miterlimit="10"/><circle class="st8" cx="123.5" cy="399.6" r="14.1"/><path d="M713.7 402.5c0-.1-1-3.4-2.1-6.8l1-1c.4-.4.4-1 0-1.4-.4-.4-1-.4-1.4 0l-.2.2c-.9-3-1.7-5.6-1.7-5.6l6.6-6.6c.8-.8 1.3-2.6.5-3.4-.8-.8-2.6-.3-3.4.5l-6.6 6.6s-2.6-.8-5.6-1.7l.2-.2c.4-.4.4-1 0-1.4-.4-.4-1-.4-1.4 0l-1 1c-3.4-1-6.6-2-6.8-2.1-.6-.2-1.2.5-.6 1 1.4 1.2 10.4 8.2 10.4 8.2l-6.3 6.3s-4-1.3-4.4-1.3c-.4-.1-.8 0-1 .2l-.5.5 4.8 3.2c-.3.3-.4 1.1-.1 1.5.4.4 1.2.2 1.5-.1l3.2 4.8.5-.5c.2-.2.3-.6.2-1-.1-.4-1.3-4.4-1.3-4.4l6.3-6.3s7 9.1 8.2 10.4c.5.7 1.2.1 1-.6z" fill="#00993e"/><path d="M540.9 473.6c0-.1-1-3.4-2.1-6.8l1-1c.4-.4.4-1 0-1.4-.4-.4-1-.4-1.4 0l-.2.2c-.9-3-1.7-5.6-1.7-5.6l6.6-6.6c.8-.8 1.3-2.6.5-3.4-.8-.8-2.6-.3-3.4.5l-6.6 6.6s-2.6-.8-5.6-1.7l.2-.2c.4-.4.4-1 0-1.4-.4-.4-1-.4-1.4 0l-1 1c-3.4-1-6.6-2-6.8-2.1-.6-.2-1.2.5-.6 1 1.4 1.2 10.4 8.2 10.4 8.2l-6.3 6.3s-4-1.3-4.4-1.3c-.4-.1-.8 0-1 .2l-.5.5 4.8 3.2c-.3.3-.4 1.1-.1 1.5.4.4 1.2.2 1.5-.1l3.2 4.8.5-.5c.2-.2.3-.6.2-1-.1-.4-1.3-4.4-1.3-4.4l6.3-6.3s7 9.1 8.2 10.4c.5.7 1.2.1 1-.6z" fill="#910782"/><path d="M535.2 498v-.2c.2-.1.5-.2.8-.2.5-.1.8-.1.9-.2l.3-.3c.1-.2.1-.4.1-.7v-2.3-1.3-3.5-1.4-1.1-1c0-.1-.1-.2-.1-.2-.1 0-.3-.1-.7-.1-.3 0-.5 0-.7-.1 0-.1-.1-.1-.1-.2v-.2h1.3c.7 0 1.4 0 2.1-.1.4 0 .9-.1 1.7-.1v.4s-.1.1-.2.1c-.9.1-1.4.2-1.6.3s-.2.5-.2 1.1c0 1.1 0 2.2.1 3.4v.9s.5.1 1.3.1h2.9l2.6-.1h.6c0-1.2.1-2.3.1-3.4 0-1 0-1.7-.1-1.9 0-.1-.1-.2-.1-.2s-.4-.1-1-.2c-.1 0-.2 0-.3-.1 0-.1-.1-.2-.1-.4.2 0 .4-.1.4-.1h2.5c.4 0 1.1 0 2-.1 0 .1 0 .3-.1.4-.3.1-.6.2-.9.2-.2 0-.4.1-.6.1-.1.1-.2.3-.2.6v9.8c0 .5 0 .8.1 1 0 .1.1.2.2.2l.8.2c.4.1.6.2.7.2.1.1.1.1.1.2v.1h-.1-.1c-.7-.1-1.5-.2-2.3-.2H546c-.3 0-.8.1-1.7.2v-.2-.2c.2-.1.5-.2 1-.3.3 0 .6-.1.8-.3.1-.1.2-.3.2-.5v-1.4-.7-2.5c0-.1-.1-.1-.1-.2-.2-.1-1.1 0-2.7 0H539.3c-.2 0-.3 0-.3.1-.1.1-.1.2-.1.3v.7c0 .1 0 .7-.1 1.9v.6c0 .9 0 1.5.1 1.8 0 .1.1.2.2.3.1 0 .3.1.8.2.3.1.5.1.7.2l.1.1v.1h-.8c-.3 0-.8 0-1.3-.1h-.9c-.4 0-1.1 0-2.1.1-.1.4-.3.4-.4.4zM560.3 496.5c0 .1.1.1.1.2s-.1.3-.2.5c-.2.3-.4.6-.7.7-.2.1-.4.1-.7.1-.5 0-.8-.1-1.1-.4-.1-.2-.3-.5-.3-.9l-1.1.8c-.4.2-.7.4-.9.4-.3.1-.7.1-1.2.1-.3 0-.6-.1-.8-.3-.2-.2-.3-.5-.3-.8 0-.5.3-1 .9-1.7.6-.6 1.3-1.2 2.3-1.6.7-.3 1.1-.5 1.3-.6v-.7c0-.8-.1-1.4-.4-1.7-.2-.3-.6-.5-1-.5-.5 0-.9.2-1.3.5-.2.2-.4.7-.6 1.3 0 .2-.1.4-.2.6-.3.2-.5.3-.7.3-.1 0-.3 0-.4-.1-.1 0-.1-.1-.1-.2 0-.2.2-.6.6-1.2.4-.6.8-1.1 1.4-1.4.6-.3 1.1-.5 1.5-.5.6 0 1 .1 1.3.2.3.1.5.3.7.5.2.3.3.5.4.9V496.2c0 .2.1.4.2.5.1.1.3.2.5.2.3 0 .5-.1.7-.4l.1-.2c-.2.3-.1.2 0 .2zm-3-.3c0-.9.1-1.5.1-1.8v-.7c-.4.2-.9.4-1.4.7-.5.3-.9.7-1.2 1.1-.2.3-.3.6-.3.9 0 .3.1.5.3.7.2.2.4.3.7.3.2 0 .5-.1.8-.2.2-.3.6-.6 1-1zM562.5 497.5c.2 0 .4-.1.6-.1.4-.1.7-.1.8-.2s.1-.3.1-.6v-.4-3.6c0-.4-.1-.7-.2-.8-.2-.2-.5-.3-1-.4v-.4c.5-.1.9-.3 1.1-.5.4-.3.7-.7 1-1.2h.3V490.9c.1-.1.2-.1.3-.2.4-.3.8-.5 1.2-.7.4-.2.8-.3 1.1-.4.2-.1.4-.1.7-.1.5 0 1 .1 1.4.4.4.3.6.6.8 1 .1.4.2 1.2.2 2.4v2.7c0 .5 0 .8.1.9 0 .1.1.2.3.3.6.1 1 .2 1.1.3v.1c0 .1 0 .2-.1.3h-4.1l-.1-.2s0-.1.1-.2c.2-.1.4-.1.8-.2.2 0 .3 0 .4-.1.1 0 .2-.1.3-.2.1-.2.1-.3.1-.4v-.3V492.7c0-.9-.2-1.5-.5-1.8-.4-.3-.8-.5-1.4-.5-.5 0-.9.1-1.3.3-.4.2-.8.5-1.2.9v5.1c0 .1 0 .2.1.2.1.1.2.1.3.1.2 0 .3.1.6.1.2.1.4.1.4.1.1 0 .2.1.3.2v.2H562.5v-.1c0 .2 0 .1 0 0zM582.2 492.6h-5.7c-.1.2-.1.3-.1.4v.7c0 .4.1.9.4 1.5.3.6.6 1 1.1 1.4.5.3 1.1.5 1.8.5.4 0 .7-.1.9-.1.2-.1.5-.2 1-.5l.7-.6.1.4v.2c-.3.4-.7.7-1.1 1-.5.3-.9.5-1.4.6-.2.1-.6.1-1.1.1-.5 0-.9-.1-1.4-.3-.7-.3-1.2-.8-1.6-1.4-.4-.7-.6-1.4-.6-2.4 0-.3.1-.7.2-1.1.1-.5.3-1 .6-1.5.2-.4.4-.6.7-.9.4-.3.8-.5 1.1-.7.4-.2.9-.3 1.5-.3s1.1.1 1.5.3c.5.3.9.7 1.2 1.2.3.5.4.9.4 1.3v.2zm-5.6-.4h.5c.3 0 1.4-.1 3.1-.2.3 0 .4 0 .5-.1.1-.1.2-.2.2-.3 0-.2-.1-.4-.2-.7-.1-.3-.3-.5-.6-.6-.3-.1-.6-.2-1-.2-.8 0-1.4.3-1.9.9-.4.4-.6.8-.6 1.2zM591.8 490.6v-3.7c0-.6-.1-1-.2-1.2s-.5-.3-1.2-.5c0 0-.1 0-.2-.1v-.1-.2c.9-.1 1.7-.2 2.3-.5h.5v5.4l.1 4.4v2.3c0 .5 0 .7.1.8.1.1.4.2.9.2h.4v.4c-.2 0-.4.1-.6.1l-1.5.3c-.2 0-.4.1-.5.1v-1c-.1 0-.3.1-.5.2-1 .4-2 .7-2.9.7-.5 0-1.1-.2-1.6-.5-.6-.3-1-.8-1.3-1.4-.3-.6-.4-1.2-.4-1.9 0-.6.1-1.1.3-1.7.2-.5.4-1 .8-1.3.2-.2.5-.5.9-.7.4-.2.7-.4.9-.4.6-.2 1-.2 1.2-.2.9 0 1.6.1 2.2.4.1 0 .2.1.3.1zm0 6.2V494c0-1.2-.1-1.9-.2-2.2-.1-.3-.4-.6-.8-.9-.4-.3-.9-.4-1.5-.4-.8 0-1.4.3-2 .9-.5.6-.8 1.5-.8 2.6 0 1 .3 1.8.9 2.5.6.6 1.3.9 2.2.9.5 0 .9-.1 1.4-.2.4-.2.7-.3.8-.4zM604.6 496.5c0 .1.1.1.1.2s-.1.3-.2.5c-.2.3-.4.6-.7.7-.2.1-.4.1-.7.1-.5 0-.8-.1-1.1-.4-.1-.2-.3-.5-.3-.9l-1.1.8c-.4.2-.7.4-.9.4-.3.1-.7.1-1.2.1-.3 0-.6-.1-.8-.3-.2-.2-.3-.5-.3-.8 0-.5.3-1 .9-1.7.6-.6 1.3-1.2 2.3-1.6.7-.3 1.1-.5 1.3-.6v-.7c0-.8-.1-1.4-.4-1.7-.2-.3-.6-.5-1-.5-.5 0-.9.2-1.3.5-.2.2-.4.7-.6 1.3 0 .2-.1.4-.2.6-.3.2-.5.3-.7.3-.1 0-.3 0-.4-.1-.1 0-.1-.1-.1-.2 0-.2.2-.6.6-1.2.4-.6.8-1.1 1.4-1.4.6-.3 1.1-.5 1.5-.5.6 0 1 .1 1.3.2.3.1.5.3.7.5.2.3.3.5.4.9V496.2c0 .2.1.4.2.5.1.1.3.2.5.2.3 0 .5-.1.7-.4l.1-.2c-.2.3-.1.2 0 .2zm-3-.3c0-.9.1-1.5.1-1.8v-.7c-.4.2-.9.4-1.4.7-.5.3-.9.7-1.2 1.1-.2.3-.3.6-.3.9 0 .3.1.5.3.7.2.2.4.3.7.3.2 0 .5-.1.8-.2.2-.3.6-.6 1-1zM613.1 497.6c.1-.1.2-.1.3-.1h.4c.5 0 .8-.1.9-.1.2-.1.4-.4.6-.7.3-.7.7-1.6 1.2-2.9.2-.6.3-1 .4-1.1.2-.4.3-.8.5-1.3l.9-2.6c.1-.4.5-1.4 1.1-2.9.1-.4.3-.9.5-1.5h.7c.3.6.5 1.2.8 1.8.1.4.3.9.6 1.6l1.5 4.1.8 2.2c.4 1.3.7 2.1.8 2.3.1.3.3.5.4.6 0 0 .2.1.4.1.2.1.4.1.5.1.3.1.5.2.6.2v.4H621.9c-.1 0-.1 0-.2-.1 0-.1 0-.2.1-.3.1 0 .2-.1.2-.1l1.1-.1c.3 0 .5 0 .6-.1 0-.1.1-.2.1-.3 0-.1-.1-.4-.3-.9-.1-.3-.2-.7-.3-1-.1-.3-.4-1.3-1.1-3-.3 0-.5-.1-.7-.1H618.6c-.2 0-.5 0-.8.1-.1.2-.1.3-.2.4l-.9 2.8c-.4 1.1-.6 1.6-.6 1.7 0 .1 0 .2.1.3.1 0 .3.1.6.1l1.4.1c.1.1.1.1.1.2v.2h-.7c-.5 0-1.2 0-1.9-.1h-2.5v-.1c-.1.2-.1.1-.1.1zm4.8-6.1c.7 0 1.5.1 2.5.1.5 0 1 0 1.4-.1-.1-.3-.1-.5-.2-.7-.4-1.2-.7-1.8-.7-1.9l-.9-2.3-.1-.2c0 .1-.2.4-.4 1-.4 1-.7 1.9-.9 2.4-.1.3-.2.5-.3.8-.1.3-.2.4-.2.5s-.2.3-.2.4zM629.4 490.7v-.3c.4-.1.7-.2.7-.2.2-.1.5-.3.8-.5.3-.2.5-.5.7-.7H631.9V496.7c0 .2 0 .4.1.5.1.1.3.2.8.3.3.1.5.1.6.2V498c-.3 0-.6 0-1-.1-.6 0-.9-.1-1.1-.1-.1 0-.6 0-1.6.1-.2 0-.4 0-.6.1h-.2l-.1-.1c0-.1.1-.2.2-.2 0 0 .4-.1 1-.2.2 0 .4-.1.4-.2.1-.1.2-.4.2-.7v-4.2c0-.5 0-.7-.1-.9 0-.1-.1-.2-.3-.3 0-.2-.3-.3-.8-.5zm.8-5.2c0-.2.1-.4.3-.6.2-.2.4-.2.6-.2.2 0 .5.1.7.3.2.2.3.4.3.6 0 .2-.1.4-.3.6-.2.2-.4.3-.7.3-.2 0-.5-.1-.6-.2-.2-.3-.3-.5-.3-.8zM635.6 497.9v-.1s0-.1.1-.2l.6-.1.8-.1c.1 0 .1-.1.1-.1 0-.1.1-.3.1-.8v-3.9c0-.4-.1-.6-.2-.7-.1-.1-.3-.2-.7-.2-.2 0-.4-.1-.5-.1v-.3c.7-.3 1.2-.5 1.4-.7.3-.3.6-.7.9-1.2h.3c0 .3.1 1.1.1 2.2v.4c.3-.5.6-.9 1-1.3l.2-.2.3-.3c.5-.3.8-.4 1-.4.3 0 .5.1.7.3.2.2.3.4.3.7 0 .2-.1.4-.2.5-.2.2-.4.3-.6.3-.1 0-.3-.1-.6-.2s-.5-.2-.6-.2c-.2 0-.3 0-.4.1-.2.1-.4.5-.7.9-.2.3-.3.7-.3.9l.1 1.7v2c0 .2 0 .4.1.4l.2.2c.7.1 1.2.1 1.3.1h.2c.3 0 .5 0 .6.1.1 0 .1.1.1.2 0 0 0 .1-.1.2h-3.7l-1.9-.1zM643.9 503.1v-.2-.2l1-.2c.2-.1.3-.2.4-.3 0-.1.1-.2.1-.4 0-1 0-3-.1-5.9v-3.7c0-.6-.1-.9-.1-1.1 0-.1-.1-.1-.2-.2-.2-.1-.5-.2-1-.3l.1-.3c.7-.3 1.2-.5 1.5-.7.2-.2.5-.4.7-.7h.1s.1 0 .2.1V490.9c.5-.4 1-.7 1.5-.8.5-.2 1.1-.3 1.7-.3 1 0 1.9.4 2.6 1.1.7.7 1.1 1.7 1.1 2.8 0 .9-.2 1.6-.6 2.3-.4.7-.9 1.2-1.6 1.5-.7.3-1.4.5-2.1.5-.6 0-1.3-.2-2.1-.5-.1-.1-.2-.1-.3-.1v1.4c0 2.1.1 3.2.2 3.5.1.1.2.2.6.2.5 0 .9.1 1.1.2.1.1.2.2.2.4h-5zm2.6-11.5v.3c0 2.4 0 3.7.1 4 .1.5.3.9.6 1.1.4.3 1.1.5 1.9.5.8 0 1.5-.3 2.1-.9s.9-1.3.9-2.3c0-1.1-.3-2-.9-2.6-.6-.7-1.4-1-2.4-1-.4 0-.8.1-1.2.2-.4.2-.8.4-1.1.7zM656.6 493.8c0-.5.1-.9.3-1.5.2-.5.5-1 .9-1.4.4-.4.8-.7 1.2-.9.6-.3 1.4-.4 2.2-.4 1.3 0 2.3.4 3.1 1.3.8.9 1.3 1.9 1.3 3.1 0 1.1-.4 2-1.3 2.9-.9.8-2 1.3-3.3 1.3-.8 0-1.6-.2-2.4-.7-.5-.3-1-.8-1.4-1.5-.4-.6-.6-1.3-.6-2.2zm4.4 4c.5 0 1-.1 1.5-.4.5-.3.9-.7 1.1-1.3.3-.6.4-1.3.4-2.1 0-.5-.1-1.1-.3-1.8s-.6-1.2-1-1.6c-.5-.3-1-.5-1.6-.5-.4 0-.9.1-1.4.3-.5.2-.9.6-1.2 1.2-.3.6-.5 1.4-.5 2.5 0 1.2.3 2.1.8 2.8.7.5 1.4.9 2.2.9zM668.4 497.9v-.1s0-.1.1-.2l.6-.1.8-.1c.1 0 .1-.1.1-.1 0-.1.1-.3.1-.8v-3.9c0-.4-.1-.6-.2-.7-.1-.1-.3-.2-.7-.2-.2 0-.4-.1-.5-.1v-.3c.7-.3 1.2-.5 1.4-.7.3-.3.6-.7.9-1.2h.3c0 .3.1 1.1.1 2.2v.4c.3-.5.6-.9 1-1.3l.2-.2.3-.3c.5-.3.8-.4 1-.4.3 0 .5.1.7.3.2.2.3.4.3.7 0 .2-.1.4-.2.5-.2.2-.4.3-.6.3-.1 0-.3-.1-.6-.2s-.5-.2-.6-.2c-.2 0-.3 0-.4.1-.2.1-.4.5-.7.9-.2.3-.3.7-.3.9l.1 1.7v2c0 .2 0 .4.1.4l.2.2c.7.1 1.2.1 1.3.1h.2c.3 0 .5 0 .6.1.1 0 .1.1.1.2 0 0 0 .1-.1.2h-3.7l-1.9-.1zM679.4 488h.3v2.2h2.7v.3c0 .1 0 .2-.1.4h-.2l-1.6.1h-1c-.1.2-.1.4-.1.6v4.2c0 .7.1 1.2.3 1.4.2.2.4.4.8.4.2 0 .5-.1 1-.2.1 0 .3-.1.6-.3h.1c.1 0 .1 0 .1.1l.1.1v.1c-.3.3-.6.5-1 .7-.4.1-.9.2-1.5.2-.4 0-.8-.1-1.1-.3-.3-.2-.5-.4-.5-.7-.1-.3-.1-.9-.1-1.8v-3.8-.6h-1.1c-.1 0-.1 0-.2-.1l-.1-.1c0-.1 0-.1.1-.2s.2-.1.5-.2c.2-.1.4-.2.6-.4.2-.2.4-.4.6-.7.1-.1.2-.4.3-.8.3-.3.4-.5.5-.6z"/><circle class="st8" cx="179.1" cy="224.9" r="9.8"/><circle class="st8" cx="427" cy="96" r="9.8"/><circle class="st8" cx="675.3" cy="224.9" r="9.8"/><circle class="st8" cx="724.1" cy="337.2" r="9.8"/><circle class="st8" cx="641.7" cy="614.2" r="9.8"/><circle class="st8" cx="336" cy="396.1" r="9.8"/><circle class="st8" cx="289" cy="396.1" r="9.8"/><circle class="st8" cx="317.7" cy="431.6" r="9.8"/><circle class="st8" cx="298.7" cy="450.6" r="9.8"/><circle class="st8" cx="177.1" cy="573.1" r="9.8"/><circle class="st8" cx="212.4" cy="614.2" r="9.8"/><circle class="st8" cx="290.4" cy="614.2" r="9.8"/><circle class="st8" cx="375.9" cy="614.2" r="9.8"/><circle class="st8" cx="492.3" cy="464.9" r="9.8"/><circle class="st8" cx="553.9" cy="346" r="9.8"/><circle class="st8" cx="563.9" cy="417" r="9.8"/><circle class="st8" cx="427" cy="261.9" r="9.8"/><circle class="st8" cx="300.2" cy="346" r="9.8"/><path class="st11" d="M720.3 409.8h25.2V435h-25.2z"/><path d="M703.4 416v-.5c1 0 1.8 0 2.3-.1h.7c.3.2.5.5.8.8l.2.2 2.1 2.3.3.4c.4.5.8.9 1.2 1.3.4.4 1 1.1 2.1 2.2l2.4 2.7c.2.3.5.6.9 1v-.2c0-.9-.1-1.4-.1-1.5v-1.9c0-.3 0-1.1-.1-2.5 0-.2 0-.6-.1-1.1 0-.5-.1-1-.1-1.4 0-.7 0-1.2-.1-1.3-.1-.1-.3-.2-.9-.3-.1 0-.3 0-.6-.1-.3 0-.5 0-.5-.1-.1 0-.1-.1-.2-.2 0-.1 0-.2.1-.3.2-.1.4-.1.5-.1.2 0 .4 0 .7.1.3 0 .5.1.8.1.3 0 .8 0 1.4-.1h1v.3c-.1 0-.3.1-.4.1-.2 0-.4 0-.5.1-.2.1-.4.1-.4.2-.2.2-.2.4-.2.5l.1 3.2.1 1.5v.4l.1 2c0 1.4.1 2.6.1 3.6v1.4h-.5c-.2-.3-1-1.1-2.4-2.5-.3-.3-.5-.6-.7-.7l-.9-1c-.3-.4-.6-.6-.7-.7l-.2-.2c-.7-.8-1.7-1.9-2.8-3.1-.3-.3-.8-.9-1.4-1.6-.4-.4-.6-.7-.7-.8-.1-.1-.2-.2-.4-.3v.3c0 1.3 0 3.1.1 5.4l.1 3.3c0 .3 0 .6.1.8l.4.1c.6.1 1.3.1 1.9.3l.1.1v.4c-.1 0-.2.1-.3.1h-.3c-.7-.1-1.5-.1-2.4-.1h-2.2v-.3l.3-.1.5-.1c.4-.1.7-.1.9-.2.1 0 .2-.1.3-.2.1-.5.1-1.1.1-2V419c0-1.3-.1-2-.1-2.3 0-.1-.1-.2-.3-.3-.3-.2-.6-.3-1-.3-.8 0-1.1 0-1.2-.1zM728.8 427c0 .1.1.1.1.2s-.1.3-.2.5c-.2.3-.4.6-.7.7-.2.1-.4.1-.7.1-.5 0-.8-.1-1.1-.4-.1-.2-.3-.5-.3-.9l-1.1.8c-.4.2-.7.4-.9.4-.3.1-.7.1-1.2.1-.3 0-.6-.1-.8-.3-.2-.2-.3-.5-.3-.8 0-.5.3-1 .9-1.7.6-.6 1.3-1.2 2.3-1.6.7-.3 1.1-.5 1.3-.6v-.7c0-.8-.1-1.4-.4-1.7s-.6-.5-1-.5c-.5 0-.9.2-1.3.5-.2.2-.4.7-.6 1.3 0 .2-.1.4-.2.6-.3.2-.5.3-.7.3-.1 0-.3 0-.4-.1-.1 0-.1-.1-.1-.2 0-.2.2-.6.6-1.2.4-.6.8-1.1 1.4-1.4.6-.3 1.1-.5 1.5-.5.6 0 1 .1 1.3.2.3.1.5.3.7.5.2.3.3.5.4.9V426.7c0 .2.1.4.2.5.1.1.3.2.5.2.3 0 .5-.1.7-.4l.1-.2c-.2.2-.1.2 0 .2zm-3-.3c0-.9.1-1.5.1-1.8v-.7c-.4.2-.9.4-1.4.7-.5.3-.9.7-1.2 1.1-.2.3-.3.6-.3.9 0 .3.1.5.3.7.2.2.4.3.7.3.2 0 .5-.1.8-.2.2-.3.6-.6 1-1zM731 428.4v-.1s0-.1.1-.2l.6-.1.8-.1c.1 0 .1-.1.1-.1 0-.1.1-.3.1-.8v-3.9c0-.4-.1-.6-.2-.7-.1-.1-.3-.2-.7-.2-.2 0-.4-.1-.5-.1v-.3c.7-.3 1.2-.5 1.4-.7.3-.3.6-.7.9-1.2h.3c0 .3.1 1.1.1 2.2v.4c.3-.5.6-.9 1-1.3l.2-.2.3-.3c.5-.3.8-.4 1-.4.3 0 .5.1.7.3.2.2.3.4.3.7 0 .2-.1.4-.2.5-.2.2-.4.3-.6.3-.1 0-.3-.1-.6-.2s-.5-.2-.6-.2c-.2 0-.3 0-.4.1-.2.1-.4.5-.7.9-.2.3-.3.7-.3.9l.1 1.7v2c0 .2 0 .4.1.4l.2.2c.7.1 1.2.1 1.3.1h.2c.3 0 .5 0 .6.1.1 0 .1.1.1.2 0 0 0 .1-.1.2h-3.7l-1.9-.1zM739.7 421.2v-.3c.4-.1.7-.2.7-.2.2-.1.5-.3.8-.5.3-.2.5-.5.7-.7H742.2V427.2c0 .2 0 .4.1.5.1.1.3.2.8.3.3.1.5.1.6.2V428.5c-.3 0-.6 0-1-.1-.6 0-.9-.1-1.1-.1-.1 0-.6 0-1.6.1-.2 0-.4 0-.6.1h-.2l-.1-.1c0-.1.1-.2.2-.2 0 0 .4-.1 1-.2.2 0 .4-.1.4-.2.1-.1.2-.4.2-.7v-4.2c0-.5 0-.7-.1-.9 0-.1-.1-.2-.3-.3 0-.3-.3-.4-.8-.5zm.9-5.2c0-.2.1-.4.3-.6.2-.2.4-.2.6-.2.2 0 .5.1.7.3.2.2.3.4.3.6 0 .2-.1.4-.3.6-.2.2-.4.3-.7.3-.2 0-.5-.1-.6-.2-.2-.3-.3-.5-.3-.8zM748.4 418.4h.3v2.2h2.7v.3c0 .1 0 .2-.1.4h-.2l-1.6.1h-1c-.1.2-.1.4-.1.6v4.2c0 .7.1 1.2.3 1.4.2.2.4.4.8.4.2 0 .5-.1 1-.2.1 0 .3-.1.6-.3h.1c.1 0 .1 0 .1.1l.1.1v.1c-.3.3-.6.5-1 .7-.4.1-.9.2-1.5.2-.4 0-.8-.1-1.1-.3-.3-.2-.5-.4-.5-.7-.1-.3-.1-.9-.1-1.8V422v-.6h-1.1c-.1 0-.1 0-.2-.1l-.1-.1c0-.1 0-.1.1-.2s.2-.1.5-.2c.2-.1.4-.2.6-.4.2-.2.4-.4.6-.7.1-.1.2-.4.3-.8.3-.2.4-.4.5-.5zM761.3 427c0 .1.1.1.1.2s-.1.3-.2.5c-.2.3-.4.6-.7.7-.2.1-.4.1-.7.1-.5 0-.8-.1-1.1-.4-.1-.2-.3-.5-.3-.9l-1.1.8c-.4.2-.7.4-.9.4-.3.1-.7.1-1.2.1-.3 0-.6-.1-.8-.3-.2-.2-.3-.5-.3-.8 0-.5.3-1 .9-1.7.6-.6 1.3-1.2 2.3-1.6.7-.3 1.1-.5 1.3-.6v-.7c0-.8-.1-1.4-.4-1.7-.2-.3-.6-.5-1-.5-.5 0-.9.2-1.3.5-.2.2-.4.7-.6 1.3 0 .2-.1.4-.2.6-.3.2-.5.3-.7.3-.1 0-.3 0-.4-.1-.1 0-.1-.1-.1-.2 0-.2.2-.6.6-1.2.4-.6.8-1.1 1.4-1.4.6-.3 1.1-.5 1.5-.5.6 0 1 .1 1.3.2.3.1.5.3.7.5.2.3.3.5.4.9V426.7c0 .2.1.4.2.5.1.1.3.2.5.2.3 0 .5-.1.7-.4l.1-.2c-.2.2-.1.2 0 .2zm-2.9-.3c0-.9.1-1.5.1-1.8v-.7c-.4.2-.9.4-1.4.7-.5.3-.9.7-1.2 1.1-.2.3-.3.6-.3.9 0 .3.1.5.3.7.2.2.4.3.7.3.2 0 .5-.1.8-.2.1-.3.5-.6 1-1zM769.8 428c.1-.1.2-.1.3-.1h.4c.5 0 .8-.1.9-.1.2-.1.4-.4.6-.7.3-.7.7-1.6 1.2-2.9.2-.6.3-1 .4-1.1.2-.4.3-.8.5-1.3l.9-2.6c.1-.4.5-1.4 1.1-2.9.1-.4.3-.9.5-1.5h.7c.3.6.5 1.2.8 1.8.1.4.3.9.6 1.6l1.5 4.1.8 2.2c.4 1.3.7 2.1.8 2.3.1.3.3.5.4.6 0 0 .2.1.4.1.2.1.4.1.5.1.3.1.5.2.6.2v.4H778.6c-.1 0-.1 0-.2-.1 0-.1 0-.2.1-.3.1 0 .2-.1.2-.1l1.1-.1c.3 0 .5 0 .6-.1 0-.1.1-.2.1-.3 0-.1-.1-.4-.3-.9-.1-.3-.2-.7-.3-1-.1-.3-.4-1.3-1.1-3-.3 0-.5-.1-.7-.1H775.3c-.2 0-.5 0-.8.1-.1.2-.1.3-.2.4l-.9 2.8c-.4 1.1-.6 1.6-.6 1.7 0 .1 0 .2.1.3.1 0 .3.1.6.1l1.4.1c.1.1.1.1.1.2v.2h-.7c-.5 0-1.2 0-1.9-.1h-2.5v-.1c-.1.3-.1.2-.1.1zm4.8-6c.7 0 1.5.1 2.5.1.5 0 1 0 1.4-.1-.1-.3-.1-.5-.2-.7-.4-1.2-.7-1.8-.7-1.9l-.9-2.3-.1-.2c0 .1-.2.4-.4 1-.4 1-.7 1.9-.9 2.4-.1.3-.2.5-.3.8-.1.3-.2.4-.2.5s-.2.2-.2.4zM786.1 421.2v-.3c.4-.1.7-.2.7-.2.2-.1.5-.3.8-.5.3-.2.5-.5.7-.7H788.6V427.2c0 .2 0 .4.1.5.1.1.3.2.8.3.3.1.5.1.6.2V428.5c-.3 0-.6 0-1-.1-.6 0-.9-.1-1.1-.1-.1 0-.6 0-1.6.1-.2 0-.4 0-.6.1h-.2l-.1-.1c0-.1.1-.2.2-.2 0 0 .4-.1 1-.2.2 0 .4-.1.4-.2.1-.1.2-.4.2-.7v-4.2c0-.5 0-.7-.1-.9 0-.1-.1-.2-.3-.3 0-.3-.3-.4-.8-.5zm.9-5.2c0-.2.1-.4.3-.6.2-.2.4-.2.6-.2.2 0 .5.1.7.3.2.2.3.4.3.6 0 .2-.1.4-.3.6-.2.2-.4.3-.7.3-.2 0-.5-.1-.6-.2-.3-.3-.3-.5-.3-.8zM792.3 428.4v-.1s0-.1.1-.2l.6-.1.8-.1c.1 0 .1-.1.1-.1 0-.1.1-.3.1-.8v-3.9c0-.4-.1-.6-.2-.7-.1-.1-.3-.2-.7-.2-.2 0-.4-.1-.5-.1v-.3c.7-.3 1.2-.5 1.4-.7.3-.3.6-.7.9-1.2h.3c0 .3.1 1.1.1 2.2v.4c.3-.5.6-.9 1-1.3l.2-.2.3-.3c.5-.3.8-.4 1-.4.3 0 .5.1.7.3.2.2.3.4.3.7 0 .2-.1.4-.2.5-.2.2-.4.3-.6.3-.1 0-.3-.1-.6-.2s-.5-.2-.6-.2c-.2 0-.3 0-.4.1-.2.1-.4.5-.7.9-.2.3-.3.7-.3.9l.1 1.7v2c0 .2 0 .4.1.4l.2.2c.7.1 1.2.1 1.3.1h.2c.3 0 .5 0 .6.1.1 0 .1.1.1.2 0 0 0 .1-.1.2h-3.7l-1.9-.1zM800.6 433.6v-.2-.2l1-.2c.2-.1.3-.2.4-.3 0-.1.1-.2.1-.4 0-1 0-3-.1-5.9v-3.7c0-.6-.1-.9-.1-1.1 0-.1-.1-.1-.2-.2-.2-.1-.5-.2-1-.3l.1-.3c.7-.3 1.2-.5 1.5-.7.2-.2.5-.4.7-.7h.1s.1 0 .2.1V421.4c.5-.4 1-.7 1.5-.8.5-.2 1.1-.3 1.7-.3 1 0 1.9.4 2.6 1.1.7.7 1.1 1.7 1.1 2.8 0 .9-.2 1.6-.6 2.3-.4.7-.9 1.2-1.6 1.5-.7.3-1.4.5-2.1.5-.6 0-1.3-.2-2.1-.5-.1-.1-.2-.1-.3-.1v1.4c0 2.1.1 3.2.2 3.5.1.1.2.2.6.2.5 0 .9.1 1.1.2.1.1.2.2.2.4h-5zm2.7-11.5v.3c0 2.4 0 3.7.1 4 .1.5.3.9.6 1.1.4.3 1.1.5 1.9.5.8 0 1.5-.3 2.1-.9s.9-1.3.9-2.3c0-1.1-.3-2-.9-2.6-.6-.7-1.4-1-2.4-1-.4 0-.8.1-1.2.2-.5.2-.8.4-1.1.7zM813.3 424.3c0-.5.1-.9.3-1.5.2-.5.5-1 .9-1.4.4-.4.8-.7 1.2-.9.6-.3 1.4-.4 2.2-.4 1.3 0 2.3.4 3.1 1.3.8.9 1.3 1.9 1.3 3.1 0 1.1-.4 2-1.3 2.9-.9.8-2 1.3-3.3 1.3-.8 0-1.6-.2-2.4-.7-.5-.3-1-.8-1.4-1.5-.4-.6-.6-1.4-.6-2.2zm4.4 3.9c.5 0 1-.1 1.5-.4.5-.3.9-.7 1.1-1.3.3-.6.4-1.3.4-2.1 0-.5-.1-1.1-.3-1.8-.2-.7-.6-1.2-1-1.6-.5-.3-1-.5-1.6-.5-.4 0-.9.1-1.4.3-.5.2-.9.6-1.2 1.2-.3.6-.5 1.4-.5 2.5 0 1.2.3 2.1.8 2.8.7.6 1.4.9 2.2.9zM825.1 428.4v-.1s0-.1.1-.2l.6-.1.8-.1c.1 0 .1-.1.1-.1 0-.1.1-.3.1-.8v-3.9c0-.4-.1-.6-.2-.7-.1-.1-.3-.2-.7-.2-.2 0-.4-.1-.5-.1v-.3c.7-.3 1.2-.5 1.4-.7.3-.3.6-.7.9-1.2h.3c0 .3.1 1.1.1 2.2v.4c.3-.5.6-.9 1-1.3l.2-.2.3-.3c.5-.3.8-.4 1-.4.3 0 .5.1.7.3.2.2.3.4.3.7 0 .2-.1.4-.2.5-.2.2-.4.3-.6.3-.1 0-.3-.1-.6-.2s-.5-.2-.6-.2c-.2 0-.3 0-.4.1-.2.1-.4.5-.7.9-.2.3-.3.7-.3.9l.1 1.7v2c0 .2 0 .4.1.4l.2.2c.7.1 1.2.1 1.3.1h.2c.3 0 .5 0 .6.1.1 0 .1.1.1.2 0 0 0 .1-.1.2H827l-1.9-.1zM836.1 418.4h.3v2.2h2.7v.3c0 .1 0 .2-.1.4h-.2l-1.6.1h-1c-.1.2-.1.4-.1.6v4.2c0 .7.1 1.2.3 1.4.2.2.4.4.8.4.2 0 .5-.1 1-.2.1 0 .3-.1.6-.3h.1c.1 0 .1 0 .1.1l.1.1v.1c-.3.3-.6.5-1 .7-.4.1-.9.2-1.5.2-.4 0-.8-.1-1.1-.3-.3-.2-.5-.4-.5-.7-.1-.3-.1-.9-.1-1.8V422v-.6h-1.1c-.1 0-.1 0-.2-.1l-.1-.1c0-.1 0-.1.1-.2s.2-.1.5-.2c.2-.1.4-.2.6-.4.2-.2.4-.4.6-.7.1-.1.2-.4.3-.8.3-.2.4-.4.5-.5z"/><circle class="st8" cx="668.4" cy="582.9" r="9.8"/><circle class="st8" cx="721.2" cy="474.7" r="9.8"/><circle class="st8" cx="704.7" cy="276.8" r="9.8"/><path class="st12" d="M254.8 643.3v-28.8M333.2 558.5v55.7M770.7 385.5h-40.6"/><g><path d="M394.6 446.7l1.2.1c0 .1-.1.2-.3.2v4.5c0 2.7-.2 5.4-2 7.5-.2-.2-.5-.5-.8-.6 1.7-1.9 1.9-4.4 1.9-6.8v-4.9zm4.5.6l1.2.1c0 .1-.1.2-.3.2v10.1h-.9v-10.4zm5-.6l1.2.1c0 .1-.1.2-.3.2v11.9h-1v-12.2zM419.9 451.4v.8h-1.1v5.6c0 1.1-.6 1.1-2.8 1.1 0-.3-.2-.6-.3-.9h1.3c1 0 1 0 1-.3v-5.6h-6.4v4.5h-.7v-.9h-2.8v1.4h-.7v-8.9l1 .1c0 .1-.1.2-.3.2v6.5h1v-8.9l1 .1c0 .1-.1.2-.3.2v8.7h1v-6.8l.9.1c0 .1-.1.2-.2.2v2.8h8.4zM416 448c0 .2-.1.3-.1.5 1.2.6 2.7 1.5 3.5 2l-.6.7c-.7-.5-2.1-1.3-3.2-2-.5.9-1.5 1.5-3.2 1.9-.1-.2-.3-.5-.5-.7 2-.4 2.8-1.1 3.2-2.4h-3v-.8h3.2c.1-.4.1-.8.1-1.3l1.1.1c0 .1-.1.2-.3.2 0 .4-.1.7-.1 1h3.2v.8H416zm.4 8.7h-3v.8h-.8v-4.1h3.8v3.3zm-.8-2.6h-2.2v1.9h2.2v-1.9zM421.3 449.9c.9.3 2 1 2.6 1.4l-.5.8c-.6-.5-1.7-1.1-2.6-1.5l.5-.7zm-.2 8.2c.7-1.1 1.7-3 2.5-4.6l.7.6c-.7 1.5-1.6 3.3-2.3 4.4.1.1.1.1.1.2v.2l-1-.8zm.9-12c.9.4 2 1 2.5 1.5l-.5.8c-.5-.5-1.6-1.2-2.5-1.6l.5-.7zm11.7 8.2v.8h-4.1v2.6c0 1.1-.5 1.1-2.9 1.1 0-.3-.2-.6-.3-.9h1.2c.9 0 1 0 1-.3V455h-4.2v-.8h4.2V453h.6c.7-.3 1.4-.8 1.9-1.3h-5.8v-.7h6.8l.2-.1.7.5c0 .1-.1.1-.2.1-.8.7-2.1 1.6-3.3 2.2v.6h4.2zm-.7-7.6h-.2-.1c-1.8.5-5 .9-7.7 1.1 0-.2-.2-.6-.3-.8 2.6-.2 5.8-.6 7.4-1.2l.9.9zm-7 1.6c.5.7.9 1.6 1.1 2.2l-.9.3c-.2-.6-.6-1.6-1.1-2.3l.9-.2zm2.8-.5c.4.8.8 1.8.9 2.4l-.9.3c-.1-.7-.5-1.7-.8-2.5l.8-.2zm4.5.4c0 .1-.2.1-.3.1-.4.8-1.2 1.9-1.7 2.6-.2-.1-.5-.3-.7-.3.5-.7 1.3-2 1.6-2.8l1.1.4zM443.2 457.8h-6.8v.7h-.9v-3l1.1.1c0 .1-.1.2-.3.2v1.2h2.5v-1.8l1.2.1c0 .1-.1.2-.3.2v1.6h2.5v-1.6l1.2.1c0 .1-.1.2-.3.2v2zm4.3-4.5h-9.8v1.1H446.5l.5.1c0 .1 0 .2-.1.3-.2 2.5-.4 3.5-.8 3.8-.3.3-.6.3-1.4.3h-1.3c0-.3-.1-.6-.2-.8.7.1 1.4.1 1.7.1.3 0 .4 0 .5-.1.2-.2.4-1 .6-2.9h-9.3v-8h3.3c.2-.4.4-.9.5-1.2l1.2.3c0 .1-.1.1-.3.1-.1.2-.3.5-.4.8h4.4v4.4h-7.7v1h9.8v.7zm-3.1-5.5h-6.8v1.1h6.8v-1.1zm-6.7 3h6.8v-1.2h-6.8v1.2zM456.1 454.3c0 2.7-1.3 3.5-3 3.5-.5 0-1-.1-1.3-.2l.2-.9c.3.1.6.2 1.1.2 1.2 0 1.9-.5 1.9-2.6v-7.1h1.2v7.1zM465.3 457.4c-.5.2-1.4.5-2.6.5-2.7 0-4.9-1.8-4.9-5.4 0-3.4 2.1-5.6 5.2-5.6 1.3 0 2 .3 2.3.4l-.3 1c-.5-.2-1.2-.4-2-.4-2.4 0-4.1 1.6-4.1 4.5 0 2.8 1.5 4.4 4 4.4.8 0 1.6-.2 2.1-.4l.3 1zM473.2 448.1H470v9.6h-1.2v-9.6h-3.1v-1h7.4v1zM392.7 396.5h-5.9c-.1.4-.2.9-.4 1.4h4.5v8.7h-1v-.8h-7v.8h-.9v-8.7h3.4c.1-.4.2-.9.3-1.4H380v-.9h3.6c-.3-.5-.8-1.2-1.2-1.6l.8-.4c.5.5 1.1 1.3 1.4 1.8l-.5.3h3.7c.5-.6 1-1.4 1.4-2l1.2.4c-.1.1-.2.1-.3.1-.3.4-.7 1-1.1 1.5h3.6v.8zm-2.7 3.7v-1.5h-7v1.5h7zm-7 .8v1.6h7V401h-7zm0 3.9h7v-1.6h-7v1.6zM397.7 398h.7c.9-1.1 1.6-2.3 2.2-3.7l1.1.4c0 .1-.2.2-.3.1-.5 1.1-1.1 2.2-1.9 3.2h1.8v.8h-2.5c-.5.6-1 1.1-1.5 1.5h3.3v6h-.9v-.6h-3.3v.8h-.9v-4.8c-.4.3-.8.5-1.2.7-.1-.2-.4-.5-.5-.7.6-.3 1.2-.7 1.7-1v-.4h.5c.6-.5 1.2-1 1.7-1.5H394v-.8h2.9v-1.9h-2.2v-.8h2.2v-1.6l1.2.1c0 .1-.1.2-.3.2v1.4h1.8v.8h-1.8v1.8zm1.9 4.7v-1.5h-3.3v1.5h3.3zm-3.3 2.3h3.3v-1.5h-3.3v1.5zm5.5-10.6h4.4c.1 0 .1.1.6.3 0 .1-.1.1-.1.1-.5 1.2-1.2 2.7-2 4.2 1.5 1.4 2.1 2.5 2.1 3.5 0 2.2-1.5 2.2-2.4 2.2h-.6c0-.3-.1-.7-.3-.9h1.1c.6 0 1.4 0 1.4-1.3 0-.9-.7-1.9-2.1-3.3.7-1.4 1.3-2.7 1.7-3.9h-2.7v11.2h-.9v-12.1zM414.7 395h5.8v.8h-12.3v-.8h5.6v-1.4l1.2.1c0 .1-.1.2-.3.2v1.1zm5.1 5.5v4.9c0 .5-.1.8-.6 1-.4.2-1.2.2-2.4.2 0-.3-.2-.6-.3-.9h1.5c.8 0 .9 0 .9-.3v-4.1h-9.2v5.3h-.9v-6.1h11zm-9.3-3.9h7.6v2.9h-7.6v-2.9zm6.6 2.2v-1.5h-5.7v1.5h5.7zm-.1 6.4h-4.5v.7h-.8v-3.7h5.4v3zm-.9-2.2h-3.7v1.5h3.7V403zM424.8 399.2v4.6c1.1 1.7 3.1 1.7 5.6 1.7 1.5 0 3.3 0 4.4-.1-.1.2-.3.7-.3.9-1 0-2.5.1-3.9.1-2.9 0-4.8 0-6.2-1.7-.7.6-1.4 1.2-2 1.7 0 .1 0 .2-.1.2l-.5-1c.7-.4 1.5-1.1 2.2-1.7v-3.7h-2v-.9h2.8zm-2.1-5.2c.9.6 2 1.5 2.5 2.2l-.7.6c-.5-.7-1.5-1.6-2.5-2.3l.7-.5zm6.8 10.8v-3.6c-.9 1.3-2.2 2.5-3.5 3.1-.1-.2-.4-.5-.6-.7 1.3-.6 2.7-1.7 3.5-3h-2.6v-3.4h3.1V396h-3.8v-.8h3.8v-1.6l1.2.1c0 .1-.1.2-.3.2v1.4h4.1v.8h-4.1v1.2h3.2v3.4h-2.7c.9 1.2 2.4 2.3 3.6 2.9-.2.2-.5.5-.6.7-1.2-.7-2.6-1.9-3.5-3.1v3.6h-.8zm-2.3-6.8v1.9h2.2V398h-2.2zm5.5 0h-2.3v1.9h2.3V398zM438.7 399.2v4.6c1.1 1.7 3.1 1.7 5.6 1.7 1.5 0 3.3 0 4.4-.1-.1.2-.3.7-.3.9-1 0-2.5.1-3.9.1-2.9 0-4.8 0-6.2-1.7-.7.6-1.4 1.2-2 1.7 0 .1 0 .2-.1.2l-.5-1c.7-.4 1.5-1.1 2.2-1.7v-3.7h-2v-.9h2.8zm-2.1-5.2c.9.6 2 1.5 2.5 2.2l-.7.6c-.5-.7-1.5-1.6-2.5-2.3l.7-.5zm4 3.6h2.4c.1-.4.2-.9.3-1.3h-3.8v-.8h2.5c-.2-.5-.6-1.1-1-1.6l.7-.3c.5.5.9 1.2 1.1 1.7l-.5.3h2.9l-.4-.1c.3-.5.8-1.3 1-1.8l1.1.3c0 .1-.1.1-.3.1-.3.4-.7 1-1.1 1.5h2.8v.8h-4.2c-.1.4-.2.9-.4 1.3h3.3v6.9h-.9v-.6h-4.7v.5h-.9v-6.9zm5.7 1.9v-1.1h-4.7v1.1h4.7zm-4.7.7v1.2h4.7v-1.2h-4.7zm0 3.1h4.7v-1.2h-4.7v1.2zM461 395l.6.3c0 .1-.1.1-.1.2-.4 1.4-1.2 2.6-2 3.6.9.9 2 1.7 3.3 2.2-.2.2-.5.5-.6.8l-.6-.3v4.7h-.9v-.5H457v.6h-.9v-4.7c-.3.2-.6.3-.9.4-.1-.2-.4-.6-.6-.7l.4-.2h-1.9v2.7l2.3-.5.1.8c-1.9.5-4 1-5.3 1.3 0 .1-.1.2-.2.2l-.4-1 .8-.2v-4.9l1.1.1c0 .1-.1.2-.2.2v4.4l1.1-.3v-5.8h-1.9v-4.3h4.5v3.8c1.1-1 2.1-2.7 2.6-4.4l1.1.3c0 .1-.2.1-.3.1-.1.3-.3.7-.4 1h3v.1zm-9.9.1v2.6h2.8v-2.6h-2.8zm4 5.5v.8c1.1-.5 2.2-1.3 3.1-2.3-.6-.7-1.1-1.5-1.4-2.2-.4.7-.9 1.3-1.4 1.8-.1-.2-.4-.4-.6-.5v.3H453v2.1h2.1zm5.9.9c-.8-.5-1.5-1.1-2.2-1.8-.7.7-1.4 1.3-2.1 1.8h4.3zm-4.1 3.6h3.7v-2.8h-3.7v2.8zm.4-9c.4.8.9 1.6 1.5 2.3.6-.8 1.1-1.6 1.5-2.5h-2.9l-.1.2zM448.2 11.7h-3.8c1.3 1.4 3.4 2.6 5.2 3.3-.2.2-.5.6-.7.8-1.9-.7-4-2.2-5.4-3.7v4h-1v-3.9c-1.4 1.5-3.5 2.9-5.3 3.7-.2-.2-.4-.6-.7-.8 1.8-.6 3.8-1.9 5.1-3.3H438V6.6h4.4V5.3H437v-.9h5.6V3.1l1.2.1c0 .1-.1.2-.3.2v1.1h5.8v.9h-5.8v1.3h4.6v5zm-9-4.4v1.4h3.4V7.3h-3.4zm0 2.2V11h3.4V9.5h-3.4zm8.1-2.2h-3.7v1.4h3.7V7.3zm0 3.7V9.5h-3.7V11h3.7zM454.6 6.7V3.3l1.2.1c0 .1-.1.2-.3.2v12.3h-1v-3.2c-1.3.6-2.6 1.1-3.4 1.4 0 .1-.1.2-.2.2l-.5-1.1c1-.3 2.6-.9 4.1-1.6v-4H451v-.9h3.6zm4.4 7.2c0 .7.1.9.8.9h2.2c.7 0 .8-.6.9-3 .2.2.6.4.9.4-.1 2.6-.4 3.5-1.7 3.5h-2.3c-1.3 0-1.6-.4-1.6-1.8V3.3l1.3.1c0 .1-.1.2-.3.2v4.5c1.4-.8 2.8-1.8 3.6-2.6l.8.9s-.1.1-.2.1h-.1c-1 .8-2.6 1.8-4.1 2.7v4.7zM471.7 3.3c0 .1-.1.1-.3.2-.2.4-.4 1-.6 1.6h5.1v11h-1v-.7h-7.6v.6h-.9V5h3.5c.2-.6.5-1.4.6-2l1.2.3zm3.2 2.6h-7.6v2.2h7.6V5.9zm0 3.1h-7.6v2.2h7.6V9zm-7.6 5.3h7.6v-2.2h-7.6v2.2zM490.8 6.4h.5v.3c-.2 6.1-.3 8.1-.8 8.7-.4.5-.8.5-1.4.5H488c0-.3-.1-.7-.3-.9.7.1 1.3.1 1.6.1.2 0 .3 0 .4-.2.3-.4.5-2.3.7-7.6h-2.1c0 2.9-.3 6.3-3 8.8-.2-.2-.5-.4-.7-.6.3-.2.5-.5.7-.8-2.3.3-4.7.6-6.2.8 0 .1-.1.2-.2.2l-.3-1c.8-.1 1.9-.2 3.1-.3V13H479v-.7h2.7v-.9H479V7.2h2.6v-1h-3.1v-.7h3.1v-1c-.9.1-1.9.2-2.7.2 0-.2-.2-.5-.2-.7 2.1-.1 4.6-.4 6-.8l.7.7h-.1-.1c-.6.2-1.5.3-2.4.4 0 0-.1.1-.2.1v1h3.1v.7h-3.1v1h2.8v4.1h-2.8v.9h2.9v.9h-2.9v1.2c.9-.1 1.9-.2 2.9-.3v.6c1.8-2.2 2-5 2-7.3h-1.8v-.8h1.8V3.2l1.2.1c0 .1-.1.2-.3.2v3h2.4zm-11 1.5v1h1.8v-1h-1.8zm0 2.7h1.8v-1h-1.8v1zm4.6-2.7h-1.9v1h1.9v-1zm0 2.7v-1h-1.9v1.1h1.9zM505.2 13v.9h-5.9V16h-.9v-2.1h-5.8V13h5.8v-1.2h-4.3V6.3h4.3V5.2H493v-.9h5.4V3l1.2.1c0 .1-.1.2-.3.2v1h5.5v.9h-5.5v1.1h4.5v5.5h-4.5V13h5.9zM495 7.1v1.5h3.4V7.1H495zm0 3.9h3.4V9.4H495V11zm7.8-3.9h-3.5v1.5h3.5V7.1zm0 3.9V9.4h-3.5V11h3.5zM509.4 8.6v4.6c1.1 1.7 3.1 1.7 5.6 1.7 1.5 0 3.3 0 4.4-.1-.1.2-.3.7-.3.9-1 0-2.5.1-3.9.1-2.9 0-4.8 0-6.2-1.7-.7.6-1.4 1.2-2 1.7 0 .1 0 .2-.1.2l-.5-1c.7-.4 1.5-1.1 2.2-1.7V9.5h-2v-.9h2.8zm-2.1-5.2c.9.6 2 1.5 2.5 2.2l-.7.6c-.5-.7-1.5-1.6-2.5-2.3l.7-.5zm4 3.7h2.4c.1-.4.2-.9.3-1.3h-3.8V5h2.5c-.2-.5-.6-1.1-1-1.6l.7-.3c.5.5.9 1.2 1.1 1.7l-.6.2h2.9l-.4-.1c.3-.5.8-1.3 1-1.8l1.1.3c0 .1-.1.1-.3.1-.3.4-.7 1-1.1 1.5h2.8v.8h-4.2c-.1.4-.2.9-.4 1.3h3.3V14h-.9v-.5H512v.5h-.9V7.1zm5.6 1.9V7.8h-4.7V9h4.7zm-4.7.7v1.2h4.7V9.7h-4.7zm0 3h4.7v-1.2h-4.7v1.2zM788.4 122.5c-.1.1-.2.1-.3.1-.3.4-.8 1-1.1 1.5h2.5v2.9h-.9v-2h-9.9v2h-.9v-2.9h2.3c-.3-.5-.7-1.2-1.1-1.7l.8-.3c.5.5 1 1.3 1.3 1.8l-.5.3h2.6V122l1.2.1c0 .1-.1.2-.3.2v1.9h2.5l-.4-.2c.4-.5.9-1.3 1.2-1.9l1 .4zm.1 7.8v2.9c0 1-.5 1-2.8 1 0-.3-.2-.6-.3-.8h1.4c.7 0 .8 0 .8-.3v-2h-3.7v3.7h-.9v-3.7h-3.5v3.1h-.9v-4h4.4V129h-3.1v-3h7.4v3.1h-3.2s-.1 0-.2.1v1.1h4.6zm-7.7-3.5v1.6h5.6v-1.6h-5.6zM791.4 126.7c0 .1-.1.2-.2.2l-.3-.9 1.4-.1v-2.8h1.5c.2-.4.3-.9.4-1.3l1.1.2c0 .1-.1.1-.3.1-.1.3-.2.6-.4.9h2v2.5h.6v.7h-.5v2.4c0 .8-.4.9-1.6.9 0-.2-.2-.5-.3-.7h1c.1 0 .2-.1.2-.2v-2.3c-.9.1-1.9.2-2.7.2-.1 1.1-.4 2.3-1.6 3.1-.1-.2-.4-.4-.6-.5 1-.7 1.3-1.6 1.4-2.5l-1.1.1zm-.1 4.1v-.8h12.3v.7h-7.8c-.2.3-.5.6-.7.9h6.9v3.2h-1v-.4h-6v.5h-1v-2.4c-.8.6-1.6 1.1-2.4 1.4-.1-.2-.3-.5-.5-.7 1.3-.5 2.7-1.4 3.7-2.5h-3.5zm1.8-6.9v2c.8-.1 1.8-.1 2.7-.2v-1.8h-2.7zm1.2 1.7c-.1-.3-.3-.9-.5-1.2l.6-.2c.2.4.5.9.5 1.2l-.6.2zm-.3 1.3l.9.1c0 .1-.1.1-.2.2v1.7h-.7v-2zm6.9 6.8v-1.3h-6v1.3h6zm1.4-8l.5.2c0 .1-.1.1-.1.1-.4.9-1 1.5-1.7 2.1.8.4 1.8.7 2.8.8-.2.2-.4.5-.5.7-1.1-.2-2.2-.6-3-1.1-.9.5-1.9.8-2.9 1-.1-.2-.2-.5-.4-.7.9-.2 1.9-.4 2.6-.8-.5-.4-1-.9-1.3-1.5l.5-.2h-1.1v-.7h4.5l.1.1zm-3.1-2.6c0 .8 0 1.8-1.4 2.5-.1-.2-.4-.5-.6-.6 1-.5 1.2-1.1 1.2-1.6v-1h3.6v1.9c0 .3 0 .3.2.3h.6c.2 0 .3-.1.3-1.1.2.1.5.2.7.3-.1 1.2-.3 1.5-.9 1.5h-.9c-.7 0-.9-.2-.9-1v-1.2h-1.9zm-.2 3.4c.3.5.7.9 1.3 1.3.5-.3 1-.8 1.3-1.3H799zM812.1 122.2c0 .1-.1.1-.3.2-.2.4-.4 1-.6 1.6h5.1v11h-1v-.7h-7.6v.8h-.9v-11h3.5c.2-.6.5-1.4.6-2l1.2.1zm3.1 2.6h-7.6v2.2h7.6v-2.2zm0 3.1h-7.6v2.2h7.6v-2.2zm-7.6 5.3h7.6V131h-7.6v2.2zM831.1 125.3h.5v.3c-.2 6.1-.3 8.1-.8 8.7-.4.5-.8.5-1.4.5h-1.1c0-.3-.1-.7-.3-.9.7.1 1.3.1 1.6.1.2 0 .3 0 .4-.2.3-.4.5-2.3.7-7.6h-2.1c0 2.9-.3 6.3-3 8.8-.2-.2-.5-.4-.7-.6.3-.2.5-.5.7-.8-2.3.3-4.7.6-6.2.8 0 .1-.1.2-.2.2l-.3-1c.8-.1 1.9-.2 3.1-.3V132h-2.7v-.7h2.7v-.9h-2.6v-4.1h2.6v-1h-3.1v-.7h3.1v-1c-.9.1-1.9.2-2.7.2 0-.2-.2-.5-.2-.7 2.1-.1 4.6-.4 6-.8l.7.7h-.1-.1c-.6.2-1.5.3-2.4.4 0 0-.1.1-.2.1v1h3.1v.7H823v1h2.8v4.1H823v.9h2.9v.7H823v1.2c.9-.1 1.9-.2 2.9-.3v.6c1.8-2.2 2-5 2-7.3h-1.8v-.9h1.8V122l1.2.1c0 .1-.1.2-.3.2v3h2.3zm-11 1.5v1h1.8v-1h-1.8zm0 2.8h1.8v-1.1h-1.8v1.1zm4.6-2.8h-1.9v1h1.9v-1zm0 2.8v-1.1h-1.9v1.1h1.9zM845.6 131.9v.9h-5.9v2.1h-.9v-2.1H833v-.9h5.8v-1.2h-4.3v-5.5h4.3v-1.1h-5.4v-.9h5.4v-1.3l1.2.1c0 .1-.1.2-.3.2v1h5.5v.9h-5.5v1.1h4.5v5.5h-4.5v1.2h5.9zm-10.3-5.9v1.5h3.4V126h-3.4zm0 3.9h3.4v-1.6h-3.4v1.6zm7.9-3.9h-3.5v1.5h3.5V126zm0 3.9v-1.6h-3.5v1.6h3.5zM849.7 127.5v4.6c1.1 1.7 3.1 1.7 5.6 1.7 1.5 0 3.3 0 4.4-.1-.1.2-.3.7-.3.9-1 0-2.5.1-3.9.1-2.9 0-4.8 0-6.2-1.7-.7.6-1.4 1.2-2 1.7 0 .1 0 .2-.1.2l-.5-1c.7-.4 1.5-1.1 2.2-1.7v-3.7h-2v-.9h2.8zm-2.1-5.2c.9.6 2 1.5 2.5 2.2l-.7.6c-.5-.7-1.5-1.6-2.5-2.3l.7-.5zm4 3.7h2.4c.1-.4.2-.9.3-1.3h-3.8v-.8h2.5c-.2-.5-.6-1.1-1-1.6l.7-.3c.5.5.9 1.2 1.1 1.7l-.5.3h2.9l-.4-.1c.3-.5.8-1.3 1-1.8l1.1.3c0 .1-.1.1-.3.1-.3.4-.7 1-1.1 1.5h2.8v.8h-4.2c-.1.4-.2.9-.4 1.3h3.3v6.9h-.9v-.5h-4.7v.5h-.9v-7zm5.7 1.9v-1.1h-4.7v1.1h4.7zm-4.8.7v1.2h4.7v-1.2h-4.7zm0 3h4.7v-1.2h-4.7v1.2zM5.1 127.1H.9v7.8H0v-12.3h5.1v4.5zm-.9-3.8H.9v1.2h3.3v-1.2zm-3.3 3.1h3.3v-1.3H.9v1.3zm10.7-3.8v11.2c0 1.1-.5 1.2-2.3 1.2 0-.2-.2-.6-.3-.9 0 .1-.1.1-.1.2-1.4-.4-2.5-1.2-3.1-2.3-.4.9-1.3 1.7-3.3 2.4-.1-.2-.4-.5-.6-.6 2.1-.6 2.9-1.4 3.1-2.2H2v-.7h3.2v-1.2H2.3v-.7h1.6c-.1-.4-.4-.8-.7-1.2l.7-.2c.3.4.7 1 .8 1.4h1.9c.3-.4.6-1.1.8-1.5l1 .4c0 .1-.2.1-.3.1-.2.3-.4.7-.7 1h1.8v.7H6.1v1.2h3.4v.7H6.4c.6 1 1.6 1.8 3.1 2.1-.1.1-.3.3-.4.5h1c.6 0 .7 0 .7-.3v-6.6H6.4v-4.6h5.2zm-.9.7H7.3v1.2h3.4v-1.2zm-3.4 3.1h3.4v-1.3H7.3v1.3zM17.1 130.2v2.9c.9.4 2.1.5 3.6.5h5.6c-.2.2-.3.7-.4.9h-5.2c-3.2 0-4.9-.5-6-2.7-.2 1.1-.5 2.1-1.1 3-.1-.2-.4-.5-.6-.6 1-1.7 1.2-4.1 1.1-6l1.1.1c0 .1-.1.2-.3.2v1.6c.3 1.1.8 1.8 1.4 2.4v-5.2h-3v-.9H16v-1.9h-2.2v-.8H16v-1.8l1.1.1c0 .1-.1.2-.3.2v1.5H19v.8h-2.2v1.9h2.5v.9H17v2h2.1v.9h-2zm1.6 1.1c.3-.1.7-.3 1.1-.5v-6.3h2.6c0-.8-.1-1.7-.1-2.5l1.2.1c0 .1-.1.2-.3.2 0 .8 0 1.5.1 2.2h3v.8h-3c.1 1.5.3 2.9.5 4 .5-.9.9-2 1.2-3.1l1 .4c0 .1-.1.1-.3.1-.4 1.3-.9 2.5-1.6 3.6.3.9.7 1.4 1.1 1.4.3 0 .4-.6.5-2.1.2.2.5.4.7.5-.2 2-.4 2.5-1.3 2.5-.7 0-1.2-.6-1.6-1.5-.5.6-1 1.2-1.5 1.6-.1-.1-.4-.4-.6-.5.7-.5 1.3-1.2 1.8-2-.4-1.3-.7-3.1-.8-5h-1.8v5.1l1.8-.9.2.7c-1.2.6-2.5 1.3-3.3 1.7 0 .1-.1.2-.1.2l-.5-.7zm5.7-9.2c.5.5 1.2 1.2 1.4 1.7l-.7.4c-.3-.5-.9-1.2-1.4-1.8l.7-.3zM34.4 122.2c0 .1-.1.1-.3.2-.2.4-.4 1-.6 1.6h5.1v11h-1v-.7H30v.8h-1v-11h3.5c.3-.6.5-1.4.6-2l1.3.1zm3.1 2.6h-7.6v2.2h7.6v-2.2zm0 3.1h-7.6v2.2h7.6v-2.2zm-7.6 5.3h7.6V131h-7.6v2.2zM53.4 125.3h.5v.3c-.2 6.1-.3 8.1-.8 8.7-.4.5-.8.5-1.4.5h-1.1c0-.3-.1-.7-.3-.9.7.1 1.3.1 1.6.1.2 0 .3 0 .4-.2.3-.4.5-2.3.7-7.6h-2.1c0 2.9-.3 6.3-3 8.8-.2-.2-.5-.4-.7-.6.3-.2.5-.5.7-.8-2.3.3-4.7.6-6.2.8 0 .1-.1.2-.2.2l-.3-1c.8-.1 1.9-.2 3.1-.3V132h-2.7v-.7h2.7v-.9h-2.6v-4.1h2.6v-1h-3.1v-.7h3.1v-1c-.9.1-1.9.2-2.7.2 0-.2-.2-.5-.2-.7 2.1-.1 4.6-.4 6-.8l.7.7H48h-.1c-.6.2-1.5.3-2.4.4 0 0-.1.1-.2.1v1h3.1v.7h-3.1v1h2.8v4.1h-2.8v.9h2.9v.7h-2.9v1.2c.9-.1 1.9-.2 2.9-.3v.6c1.8-2.2 2-5 2-7.3h-1.8v-.9H50V122l1.2.1c0 .1-.1.2-.3.2v3h2.5zm-11 1.5v1h1.8v-1h-1.8zm0 2.8h1.8v-1.1h-1.8v1.1zm4.6-2.8h-1.9v1H47v-1zm0 2.8v-1.1h-1.9v1.1H47zM67.9 131.9v.9H62v2.1h-1v-2.1h-5.8v-.9H61v-1.2h-4.3v-5.5H61v-1.1h-5.4v-.9H61v-1.3l1.2.1c0 .1-.1.2-.3.2v1h5.5v.9h-5.5v1.1h4.5v5.5h-4.5v1.2h6zM57.6 126v1.5H61V126h-3.4zm0 3.9H61v-1.6h-3.4v1.6zm7.9-3.9H62v1.5h3.5V126zm0 3.9v-1.6H62v1.6h3.5zM72 127.5v4.6c1.1 1.7 3.1 1.7 5.6 1.7 1.5 0 3.3 0 4.4-.1-.1.2-.3.7-.3.9-1 0-2.5.1-3.9.1-2.9 0-4.8 0-6.2-1.7-.7.6-1.4 1.2-2 1.7 0 .1 0 .2-.1.2l-.5-1c.7-.4 1.5-1.1 2.2-1.7v-3.7h-2v-.9H72zm-2.1-5.2c.9.6 2 1.5 2.5 2.2l-.7.6c-.5-.7-1.5-1.6-2.5-2.3l.7-.5zm4 3.7h2.4c.1-.4.2-.9.3-1.3h-3.8v-.8h2.5c-.2-.5-.6-1.1-1-1.6l.7-.3c.5.5.9 1.2 1.1 1.7l-.5.3h2.9l-.4-.1c.3-.5.8-1.3 1-1.8l1.1.3c0 .1-.1.1-.3.1-.3.4-.7 1-1.1 1.5h2.8v.8h-4.2c-.1.4-.2.9-.4 1.3h3.3v6.9h-.9v-.5h-4.7v.5h-.9v-7zm5.7 1.9v-1.1h-4.7v1.1h4.7zm-4.8.7v1.2h4.7v-1.2h-4.7zm0 3h4.7v-1.2h-4.7v1.2zM15.2 379.3h5.2v6.6h-1v-.9h-4.2v4.6h-1V385H10v.9h-.9v-6.6h5.1v-2.5l1.3.1c0 .1-.1.2-.3.2v2.2zm-5.2 4.8h4.2v-3.9H10v3.9zm5.2 0h4.2v-3.9h-4.2v3.9zM35 384.3h-5.5c1 2.4 2.9 4 5.8 4.6-.2.2-.5.6-.6.9-3-.7-4.9-2.4-6-5.1-.6 2.1-2.2 3.9-5.9 5.1-.1-.2-.4-.6-.6-.8 3.6-1.1 5-2.8 5.6-4.7h-5.4v-.9H24v-4.6h4.2v-2l1.3.1c0 .1-.1.2-.3.2v1.7h4.4v4.6H35v.9zm-10.1-1H28c.1-.6.1-1.2.1-1.8v-1.9h-3.2v3.7zm7.7-3.6h-3.5v1.9c0 .6 0 1.2-.1 1.8h3.6v-3.7zM43.3 377c0 .1-.1.1-.3.2-.2.4-.4 1-.6 1.6h5.1v11h-1v-.7h-7.6v.8H38v-11h3.5c.3-.6.5-1.4.6-2l1.2.1zm3.2 2.6h-7.6v2.2h7.6v-2.2zm0 3.1h-7.6v2.2h7.6v-2.2zm-7.6 5.3h7.6v-2.2h-7.6v2.2zM62.4 380.1h.5v.3c-.2 6.1-.3 8.1-.8 8.7-.4.5-.8.5-1.4.5h-1.1c0-.3-.1-.7-.3-.9.7.1 1.3.1 1.6.1.2 0 .3 0 .4-.2.3-.4.5-2.3.7-7.6h-2.1c0 2.9-.3 6.3-3 8.8-.2-.2-.5-.4-.7-.6.3-.2.5-.5.7-.8-2.3.3-4.7.6-6.2.8 0 .1-.1.2-.2.2l-.3-1c.8-.1 1.9-.2 3.1-.3v-1.3h-2.7v-.8h2.7v-.9h-2.6V381h2.6v-1h-3.1v-.7h3.1v-1c-.9.1-1.9.2-2.7.2 0-.2-.2-.5-.2-.7 2.1-.1 4.6-.4 6-.8l.7.7H57h-.1c-.6.2-1.5.3-2.4.4 0 0-.1.1-.2.1v1h3.1v.7h-3.1v1h2.8v4.1h-2.8v.9h2.9v.7h-2.9v1.2c.9-.1 1.9-.2 2.9-.3v.6c1.8-2.2 2-5 2-7.3h-1.8v-.9H59v-3.2l1.2.1c0 .1-.1.2-.3.2v3h2.5zm-11 1.5v1h1.8v-1h-1.8zm0 2.8h1.8v-1.1h-1.8v1.1zm4.6-2.8h-1.9v1H56v-1zm0 2.8v-1.1h-1.9v1.1H56zM76.8 386.7v.9h-5.9v2.1H70v-2.1h-5.8v-.9H70v-1.2h-4.3V380H70v-1.1h-5.4v-.9H70v-1.3l1.2.1c0 .1-.1.2-.3.2v1h5.5v.9h-5.5v1.1h4.5v5.5h-4.5v1.2h5.9zm-10.2-5.8v1.5H70v-1.5h-3.4zm0 3.9H70v-1.6h-3.4v1.6zm7.8-3.9h-3.5v1.5h3.5v-1.5zm0 3.9v-1.6h-3.5v1.6h3.5zM81 382.3v4.6c1.1 1.7 3.1 1.7 5.6 1.7 1.5 0 3.3 0 4.4-.1-.1.2-.3.7-.3.9-1 0-2.5.1-3.9.1-2.9 0-4.8 0-6.2-1.7-.7.6-1.4 1.2-2 1.7 0 .1 0 .2-.1.2l-.5-1c.7-.4 1.5-1.1 2.2-1.7v-3.7h-2v-.9H81zm-2.1-5.2c.9.6 2 1.5 2.5 2.2l-.7.6c-.5-.7-1.5-1.6-2.5-2.3l.7-.5zm4 3.7h2.4c.1-.4.2-.9.3-1.3h-3.8v-.8h2.5c-.2-.5-.6-1.1-1-1.6l.7-.3c.5.5.9 1.2 1.1 1.7l-.5.3h2.9l-.4-.1c.3-.5.8-1.3 1-1.8l1.1.3c0 .1-.1.1-.3.1-.3.4-.7 1-1.1 1.5h2.8v.8h-4.2c-.1.4-.2.9-.4 1.3h3.3v6.9h-.9v-.5h-4.7v.5h-.9v-7zm5.6 1.9v-1.1h-4.7v1.1h4.7zm-4.7.7v1.2h4.7v-1.2h-4.7zm0 3.1h4.7v-1.2h-4.7v1.2z"/><g><path d="M86.9 565.4c.9.4 1.9 1 2.4 1.4l-.6.8c-.5-.5-1.5-1.1-2.4-1.5l.6-.7zm-.1 8.3c.6-1.1 1.6-3 2.2-4.6l.7.5c-.6 1.5-1.4 3.2-2 4.3.1.1.1.2.1.2v.1l-1-.5zm2.7-9.8c-.5-.5-1.5-1.2-2.4-1.6l.5-.7c.9.4 1.9 1 2.4 1.5l-.5.8zm9.9 5.3h-1.2c0 .9-.1 1.7-.1 2.3h1.3v.8H98c-.2 2-.7 2-2 2h-1.1c0-.2-.1-.6-.3-.8.8.1 1.4 0 1.8 0 .5 0 .6-.4.7-1.2h-5.3l-.1.7-.9-.1c.2-1 .3-2.3.5-3.7h-1.4v-.9h1.5c.1-1 .2-2.1.3-3h6.6v.3l-.1 2.6h1.2v1zm-.1-5.2h-7.1c-.5 1-1 2-1.6 2.7-.2-.2-.5-.4-.7-.6.9-1.1 1.8-2.9 2.3-4.8l1.1.3c0 .1-.1.2-.3.2-.1.4-.3.9-.5 1.3h6.8v.9zm-5.3 7.5c.1-.7.1-1.4.2-2.3h-2.1c-.1.8-.2 1.6-.3 2.3H94zm.3-3.1c.1-.7.1-1.4.1-2.1h-2c-.1.7-.1 1.4-.2 2.1h2.1zm.7.8c-.1.8-.1 1.6-.2 2.3h2.3c.1-.6.1-1.3.1-2.3H95zm.3-2.9c-.1.7-.1 1.4-.1 2.1h2.2c0-.6 0-1.3.1-2.1h-2.2zM113.2 567.1h-5.4c-.8.6-1.6 1.2-2.4 1.7v1.6c1.9-.5 4-1.2 5.2-1.9l.9.7c0 .1-.1.1-.3.1-1.4.7-3.7 1.4-5.8 1.9v1.3c0 .5.2.6 1.3.6h3.8c.9 0 1.1-.3 1.2-2 .2.2.6.3.9.4-.1 2-.5 2.5-2 2.5h-3.9c-1.7 0-2.2-.3-2.2-1.5v-3.2c-1.1.6-2.3 1.2-3.4 1.7-.1-.2-.4-.5-.6-.7 2.1-.8 4.1-1.9 5.9-3.2h-5.7v-.8h4.9v-2.1h-3.7v-.8h3.7v-2l1.2.1c0 .1-.1.2-.3.2v1.7h3.6v.6c.6-.7 1.2-1.3 1.7-2l1 .6c0 .1-.1.1-.2.1h-.1c-1 1.3-2.2 2.6-3.5 3.7h4.3l-.1.7zm-6.8-.9h1.1c.8-.6 1.6-1.3 2.3-2.1h-3.4v2.1zM126.2 568.2v6h-1v-.6h-6v.6h-.9v-4.6c-1.2.7-2.4 1.3-3.6 1.7-.1-.2-.4-.6-.5-.8 1.8-.5 3.7-1.5 5.3-2.8-.6-.6-1.5-1.4-2.3-2l.7-.6c.8.5 1.7 1.3 2.3 1.9 1.1-1 2-2.2 2.7-3.5h-4.4c-.9 1.1-2.1 2.1-3.6 3-.1-.2-.4-.6-.7-.7 2.3-1.3 3.9-3.1 4.7-4.7l1.3.2c0 .1-.1.2-.3.2-.2.3-.5.7-.7 1.1h4.3l.2-.1.7.4c0 .1-.1.1-.2.1-.8 2-2.2 3.8-3.9 5.2h5.9zm-6.9 4.6h6v-3.7h-6v3.7zM135.7 569.6c0 2.7-1.3 3.5-3 3.6-.5 0-1-.1-1.3-.2l.2-.9c.3.1.6.2 1.1.2 1.2 0 1.9-.6 1.9-2.7v-7.1h1.2l-.1 7.1zM144.9 572.6c-.5.2-1.4.5-2.6.5-2.7 0-4.9-1.7-5-5.3 0-3.4 2.1-5.6 5.2-5.6 1.3 0 2 .3 2.3.4l-.3 1c-.5-.2-1.2-.4-2-.4-2.4 0-4 1.6-4 4.6 0 2.8 1.5 4.4 4 4.4.8 0 1.6-.2 2.1-.4l.3.8zM152.7 563.2h-3.1l.1 9.6h-1.2l-.1-9.6h-3.1v-1h7.4v1z"/></g><g><path d="M281.9 587.6v8.8c0 .9-.4 1-1.9 1 0-.2-.2-.6-.3-.8h.7c.6 0 .6 0 .6-.2v-3h-1.9c-.1 1.4-.4 2.9-1 4-.1-.1-.5-.4-.7-.4.9-1.6 1-3.9 1-5.6v-3.8h3.5zm8.5 4h-1.7c.6.6 1.2 1.1 2 1.4-.2.2-.4.4-.5.7-.3-.1-.6-.3-.9-.5 0 .1-.1.1-.3.1-.3.4-.8.9-1.1 1.2 0 0-.5-.3-.6-.3.4-.4.9-1 1.1-1.5l.8.5c-.6-.4-1.1-.9-1.5-1.5h-2.8c-.3.4-.6.8-1 1.2.4.4.9 1 1 1.4l-.7.4c-.2-.4-.5-.9-.9-1.3-.3.2-.6.4-1 .6-.1-.2-.4-.5-.5-.6.8-.4 1.5-1 2-1.7h-1.7v-.7h2.2c.2-.4.4-.8.5-1.2h-2.3v-.7h1.1c-.1-.4-.4-1-.7-1.4l.7-.2c.3.4.6 1 .7 1.4l-.5.2h1.2c.2-.5.3-1.1.4-1.8h.3v-.9h-3.8v1h-.9v-1h-3.4v-.8h3.4v-1.2l1.2.1c0 .1-.1.2-.3.2v.9h3.8v-1.2l1.2.1c0 .1-.1.2-.3.2v.9h3.5v.8h-3.5v1h-.5.3c0 .1-.1.2-.3.2l-.3 1.5h1.7c-.1 0-.2-.1-.3-.1.3-.4.6-1.1.8-1.6l.9.4c0 .1-.1.1-.3.1-.2.3-.5.8-.7 1.2h1.7v.7h-2.4l.6 1.2h2.2l.4.6zm-11.1-.2v1.3h1.8v-1.8h-1.8v.5zm1.8-3h-1.8v1.7h1.8v-1.7zm1.2 7.7c.8-.3 1.9-.8 3.1-1.3l.2.7-2.7 1.3c0 .1-.1.2-.1.2l-.5-.9zm4.3-1l.5-.5c1 .5 2.4 1.2 3.1 1.7l-.5.6c-.7-.5-2-1.3-3.1-1.8v1.5c0 .7-.2.8-1.7.8 0-.2-.1-.5-.3-.7h1c.1 0 .2 0 .2-.2V592l1.1.1c0 .1-.1.2-.2.2l-.1 2.8zm-.7-5.3c-.2.4-.3.8-.5 1.2h1.9c-.2-.4-.4-.8-.5-1.2h-.9zM292 588.4c.9.3 2.1 1 2.6 1.4l-.5.8c-.6-.5-1.7-1.1-2.6-1.5l.5-.7zm-.1 8.2c.7-1.1 1.7-3 2.5-4.6l.7.6c-.7 1.5-1.6 3.3-2.2 4.4 0 .1.1.1.1.2v.2l-1.1-.8zm.8-12c.9.4 2 1 2.6 1.5l-.6.8c-.5-.5-1.6-1.2-2.6-1.6l.6-.7zm10.9 6.1h-3.2c.8 2.5 2.2 4.8 4.2 5.7-.2.2-.5.6-.7.8-2.1-1.2-3.6-3.6-4.4-6.6h-1.8c-.1 2.2-.6 4.8-2.3 6.6-.2-.2-.6-.4-.8-.6 2-2.2 2.2-5.3 2.2-7.6v-4.1h6.8v5.8zm-5.9-4.7v3.8h4.9V586h-4.9z"/></g><g><path d="M358.6 586.5c.5.6 1.1 1.2 1.9 1.8.7-.5 1.4-1.2 1.8-1.8l1 .5c-.1.1-.2.1-.3.1-.5.6-1.1 1.2-1.8 1.8 1.7 1 3.7 1.7 5.8 2.1-.2.2-.4.6-.6.8-2.1-.4-4.2-1.3-6-2.4-1.7 1.2-3.9 2-6.1 2.6-.1-.2-.4-.6-.5-.8 2.1-.5 4.2-1.3 5.9-2.4-.8-.6-1.4-1.2-1.9-1.9l.8-.4zm.5-1.5c0 .1-.2.1-.3.1-1 1.1-2.5 2.2-3.9 2.9l-.7-.7c1.3-.6 2.9-1.7 3.8-2.7l1.1.4zm3.2 11.3c.4-.6 1-1.5 1.2-2.2l1.1.3c0 .1-.1.1-.3.1-.3.5-.7 1.2-1.1 1.8h3.5v.8l-12.1.1v-.8h3.2c-.2-.6-.6-1.3-1.1-1.9l.8-.2c.5.6 1 1.4 1.1 2l-.5.2h2v-2.2h-4.8v-.8h4.8v-1.3h-3.2v-.8h7.4v.8H361v1.3h5v.8h-5v2.2l1.3-.2zm.2-11.8c1.4.7 3.2 1.9 4.1 2.7l-.8.6c-.9-.8-2.6-2-4.1-2.8l.8-.5zM374.5 585.1c0 .1-.1.1-.3.1-.6.3-1.4.6-2.3.8v2.7h2.8v.9h-2.8v1.1c.6.5 2.3 1.9 2.7 2.2l-.5.8c-.4-.5-1.4-1.4-2.1-2v5.8h-.9v-6.3c-.7 1.7-1.7 3.3-2.6 4.3-.1-.3-.4-.7-.5-.9 1.1-1.1 2.3-3.1 2.9-4.9h-2.7v-.9h3v-2.5l-2.7.6c-.1-.2-.2-.5-.3-.7 2-.4 4.4-1 5.6-1.7l.7.6zm1.3 1l1.2.1c0 .1-.1.2-.3.2v7.5h-.9v-7.8zm3.5-1.5l1.2.1c0 .1-.1.2-.3.2l.1 11.1c0 .7-.2 1-.6 1.1-.4.2-1.2.2-2.5.2-.1-.3-.2-.7-.4-.9h1.4c1.1 0 1.2 0 1.2-.4l-.1-11.4zM384.5 591.9c-.6.5-1.3.9-2 1.3-.1-.2-.4-.5-.6-.7 2.4-1.3 4.8-3.6 5.9-5.5l1.3.1c0 .1-.1.2-.3.2 1.4 2 3.9 4 6 5-.2.2-.5.5-.6.8-.6-.3-1.3-.7-1.9-1.2v5.4h-.9v-.6h-6v.6h-.9v-5.4zm2.6-6.8c0 .1-.2.1-.3.1-.9 1.3-2.4 2.6-3.7 3.5-.2-.2-.5-.5-.7-.6 1.3-.8 2.7-2.1 3.6-3.4l1.1.4zm5 6.5c-1.5-1.1-2.9-2.4-3.8-3.7-.8 1.2-2 2.6-3.5 3.7h7.3zm-6.7 4.3h6v-3.4h-6v3.4zm5-11.3c1.4 1 3.1 2.4 3.9 3.3l-.8.6c-.8-1-2.4-2.4-3.8-3.4l.7-.5z"/></g><g><path d="M326.8 447.2l.1 10.6c0 1.3-.6 1.3-3.2 1.3 0-.2-.2-.7-.3-.9h1.4c1.2 0 1.2 0 1.2-.4v-3h-4v4.2h-.9v-4.2h-3.7c-.2 1.6-.7 3.2-1.8 4.5-.1-.2-.5-.5-.7-.6 1.6-1.8 1.7-4.3 1.7-6.3v-5.1l10.2-.1zm-9.3 5.2v1.5h3.6v-2.4h-3.5l-.1.9zm3.5-4.3h-3.5v2.5h3.5v-2.5zm4.9 2.5v-2.5h-4v2.5h4zm-4 3.3h4v-2.4h-4v2.4zM335.4 447.2v.3c-.1 3-.3 3-1.8 3h-1c0-.2-.1-.5-.2-.8.6.1 1.3.1 1.4.1.2 0 .3 0 .4-.1.1-.1.2-.6.3-1.7h-2.2c-.3 1.5-1.1 2.7-2.9 3.4-.1-.2-.3-.5-.5-.7 1.5-.6 2.2-1.5 2.6-2.7h-2.2v-.8h2.4c0-.3.1-.7.1-1l1.1.1c0 .1-.1.2-.3.2l-.1.7h2.9zm-1.1 10.4c-.1.1-.2.1-.3.1-1.1.6-2.8 1.2-4.2 1.5-.2-.2-.5-.5-.6-.7 1.4-.3 3.1-.8 4.1-1.4l1 .5zm-3.4-.7v-5.7l9.2-.1v5.7l-9.2.1zm.9-5.1v1h7.3v-1h-7.3zm0 1.7v1h7.3v-1h-7.3zm0 1.7v1.1h7.3v-1.1h-7.3zm9.3-8.3v3.5h-4.8v-3.5h4.8zm-.4 12.2c-.9-.4-2.5-1-4.1-1.5l.7-.5c1.6.5 3.3 1 4.3 1.5l-.9.5zm-.5-9.4v-2h-3v2h3z"/></g><g><path d="M140.2 633.8l.6.1c0 .1-1.3 2.3-2.5 3.5l-.8-.4c.6-.6 1.3-1.5 1.8-2.4h-4.1v4.1c0 .5-.1.8-.6.9-.4.1-1.2.1-2.4.2-.1-.2-.2-.6-.4-.8h2c.2 0 .3-.1.3-.3v-4c-1.4 1.7-3.7 3.3-5.6 4.1-.1-.2-.4-.6-.6-.8 1.9-.7 4-2 5.3-3.5h-5.1v-.8h6.8c-1-.6-2.4-1.1-3.5-1.5l.6-.6c.8.2 1.7.6 2.6 1 .9-.4 1.8-.9 2.5-1.4h-7.7v-.8l8.8-.1.2-.1.8.5c0 .1-.1.1-.2.1-.8.7-2.2 1.5-3.4 2.1.5.2.9.5 1.2.7h3.2l.2.2zm-8.7-3.6v-1.1h-3.2v-.8h3.2v-1.2l1.2.1c0 .1-.1.2-.3.2v1h3.9v-1.2l1.2.1c0 .1-.1.2-.3.2v1h3.4v.8h-3.4v1.1h-.9v-1.1h-3.9v1.1l-.9-.2zM152.9 632.3v.8h-2.8c0 .1-.1.1-.2.1-.4 2.5-1.4 4.7-3.7 6.3-.2-.1-.5-.4-.7-.5 2.2-1.4 3.2-3.6 3.5-6h-3.1c-.5.8-1.1 1.6-1.7 2.2-.2-.1-.5-.3-.7-.4.7-.6 2.1-2.4 3-5.3l1.1.2c0 .1-.1.2-.3.2-.2.7-.7 1.7-1 2.3l6.6.1zM168.8 632.2v.8h-1.1v5.6c0 1.1-.6 1.1-2.8 1.1 0-.2-.2-.6-.3-.8h1.3c1 0 1 0 1-.3V633h-6.4v4.5h-.7v-.9H157v1.4h-.7l-.1-8.9 1 .1c0 .1-.1.2-.2.2v6.5h1l-.1-8.9 1 .1c0 .1-.1.2-.2.2v8.7h1v-6.8l.9.1c0 .1-.1.2-.2.2v2.8l8.4-.1zm-3.8-3.3c0 .2-.1.3-.1.5 1.2.6 2.7 1.5 3.5 2l-.6.7c-.7-.5-2.1-1.3-3.3-1.9-.5.9-1.5 1.5-3.2 1.9-.1-.2-.3-.5-.5-.7 2-.4 2.8-1.1 3.2-2.4h-3v-.8h3.2c.1-.4.1-.8.1-1.3l1.1.1c0 .1-.1.2-.3.2 0 .4-.1.7-.1 1h3.2v.8l-3.2-.1zm.4 8.6h-3v.8h-.8v-4.1h3.8v3.3zm-.8-2.6h-2.2v1.9h2.2v-1.9zM177.2 635.1c0 2.7-1.3 3.5-3 3.6-.5 0-1-.1-1.3-.2l.2-.9c.3.1.6.2 1.1.2 1.2 0 1.9-.6 1.9-2.7V628h1.2l-.1 7.1zM186.4 638.1c-.5.2-1.4.5-2.6.5-2.7 0-4.9-1.7-5-5.3 0-3.4 2.1-5.6 5.2-5.6 1.3 0 2 .3 2.3.4l-.3 1c-.5-.2-1.2-.4-2-.4-2.4 0-4 1.6-4 4.6 0 2.8 1.5 4.4 4 4.4.8 0 1.6-.2 2.1-.4l.3.8zM194.3 628.7h-3.1l.1 9.6h-1.2l-.1-9.6h-3.1v-1h7.4v1z"/></g><g><path d="M206.9 662c.5.4 2 1.5 2.3 1.8l-.6.7c-.3-.4-1.1-1.1-1.8-1.7v3.7h-.9v-3.8c-.7 1.1-1.5 2.1-2.3 2.8-.2-.2-.4-.5-.6-.7 1-.7 2.1-2 2.7-3.3h-2.5v-.8h2.7v-1.5H203v-.8h1.7c-.1-.6-.3-1.5-.6-2.1l.8-.2c.3.7.6 1.6.7 2.2l-.5.2h2.3c-.2-.1-.4-.1-.4-.1.3-.6.6-1.6.8-2.3l1.1.3c0 .1-.1.1-.3.1-.2.5-.5 1.4-.8 1.9h2v.8H207h-.1v1.4h2.8v.8h-2.8v.6zm2.6-6.8v.8h-6.2v-.8h2.6v-1.6l1.2.1c0 .1-.1.2-.3.2v1.3h2.7zm6.5 3.2v.9h-1.6v7.3h-.9v-7.3h-2.2v.5c0 2.1-.2 4.8-2.2 6.8-.1-.2-.4-.5-.7-.7 1.8-1.8 2-4.2 2-6.2v-4.8l.7.2c1.4-.4 3-1 3.9-1.5l.9.7s-.1.1-.3 0c-1 .5-2.7 1.1-4.3 1.5v2.5l4.7.1zM217.5 657.5c.8.3 1.9.9 2.4 1.3l-.5.8c-.5-.4-1.5-1-2.3-1.4l.4-.7zm-.2 8.4c.5-1.1 1.2-3 1.7-4.6l.8.5c-.4 1.5-1.1 3.2-1.5 4.3.1.1.1.1.1.2v.2l-1.1-.6zm.8-12.1c.8.4 1.8 1 2.2 1.5l-.6.7c-.5-.5-1.4-1.1-2.2-1.5l.6-.7zm4.9 3.8v1.5c.5.5 1.6 1.6 1.8 1.9l-.5.8c-.2-.4-.8-1.1-1.3-1.7v6.4h-.9v-6.6c-.5 1.7-1.1 3.3-1.7 4.2-.2-.2-.4-.5-.7-.7.9-1.2 1.8-3.6 2.3-5.8h-1.8v-.9h1.9v-3.1l1.1.1c0 .1-.1.2-.3.2v2.9h1.7v.9l-1.6-.1zm2.1-3.5h4.3l.1 12.2h-.9v-.8h-2.5v.9h-.9l-.1-12.3zm3.4.9H226v2.6h2.5V655zm0 6.1v-2.7H226v2.7h2.5zm-2.5 3.6h2.5V662H226v2.7zM243.7 655.9h-5.8v1.5h5.1v7.8c0 .6-.1.9-.6 1-.4.1-1.3.2-2.4.2-.1-.2-.2-.6-.4-.8h1.3c1 0 1.1 0 1.1-.3v-7l-9 .1v8.1h-.9l-.1-9h4.9V656h-5.7v-.9h5.7v-1.6l1.3.1c0 .1-.1.2-.3.2v1.3h5.8v.8zm-2.6 7.7h-3.2v2.7h-.9v-2.7h-3.1v-.8h3.1v-1.5h-2.9v-.8h1.5c-.1-.5-.5-1.2-.8-1.7l.8-.2c.4.5.7 1.2.8 1.6l-.7.2h3.1c-.2-.1-.4-.2-.6-.2.3-.5.6-1.2.8-1.7l1 .3c0 .1-.1.1-.3.1-.2.4-.6 1.1-.9 1.5h1.9v.8h-3.1v1.5h3.2l.3.9zM249.6 656c0 .1-.2.2-.4.2-.5 3.3-1.7 6.9-3.3 8.9-.3-.2-.6-.4-.9-.5 1.5-1.9 2.8-5.4 3.2-8.9l1.4.3zm7.1 9c-.7-2.4-2.3-6.4-3.8-8.9l.9-.4c1.5 2.5 3.1 6.4 3.9 9l-1 .3zm-2.1-11.2c.6.6 1.3 1.4 1.7 2.1l-.5.4c-.4-.6-1.1-1.5-1.7-2.1l.5-.4zm1.8-.7c.6.6 1.3 1.4 1.7 2l-.5.4c-.4-.6-1.1-1.5-1.7-2l.5-.4zM270.6 654.6c-.1.1-.1.1-.3.1h-.1c-1.1 1.1-2.6 2.4-3.9 3.4.1 0 .3.1.3.2s-.2.2-.3.2v7.5h-1v-7.2c-1.5 1.1-3.4 2.2-5.3 3.1-.1-.2-.4-.6-.6-.8 3.8-1.8 7.9-4.8 10.2-7.3l1 .8zM277.5 655.8c0 .1-.2.2-.4.2-.5 3.3-1.7 6.9-3.3 8.9-.3-.2-.6-.4-.9-.5 1.5-1.9 2.8-5.4 3.2-8.9l1.4.3zm7 9c-.7-2.4-2.3-6.4-3.8-9l.9-.4c1.5 2.5 3.1 6.4 3.9 9l-1 .4zm-.2-11.8c.9 0 1.6.7 1.6 1.6 0 .9-.7 1.6-1.6 1.6s-1.6-.7-1.6-1.6c0-.9.7-1.6 1.6-1.6zm1.1 1.6c0-.6-.5-1.1-1.1-1.1-.6 0-1.1.5-1.1 1.1 0 .6.5 1.1 1.1 1.1.6 0 1.1-.6 1.1-1.1zM296.9 655c0 .1-.1.1-.2.2-.7 1.8-1.6 3.3-2.8 4.8 1.5 1.2 3.8 3.3 5.1 4.7l-.8.7c-1.2-1.4-3.5-3.5-4.9-4.7-1.2 1.5-3.3 3.5-5.3 4.7-.2-.2-.5-.6-.7-.7 3.8-2.1 6.9-6.1 8.1-9.1h-6.8v-.9h7.4l.2-.1.7.4z"/></g><g><path d="M23.4 589.8h-3.8c1.3 1.4 3.4 2.6 5.2 3.2-.2.2-.5.6-.7.8-1.9-.7-4-2.2-5.4-3.7v4h-1v-3.9c-1.4 1.5-3.4 2.9-5.3 3.7-.2-.2-.4-.6-.7-.8 1.8-.7 3.8-1.9 5.1-3.3h-3.6v-5.1h4.4v-1.3H12v-.9h5.6v-1.4l1.2.1c0 .1-.1.2-.3.2v1.1h5.8v.9h-5.8v1.3h4.6l.3 5.1zm-9-4.4v1.4h3.4v-1.4h-3.4zm0 2.2v1.5h3.4v-1.5h-3.4zm8-2.2h-3.7v1.4h3.7v-1.4zm0 3.6v-1.5h-3.7v1.5h3.7zM37.7 588v6h-1v-.6h-6v.6h-.9v-4.6c-1.2.7-2.4 1.3-3.6 1.7-.1-.2-.4-.6-.5-.8 1.8-.5 3.7-1.5 5.3-2.8-.6-.6-1.5-1.4-2.3-2l.7-.6c.8.5 1.7 1.3 2.3 1.9 1.1-1 2-2.2 2.7-3.5H30c-.9 1.1-2.1 2.1-3.6 3-.1-.2-.4-.6-.7-.7 2.3-1.3 3.9-3.1 4.7-4.7l1.3.2c0 .1-.1.2-.3.2-.2.3-.5.7-.7 1.1H35l.2-.1.7.4c0 .1-.1.1-.2.1-.8 2-2.2 3.8-3.9 5.2h5.9zm-6.9 4.6h6v-3.7h-6v3.7zM46.6 582.3h5.8v.8l-12.4.1v-.8h5.6V581l1.2.1c0 .1-.1.2-.3.2l.1 1zm5.2 5.5v4.9c0 .5-.1.8-.6 1-.4.2-1.2.2-2.4.2 0-.3-.2-.6-.3-.9H50c.8 0 .9 0 .9-.3v-4.1l-9.2.1v5.3h-.9v-6.1l11-.1zm-9.4-3.8H50v2.9h-7.6V584zm6.6 2.2v-1.5h-5.7v1.5H49zm-.1 6.4h-4.5v.7h-.8v-3.7H49l-.1 3zm-.8-2.3h-3.7v1.5h3.7v-1.5zM56.7 586.5v4.6c1.1 1.7 3.1 1.6 5.6 1.6 1.5 0 3.3-.1 4.4-.1-.1.2-.3.7-.3.9-1 0-2.5.1-3.9.1-2.9 0-4.8 0-6.2-1.7-.7.6-1.4 1.2-2 1.7 0 .1 0 .2-.1.2l-.5-1c.7-.4 1.5-1.1 2.2-1.7v-3.7h-2v-.9h2.8zm-2.1-5.2c.9.6 2 1.5 2.5 2.2l-.7.6c-.5-.7-1.5-1.6-2.5-2.3l.7-.5zm6.8 10.8v-3.6c-.9 1.3-2.2 2.5-3.4 3.1-.1-.2-.4-.5-.6-.7 1.3-.6 2.7-1.8 3.5-3h-2.6v-3.4h3.1v-1.2h-3.8v-.8h3.8v-1.6l1.2.1c0 .1-.1.2-.3.2v1.4h4.1v.8h-4.1v1.2h3.2v3.4h-2.7c.9 1.2 2.4 2.3 3.6 2.9-.2.2-.5.5-.6.7-1.2-.6-2.6-1.9-3.5-3.1v3.6h-.9zm-2.3-6.8v1.9h2.2v-1.9h-2.2zm5.5 0h-2.3v1.9h2.3v-1.9zM70.6 586.4v4.6c1.1 1.7 3.1 1.6 5.6 1.6 1.5 0 3.3-.1 4.4-.1-.1.2-.3.7-.3.9-1 0-2.5.1-3.9.1-2.9 0-4.8 0-6.2-1.7-.7.6-1.4 1.2-2 1.7 0 .1 0 .2-.1.2l-.5-1c.7-.4 1.5-1.1 2.2-1.7v-3.7h-2v-.9h2.8zm-2.1-5.2c.9.6 2 1.5 2.5 2.2l-.7.6c-.5-.7-1.5-1.6-2.5-2.3l.7-.5zm4 3.7h2.4c.1-.4.2-.9.3-1.3h-3.8v-.8h2.5c-.2-.5-.6-1.1-1-1.6l.7-.3c.5.5.9 1.2 1.1 1.7l-.5.3h2.9l-.4-.1c.3-.5.8-1.3 1-1.8l1.1.3c0 .1-.1.1-.3.1-.3.4-.7 1-1.1 1.5h2.8v.8H76c-.1.4-.2.9-.4 1.3h3.3v6.9H78v-.5h-4.7v.5h-.9l.1-7zm5.7 1.8v-1.1h-4.7v1.1h4.7zm-4.7.7v1.2h4.7v-1.2h-4.7zm0 3.1h4.7v-1.2h-4.7v1.2zM92.9 582.1l.6.3c0 .1-.1.1-.1.2-.4 1.4-1.1 2.6-2 3.6.9.9 2 1.7 3.3 2.2-.2.2-.5.5-.6.8l-.6-.3v4.7h-.9v-.5h-3.7v.6H88V589c-.3.2-.6.3-.9.5-.1-.2-.4-.6-.6-.7l.4-.2H85v2.7l2.3-.5.1.8c-1.9.5-4 1-5.3 1.4 0 .1-.1.2-.2.2l-.4-1 .8-.2v-4.9l1.1.1c0 .1-.1.2-.2.2v4.4l1.1-.3v-5.8h-1.9v-4.3h4.5v3.8c1.1-1 2-2.7 2.6-4.5l1.1.3c0 .1-.2.1-.3.1-.1.3-.3.7-.4 1h3zm-9.9.1v2.6h2.8v-2.6H83zm4.1 5.5v.8c1.1-.5 2.2-1.3 3.1-2.3-.6-.7-1.1-1.5-1.4-2.2-.4.7-.9 1.3-1.4 1.8-.1-.2-.4-.4-.6-.5v.3H85v2.1h2.1zm5.9.9c-.8-.5-1.5-1.1-2.2-1.7-.7.7-1.4 1.3-2.1 1.8l4.3-.1zm-4.1 3.6h3.7v-2.8h-3.7v2.8zm.3-9c.4.8.9 1.6 1.5 2.3.6-.8 1.1-1.6 1.5-2.6h-2.9l-.1.3z"/></g><g><path d="M203.6 229.2c.3-.6.4-1.4.5-2.1l.7.2c-.1 1.1-.4 2.3-.9 3l-.7-.4c.1-.1.2-.3.3-.5h-4.1v.8h-.8V224c-.2.2-.5.4-.7.6-.1-.2-.3-.6-.4-.7 1.3-.9 2.1-2.2 2.6-3.7h-1.4v1.5h-.8v-2.3h2.4l.3-1.5 1.1.2c0 .1-.1.2-.3.2l-.3 1.2h2.6v2.3h-.7v-1.5h-2c-.3.8-.6 1.6-1.1 2.3h1.3c.2-.5.5-1.1.6-1.5l1 .3c0 .1-.1.1-.3.1-.1.3-.3.7-.5 1h1.6v.8h-1.9v1.3h1.8v.7h-1.8v1.3h1.8v.7h-1.8v1.4h1.9v.5zm-2.6-4.7v-1.3h-1.5v1.3h1.5zm0 2.1v-1.3h-1.5v1.3h1.5zm-1.6.7v1.4h1.5v-1.4h-1.5zm11.1-2.5h-5.3v.9h4.7l.4.1v.3c-.2 3-.3 4-.7 4.4-.3.3-.6.3-1.2.3h-1c0-.2-.1-.5-.2-.7.6.1 1.1.1 1.4.1s.3 0 .4-.1c.2-.3.4-1.1.5-3.5h-5.1v-7.3h1.8c.2-.4.3-.9.4-1.3l1.1.3c0 .1-.1.1-.3.1-.1.3-.2.6-.4.9h2.5v4.1h-4.4v.9h5.3v.5zm-1.7-5h-3.5v1h3.5v-1zm-3.6 2.7h3.5v-1h-3.5v1zm.3 7.3c0-.6-.1-1.6-.2-2.3l.6-.1c.2.7.3 1.7.3 2.3l-.7.1zm1.7-.5c-.1-.5-.3-1.4-.6-2l.6-.1c.3.6.5 1.4.6 2l-.6.1zm1-2.4c.3.5.7 1.1.9 1.5l-.5.3c-.2-.4-.5-1.1-.9-1.5l.5-.3zM222.5 223.3v.8h-2.8c0 .1-.1.1-.2.1-.4 2.5-1.4 4.7-3.7 6.3-.2-.1-.5-.4-.7-.5 2.2-1.4 3.2-3.6 3.6-5.9h-3.1c-.5.8-1.1 1.6-1.7 2.2-.2-.1-.5-.3-.7-.4.7-.6 2.1-2.3 3.1-5.3l1.1.3c0 .1-.1.2-.3.2-.2.7-.7 1.7-1 2.3h6.4zM233.9 229.7h-6.8v.7h-.9v-3l1.1.1c0 .1-.1.2-.3.2v1.2h2.5v-1.8l1.2.1c0 .1-.1.2-.3.2v1.6h2.5v-1.6l1.2.1c0 .1-.1.2-.3.2v2zm4.3-4.5h-9.8v1.1H237.2l.5.1c0 .1 0 .2-.1.3-.2 2.5-.4 3.5-.8 3.8-.3.3-.6.3-1.4.3h-1.3c0-.3-.1-.6-.2-.8.7.1 1.4.1 1.7.1.3 0 .4 0 .5-.1.2-.2.4-1 .6-2.9h-9.3v-8h3.3c.2-.4.4-.9.5-1.2l1.2.3c0 .1-.1.1-.3.1-.1.2-.3.5-.4.8h4.4v4.4h-7.7v1h9.8v.7zm-3.1-5.5h-6.8v1.1h6.8v-1.1zm-6.7 2.9h6.8v-1.2h-6.8v1.2zM246.8 226.2c0 2.7-1.3 3.5-3 3.5-.5 0-1-.1-1.3-.2l.2-.9c.3.1.6.2 1.1.2 1.2 0 1.9-.5 1.9-2.6V219h1.2v7.2zM256 229.2c-.5.2-1.4.5-2.6.5-2.7 0-4.9-1.8-4.9-5.4 0-3.4 2.1-5.6 5.2-5.6 1.3 0 2 .3 2.3.4l-.3 1c-.5-.2-1.2-.4-2-.4-2.4 0-4.1 1.6-4.1 4.5 0 2.8 1.5 4.4 4 4.4.8 0 1.6-.2 2.1-.4l.3 1zM263.9 219.9h-3.1v9.6h-1.2v-9.6h-3.1v-1h7.4v1z"/></g><g><path d="M45.5 287.4c.7.6 1.2 1.1 1.6 1.7.5-.6.9-1.2 1.2-1.8l1 .5c-.1.1-.2.1-.3.1-.4.6-.9 1.3-1.5 2 .8 1.6 1 3.3 1 5 0 2.1-.2 4-.7 4.8-.3.3-.6.6-2 .6h-.6c0-.3-.1-.7-.3-.9h1c.8 0 1 0 1.2-.3.4-.5.5-2.2.5-4.1v-.9c-.7 1.1-1.7 2.1-2.5 2.8-.2-.2-.4-.5-.6-.7 1.1-.7 2.4-2.1 3.1-3.4-.1-.7-.3-1.4-.6-2-.5.5-1.1 1.1-1.7 1.5-.1-.2-.4-.4-.6-.6.7-.5 1.4-1.1 2-1.7-.4-.6-.9-1.3-1.7-1.9l.5-.7zm12.1 7.5h-3.8c.6 1.7 1.8 3.6 4 4.5-.2.2-.5.6-.6.8-2.1-1-3.3-2.8-3.9-4.6-.6 1.7-1.7 3.3-4.3 4.5-.1-.2-.4-.5-.6-.7 2.7-1.2 3.8-2.9 4.2-4.6H49v-.9h3.7c.1-.7.1-1.4.1-2V290h-3.4v-.9h3.4v-2l1.2.1c0 .1-.1.2-.3.2v1.7h3.7v.9h-3.7v1.9c0 .6 0 1.3-.1 2h4v1zm-6.7-1.2c-.1-.8-.5-1.9-.9-2.7l.8-.2c.4.8.8 2 1 2.7l-.9.2zm6-2.6c0 .1-.1.1-.3.1-.3.8-.9 1.9-1.3 2.6l-.7-.3c.4-.8 1-2 1.3-2.8l1 .4zM69.7 290.6l1.2.1c0 .1-.1.2-.3.2v9.1h-1v-1.1h-9.2v1.2h-.9v-9.4l1.2.1c0 .1-.1.2-.3.2v7h4.1v-10.4l1.3.1c0 .1-.1.2-.3.2V298h4.2v-7.4zM74.6 288.2h9v11.7h-1v-.8h-7.1v.9h-1v-11.8zm8 .9h-7.1v4h7.1v-4zm-7.1 9h7.1V294h-7.1v4.1zM93.3 288.6h5.8v.8H86.8v-.8h5.6v-1.4l1.2.1c0 .1-.1.2-.3.2v1.1zm5.2 5.5v4.9c0 .5-.1.8-.6 1-.4.2-1.2.2-2.4.2 0-.3-.2-.6-.3-.9h1.5c.8 0 .9 0 .9-.3v-4.1h-9.2v5.3h-.9v-6.1h11zm-9.3-3.8h7.6v2.9h-7.6v-2.9zm6.6 2.2V291h-5.7v1.5h5.7zm-.2 6.4h-4.5v.7h-.8v-3.7h5.4v3zm-.8-2.3h-3.7v1.5h3.7v-1.5zM104.6 288.4h1.2V299h-1.2v-10.6zM115.1 298.7c-.5.2-1.4.5-2.6.5-2.7 0-4.9-1.8-4.9-5.4 0-3.4 2.1-5.6 5.2-5.6 1.3 0 2 .3 2.3.4l-.3 1c-.5-.2-1.2-.4-2-.4-2.4 0-4.1 1.6-4.1 4.5 0 2.8 1.5 4.4 4 4.4.8 0 1.6-.2 2.1-.4l.3 1z"/></g><g><path d="M235.2 340.8h-5.4c.9 3.3 2.7 5.9 5.7 7-.2.2-.5.6-.7.9-2.9-1.2-4.7-3.7-5.7-7-.6 2.8-2.2 5.5-5.8 7-.1-.3-.4-.6-.7-.8 3.7-1.5 5.1-4.3 5.6-7.1h-5.4v-1h5.5c.2-1.4.2-2.9.2-4.1l1.3.1c0 .1-.1.2-.3.2 0 1.1 0 2.4-.2 3.8h5.9v1zM241 343.2l.6.3c0 .1-.1.1-.1.1-.8 2.2-2.6 3.8-4.6 4.7-.1-.2-.3-.6-.5-.8 1.6-.6 3.1-1.8 3.9-3.4h-3.4v-.9h4.1zm2.3-.8c.4.8.8 1.5 1.4 2.2 1-.6 2.2-1.5 2.9-2.2l.9.7c-.1.1-.2.1-.3.1-.8.6-2 1.4-3 2 1.1 1.1 2.5 1.9 4.2 2.3-.2.2-.5.6-.6.8-2.4-.7-4.2-2.2-5.5-4.2v3.6c0 .6-.1.8-.6 1-.4.1-1.2.1-2.3.1l-.3-.9h1.4c.8 0 .9 0 .9-.3v-5.4h-4.2V337h3.6c.3-.4.5-.9.6-1.3l1.2.3c0 .1-.1.1-.3.1-.1.3-.3.6-.5.9h4.9v5.2h-4.2-.1v.2zm-4.2-4.6v1.4h7.6v-1.4h-7.6zm0 2.2v1.5h7.6V340h-7.6zM257.7 344.2c0 2.7-1.3 3.5-3 3.5-.5 0-1-.1-1.3-.2l.2-.9c.3.1.6.2 1.1.2 1.2 0 1.9-.5 1.9-2.6v-7.1h1.2v7.1zM267 347.2c-.5.2-1.4.5-2.6.5-2.7 0-4.9-1.8-4.9-5.4 0-3.4 2.1-5.6 5.2-5.6 1.3 0 2 .3 2.3.4l-.3 1c-.5-.2-1.2-.4-2-.4-2.4 0-4.1 1.6-4.1 4.5 0 2.8 1.5 4.4 4 4.4.8 0 1.6-.2 2.1-.4l.3 1zM274.9 337.9h-3.1v9.6h-1.2v-9.6h-3.1v-1h7.4v1z"/></g><g><path d="M36 416.5c0 .1-.1.2-.3.2-.5 3-1.4 6.7-3.7 8.8-.2-.2-.5-.5-.8-.7 2.2-2 3.1-5.5 3.5-8.6l1.3.3zm-1.7-2.8h5.8c.4 4.9 1.4 9.1 4 11.1-.3.2-.7.5-.9.7-2.5-2.1-3.5-6.2-4-10.9h-4.9v-.9zM52 424h5.9v.9H45.3v-.9H51v-4.5h-4.4v-.9H51v-4.1h-5v-.9h11.1v.9H52v4.1h4.7v.9H52v4.5zM71.9 418.9v.9H66v4.4c0 .7-.2.9-.7 1.1-.5.2-1.4.2-2.8.2-.1-.3-.2-.7-.4-1H64c.9 0 1 0 1-.4v-4.4h-5.9v-.9H65v-2.3h.5c1.1-.6 2.3-1.4 3.2-2.2h-8.2v-.9h9.2l.2-.1.8.6c0 .1-.2.1-.2.1-1.1 1.1-3 2.4-4.6 3.2v1.5h6zM80.4 420.9c0 2.7-1.3 3.5-3 3.5-.5 0-1-.1-1.3-.2l.2-.9c.3.1.6.2 1.1.2 1.2 0 1.9-.5 1.9-2.6v-7.1h1.2v7.1zM89.6 424c-.5.2-1.4.5-2.6.5-2.7 0-4.9-1.8-4.9-5.4 0-3.4 2.1-5.6 5.2-5.6 1.3 0 2 .3 2.3.4l-.3 1c-.5-.2-1.2-.4-2-.4-2.4 0-4.1 1.6-4.1 4.5 0 2.8 1.5 4.4 4 4.4.8 0 1.6-.2 2.1-.4l.3 1zM97.5 414.7h-3.1v9.6h-1.2v-9.6h-3.1v-1h7.4v1z"/></g><g><path d="M299.7 481.2h-3.8c1.3 1.4 3.4 2.6 5.2 3.3-.2.2-.5.6-.7.8-1.9-.7-4-2.2-5.4-3.7v4h-1v-3.9c-1.4 1.5-3.5 2.9-5.3 3.7-.2-.2-.4-.6-.7-.8 1.8-.6 3.8-1.9 5.1-3.3h-3.6v-5.1h4.4v-1.3h-5.6v-.9h5.6v-1.4l1.2.1c0 .1-.1.2-.3.2v1.1h5.8v.9h-5.8v1.3h4.6v5zm-9-4.4v1.4h3.4v-1.4h-3.4zm0 2.2v1.5h3.4V479h-3.4zm8.1-2.2h-3.7v1.4h3.7v-1.4zm0 3.6V479h-3.7v1.5h3.7zM314 479.5v6h-1v-.6h-6v.6h-.9v-4.6c-1.2.7-2.4 1.3-3.6 1.6-.1-.2-.3-.6-.5-.8 1.8-.5 3.7-1.5 5.3-2.8-.6-.6-1.5-1.4-2.3-2l.7-.6c.8.5 1.7 1.3 2.3 1.9 1.1-1 2.1-2.2 2.7-3.5h-4.4c-.9 1.1-2.1 2.1-3.6 3-.1-.2-.4-.6-.7-.7 2.3-1.3 3.9-3.1 4.7-4.6l1.3.2c0 .1-.1.2-.3.2-.2.3-.5.7-.7 1.1h4.3l.2-.1.7.4c0 .1-.1.1-.2.1-.8 2-2.3 3.8-3.9 5.1h5.9zm-6.9 4.6h6v-3.7h-6v3.7zM323.4 480.9c0 2.7-1.3 3.5-3 3.5-.5 0-1-.1-1.3-.2l.2-.9c.3.1.6.2 1.1.2 1.2 0 1.9-.5 1.9-2.6v-7.1h1.2v7.1zM332.7 484c-.5.2-1.4.5-2.6.5-2.7 0-4.9-1.8-4.9-5.4 0-3.4 2.1-5.6 5.2-5.6 1.3 0 2 .3 2.3.4l-.3 1c-.5-.2-1.2-.4-2-.4-2.4 0-4.1 1.6-4.1 4.5 0 2.8 1.5 4.4 4 4.4.8 0 1.6-.2 2.1-.4l.3 1zM340.6 474.7h-3.1v9.6h-1.2v-9.6h-3.1v-1h7.4v1zM294.2 488.6c-1.5 1.3-2.8 3.6-2.8 6.4 0 2.9 1.3 5.2 2.8 6.4v.1h-.8c-1.4-1.3-2.7-3.6-2.7-6.5s1.3-5.2 2.7-6.5l.8.1zM297 493.4c-.5.9-1.1 1.7-1.7 2.3-.1-.2-.3-.7-.5-.9 1.3-1.4 2.7-3.9 3.5-6.3l1.1.4c-.1.1-.2.1-.3.1-.4 1-.8 2-1.3 2.9l.4.1c0 .1-.1.2-.3.2v9.2h-.9v-8zm9.8-.3h.2c.3.2.5.2.6.3 0 .1-.1.1-.1.2-.5 2.1-1.3 3.8-2.4 5.1.9.9 2 1.7 3.3 2.1-.2.2-.5.6-.6.8-1.3-.5-2.4-1.3-3.3-2.2-1 1-2.1 1.8-3.3 2.3-.1-.2-.4-.6-.6-.8 1.2-.5 2.4-1.2 3.3-2.2-1-1.2-1.7-2.6-2.2-4.3l.8-.2c.5 1.4 1.1 2.7 2 3.8.9-1.1 1.5-2.4 2-3.9h-5.3c0 2.3-.3 5.5-1.8 7.6-.2-.2-.6-.5-.8-.6 1.5-2.1 1.6-5.1 1.6-7.3v-4.3h7.8v.9h-6.9v2.9h5.7zM312.5 494.5c.4.4 1.7 1.6 1.9 2l-.6.8c-.2-.4-.9-1.2-1.4-1.8v6.1h-.9V495c-.6 1.5-1.3 3-2 3.9-.1-.3-.3-.6-.5-.8.9-1 1.8-2.9 2.4-4.6h-2.2v-.9h2.4v-2.4c-.7.2-1.4.4-2.1.5-.1-.2-.2-.5-.3-.7 1.6-.4 3.5-.9 4.6-1.5l.8.7h-.3c-.5.2-1.1.4-1.8.7v2.7h1.8v.9h-1.8v1zm4.4.1c0 .1-.1.2-.3.2-.4 1.7-1.1 3.6-1.9 4.7-.2-.1-.5-.4-.7-.5.8-1.1 1.4-2.9 1.8-4.7l1.1.3zm5.1-2.4h-3.2v8.1c0 1-.4 1.2-2.3 1.2-.1-.3-.2-.7-.3-.9h.9c.8 0 .8 0 .8-.3v-8.1h-1.8c-.4 1-.8 1.9-1.3 2.5-.2-.2-.5-.4-.7-.5 1-1.2 1.7-3.5 2.1-5.7l1.1.2c0 .1-.1.2-.3.2-.1.8-.3 1.6-.6 2.4h5.6v.9zm-.8 7.2c-.2-1.3-.8-3.3-1.4-4.9l.8-.2c.6 1.5 1.3 3.5 1.5 4.9l-.9.2zM323 501.4c1.5-1.3 2.8-3.6 2.8-6.4 0-2.9-1.3-5.2-2.8-6.4v-.1h.8c1.4 1.3 2.7 3.6 2.7 6.5s-1.2 5.2-2.7 6.5l-.8-.1z"/></g><g><path d="M178.1 374.1h5.2v6.6h-1v-.8h-4.2v4.6h-1v-4.6h-4.2v.9h-.9v-6.6h5.1v-2.5l1.3.1c0 .1-.1.2-.3.2v2.1zm-5.2 4.8h4.2V375h-4.2v3.9zm5.2 0h4.2V375h-4.2v3.9zM197.9 379h-5.5c1 2.4 2.9 4 5.8 4.6-.2.2-.5.6-.6.9-3-.7-4.9-2.4-6-5.1-.6 2.1-2.2 3.9-5.9 5.1-.1-.2-.4-.6-.6-.8 3.6-1.1 5-2.8 5.6-4.7h-5.4v-.9h1.6v-4.6h4.2v-2l1.3.1c0 .1-.1.2-.3.2v1.7h4.4v4.6h1.5v.9zm-10.1-.9h3.1c.1-.6.1-1.2.1-1.8v-1.9h-3.2v3.7zm7.7-3.7H192v1.9c0 .6 0 1.2-.1 1.8h3.6v-3.7zM206.4 379.9c0 2.7-1.3 3.5-3 3.5-.5 0-1-.1-1.3-.2l.2-.9c.3.1.6.2 1.1.2 1.2 0 1.9-.5 1.9-2.6v-7.1h1.2v7.1zM215.7 383c-.5.2-1.4.5-2.6.5-2.7 0-4.9-1.8-4.9-5.4 0-3.4 2.1-5.6 5.2-5.6 1.3 0 2 .3 2.3.4l-.3 1c-.5-.2-1.2-.4-2-.4-2.4 0-4.1 1.6-4.1 4.5 0 2.8 1.5 4.4 4 4.4.8 0 1.6-.2 2.1-.4l.3 1zM223.6 373.7h-3.1v9.6h-1.2v-9.6h-3.1v-1h7.4v1zM230 371.6c-1.5 1.3-2.8 3.6-2.8 6.4 0 2.9 1.3 5.2 2.8 6.4v.1h-.8c-1.4-1.3-2.7-3.6-2.7-6.5s1.3-5.2 2.7-6.5l.8.1zM232.9 376.4c-.5.9-1.1 1.7-1.7 2.3-.1-.2-.3-.7-.5-.9 1.3-1.4 2.7-3.9 3.5-6.3l1.1.4c-.1.1-.2.1-.3.1-.4 1-.8 2-1.3 2.9l.4.1c0 .1-.1.2-.3.2v9.2h-.9v-8zm9.7-.3h.2c.3.2.5.2.6.3 0 .1-.1.1-.1.2-.5 2.1-1.3 3.8-2.4 5.1.9.9 2 1.7 3.3 2.1-.2.2-.5.6-.6.8-1.3-.5-2.4-1.3-3.3-2.2-1 1-2.1 1.8-3.3 2.3-.1-.2-.4-.6-.6-.8 1.2-.5 2.4-1.2 3.3-2.2-1-1.2-1.7-2.6-2.2-4.3l.8-.2c.5 1.4 1.1 2.7 2 3.8.9-1.1 1.5-2.4 2-3.9H237c0 2.3-.3 5.5-1.8 7.6-.2-.2-.6-.5-.8-.6 1.5-2.1 1.6-5.1 1.6-7.3v-4.3h7.8v.9h-6.9v2.9h5.7zM248.3 377.5c.4.4 1.7 1.6 1.9 2l-.6.8c-.2-.4-.9-1.2-1.4-1.8v6.1h-.9V378c-.6 1.5-1.3 3-2 3.9-.1-.3-.3-.6-.5-.8.9-1 1.8-2.9 2.4-4.6H245v-.9h2.4v-2.4c-.7.2-1.4.4-2.1.5-.1-.2-.2-.5-.3-.7 1.6-.4 3.5-.9 4.6-1.5l.8.7h-.3c-.5.2-1.1.4-1.8.7v2.7h1.8v.9h-1.8v1zm4.5.1c0 .1-.1.2-.3.2-.4 1.7-1.1 3.6-1.9 4.7-.2-.1-.5-.4-.7-.5.8-1.1 1.4-2.9 1.8-4.7l1.1.3zm5-2.4h-3.2v8.1c0 1-.4 1.2-2.3 1.2-.1-.3-.2-.7-.3-.9h.9c.8 0 .8 0 .8-.3v-8.1h-1.8c-.4 1-.8 1.9-1.3 2.5-.2-.2-.5-.4-.7-.5 1-1.2 1.7-3.5 2.1-5.7l1.1.2c0 .1-.1.2-.3.2-.1.8-.3 1.6-.6 2.4h5.6v.9zm-.7 7.2c-.2-1.3-.8-3.3-1.4-4.9l.8-.2c.6 1.5 1.3 3.5 1.5 4.9l-.9.2zM258.8 384.4c1.5-1.3 2.8-3.6 2.8-6.4 0-2.9-1.3-5.2-2.8-6.4v-.1h.8c1.4 1.3 2.7 3.6 2.7 6.5s-1.2 5.2-2.7 6.5l-.8-.1z"/></g><g><path d="M576.5 353.7h12.2v.9h-12.2v-.9zm.8-9.5H588v.9h-10.7v-.9zm.9 4.6h8.7v.9h-8.7v-.9zM593.3 350.2c.1-.5.2-1.1.3-1.6l1.1.2c0 .1-.1.1-.3.2-.5 3.1-1.6 5.5-3.8 6.7-.1-.2-.3-.5-.5-.7 1.4-.8 2.4-2.1 3-3.9-1 .2-2 .3-2.6.5 0 .1-.1.2-.2.2l-.3-1 .8-.1c.4-.6.9-1.4 1.4-2.2-.5-.7-1.3-1.5-2-2.1l.5-.7.5.4c.5-.9 1.1-2.2 1.4-3.2l1 .4c0 .1-.2.1-.3.1-.4.9-1 2.2-1.6 3.1.4.3.7.7.9 1 .3-.6.7-1.3.9-1.8l1 .4c0 .1-.1.1-.3.1-.6 1.2-1.6 2.9-2.5 4.2l1.6-.2zm2.2 3.3c.6-.2 1.3-.5 2-.7-.3-.7-.6-1.4-.9-2l.8-.3c.8 1.3 1.4 3 1.6 4.1l-.8.3c-.1-.4-.2-.9-.4-1.5-1.3.5-2.5 1-3.3 1.3 0 .1-.1.2-.2.2l-.4-1 .9-.3v-10.4h3.6v6h-2.7v4.3zm2-9.2h-1.9v1.8h1.9v-1.8zm-2 4.4h1.9v-1.8h-1.9v1.8zm7-5.3l.6.2c0 .1-.1.1-.1.1-.4 1.2-.9 2.8-1.5 4.3 1.1 1.5 1.6 2.5 1.6 3.5 0 2.3-1.2 2.2-2.5 2.2 0-.3-.1-.6-.3-.9h.8c.6 0 1.1 0 1.1-1.3 0-.9-.5-1.9-1.6-3.3.5-1.4.9-2.8 1.3-4H600v11.4h-.8v-12.3h3.2l.1.1zM611.4 351.2c0 2.7-1.3 3.5-3 3.5-.5 0-1-.1-1.3-.2l.2-.9c.3.1.6.2 1.1.2 1.2 0 1.9-.5 1.9-2.6v-7.1h1.2v7.1zM620.6 354.2c-.5.2-1.4.5-2.6.5-2.7 0-4.9-1.8-4.9-5.4 0-3.4 2.1-5.6 5.2-5.6 1.3 0 2 .3 2.3.4l-.3 1c-.5-.2-1.2-.4-2-.4-2.4 0-4.1 1.6-4.1 4.5 0 2.8 1.5 4.4 4 4.4.8 0 1.6-.2 2.1-.4l.3 1zM628.5 344.9h-3.1v9.6h-1.2v-9.6h-3.1v-1h7.4v1z"/></g><g><path d="M587 393.2h5.8v.8h-12.3v-.8h5.6v-1.4l1.2.1c0 .1-.1.2-.3.2v1.1zm5.2 5.4v4.9c0 .5-.1.8-.6 1s-1.2.2-2.4.2c0-.3-.2-.6-.3-.9h1.5c.8 0 .9 0 .9-.3v-4.1h-9.2v5.3h-.9v-6.1h11zm-9.3-3.8h7.6v2.9h-7.6v-2.9zm6.6 2.2v-1.5h-5.7v1.5h5.7zm-.2 6.4h-4.5v.7h-.8v-3.7h5.4v3zm-.8-2.3h-3.7v1.5h3.7v-1.5zM596.7 399.3c-.6.5-1.3.9-2 1.3-.1-.2-.4-.5-.6-.7 2.4-1.3 4.8-3.5 5.9-5.5l1.3.1c0 .1-.1.2-.3.2 1.4 2 3.9 4 6 5-.2.2-.5.5-.6.8-.6-.3-1.3-.8-1.9-1.2v5.4h-.9v-.6h-6v.6h-.9v-5.4zm2.6-6.7c0 .1-.2.1-.3.1-.9 1.3-2.4 2.6-3.7 3.5-.2-.2-.5-.5-.7-.6 1.3-.8 2.7-2.1 3.6-3.4l1.1.4zm5 6.5c-1.5-1.1-2.9-2.4-3.7-3.7-.8 1.2-2 2.5-3.5 3.7h7.2zm-6.7 4.2h6v-3.4h-6v3.4zm5-11.2c1.4 1 3.1 2.4 3.9 3.3l-.8.6c-.8-1-2.4-2.4-3.8-3.4l.7-.5zM615.4 400.2c0 2.7-1.3 3.5-3 3.5-.5 0-1-.1-1.3-.2l.2-.9c.3.1.6.2 1.1.2 1.2 0 1.9-.5 1.9-2.6v-7.1h1.2v7.1zM624.6 403.2c-.5.2-1.4.5-2.6.5-2.7 0-4.9-1.8-4.9-5.4 0-3.4 2.1-5.6 5.2-5.6 1.3 0 2 .3 2.3.4l-.3 1c-.5-.2-1.2-.4-2-.4-2.4 0-4.1 1.6-4.1 4.5 0 2.8 1.5 4.4 4 4.4.8 0 1.6-.2 2.1-.4l.3 1zM632.5 393.9h-3.1v9.6h-1.2v-9.6h-3.1v-1h7.4v1z"/></g><g><path d="M586.7 436.3h-3.8c1.3 1.4 3.4 2.6 5.2 3.3-.2.2-.5.6-.7.8-1.9-.7-4-2.2-5.4-3.7v4h-1v-3.9c-1.4 1.5-3.5 2.9-5.3 3.7-.2-.2-.4-.6-.7-.8 1.8-.6 3.8-1.9 5.1-3.3h-3.6v-5.1h4.4V430h-5.6v-1h5.6v-1.4l1.2.1c0 .1-.1.2-.3.2v1.1h5.8v.9h-5.8v1.3h4.6v5.1zm-9-4.4v1.4h3.4v-1.4h-3.4zm0 2.2v1.5h3.4v-1.5h-3.4zm8.1-2.2h-3.7v1.4h3.7v-1.4zm0 3.6V434h-3.7v1.5h3.7zM594.9 432.8h-4.2v7.8h-.9v-12.3h5.1v4.5zm-.9-3.9h-3.3v1.2h3.3v-1.2zm-3.3 3.2h3.3v-1.3h-3.3v1.3zm10.7-3.9v11.2c0 1.1-.5 1.2-2.3 1.2 0-.2-.2-.6-.3-.9 0 .1-.1.1-.1.2-1.4-.4-2.5-1.2-3.1-2.3-.4.9-1.3 1.7-3.3 2.4-.1-.2-.4-.5-.6-.6 2.1-.6 2.9-1.4 3.1-2.2h-3v-.7h3.2v-1.2h-2.9v-.7h1.6c-.1-.4-.4-.8-.7-1.2l.7-.2c.3.4.7 1 .8 1.4h1.9c.3-.4.6-1.1.8-1.5l1 .4c0 .1-.2.1-.3.1-.2.3-.4.7-.7 1h1.8v.7h-3.1v1.2h3.4v.7h-3.1c.6 1 1.6 1.8 3.1 2.1-.1.1-.3.3-.4.5h1c.6 0 .7 0 .7-.3v-6.6h-4.3v-4.6h5.1zm-.9.7h-3.4v1.2h3.4v-1.2zm-3.4 3.2h3.4v-1.3h-3.4v1.3zM614.6 436.3h-3.8c1.3 1.4 3.4 2.6 5.2 3.3-.2.2-.5.6-.7.8-1.9-.7-4-2.2-5.4-3.7v4h-1v-3.9c-1.4 1.5-3.5 2.9-5.3 3.7-.2-.2-.4-.6-.7-.8 1.8-.6 3.8-1.9 5.1-3.3h-3.6v-5.1h4.4V430h-5.6v-1h5.6v-1.4l1.2.1c0 .1-.1.2-.3.2v1.1h5.8v.9H610v1.3h4.6v5.1zm-9-4.4v1.4h3.4v-1.4h-3.4zm0 2.2v1.5h3.4v-1.5h-3.4zm8-2.2H610v1.4h3.7v-1.4zm0 3.6V434H610v1.5h3.6zM624.2 427.8c0 .1-.1.1-.3.2-.2.4-.4 1-.6 1.6h5.1v11h-1v-.7h-7.6v.8h-.9v-11h3.5c.2-.6.5-1.4.6-2l1.2.1zm3.1 2.7h-7.6v2.2h7.6v-2.2zm0 3.1h-7.6v2.2h7.6v-2.2zm-7.5 5.3h7.6v-2.2h-7.6v2.2zM643.2 430.9h.5v.3c-.2 6.1-.3 8.1-.8 8.7-.4.5-.8.5-1.4.5h-1.1c0-.3-.1-.7-.3-.9.7.1 1.3.1 1.6.1.2 0 .3 0 .4-.2.3-.4.5-2.3.7-7.6h-2.1c0 2.9-.3 6.3-3 8.8-.2-.2-.5-.4-.7-.6.3-.2.5-.5.7-.8-2.3.3-4.7.6-6.2.8 0 .1-.1.2-.2.2l-.3-1c.8-.1 1.9-.2 3.1-.3v-1.3h-2.7v-.7h2.7v-.9h-2.6v-4.1h2.6v-1H631v-.9h3.1v-1c-.9.1-1.9.2-2.7.2 0-.2-.2-.5-.2-.7 2.1-.1 4.6-.4 6-.8l.7.7h-.1-.1c-.6.2-1.5.3-2.4.4 0 0-.1.1-.2.1v1h3.1v.7h-3.1v1h2.8v4.1h-2.8v.9h2.9v.7h-2.9v1.2c.9-.1 1.9-.2 2.9-.3v.6c1.8-2.2 2-5 2-7.3h-2v-.9h1.8v-3.2l1.2.1c0 .1-.1.2-.3.2v3h2.5zm-11 1.6v1h1.8v-1h-1.8zm0 2.7h1.8v-1.1h-1.8v1.1zm4.6-2.7h-1.9v1h1.9v-1zm0 2.7v-1.1h-1.9v1.1h1.9zM657.7 437.6v.9h-5.9v2.1h-.9v-2.1H645v-.9h5.8v-1.2h-4.3v-5.5h4.3v-1.1h-5.4v-.9h5.4v-1.3l1.2.1c0 .1-.1.2-.3.2v1h5.5v.9h-5.5v1.1h4.5v5.5h-4.5v1.2h6zm-10.3-5.9v1.5h3.4v-1.5h-3.4zm0 3.9h3.4V434h-3.4v1.6zm7.9-3.9h-3.5v1.5h3.5v-1.5zm0 3.9V434h-3.5v1.6h3.5zM661.8 433.2v4.6c1.1 1.7 3.1 1.7 5.6 1.7 1.5 0 3.3 0 4.4-.1-.1.2-.3.7-.3.9-1 0-2.5.1-3.9.1-2.9 0-4.8 0-6.2-1.7-.7.6-1.4 1.2-2 1.7 0 .1 0 .2-.1.2l-.5-1c.7-.4 1.5-1.1 2.2-1.7v-3.7h-2v-.9h2.8zm-2-5.2c.9.6 2 1.5 2.5 2.2l-.7.6c-.5-.7-1.5-1.6-2.5-2.3l.7-.5zm4 3.6h2.4c.1-.4.2-.9.3-1.3h-3.8v-.8h2.5c-.2-.5-.6-1.1-1-1.6l.7-.3c.5.5.9 1.2 1.1 1.7l-.5.3h2.9l-.4-.1c.3-.5.8-1.3 1-1.8l1.1.3c0 .1-.1.1-.3.1-.3.4-.7 1-1.1 1.5h2.8v.8h-4.2c-.1.4-.2.9-.4 1.3h3.3v6.9h-.9v-.6h-4.7v.5h-.9v-6.9zm5.6 1.9v-1.1h-4.7v1.1h4.7zm-4.7.7v1.2h4.7v-1.2h-4.7zm0 3.1h4.7v-1.2h-4.7v1.2z"/></g><g><path d="M449.5 247.7h-5.4c.9 1.7 2.8 2.5 5.6 2.8-.2.2-.5.6-.6.9-3-.4-5-1.5-5.9-3.7h-.2c-.7 1.8-2.2 3-5.9 3.6-.1-.3-.3-.6-.5-.8 3.2-.5 4.7-1.4 5.4-2.8h-5.2v-.8h5.5c.1-.4.2-.9.3-1.4h-5.7v-.9h5.8v-1.3h-4.4v-.8h4.4v-1.2h-5.1v-.9h3c-.2-.5-.7-1.2-1.1-1.7l.8-.3c.5.5 1.1 1.3 1.3 1.8l-.5.2h4.1c-.1-.1-.3-.1-.4-.2.4-.5 1-1.3 1.3-1.9l1.1.4c0 .1-.1.1-.3.1-.3.4-.8 1-1.2 1.5h3.3v.9h-5.2v1.2h4.5v.8h-4.5v1.3h5.8v.9H444c0 .1-.1.1-.3.2-.1.4-.1.8-.2 1.2h6.2v.9zM463.4 242.8h-2.2c-.5 2.2-1.2 4-2.4 5.3 1.7.8 3.2 1.7 4.3 2.5l-.7.9c-1-.8-2.6-1.7-4.3-2.6-1.5 1.3-3.7 2.1-6.7 2.6-.1-.3-.3-.7-.5-.9 2.8-.4 4.8-1.1 6.2-2.2-1.1-.5-2.3-1-3.4-1.4l-.3.7-.9-.3c.6-1.2 1.3-2.8 2-4.5h-3.6v-.9h4c.5-1.2 1-2.4 1.3-3.4l1.2.2c0 .1-.1.2-.3.2-.3.9-.8 2-1.2 3h7.7v.8zm-8.1 0c-.5 1.2-1 2.3-1.4 3.3 1.2.4 2.6 1 3.9 1.6 1.2-1.2 1.9-2.8 2.3-4.9h-4.8zM477.1 242.9h-5.2c1.3 2.4 3.5 4.9 5.7 6.1-.2.2-.6.6-.7.8-2-1.2-4-3.5-5.4-5.9v7.5h-1v-7.5c-1.4 2.5-3.4 4.7-5.4 5.9-.2-.2-.5-.6-.7-.8 2.2-1.2 4.4-3.7 5.6-6.2h-5.2v-.8h5.6v-3.5l1.3.1c0 .1-.1.2-.3.2v3.2h5.6v.9zM485.8 246.8c0 2.7-1.3 3.5-3 3.5-.5 0-1-.1-1.3-.2l.2-.9c.3.1.6.2 1.1.2 1.2 0 1.9-.5 1.9-2.6v-7.1h1.2v7.1zM495 249.9c-.5.2-1.4.5-2.6.5-2.7 0-4.9-1.8-4.9-5.4 0-3.4 2.1-5.6 5.2-5.6 1.3 0 2 .3 2.3.4l-.3 1c-.5-.2-1.2-.4-2-.4-2.4 0-4.1 1.6-4.1 4.5 0 2.8 1.5 4.4 4 4.4.8 0 1.6-.2 2.1-.4l.3 1zM502.9 240.6h-3.1v9.6h-1.2v-9.6h-3.1v-1h7.4v1z"/></g><g><path d="M694.3 221.7c.3-.1.8-.2 1.4-.4 2.5-.8 4.7-1.3 6.2-1.3 2.3 0 4.3 1.2 4.3 4.1 0 3.5-3.4 4.8-8.1 5.3 0-.2-.2-.7-.4-.9 4.3-.4 7.4-1.6 7.4-4.3 0-2.2-1.5-3.1-3.3-3.1-2 0-5.6 1.2-6.8 1.7 0 .1-.1.3-.3.3l-.4-1.4zM716.6 230.6c-1.4-1.6-3.6-3.7-5.5-5.2-.7-.6-.9-.9-.9-1.4 0-.4.2-.8.7-1.3 1.3-1.2 3.6-3.4 5-4.8l1.2.8s-.1.1-.3.1h-.2c-1.4 1.3-3.6 3.2-4.7 4.3-.3.3-.6.6-.6.8 0 .2.3.5.7.9 1.8 1.4 3.8 3.2 5.5 5.1l-.9.7zM723.1 230c-.4-1-.6-3.1-.6-4.9 0-1.9.3-4.2.8-6.5l1.4.3c0 .1-.2.2-.4.3-.5 1.9-.8 4.4-.8 6 0 1.1 0 2.1.1 2.6.3-.8.9-2.2 1.2-2.8l.6.6c-.5.9-1.4 3.1-1.4 3.7 0 .2 0 .4.1.7h-1zm3.2-8.1h3.5c-.1-1.2-.1-2.3-.1-3.4h1.4c0 .1-.1.3-.4.3 0 .9 0 1.9.1 3 1.1-.1 2-.3 2.7-.6l.1 1c-.7.2-1.6.4-2.8.5l.2 4c1 .4 2.1 1.1 2.8 1.8l-.5.9c-.6-.6-1.4-1.2-2.3-1.6 0 1.1-.2 2.5-2.3 2.5-1.6 0-2.7-.8-2.7-2 0-1.4 1.4-2 2.7-2 .4 0 .9.1 1.3.2-.1-.9-.1-2.2-.2-3.6-.4 0-1 .1-1.4.1h-2.1v-1.1zm3.8 5.3c-.4-.1-.9-.3-1.4-.3-.8 0-1.9.3-1.9 1.2 0 .8.8 1.2 1.9 1.2s1.4-.5 1.4-1.6v-.5zm2.8-6.3c-.3-.6-.9-1.4-1.5-2l.5-.4c.7.6 1.3 1.4 1.6 2.1l-.6.3zm1.6-1c-.3-.7-.9-1.4-1.5-2l.5-.4c.7.7 1.2 1.3 1.6 2l-.6.4zM743 226.2c0 2.7-1.3 3.5-3 3.5-.5 0-1-.1-1.3-.2l.2-.9c.3.1.6.2 1.1.2 1.2 0 1.9-.5 1.9-2.6V219h1.2v7.2zM752.3 229.2c-.5.2-1.4.5-2.6.5-2.7 0-4.9-1.8-4.9-5.4 0-3.4 2.1-5.6 5.2-5.6 1.3 0 2 .3 2.3.4l-.3 1c-.5-.2-1.2-.4-2-.4-2.4 0-4.1 1.6-4.1 4.5 0 2.8 1.5 4.4 4 4.4.8 0 1.6-.2 2.1-.4l.3 1zM760.2 219.9H757v9.6h-1.2v-9.6h-3.1v-1h7.4v1z"/></g><g><path d="M722.5 271.3v.9c.4.4 1.6 1.7 1.9 2l-.6.7c-.2-.4-.8-1.2-1.3-1.8v6.1h-.9V273c-.5 1.4-1.2 2.9-1.8 3.8-.1-.3-.3-.6-.5-.8.8-1 1.7-3 2.2-4.6h-2v-.9h2.2V268c-.6.2-1.3.4-1.9.5 0-.2-.2-.5-.3-.7 1.5-.4 3.3-.9 4.2-1.5l.8.7c-.1.1-.1.1-.3.1-.4.2-1 .5-1.6.7v2.7h1.8v.9h-1.9zm9.1-4.2s-.1.1-.2.1h-.1c-1.6.6-4.4 1-6.9 1.3 0-.2-.2-.5-.3-.7 2.4-.3 5.1-.8 6.6-1.4l.9.7zm-6.1 4.5c-.1-.7-.5-1.6-1-2.4l.8-.2c.5.7.9 1.7 1.1 2.3l-.9.3zm-.9 7.7v-7l1.2.1c0 .1-.1.2-.3.2v6.8h-.9zm2.1 0v-6.7h5v6.7h-.9v-.5h-3.3v.5h-.8zm1.2-10.8c.4.8.7 1.8.8 2.4-.1 0-.2 0-.9.2-.1-.7-.4-1.7-.7-2.5l.8-.1zm2.9 4.9h-3.3v1.9h3.3v-1.9zm-3.3 4.5h3.3V276h-3.3v1.9zm1.8-6c.6-1 1.4-2.5 1.9-3.6l1.1.4c-.1.1-.2.1-.3.1-.5 1-1.3 2.5-1.9 3.4l-.8-.3zM746.2 269.9h-1c-.3 2.3-.8 4.2-1.7 5.8.7 1.3 1.6 2.3 2.8 2.9-.2.2-.5.5-.6.8-1.1-.7-2-1.6-2.7-2.8-.8 1.2-1.9 2.1-3.3 2.8-.1-.2-.3-.6-.5-.8 1.4-.7 2.5-1.7 3.3-2.9-.6-1.2-1-2.6-1.4-4.2-.3.6-.6 1.2-.9 1.7-.1-.1-.4-.4-.6-.5v.5h-2.2c0 .1-.1.1-.3.1v.9h3.1v.7h-4c0 .3-.1.5-.1.8h2.6l.5.1v.3c-.2 3.2-.4 3.3-1.7 3.3h-1c0-.2-.1-.5-.2-.8.6.1 1.1.1 1.3.1.2 0 .3 0 .4-.1.2-.2.3-.7.4-2.1H736c-.3 1.2-.9 2.3-2.2 2.9-.1-.2-.4-.5-.6-.6 1.5-.8 2-2.3 2.2-3.9h-2.2v-.7h3v-1h-2.4v-3.8h2.4v-.8h-3v-.7h3v-1.4l1.1.1c0 .1-.1.2-.3.2v1.1h3.1v.7H737v.8h2.5v3.2c.9-1.4 1.6-3.7 2-6l1.2.3c0 .1-.1.2-.3.2-.1.7-.3 1.5-.5 2.2h4.2v.6zm-11.5 0v.9h1.6v-.9h-1.6zm0 1.6v.9h1.6v-.9h-1.6zm4.1-.7v-.9h-1.6v.9h1.6zm0 1.6v-.9h-1.6v.9h1.6zm-.6-6.1c.5.2 1.2.5 1.5.8l-.5.5c-.3-.3-1-.7-1.5-.9l.5-.4zm3.5 3.6v.1c.3 1.7.7 3.3 1.3 4.7.6-1.3 1-2.9 1.3-4.8h-2.6z"/></g><g><path d="M752.7 339.4h-5.4c.9 3.3 2.7 5.9 5.7 7-.2.2-.5.6-.7.9-2.9-1.2-4.7-3.7-5.7-7-.6 2.8-2.2 5.5-5.8 7-.1-.3-.4-.6-.7-.8 3.7-1.5 5.1-4.3 5.6-7.1h-5.4v-1h5.5c.2-1.4.2-2.9.2-4.1l1.3.1c0 .1-.1.2-.3.2 0 1.1 0 2.4-.2 3.8h5.9v1zM766.3 341.7h-4.9c1.3 1.8 3.5 3.3 5.5 4.1-.2.2-.5.6-.7.8-2-.9-4.1-2.5-5.5-4.4v5h-.9v-5c-1.4 1.9-3.4 3.5-5.4 4.3-.2-.2-.4-.6-.7-.8 2.1-.8 4.2-2.4 5.5-4.1h-4.7v-.9h5.3v-2.1l1.2.1c0 .1-.1.2-.3.2v1.8h5.5v1zm-10.8-3.6v1.9h-.9v-2.8h8.4l-.1-.1c.6-.7 1.4-1.9 1.9-2.7l1.1.5c-.1.1-.2.1-.3.1-.4.7-1.1 1.6-1.7 2.2h2.5v2.8h-.9v-1.9h-10zm1.3-.9c-.2-.6-.9-1.6-1.5-2.3l.8-.4c.6.7 1.3 1.6 1.5 2.3l-.8.4zm3.1-2.9c.5.8.9 1.8 1.1 2.4l-.9.3c-.1-.6-.6-1.7-1-2.5l.8-.2zM775.2 342.7c0 2.7-1.3 3.5-3 3.5-.5 0-1-.1-1.3-.2l.2-.9c.3.1.6.2 1.1.2 1.2 0 1.9-.5 1.9-2.6v-7.1h1.2v7.1zM784.4 345.7c-.5.2-1.4.5-2.6.5-2.7 0-4.9-1.8-4.9-5.4 0-3.4 2.1-5.6 5.2-5.6 1.3 0 2 .3 2.3.4l-.3 1c-.5-.2-1.2-.4-2-.4-2.4 0-4.1 1.6-4.1 4.5 0 2.8 1.5 4.4 4 4.4.8 0 1.6-.2 2.1-.4l.3 1zM792.3 336.4h-3.1v9.6H788v-9.6h-3.1v-1h7.4v1z"/></g><g><path d="M743.2 477.9c.4.5 1.7 2 2 2.4l-.6.7c-.3-.5-.9-1.4-1.4-2.1v6.5h-.9v-6.9c-.5 1.7-1.3 3.3-2 4.3-.1-.3-.3-.6-.5-.8 1-1.2 1.9-3.5 2.4-5.5h-2v-.9h2.2v-3.1l1.2.1c0 .1-.1.2-.3.2v2.8h1.9v.9h-1.9v1.4zm5.1-4.8c0 .1-.1.2-.3.1-.5 2.1-1.4 4.2-2.5 5.5-.2-.2-.5-.4-.7-.6 1-1.2 1.9-3.2 2.3-5.3l1.2.3zm1.1 5.4c0 .1-.2.2-.3.2-.5 1.6-1.3 3.7-2 5.3 1.3-.1 2.8-.1 4.2-.2-.5-.9-1-1.8-1.6-2.6l.8-.4c1 1.4 2 3.3 2.5 4.4l-.9.5c-.1-.3-.3-.7-.4-1-2.4.2-4.9.3-6.4.4 0 .1-.1.2-.2.2l-.3-1.2 1.3-.1c.7-1.6 1.5-4.1 2-5.9l1.3.4zm1.2-5.7c.5 1.9 1.5 4 2.4 5.2-.2.2-.6.5-.8.8-.9-1.3-1.9-3.6-2.5-5.6l.9-.4zM765.8 476.7h-9.5v.8c0 2.4-.2 5.8-1.7 8.1-.2-.2-.6-.4-.8-.5 1.4-2.2 1.5-5.4 1.5-7.6v-4.1h10.4v3.3zm-1-2.6h-8.6v1.7h8.6v-1.7zm-3.5 9.8c0 .5.2.6.9.6h2.9c.6 0 .8-.3.8-1.6.2.2.6.3.8.4-.1 1.6-.4 2.1-1.6 2.1h-3c-1.4 0-1.8-.3-1.8-1.5v-1.2l-3.7.6-.1-.8 3.9-.6v-1.4l-3.2.5-.2-.8 3.4-.5v-1.2c-1 .2-2.1.4-3.1.5 0-.2-.2-.5-.3-.7 2.4-.3 5.1-.9 6.6-1.5l.9.7h-.3c-.8.3-1.8.5-2.9.8v1.3c2.8-.4 3.5-.5 4.1-.6l.1.8-4.2.7v1.4l5.3-.8.1.8-5.4.8v1.2zM770.9 477.7c.4.5 1.5 2.1 1.7 2.5l-.5.8c-.2-.5-.8-1.4-1.2-2.1v6.8h-.9v-6.8c-.5 1.6-1.2 3.2-1.8 4.1-.1-.3-.3-.6-.5-.8.9-1.2 1.8-3.5 2.3-5.5h-2v-.9h2v-3.1l1.2.1c0 .1-.1.2-.3.2v2.8h1.7v.6h1.9v-1.5h-1.7v-.9h1.7v-1.3l1.2.1c0 .1-.1.2-.3.2v1.1h2.4v-1.3l1.2.1c0 .1-.1.2-.3.2v1.1h1.8v.8h-1.8v1.5h2.1v.8H777v1.1h3.2v4.7H773v-4.7h3.1v-1.1h-3.8v-.5h-1.5v.9zm5 6.1c-.1 0-.1.1-.3.1-.6.6-1.8 1.3-2.8 1.7-.2-.2-.4-.5-.6-.6 1-.4 2.2-1.1 2.8-1.7l.9.5zm-2-4.9v1.3h2.3v-1.3h-2.3zm0 2v1.3h2.3v-1.3h-2.3zm1.5-6.2v1.5h2.4v-1.5h-2.4zm4.1 4.2h-2.4v1.3h2.4v-1.3zm0 3.3v-1.3h-2.4v1.3h2.4zm.7 3.4c-.6-.5-1.8-1.3-2.7-1.8l.7-.5c.9.5 2.1 1.2 2.7 1.7l-.7.6zM792.4 477.6l.8.5c0 .1-.1.1-.2.1-1.5 2-4.1 4.2-6.7 5.6 1 .4 2.4.5 4 .5h4.4c-.1.2-.3.6-.3.9h-4.1c-2.9 0-4.8-.3-6-1.9-.4.7-.9 1.4-1.3 2v.1c0 .1 0 .1-.1.2l-1-.6c.8-.9 1.8-2.4 2.3-3.6l.8.4c-.1.2-.2.4-.4.7.2.3.4.6.7.8 2.3-1.1 4.7-3.1 6-4.8h-8.5v-.9h4.8v-2l1.2.1c0 .1-.1.2-.3.2v1.7h3.9zm-7.1-1.2V475h-3.2v-.9h3.2v-1.5l1.2.1c0 .1-.1.2-.3.2v1.3h3.9v-1.5l1.2.1c0 .1-.1.2-.3.2v1.3h3.3v.9H791v1.4h-.9v-1.4h-3.9v1.4h-.9z"/></g><g><path d="M502.7 512.6l-2.7-2.7c0 1.9.5 4.3 1.4 6-.3 0-.8 0-1 .1-.8-1.9-1.3-4.4-1.2-6.5l-2.8 2.8-.7-.7 2.8-2.8c-2 .1-4.5-.4-6.3-1.1.1-.3.1-.7.1-1 1.7.8 4 1.4 5.9 1.3l-2.5-2.5 3.6-3.6 3.1 3.1.9-.9-4-4 .6-.6 4 4 1-1 .8.9c-.1.1-.2.1-.3-.1l-.8.8 4.1 4.1-.6.6-4.1-4.1-.9.9 3.3 3.3-3.7 3.7zm-4.8-8l-1 1 2.4 2.4 1-1-2.4-2.4zm1.5-1.5l-1 1 2.4 2.4 1-1-2.4-2.4zm3.1 8.3l1-1-2.6-2.6-1 1 2.6 2.6zm2.6-2.6l-2.6-2.6-1 1 2.6 2.6 1-1zM506.7 517.5c-.1 0-.2 0-.3-.1-1.1.3-2.7.4-4 .2 0-.3-.1-.7-.1-.9 1.3.2 2.8.1 3.9-.2l.5 1zm5.9 4.1l-2.9-2.9-2.6 2.6c-.8.8-1.1.5-3-1.4.1-.2.3-.6.4-.9l1.1 1.1c.6.6.7.7.8.5l2.6-2.6-2.7-2.7 2.9-2.9 6.3 6.3-2.9 2.9zm-3.3-7.9l-1.7 1.7 4.9 4.9 1.7-1.7-4.9-4.9zm9 4.6l-.6.6-8.8-8.8.6-.6 4 4 1.2-1.2.8.9c-.1.1-.2.1-.3-.1l-1 1 4.1 4.2zm-8.3 7c.2-.9.3-2.7.3-4.1l.9.3c0 1.3 0 3.1-.2 4.1l-1-.3zM512 526.8c1.2-.3 3.2-1 4.9-1.6l.1.9c-1.5.6-3.3 1.2-4.5 1.6 0 .1 0 .1-.1.2l-.1.1-.3-1.2zm9.7 6.2l.2.1.3.6c-.1 0-.1.1-.2.1-2.4 1.6-2.8 1.3-3.6.5l-1.1-1.1c.2-.2.3-.5.4-.7.5.6 1 1.1 1.2 1.3s.3.3.5.3c.3 0 .8-.2 1.7-.7l-4.4-4.4-.6.3c-.2-.4-.4-.6-.5-.7.8-.3 1.8-.9 2.6-1.5l4.3 4.3.8-.8-4.8-4.8.5-.5 5.4 5.4-1.8 1.8-4.4-4.4c-.3.2-.6.3-.8.5l4.3 4.4zm-3.8-11.9c.4.9.7 2 .7 2.7l-.9.2c0-.7-.3-1.9-.7-2.8l.9-.1zm4.6 3.4c-.1 0-.2 0-.3-.1-.9.3-2 .4-2.9.2 0-.2 0-.6-.1-.8.8.1 1.9 0 2.8-.3l.5 1zm3 .7l3 3-.6.6-2.2-2.2-1.8 1.8c-.6.6-.8.4-2-.7.1-.2.2-.5.3-.7l.8.8c.1.1.2.1.2 0l1.8-1.8-1-1-.5.5c-.7.7-1.7 1.3-3.4.7 0-.2-.1-.6-.1-.8 1.5.6 2.4 0 2.9-.5l.5-.5-2-2 .6-.6 2.8 2.8 1.1-1.1.8.9c-.1.1-.2.1-.3-.1l-.9.9zm-4.3-6.3c.3.9.6 2.1.6 2.8-.5.1-.7.1-.9.1 0-.7-.2-1.9-.6-2.8l.9-.1zm4.1 11.5c.2-.7.2-1.9.1-2.8l.8.1c.1.9.1 2.1-.1 2.8l-.8-.1zM532.1 535.7c-.1.1-.2 0-.4-.1-2.6 2-5.6 3.5-8.8 2.6 0-.3 0-.7-.1-1 3.1.9 5.9-.4 8.5-2.6l.8 1.1zm5.7 2h-.2c-1.8.7-3.7 1-5.5.8 0-.3-.1-.7-.2-1 1.6.2 3.2 0 4.4-.5l-7.1-7.1.7-.7 7.4 7.4.2.1.3 1zM545.9 547.8h-.3c-4.2 2.2-7.9 2.6-12 1.3 0-.3.1-.7 0-1 3.8 1.3 7.4 1 10.8-.8l-3.5-3.5c-1.5.3-3.1.4-4.6.2 0-.3 0-.7-.1-1 2.4.3 5-.1 7.4-1.1l.7 1.2c-.1.1-.3 0-.4-.2-.6.2-1.2.4-1.9.6l3.5 3.5.2.1.2.7zM551.8 555.4c-.1.1-.2.1-.4-.1-2.6 2-5.6 3.5-8.8 2.6 0-.3 0-.7-.1-1 3.1.9 5.9-.4 8.5-2.6l.8 1.1zm5.7 2h-.2c-1.8.7-3.7 1-5.5.8 0-.3-.1-.7-.2-1 1.6.2 3.3 0 4.4-.5l-7.1-7.1.7-.7 7.4 7.4.2.1.3 1zM564.6 569.1h-.2c-3.8 2.2-6.9 2-10.6-.2.1-.3.1-.7.2-1 3.3 2 6.4 2.3 9.3.6l-6.5-6.5.7-.7 6.8 6.8h.2l.1 1zm1.1-3l-5.6-5.6.7-.6 5.6 5.6-.7.6zM577.1 576.5c-.1 0-.2 0-.3-.1l-.1-.1c-1.5 0-3.5-.2-5.2-.5 0 .1.1.3.1.3-.1 0-.2 0-.3-.1l-5.3 5.3-.7-.7 5.1-5.1c-1.8-.3-3.9-.9-6-1.6.1-.3.1-.7.1-1 3.9 1.4 9 2.3 12.3 2.1l.3 1.5zM572.7 586.1c4.6 2.4 8.9 2.8 12.8 1.2 0 .4.1.7.2 1-3.9 1.5-8.4 1.2-12.9-1.1-.1.1-.3.1-.4.1l.3-1.2zm6.9-6.8c.7 1.4 1.4 3 1.6 4.3l-1 .2c-.2-1.2-.8-2.9-1.5-4.2l.9-.3z"/></g><g><path d="M699.2 585.1H694c1.3 2.4 3.5 4.9 5.7 6.1-.2.2-.6.6-.7.8-2-1.2-4-3.5-5.4-5.9v7.5h-1v-7.5c-1.4 2.5-3.4 4.7-5.4 5.9-.2-.2-.5-.6-.7-.8 2.2-1.2 4.4-3.7 5.6-6.2h-5.2v-.9h5.6v-3.5l1.3.1c0 .1-.1.2-.3.2v3.2h5.6v1zM712.2 588.7h-4.8c-.1.9-.5 1.7-1.1 2.5 1.7 1 4.1 1.4 7.3 1.5-.2.2-.4.6-.4.9-3.3-.2-5.7-.7-7.5-1.8-1 .7-2.4 1.4-4.5 1.8-.1-.2-.3-.6-.5-.8 2-.4 3.4-.9 4.3-1.6-.6-.5-1.1-1.2-1.6-2l.8-.3c.4.7.8 1.3 1.4 1.7.5-.6.8-1.2.9-1.9h-4.3v-5.2h4.4v-1.2h-5.7v-.9h12.3v.9h-5.6v1.2h4.7v5.2zm-9.1-4.5v1.5h3.5v-1.5h-3.5zm0 3.8h3.5v-1.6h-3.5v1.6zm8.2 0v-1.5h-3.8v1.6h3.8zm0-3.8h-3.8v1.5h3.8v-1.5zM714.9 584.5c.9.4 2 1 2.5 1.4l-.5.8c-.5-.5-1.6-1.1-2.5-1.5l.5-.7zm-.1 8.3c.7-1.1 1.7-3 2.4-4.5l.7.6c-.7 1.5-1.5 3.2-2.2 4.3.1.1.1.1.1.2s0 .1-.1.2l-.9-.8zm.9-12c.9.4 1.9 1 2.4 1.6-.3.4-.4.6-.5.8-.5-.5-1.6-1.2-2.4-1.6l.5-.8zm11.7 9.6v.8h-4.6v2.3h-.9v-2.3h-4.2v-.8h4.2v-1.2h-3.4v-.8h3.4v-1.2h-3.1v-.8h3.1v-1.3H718v-.8h3.9V583h-3v-.8h3v-1.5l1.2.1c0 .1-.1.2-.3.2v1.3h3.3v2.1h1.3v.8H726v2.1h-3.3v1.2h3.7v.8h-3.7v1.2h4.7zm-4.6-7.5v1.3h2.4v-1.3h-2.4zm0 2.2v1.3h2.4v-1.3h-2.4zM739.9 589.3h-3.8c1.3 1.4 3.4 2.6 5.2 3.3-.2.2-.5.6-.7.8-1.9-.7-4-2.2-5.4-3.7v4h-1v-3.9c-1.4 1.5-3.5 2.9-5.3 3.7-.2-.2-.4-.6-.7-.8 1.8-.6 3.8-1.9 5.1-3.3H730v-5.1h4.4V583h-5.6v-1h5.6v-1.4l1.2.1c0 .1-.1.2-.3.2v1.1h5.8v.9h-5.8v1.3h4.6v5.1zm-9-4.4v1.4h3.4v-1.4h-3.4zm0 2.2v1.5h3.4v-1.5h-3.4zm8-2.2h-3.7v1.4h3.7v-1.4zm0 3.6V587h-3.7v1.5h3.7z"/></g><g><path d="M673.7 617.8h-5.2c1.3 2.4 3.5 4.9 5.7 6.1-.2.2-.6.6-.7.8-2-1.2-4-3.5-5.4-5.9v7.5h-1v-7.5c-1.4 2.5-3.4 4.7-5.4 5.9-.2-.2-.5-.6-.7-.8 2.2-1.2 4.4-3.7 5.6-6.2h-5.2v-.9h5.6v-3.5l1.3.1c0 .1-.1.2-.3.2v3.2h5.6v1zM686.8 621.5H682c-.1.9-.5 1.7-1.1 2.5 1.7 1 4.1 1.4 7.3 1.5-.2.2-.4.6-.4.9-3.3-.2-5.7-.7-7.5-1.8-1 .7-2.4 1.4-4.5 1.8-.1-.2-.3-.6-.5-.8 2-.4 3.4-.9 4.3-1.6-.6-.5-1.1-1.2-1.6-2l.8-.3c.4.7.9 1.3 1.4 1.7.5-.6.8-1.2.9-1.9h-4.3v-5.2h4.4V615h-5.7v-.9h12.3v.9H682v1.2h4.7v5.3zm-9.2-4.5v1.5h3.5V617h-3.5zm0 3.7h3.5v-1.6h-3.5v1.6zm8.2 0v-1.5H682v1.6h3.8zm0-3.7H682v1.5h3.8V617zM696.3 621.8c0 2.7-1.3 3.5-3 3.5-.5 0-1-.1-1.3-.2l.2-.9c.3.1.6.2 1.1.2 1.2 0 1.9-.5 1.9-2.6v-7.1h1.2v7.1zM705.6 624.8c-.5.2-1.4.5-2.6.5-2.7 0-4.9-1.8-4.9-5.4 0-3.4 2.1-5.6 5.2-5.6 1.3 0 2 .3 2.3.4l-.3 1c-.5-.2-1.2-.4-2-.4-2.4 0-4.1 1.6-4.1 4.5 0 2.8 1.5 4.4 4 4.4.8 0 1.6-.2 2.1-.4l.3 1zM713.5 615.5h-3.1v9.6h-1.2v-9.6h-3.1v-1h7.4v1z"/></g><g><path d="M445 75.7l.7.3c0 .1-.1.1-.2.2-.3 1.2-.7 2.4-1.2 3.4 1 2.6 2.9 5 5.3 6-.2.2-.5.6-.7.8-2.3-1.1-4.1-3.2-5.2-5.8-1.6 2.7-3.9 4.6-6.4 5.8-.1-.2-.4-.7-.7-.8 3.5-1.5 6.5-4.4 7.7-8.9h-3.8c-.9 1.7-2 3.2-3.2 4.2-.2-.2-.5-.5-.8-.7 1.8-1.5 3.4-4.1 4.3-6.8l1.2.4c0 .1-.2.2-.3.1-.2.6-.5 1.2-.7 1.8h4zM460.4 80.4c0 .1-.1.1-.3.1-.1.2-.3.5-.5.8h3.8v.8h-12.8v-.8h3.7c-.1-.3-.3-.7-.5-1l.5-.1h-1.5v-2.6h8.4v2.6h-1.4l.6.2zm-3.9-4.2v-1h-5.4v-.7h5.4v-1l1.2.1c0 .1-.1.2-.3.2v.8h5.5v.7h-5.5v1h4.6v.7h-9.9v-.7h4.4zm-3.9 10.2V83h8.9v3.4h-1V86h-7v.5h-.9zm7.9-2.7h-7v1.5h7v-1.5zm-6.8-5.3v1.2h6.6v-1.2h-6.6zm4.9 3c.2-.3.4-.8.6-1.1h-4.5c.3.3.5.8.6 1.1h3.3zM471.6 73.7c0 .1-.1.1-.3.1-.2.6-.5 1.3-.8 2h5.7v10.5h-1v-.9h-8.4v1h-.9V75.8h3.5c.3-.7.7-1.7.9-2.5l1.3.4zm3.6 3h-8.4V80h8.4v-3.3zm-8.4 7.7h8.4V81h-8.4v3.4zM490.7 74.2v11c0 1.2-.6 1.2-2.8 1.2 0-.2-.2-.6-.3-.9h1.9c.2 0 .3-.1.3-.3V75.1H480v11.3h-.9V74.2h11.6zm-2.5 10.4h-.8v-.8h-4.9v1h-.8V80l1.1.1c0 .1-.1.2-.3.2V83h2v-4.1h-3.7v-.8h8.5v.8h-3.7c0 .1-.1.1-.2.1v4h2.1v-3l1.1.1c0 .1-.1.2-.3.2v4.3zm-5.3-6.7c-.1-.6-.6-1.6-1.1-2.2l.8-.3c.5.7 1 1.6 1.1 2.2l-.8.3zm5.3-2.2c0 .1-.1.1-.3.1-.3.6-.8 1.6-1.2 2.2-.2-.1-.5-.2-.7-.3.4-.6.9-1.7 1.1-2.4l1.1.4zM499.7 81.8c0 2.7-1.3 3.5-3 3.5-.5 0-1-.1-1.3-.2l.2-.9c.3.1.6.2 1.1.2 1.2 0 1.9-.5 1.9-2.6v-7.1h1.2v7.1zM508.9 84.9c-.5.2-1.4.5-2.6.5-2.7 0-4.9-1.8-4.9-5.4 0-3.4 2.1-5.6 5.2-5.6 1.3 0 2 .3 2.3.4l-.3 1c-.5-.2-1.2-.4-2-.4-2.4 0-4.1 1.6-4.1 4.5 0 2.8 1.5 4.4 4 4.4.8 0 1.6-.2 2.1-.4l.3 1zM516.8 75.5h-3.1v9.6h-1.2v-9.6h-3.1v-1h7.4v1z"/></g><g><path d="M325.4 241.5h-3.8c1.3 1.4 3.4 2.6 5.2 3.3-.2.2-.5.6-.7.8-1.9-.7-4-2.2-5.4-3.7v4h-1V242c-1.4 1.5-3.5 2.9-5.3 3.7-.2-.2-.4-.6-.7-.8 1.8-.6 3.8-1.9 5.1-3.3h-3.6v-5.1h4.4v-1.3H314v-.9h5.6v-1.4l1.2.1c0 .1-.1.2-.3.2v1.1h5.8v.9h-5.8v1.3h4.6v5zm-9-4.4v1.4h3.4v-1.4h-3.4zm0 2.2v1.5h3.4v-1.5h-3.4zm8-2.2h-3.7v1.4h3.7v-1.4zm0 3.6v-1.5h-3.7v1.5h3.7zM331.6 242.1c-.1.1-.2.1-.3.1-.6.9-1.7 2.2-2.7 3-.2-.2-.5-.4-.8-.6 1-.8 2.1-1.9 2.6-2.9l1.2.4zm8.9-7.6v.9h-12.4v-.9h5.7v-1.7l1.3.1c0 .1-.1.2-.3.2v1.4h5.7zm-1.7 6.4h-4.1v3.7c0 1.1-.5 1.1-3.1 1.1l-.3-.9h1.6c.9 0 .9 0 .9-.3v-3.7h-3.9v-4.1h8.9v4.2zm-8-3.3v2.5h7v-2.5h-7zm8.8 7.7c-.5-.8-1.7-2.2-2.6-3.1l.8-.4c.9.9 2.1 2.2 2.7 3l-.9.5zM351.7 232.9c0 .1-.1.2-.3.2v6.2c1 .9 2.2 1.7 3.3 2.2-.2.2-.5.5-.7.8-.9-.4-1.8-1.1-2.6-1.8v5.2h-1v-6.1c-.9-.9-1.6-1.9-2.2-2.9-.9 4.5-2.8 7.4-5.3 9-.2-.2-.5-.5-.8-.7 1.5-.9 2.7-2.2 3.7-4.1-.6-.6-1.5-1.3-2.4-1.8l.5-.7c.8.4 1.7 1 2.3 1.5.5-1.2.9-2.6 1.1-4.2h-2.9c-.6 1.5-1.3 2.9-2.1 3.9-.1-.2-.5-.5-.7-.6 1.3-1.4 2.2-3.8 2.7-6.4l1.2.3c0 .1-.1.2-.3.2-.1.6-.3 1.2-.5 1.8h3.2l.6.3c0 .1-.1.1-.1.2l-.1.8.5-.2c.4.8 1 1.6 1.7 2.3v-5.5l1.2.1zM360.1 241.6l.1.8c-1.5.4-3.1.8-4.2 1.1 0 .1-.1.2-.2.2l-.4-1c.5-.1 1.2-.3 2-.4v-3.5h-1.6v-.8h1.6v-3.2h-1.8v-.9h4.4v.9h-1.8v3.2h1.5v.8h-1.5v3.3l1.9-.5zm4.5 0c.2.5.5 1 .9 1.4.7-.4 1.5-.9 2-1.3l.8.6s-.1.1-.2.1h-.1c-.5.3-1.4.8-2.1 1.1.7.7 1.6 1.2 2.6 1.5-.2.2-.5.5-.6.7-1.8-.6-3.1-2-3.9-3.7l-.3.3v3.4h-.9V243c-1.1.8-2.3 1.4-3.4 1.8-.1-.2-.4-.5-.6-.7 1.5-.5 3.4-1.5 4.6-2.6H361v-3h6.5v3h-2.9zm-4.7-4.6h8.7v.8h-8.7v-.8zm8-3.7v2.9h-7.3v-2.9h7.3zm-5.1 2.2V234h-1.4v1.5h1.4zm-1 3.9v1.4h4.8v-1.4h-4.8zm3.1-3.9V234h-1.4v1.5h1.4zm2.2 0V234h-1.5v1.5h1.5zM321 252.7c0 .1-.1.1-.3.2-.2.4-.4 1-.6 1.6h5.1v11h-1v-.7h-7.6v.8h-.9v-11h3.5c.3-.6.5-1.4.6-2l1.2.1zm3.2 2.6h-7.6v2.2h7.6v-2.2zm0 3.1h-7.6v2.2h7.6v-2.2zm-7.6 5.3h7.6v-2.2h-7.6v2.2zM340 255.8h.5v.3c-.2 6.1-.3 8.1-.8 8.7-.4.5-.8.5-1.4.5h-1.1c0-.3-.1-.7-.3-.9.7.1 1.3.1 1.6.1.2 0 .3 0 .4-.2.3-.4.5-2.3.7-7.6h-2.1c0 2.9-.3 6.3-3 8.8-.2-.2-.5-.4-.7-.6.3-.2.5-.5.7-.8-2.3.3-4.7.6-6.2.8 0 .1-.1.2-.2.2l-.3-1c.8-.1 1.9-.2 3.1-.3v-1.3h-2.7v-.7h2.7v-.9h-2.6v-4.1h2.6v-1h-3.1v-.7h3.1v-1c-.9.1-1.9.2-2.7.2 0-.2-.2-.5-.2-.7 2.1-.1 4.6-.4 6-.8l.7.7h-.1-.1c-.6.2-1.5.3-2.4.4 0 0-.1.1-.2.1v1h3.1v.7h-3.1v1h2.8v4.1h-2.8v.9h2.9v.7h-2.9v1.2c.9-.1 1.9-.2 2.9-.3v.6c1.8-2.2 2-5 2-7.3H335v-.9h1.8v-3.2l1.2.1c0 .1-.1.2-.3.2v3h2.3zm-10.9 1.5v1h1.8v-1h-1.8zm0 2.8h1.8V259h-1.8v1.1zm4.6-2.8h-1.9v1h1.9v-1zm0 2.8V259h-1.9v1.1h1.9zM354.5 262.5v.9h-5.9v2.1h-.9v-2.1h-5.8v-.9h5.8v-1.2h-4.3v-5.5h4.3v-1.1h-5.4v-.9h5.4v-1.3l1.2.1c0 .1-.1.2-.3.2v1h5.5v.9h-5.5v1.1h4.5v5.5h-4.5v1.2h5.9zm-10.2-5.9v1.5h3.4v-1.5h-3.4zm0 3.9h3.4v-1.6h-3.4v1.6zm7.8-3.9h-3.5v1.5h3.5v-1.5zm0 3.9v-1.6h-3.5v1.6h3.5zM358.7 258v4.6c1.1 1.7 3.1 1.7 5.6 1.7 1.5 0 3.3 0 4.4-.1-.1.2-.3.7-.3.9-1 0-2.5.1-3.9.1-2.9 0-4.8 0-6.2-1.7-.7.6-1.4 1.2-2 1.7 0 .1 0 .2-.1.2l-.5-1c.7-.4 1.5-1.1 2.2-1.7V259h-2v-1h2.8zm-2.1-5.2c.9.6 2 1.5 2.5 2.2l-.7.6c-.5-.7-1.5-1.6-2.5-2.3l.7-.5zm4 3.7h2.4c.1-.4.2-.9.3-1.3h-3.8v-.8h2.5c-.2-.5-.6-1.1-1-1.6l.7-.3c.5.5.9 1.2 1.1 1.7l-.5.3h2.9l-.4-.1c.3-.5.8-1.3 1-1.8l1.1.3c0 .1-.1.1-.3.1-.3.4-.7 1-1.1 1.5h2.8v.8h-4.2c-.1.4-.2.9-.4 1.3h3.3v6.9h-.9v-.5h-4.7v.5h-.9v-7zm5.6 1.9v-1.1h-4.7v1.1h4.7zm-4.7.7v1.2h4.7v-1.2h-4.7zm0 3.1h4.7V261h-4.7v1.2z"/></g><g><path class="st13" d="M110.4 250.4h11.7v12.3h-.9v-.6h-9.9v.6h-.9v-12.3zm.9 10.9h9.9v-10h-9.9v10zm9.2-5.5h-2c.5.8 1.3 1.4 2.1 1.8-.2.1-.4.4-.5.6-1-.5-1.8-1.3-2.4-2.4H115c-.2.3-.4.5-.6.8h3.6v2.2h-3.4v.9c0 .3.1.3.8.3h2.5c.5 0 .6-.1.7-1 .2.1.5.2.7.3-.1 1.2-.3 1.4-1.3 1.4h-2.7c-1.2 0-1.6-.2-1.6-1v-1.5h3.4v-1h-3v-.4c-.5.6-1.1 1.1-1.8 1.4-.1-.2-.3-.4-.5-.5.9-.5 1.6-1.1 2.2-1.9h-2v-.7h2.4c.2-.3.4-.7.5-1h-2.4v-.6h2.6c.2-.6.3-1.2.4-1.8l1 .2c0 .1-.1.1-.3.2-.1.5-.2 1-.4 1.4h2.1c-.2-.1-.3-.1-.4-.2.3-.4.7-1.1.9-1.5l.9.3c0 .1-.1.1-.3.1-.2.3-.5.9-.8 1.3h1.7v.6h-2.3c.1.3.3.7.4 1h2.4v.7zm-6.7-2.3c-.1-.4-.4-1-.8-1.4l.6-.2c.4.4.7 1 .8 1.4l-.6.2zm2 .7c-.1.4-.3.7-.5 1h2c-.1-.3-.3-.7-.4-1h-1.1zM136.6 257.3h-5.5c1 2.4 2.9 4 5.8 4.6-.2.2-.5.6-.6.9-3-.7-4.9-2.4-6-5.1-.6 2.1-2.2 3.9-5.9 5.1-.1-.2-.4-.6-.6-.8 3.6-1.1 5-2.8 5.6-4.7H124v-.9h1.6v-4.6h4.2v-2l1.3.1c0 .1-.1.2-.3.2v1.7h4.4v4.6h1.5v.9zm-10.2-.9h3.1c.1-.6.1-1.2.1-1.8v-1.9h-3.2v3.7zm7.7-3.7h-3.5v1.9c0 .6 0 1.2-.1 1.8h3.6v-3.7zM140.8 255.4v4.6c1.1 1.7 3.1 1.7 5.6 1.7 1.5 0 3.3 0 4.4-.1-.1.2-.3.7-.3.9-1 0-2.5.1-3.9.1-2.9 0-4.8 0-6.2-1.7-.7.6-1.4 1.2-2 1.7 0 .1 0 .2-.1.2l-.5-1c.7-.4 1.5-1.1 2.2-1.7v-3.7h-2v-.9h2.8zm-2.1-5.2c.9.6 2 1.5 2.5 2.2l-.7.6c-.5-.7-1.5-1.6-2.5-2.3l.7-.5zm4 3.7h2.4c.1-.4.2-.9.3-1.3h-3.8v-.8h2.5c-.2-.5-.6-1.1-1-1.6l.7-.3c.5.5.9 1.2 1.1 1.7l-.5.3h2.9l-.4-.1c.3-.5.8-1.3 1-1.8l1.1.3c0 .1-.1.1-.3.1-.3.4-.7 1-1.1 1.5h2.8v.8h-4.2c-.1.4-.2.9-.4 1.3h3.3v6.9h-.9v-.5h-4.7v.5h-.9v-7zm5.6 1.8v-1.1h-4.7v1.1h4.7zm-4.7.7v1.2h4.7v-1.2h-4.7zm0 3.1h4.7v-1.2h-4.7v1.2z"/></g></g><g><path class="st11" d="M326.9 550.4v.8h-1.6v2.7h-1v-.7h-3.8v1c0 .7-.2.9-.6 1.1-.5.2-1.3.2-2.5.2 0-.2-.2-.6-.4-.9h1.5c.9 0 1 0 1-.4v-1h-5v-.8h5v-1.2h-6.3v-.8h6.3v-1.1h-4.9v-.8h4.9v-1h-4.4v-2.9h4.4v-.9h-6v-.9h6v-1.3l1.3.1c0 .1-.1.2-.3.2v1h6.1v.9h-6.1v.9h4.6v2.9h-4.6v1h4.8v1.9h1.6zm-10.9-3.6h3.4v-1.4H316v1.4zm8.1-1.5h-3.6v1.4h3.6v-1.4zm-3.6 4v1.1h3.8v-1.1h-3.8zm3.8 3.2v-1.2h-3.8v1.2h3.8zM341.7 551.7h-5.2c1.4 1.1 3.6 2.1 5.6 2.5-.2.2-.5.6-.7.9-2.1-.6-4.4-1.8-5.9-3.2v3.4h-1v-3.4c-1.5 1.4-3.8 2.5-5.8 3.1-.1-.3-.4-.6-.7-.9 1.9-.5 4.1-1.4 5.5-2.6h-5.1v-.9h6.1v-1.2h-4.6v-.8h4.6v-1.2h-5.4v-.8h3.4c-.2-.5-.5-1.1-.8-1.6l.6-.1h-3.8v-.9h2.5c-.2-.6-.8-1.6-1.3-2.3l.9-.3c.5.7 1.1 1.6 1.3 2.3l-.8.3h2v-2.8l1.3.1c0 .1-.1.2-.3.3v2.4h2v-2.8l1.3.1c0 .1-.1.2-.3.3v2.4h1.9c-.2-.1-.4-.2-.6-.2.4-.6 1-1.7 1.2-2.3l1.2.4c0 .1-.1.1-.3.1-.3.6-.8 1.4-1.2 2h2.5v.9h-3.4l.4.1c0 .1-.2.2-.3.1-.2.4-.5 1-.8 1.4h3.6v.8h-5.6v1.2h4.8v.8h-4.8v1.2h6.2l-.2 1.2zm-5.2-5c.3-.4.6-1.1.8-1.6h-4.7c.3.5.7 1.2.8 1.6l-.5.1h3.7l-.1-.1zM350.5 544.1h5.6v7.1h-1v-.9h-4.6v5h-1v-5H345v1h-1v-7.1h5.5v-2.7l1.4.1c0 .1-.1.2-.3.2l-.1 2.3zm-5.6 5.2h4.5v-4.2h-4.5v4.2zm5.6 0h4.6v-4.2h-4.6v4.2z"/></g><path d="M152.2 409.7h92.5v38.7h-92.5z"/><g><path class="st11" d="M191.9 432.4v.8h-1.6v2.7h-1v-.7h-3.8v1c0 .7-.2.9-.6 1.1-.5.2-1.3.2-2.5.2 0-.2-.2-.6-.4-.9h1.5c.9 0 1 0 1-.4v-1h-5v-.8h5v-1.2h-6.3v-.8h6.3v-1.1h-4.9v-.8h4.9v-1h-4.4v-2.9h4.4v-.9h-6v-.9h6v-1.3l1.3.1c0 .1-.1.2-.3.2v1h6.1v.9h-6.1v.9h4.6v2.9h-4.6v1h4.8v1.9h1.6zm-10.9-3.6h3.4v-1.4H181v1.4zm8.1-1.5h-3.6v1.4h3.6v-1.4zm-3.6 4v1.1h3.8v-1.1h-3.8zm3.8 3.2v-1.2h-3.8v1.2h3.8zM206.7 433.7h-5.2c1.4 1.1 3.6 2.1 5.6 2.5-.2.2-.5.6-.7.9-2.1-.6-4.4-1.8-5.9-3.2v3.4h-1v-3.4c-1.5 1.4-3.8 2.5-5.8 3.1-.1-.3-.4-.6-.7-.9 1.9-.5 4.1-1.4 5.5-2.6h-5.1v-.9h6.1v-1.2h-4.6v-.8h4.6v-1.2h-5.4v-.8h3.4c-.2-.5-.5-1.1-.8-1.6l.6-.1h-3.8v-.9h2.5c-.2-.6-.8-1.6-1.3-2.3l.9-.3c.5.7 1.1 1.6 1.3 2.3l-.8.3h2v-2.8l1.3.1c0 .1-.1.2-.3.3v2.4h2v-2.8l1.3.1c0 .1-.1.2-.3.3v2.4h1.9c-.2-.1-.4-.2-.6-.2.4-.6 1-1.7 1.2-2.3l1.2.4c0 .1-.1.1-.3.1-.3.6-.8 1.4-1.2 2h2.5v.9h-3.4l.4.1c0 .1-.2.2-.3.1-.2.4-.5 1-.8 1.4h3.6v.8h-5.6v1.2h4.8v.8h-4.8v1.2h6.2l-.2 1.2zm-5.2-5c.3-.4.6-1.1.8-1.6h-4.7c.3.5.7 1.2.8 1.6l-.5.1h3.7l-.1-.1zM215.5 426.1h5.6v7.1h-1v-.9h-4.6v5h-1v-5H210v1h-1v-7.1h5.5v-2.7l1.4.1c0 .1-.1.2-.3.2l-.1 2.3zm-5.6 5.2h4.5v-4.2h-4.5v4.2zm5.6 0h4.6v-4.2h-4.6v4.2z"/></g><path d="M766.2 363.7h92.5v38.7h-92.5z"/><g><path class="st11" d="M805.9 386.4v.8h-1.6v2.7h-1v-.7h-3.8v1c0 .7-.2.9-.6 1.1-.5.2-1.3.2-2.5.2 0-.2-.2-.6-.4-.9h1.5c.9 0 1 0 1-.4v-1h-5v-.8h5v-1.2h-6.3v-.8h6.3v-1.1h-4.9v-.8h4.9v-1h-4.4v-2.9h4.4v-.9h-6v-.9h6v-1.3l1.3.1c0 .1-.1.2-.3.2v1h6.1v.9h-6.1v.9h4.6v2.9h-4.6v1h4.8v1.9h1.6zm-10.9-3.6h3.4v-1.4H795v1.4zm8.1-1.5h-3.6v1.4h3.6v-1.4zm-3.6 4v1.1h3.8v-1.1h-3.8zm3.8 3.2v-1.2h-3.8v1.2h3.8zM820.7 387.7h-5.2c1.4 1.1 3.6 2.1 5.6 2.5-.2.2-.5.6-.7.9-2.1-.6-4.4-1.8-5.9-3.2v3.4h-1v-3.4c-1.5 1.4-3.8 2.5-5.8 3.1-.1-.3-.4-.6-.7-.9 1.9-.5 4.1-1.4 5.5-2.6h-5.1v-.9h6.1v-1.2h-4.7v-.8h4.7v-1.2h-5.4v-.8h3.4c-.2-.5-.5-1.1-.8-1.6l.6-.1h-3.8v-.9h2.5c-.2-.6-.8-1.6-1.3-2.3l.9-.3c.5.7 1.1 1.6 1.3 2.3l-.8.3h2v-2.8l1.3.1c0 .1-.1.2-.3.3v2.4h1.9v-2.8l1.3.1c0 .1-.2.2-.3.3v2.4h1.9c-.2-.1-.4-.2-.6-.2.4-.6 1-1.7 1.2-2.3l1.2.4c0 .1-.2.1-.3.1-.3.6-.8 1.4-1.2 2h2.5v.9h-3.4l.4.1c0 .1-.2.2-.3.1-.2.4-.5 1-.8 1.4h3.6v.8h-5.6v1.2h4.8v.8h-4.8v1.2h6.2l-.1 1.2zm-5.2-5c.3-.4.6-1.1.8-1.6h-4.7c.3.5.7 1.2.8 1.6l-.5.1h3.7l-.1-.1zM829.5 380.1h5.6v7.1h-1v-.9h-4.6v5h-1.1v-5h-4.5v1h-1v-7.1h5.5v-2.7l1.4.1c0 .1-.1.2-.3.2v2.3zm-5.6 5.2h4.5v-4.2h-4.5v4.2zm5.6 0h4.6v-4.2h-4.6v4.2z"/></g><path class="st12" d="M236.9 431.6h53"/></svg>