<svg version="1.1" id="レイヤー_1" xmlns="http://www.w3.org/2000/svg" x="0" y="0" viewBox="0 0 285 142" xml:space="preserve"><style>.st1{fill:#fff}.st2{fill:#5f7123}</style><path d="M27.6 20.4c-.4.2-.6.2-.8 0-.2-.2-.5-.3-1-.2.1.3.3.5.6.6l.9.3c.3.1.5.3.7.5.2.2.5.4.7.5 1 .6 1.9 1.3 2.8 2.1.9.8 1.7 1.6 2.4 2.6.8 1 1.4 2.1 1.8 3.3.4 1.2.8 2.7 1.1 4.4 0 .1 0 .2.1.4.1.1.1.3.2.5.1.6 0 1.2-.1 1.8-.1.5-.2 1.1-.4 1.6-.1.4 0 .7 0 1.1.1.4.1.7 0 1.1-.1.6-.2 1.2-.4 1.7-.2.6-.4 1.1-.6 1.6.1.6.1 1.1-.1 1.7-.2.5-.4 1.1-.6 1.7-.3.8-.6 1.6-.9 2.5-.3.9-.7 1.6-1.2 2.3 0 .3.1.5.2.6.1.1.2.3.2.6-.5.9-1.1 1.6-2 2.1-.9.5-1.6 1.2-2.1 2.1-.1.1-.2.1-.4.2-.1.1-.3.1-.5.2-.5.7-.9 1.3-1.4 1.8-.4.5-1.1 1-1.9 1.4-.2.1-.5.3-.7.5-.2.2-.5.3-.8.4h-.8c-.2 0-.4 0-.5.1-.2.1-.4.2-.5.2-.4.1-.7.1-1.2 0-.4-.1-.9-.1-1.3 0-.3.1-.6.1-.8.3-.3.1-.5.2-.7.2-.2.1-.5.1-.7 0-.2-.1-.4-.1-.7-.1h-3.1c-.3-.1-.6-.1-.9-.3-.3-.1-.7-.2-1.1-.4-.2-.1-.4-.1-.5 0h-.5c-.2-.1-.3-.2-.5-.4-.1-.1-.3-.2-.6-.4-.1-.1-.3-.1-.5 0h-.6c-.1 0-.1 0 0-.1 0-.1 0-.1-.1-.2-.5-.1-1-.3-1.6-.5-.6-.2-1.1-.5-1.4-.8-.1-.1-.2-.3-.4-.6-.1-.3-.3-.6-.5-.8-.1-.1-.1-.1-.1 0v-.1c-.1-.1-.2-.3-.4-.6-.2-.7-.3-.9-.4-1-.1-.2-.2-.5-.2-.7s-.1-.5-.2-.8c-.2-.6-.5-1.3-.9-1.9-.4-.6-.6-1.2-.8-1.7-.1-.5-.2-.9-.1-1.2v-1.2c-.1-.6-.3-1.2-.4-1.8-.2-.5-.3-1.2-.4-2V44c0-.6.1-1.1.1-1.5 0-.3 0-.7.1-1.3.1-.6.1-1.1 0-1.7 0-.4 0-.7-.1-1.2s-.1-1 0-1.5c.3-.5.7-.8 1.1-1.1.4-.3.8-.7 1.1-1.1.2-.3.5-.7.8-1.3.3-.6.7-1 1.1-1.1.5-.2 1.2-.3 1.9-.1.7.2 1.4.2 1.9.2s1.1-.1 1.7-.2c.6-.1 1.3-.2 2.2-.1.7.1 1.3.1 1.8.3.5.1.9.3 1.4.5.1.6.3 1.1.6 1.5-.2 1.3-.2 2.7-.1 4 .1 1.3.2 2.7.4 4.1 1.1-.8 1.6-2.3 1.5-4.4-.1-.8-.1-1.6 0-2.4 0-.8-.1-1.5-.5-2.4-.4-.8-.8-1.4-1.4-1.9-.6-.5-1-1.1-1.3-1.7-1.5-.6-2.9-1.3-4.2-2.1-1.3-.8-2.4-1.8-3.2-3.1-.5 0-.9-.1-1.1-.2-.1-.3-.2-.5-.2-.5 0-.1 0-.2-.1-.4-.4-.4-.7-.8-1.2-1.3-.4-.5-.8-.9-1.2-1.4-.4-.6-.7-1.3-.9-2.2-.1-.4-.2-.7-.2-1 0-.2 0-.6.1-1.1v-1.4c0-.6-.1-1.2-.2-1.7.2-.5.4-1 .4-1.5.1-.5.1-1.1.3-1.7.5-.5.9-1.1 1.2-1.7.5-.7.9-1.3 1.3-1.8l2.4-1.8c.1-.1.2-.2.3-.4.1 0 .2-.1.3-.2.5-.4 1.1-.6 1.7-.9.6-.2 1.1-.6 1.5-1.1.7-.1 1.3-.3 1.8-.7.5-.4 1.1-.6 1.9-.8.2.1.3.1.3-.1-.1-.2 0-.3.2-.2.4 0 .8-.1 1.1-.3.2 0 .4 0 .5.2.1.2.3.3.6.3 1-.1 2-.3 3.2-.4 1-.2 2.1-.1 3.2.2.5.1.8.3 1.1.6.3.3.7.5 1.1.5.4.5.9 1 1.5 1.5.7.6 1.2 1.3 1.5 2.1.3.7.5 1.5.6 2.5.1.9.3 1.8.6 2.6.1.5.4 1.1.7 1.6.4.6.5 1.1.5 1.5-.1.5-.2.9-.5 1.2-.3.3-.4.7-.3 1.1-.7.6-1.3 1.4-1.7 2.3-.5 1-1 1.8-1.6 2.6zM2.5 46.1c-.1.1-.3.2-.5.2s-.3.1-.2.4c.3 0 .5-.1.7-.3.1-.2.3-.4.5-.6.3-.2.6-.3.8-.4l.6-.3c.1-.1.3-.3.4-.5.2-.2.2-.4 0-.6-.4.4-.8.7-1.2 1-.5.3-.8.6-1.1 1.1zm-.7-2c.2.1.3.1.3-.1s.1-.3.2-.4c-.2 0-.4-.1-.5-.2v.7zm.5 5c.2-.2.5-.4.8-.5.4-.2.7-.4.8-.6.1-.1.1-.2.3-.4.1-.2.1-.3-.1-.3-.3.4-.6.6-1.1.8-.3.2-.6.5-.7 1zm.2 1.5c.2.1.3.3.1.6-.2.3-.1.5.2.6.8-.8 1.6-1.4 2.6-1.8-.1-.1-.1-.3 0-.5s0-.3-.3-.3c-.2.5-.6.8-1.2 1.1-.6.3-1 .4-1.4.3zm.7-7.5c.3-.2.6-.4.8-.7.3-.3.7-.4 1.3-.4-.1-.1-.1-.2 0-.3 0-.1 0-.1-.1-.1-.3.2-.7.4-1.2.6-.7.1-.9.4-.8.9zm.1-2.7c.4-.3.7-.5 1.2-.7.4-.2.7-.6.8-1.1-.4.2-.7.5-1.2.9-.4.3-.6.6-.8.9zm1.1 15c-.1-.2 0-.4.1-.6-.1 0-.2 0-.3-.1-.1-.1-.1-.1-.3-.1 0 .4.2.7.5.8zm-.2-43.6c-.3.4-.3.5-.1.5.3-.1.3-.2.1-.5zm1.7 4.4c-.1.1-.1.1-.3.1h-.3c-.4.3-.8.7-1.1 1.1-.3.5-.3.8 0 1.1.5-.5 1.1-1 1.6-1.5s1.1-1 1.8-1.4v-.8c0-.2-.1-.5-.2-.7-.3.2-.5.5-.7.9-.2.5-.5.8-.8 1.2zM4.8 56.9c0-.4-.1-.6-.4-.6.1.1.1.2.1.4.1.1.2.2.3.2zm-.1-20c.2 0 .2.1.3.2.1.1.2.1.4.1-.1-.1-.1-.3-.1-.5.1-.2 0-.4-.3-.4 0 .2 0 .3-.1.4-.1 0-.2.1-.2.2zM28.4 8c-.3-.4-.4-.9-.4-1.4 0-.5-.1-1-.2-1.4-.1-.5-.4-.8-.7-1.1-.4-.3-.6-.6-.7-1.1-.5-.1-.9-.3-1.2-.6-.4-.2-.8-.4-1.2-.5-1.1-.1-2.1-.1-3.2.2-1.1.2-2.3.3-3.4.3-1.4.6-2.7 1.4-3.8 2.3-1.1.9-2.2 1.8-3.2 2.8-.3.7-.5 1.4-.6 2.2-.1.8-.3 1.6-.5 2.3.2.5.3 1 .2 1.7-.1.7-.1 1.3 0 1.9.1 1.3.6 2.5 1.4 3.4.8.9 1.4 1.9 2 2.9.8.5 1.5 1 2.1 1.6.6.6 1.5 1 2.5 1.3.4.4.8.7 1.3.9.5.2 1 .5 1.4.7.4.2.7.4 1 .6.3.2.6.3 1.1.4.2.5.6.9 1.1 1.1.5.2.9.6 1.1 1.2.3.1.6.2.8.3.3.1.5.2.7.4.1.5.3 1 .6 1.3.3.4.5.7.7 1.1-.2.8-.1 1.5.3 2.2.4.6.7 1.3.8 2 .2.9.2 1.8.1 2.7-.1.9-.2 1.9-.4 2.9-.3.6-.6 1.1-.8 1.5-.3.4-.5.8-.8 1.3v.3c-.4.6-.8 1.1-1.3 1.3-.5.2-1.1.5-1.6 1-.3 0-.6 0-.9.1-.3.1-.6.2-.9.2-1.5.1-2.9-.1-4-.7s-2-1.3-2.7-2.2c-.7-.9-1.1-1.8-1.1-2.7-.1-1.3-.2-2.8-.1-4.3v-4.7c-.5-.2-1.1-.4-1.6-.4-.6 0-1.1.1-1.6.2s-1.1.2-1.7.3c-.6.1-1.2 0-1.8-.1-.1 1.4-.1 2.9 0 4.4.1 1.5.1 3.1 0 4.8-.1.5-.1 1-.2 1.4-.1.5-.1 1-.1 1.4V47.4c.1.5.2 1 .3 1.3.1.3.1.6.3.9.1.2.1.4.1.5 0 .2 0 .4.1.5.3 1.2.7 2.1 1.3 2.7.6.6 1.3 1.1 2.3 1.5.2.1.5.2.7.3.3.1.5.2.7.3 1.1.3 2.3.4 3.5.4 1.2 0 2.5 0 3.8.2.2.1.4.1.6.2.1.1.3.1.6.2.1.1.2.1.4 0 .1-.1.2-.1.4-.1s.4 0 .6.1c.1.1.3.1.5.1.3-.1.6-.1.8-.2s.5-.1.8 0c.6-.5 1.2-.9 2-1.2.7-.3 1.4-.6 2.1-1.1.5-.3.9-.6 1.2-1 .4-.4.8-.7 1.2-1 .2-.6.5-1.2.8-1.7.3-.5.6-1 .9-1.6.3-.7.5-1.4.7-2 .2-.6.5-1.3.7-1.9.2-1.5.4-2.9.7-4.3.3-1.4.5-2.9.6-4.3.1-1.2 0-2.2-.2-3-.2-.8-.4-1.6-.7-2.5-.4-1.1-.7-2-1.1-2.9-.1-.3-.2-.6-.3-.8-.1-.2-.2-.4-.3-.5-.3-.4-.7-.8-1.2-1.2-.5-.4-.9-.8-1.2-1.1-.2-.1-.3-.3-.4-.4-.1-.2-.2-.3-.4-.4-.3-.2-.7-.4-1.1-.5-.4-.1-.9-.3-1.4-.5-.4-.2-.8-.5-1.1-.8-.4-.3-.7-.5-1.1-.7-.4-.2-.8-.4-1.3-.5-.4-.1-.8-.2-1.1-.4-.2-.1-.3-.2-.4-.4-.1-.1-.2-.2-.4-.3-.2-.1-.5-.2-.7-.3-.2-.1-.5-.1-.8 0-.1-.4-.3-.6-.6-.7-.3-.1-.5-.3-.7-.4-.1-.2-.2-.2-.4 0-.1.1-.3.2-.5 0-.1-.1-.1-.3 0-.4.1-.2 0-.3-.1-.4-.5-.2-.9-.7-1.1-1.4-.2-.7-.3-1.4-.3-2.2 0-.8.2-1.5.5-2.1.3-.6.8-1.1 1.4-1.2.6-.2 1.1-.1 1.6.1s.9.6 1.2 1c.4.4.6.9.8 1.4.2.5.3 1 .4 1.4 1.3-.3 2.5-.6 3.7-.9 1.2-.3 2.5-.5 4-.5-.1-.9-.4-1.7-.8-2.4-.8-.4-1.1-1.2-1.1-2.3zM7.1 18.4c0 .2-.1.4-.2.4s-.2.1-.3.2c.1.1.2 0 .6-.4.3-.4.6-.6.9-.6 0-.3-.1-.4-.2-.4-.1.2-.2.4-.4.5 0 0-.2.1-.4.3zm-.3 40.7c.3-.1.5-.1.6.2.1.2.2.2.4 0-.2 0-.2-.1-.1-.4.1-.3 0-.4-.1-.4-.1.1-.2.2-.4.3-.2.1-.3.2-.4.3zm3-38.2c-.1.2-.3.5-.5.7-.2.2-.5.4-.7.6l-.6.6c-.1.2-.2.5-.2.7.5-.5.9-.9 1.4-1.3.4-.4.9-.8 1.4-1.2-.1-.1-.4-.1-.8-.1zM8.7 55.4c.1-.1 0-.2-.2-.3s-.3-.1-.4 0c.1 0 .2.1.2.2.1.1.2.2.4.1zm.6-30.3c.4.2.6.4.9.4.2-.6.5-1.1.8-1.4.4-.4.7-.8 1-1.2-.6 0-1.1.3-1.5.8-.4.5-.8 1-1.2 1.4zm3.6 33.3c-.5.2-.9.5-1.3.9s-.8.7-1.3 1c.2.2.6.3 1 .3.1-.5.3-.9.7-1.2.3-.4.6-.7.9-1zm-1.5-32c.2.1.4.2.6.4.1.1.4.2.7.3-.1-.2-.1-.4-.1-.6 0-.2 0-.4-.1-.6.3-.2.6-.4 1.1-.5.4-.1.7-.4.8-.8l-.9-.6c-.2.6-.5 1-1 1.3-.4.2-.8.6-1.1 1.1zm4.2 32.1c-.2.2-.5.4-.8.7l-.7.7c-.2.2-.5.3-.7.5-.2.1-.3.4-.4.7.3-.1.6-.1.8 0 .2.1.5.1.8.1.1-.8.5-1.5 1.2-2.1.7-.6 1.4-1.1 2.1-1.5-.2.1-.4.1-.6 0-.2-.1-.4 0-.5.1.1.3 0 .5-.3.6-.4 0-.6.1-.9.2zm-2.2-31c.2 0 .4.1.5.2.1.1.3.2.4.3 0-.2-.1-.5-.4-.9.1.2 0 .3-.3.3-.1-.1-.2 0-.2.1zm1.8 1.3c.2.3.5.2.7-.2.3-.4.5-.8.8-1.1.2-.1.5-.2.9-.4.4-.1.4-.3.1-.5-.5.2-1 .6-1.3 1-.3.6-.7.9-1.2 1.2zm2.2 16.3c-.2-.1-.3-.3-.3-.5s-.1-.3-.4-.3c0 .2-.1.2-.2.2s-.2.1-.1.3c.3.4.6.7.9 1.1.3.4.8.6 1.4.7.1-.1.2-.2.1-.4 0-.2 0-.2.2-.2.9-.2 1.7-.6 2.3-1.2.6-.6 1.2-1.2 1.8-1.7.1-.1.3-.2.5-.3.2-.1.4-.2.4-.4-1.1.5-2.2 1-3.2 1.4-1 .6-2.1 1-3.4 1.3zm-.7 16c.6-.1 1-.2 1.3-.4-.2-.3-.2-.5 0-.7.2-.2.2-.4 0-.5-.2.3-.4.6-.7.8-.2.3-.4.5-.6.8zm1.2-31.7c.1-.1.1-.2.2-.2s.2-.1.2-.2c-.1-.1-.2 0-.4.1-.1.2-.1.3 0 .3zm.1 13.4c0-.1.1-.2.2-.2.2-.1.4 0 .4 0 .1.1.2.1.4.1 1.2-.6 2.4-1.1 3.6-1.6 1.2-.5 2.3-1.1 3.2-1.9.1-.1.2-.1.4 0 .1.1.2.1.3-.1-.2-.1-.2-.3-.1-.6.1-.4 0-.5-.3-.4-.5.4-.9.7-1.4 1-.5.3-.9.6-1.4.9-.4.2-.8.3-1.1.4-.4.1-.7.2-1.1.4-.4.2-.8.5-1.2.7-.4.3-.8.3-1.3.1-.1.2-.3.4-.4.6-.3.3-.3.4-.2.6zM19 12c-.3.4-.5.7-.7 1-.2.3-.3.8-.3 1.4.4-.2.7-.4.9-.7.2-.3.5-.7.7-1h.4c0-.3-.1-.5-.3-.5-.1-.1-.4-.2-.7-.2zm3.8 18.2c-.6.4-1.2.8-1.8 1.3-.5.5-1.1.9-1.8 1.3v.6c0 .2-.2.4-.4.5.8-.5 1.6-1 2.4-1.6.8-.6 1.6-1.1 2.5-1.5-.2-.1-.3-.2-.4-.4 0-.1-.2-.2-.5-.2zM20 35.6c-.5 0-.8.1-.9.2.2.1.2.4.1.7s0 .6.1.7c.6-.8 1.4-1.5 2.3-2 .9-.5 1.8-1 2.6-1.6-.1-.3 0-.5.1-.7.1-.2.2-.3.4-.4-.9.4-1.8.9-2.5 1.4-.8.5-1.5 1.1-2.2 1.7zm5.2-.5c-.9.6-1.8 1.2-2.6 1.8-.9.6-1.7 1.2-2.5 1.8-.2.1-.3.1-.5-.2-.1-.2-.2-.2-.3.1-.1 0-.1.2 0 .5 0 .3.1.5.2.7 1.3-.5 2.5-1 3.6-1.7 1.1-.6 2-1.5 2.8-2.5-.1-.1-.2-.2-.2-.4-.1-.1-.2-.1-.5-.1zm-5.5-6.9c0-.1.1-.2.3-.1.2 0 .2 0 .2-.2-.1-.1-.2-.1-.3-.2-.1-.1-.2-.1-.4 0 0 .3.1.5.2.5zm2.2-12.3c0-.1-.1-.2-.3-.4-.2-.1-.3-.2-.4-.2-.3-.1-.6.2-1 .7-.4.5-.6 1-.7 1.3.2.1.3.1.5.2.1.1.3.1.6.2.1-.2.3-.5.7-.9s.6-.7.6-.9zM19.7 58c.2 0 .3 0 .3-.1s.1-.2.2-.3c-.3.1-.5 0-.6-.1.1.2.1.4.1.5zm.1 2.6h.8c0-.2-.1-.3-.4-.4-.1.1-.1.2-.2.2l-.2.2zm2.8-.4c.4-.1.7-.2 1-.4l.7-.7c-.8.3-1.4.7-1.7 1.1zm.7-14.4c.3-.1.6-.3.9-.6.3-.3.4-.5.3-.8-.2.2-.4.5-.6.7-.2.3-.4.5-.6.7l-.2-.1v.2c-.1 0-.2.1-.4.3.1.1.2.1.2 0s.1-.1.2-.1l.2-.1v-.2zm2.2-30.2c0-.1 0-.1.1-.2s0-.1-.1-.2c0 .1 0 .2-.1.2-.1.1-.1.2.1.2zm1.4 1.4c-.4.1-.6.3-.8.6-.2.3-.4.5-.7.7.2 0 .4 0 .6.1.2.1.3.1.4.2.3-.3.4-.7.3-1.2l.6-.6c.1-.2.4-.4.8-.4.3-.3.5-.6.6-.9.1-.3.3-.6.6-.9h-.9c-.1.3-.2.5-.4.7-.2.2-.2.5-.1.7-.3.1-.5.2-.7.4-.1.3-.2.5-.3.6zm-1.2 24.9h.3v-.3h-.3v.3z" fill="#fff100"/><path class="st1" d="M83.9 56.8c-.1.2 0 .4 0 .5.1.1.2.1.3.2.1 0 .2.1.3.2s.1.2 0 .5c-1 .4-1.8.9-2.3 1.7-.6.8-1.2 1.5-1.8 2.3-.5-.2-.8-.3-1.1-.2-.2.1-.6.2-1 .5-.9.1-1.7.1-2.5.3l-2.4.3c-.8.1-1.4-.1-2.2-.1-.8-.1-1.6-.3-2.5-.6-.8-2.9-1.7-5.8-2.5-8.6-.9-2.8-1.7-5.7-2.5-8.6-.2-.2-.4-.3-.5-.4-.2-.1-.4-.3-.5-.4-.5 1.1-.8 2.2-1.1 3.3-.3 1.2-.5 2.3-.7 3.5-.2 1.1-.4 2.3-.6 3.4-.2 1.1-.5 2.2-.8 3.3-.8.2-1.4.7-1.6 1.4-.3.7-.6 1.3-1.1 1.8-.4 0-.7 0-.8.1-.1.1-.3-.1-.4-.4-.3-.1-.4 0-.4.3s-.1.3-.4.2c-1-.2-2.1-.2-3.2-.2-1.1.1-2.1-.1-2.9-.5-1 .5-2.1.8-3.3.8-1.2 0-2.3-.1-3.2-.3.1-.6.2-1.2.5-1.6.3-.4.5-.9.6-1.5.1-.4.1-.5-.1-.6-.2 0-.3-.2-.2-.4.2-.5.4-1 .4-1.7 0-.6.2-1.1.6-1.4-.1-.5-.1-1-.1-1.5.1-.6.1-1.1.3-1.5.4-1.6.7-3.1 1-4.4.3-1.4.6-3 .8-4.9.2-2.2.6-4.4 1.1-6.7.5-2.2.8-4.4 1.1-6.7.1-.5 0-.9 0-1.4-.1-.4-.1-.9 0-1.4.1-1 .3-1.9.7-2.8.3-.9.5-1.8.7-2.7.1-1.3.2-2.7.1-4.2 0-1.4-.1-3-.1-4.8.4-.4.6-.7.7-.9.1-.3.1-.7.2-1.3.2 0 .5 0 .8-.1.3-.1.5.1.5.4.8-.4 1.3-.9 1.7-1.7-1 .4-1.5.7-2 1-.6.3-1.1.3-1.7 0 .8-.8 1.7-1.6 2.5-2.3.9-.7 1.7-1.5 2.5-2.3.7.1 1.1 0 1.3-.1.2-.1.4-.5.7-1.1.9-.1 1.6.2 2 .9-.5.4-.7.8-.7 1.3s-.1 1.1-.2 1.8c-.2 1.3-.5 2.8-.9 4.4-.4 1.6-.6 3.2-.7 4.9-.1.9-.1 1.8-.1 2.7.1.9-.1 1.6-.6 2.3-.6 3.9-1.1 7.5-1.4 11-.3 3.5-1 7-1.9 10.7-.1.4-.1.6.2.6.2 0 .3.1.3.4-.3 2-.7 4-1.3 5.9-.6 1.9-1 3.7-1.2 5.4.4.3 1 .5 1.6.5H54c.7-.1 1.4-.1 2.2 0 .7 0 1.3.2 1.8.4.3-1.2.6-2.7.8-4.7.3-2 .7-3.9 1.2-5.7.1-.5.2-1 .4-1.5.1-.5.3-1 .6-1.3.2-.4.5-.6.8-.7.3-.1.7 0 1.3.3.1.4 0 .7-.1.9-.1.2-.3.5-.4.7.8.1 1.7.1 2.5 0 .9-.1 1.7-.2 2.5-.4.8-.1 1.6-.2 2.5-.2.8 0 1.6.2 2.3.5-.1.5-.1.9 0 1.2.1.3.2.6.4.8.1.2.3.4.5.6.2.2.4.4.5.7.1.4 0 .6-.3.6-.3.1-.4.3-.3.6.5 1.1.9 2.2 1.2 3.4.4 1.2.7 2.5 1.1 3.7.5-.1.8-.3 1.1-.5.2-.2.7-.3 1.3-.2.2.2.3.5.4.8.1.3 0 .6-.3.8 1-.1 1.8-.1 2.5.2.7.2 1.4.5 2.1.7-.3-1.7-.6-3.3-.9-4.9-.3-1.5-.5-3.1-.7-4.8-.5-5-1.4-9.8-2.5-14.5-1.1-4.7-2.3-9.5-3.6-14.5-.1-.1 0-.2 0-.4.1-.1.1-.3.1-.4-.1-.1-.1-.3-.3-.4-.1-.2-.2-.3-.3-.4-.3-1.1-.5-2.3-.6-3.4-.1-1.2-.3-2.3-.6-3.3-.5-1.3-1-2.6-1.6-3.8C71 5 70.4 3.8 70 2.6c-.5.2-.8.2-1.1.2-.3 0-.6-.2-1.1-.4-.7 0-1.5.1-2.5.4-.9.3-1.9.5-2.8.7-.9.2-1.7.2-2.5.1s-1.3-.6-1.6-1.4c2-.3 4-.6 5.9-1 2-.4 4.1-.5 6.3-.4.1.3.2.5.4.7.1.2.1.4-.1.6.3.1.5.1.7.3.1.1.3.2.6.3.8 2.2 1.7 4.5 2.6 6.8.9 2.3 1.3 4.9 1.3 7.7 1.9 5.8 3.4 11.7 4.5 17.6 1.1 5.9 2.1 12 2.8 18.2.6.5.8 1 .7 1.7 0 .6-.1 1.3-.2 2.1zm-39.7 3c.6-.1 1.2-.2 1.6-.5.4-.3.8-.6 1.2-1.1.4-.4.7-.8.9-1.3.3-.5.5-.9.8-1.3 0-.1-.1-.2-.4-.2-.6.8-1.3 1.6-1.8 2.5-.6.8-1.4 1.4-2.3 1.9zm1.5-4.2c-.2.1-.4.2-.7.1-.3 0-.3.2 0 .6.8-.5 1.4-1 2.1-1.7.6-.7 1.2-1.4 1.6-2.2-.6.5-1.1 1-1.5 1.6-.5.6-.9 1.1-1.5 1.6zm.1-5.2c0 .4-.1.7-.2 1.2-.1.4-.2.8 0 1 .3-.3.6-.7.8-1.1.3-.4.1-.8-.6-1.1zm2.1-13.3c.1.4 0 .8 0 1.2-.1.4-.1.7 0 .8.2-.5.5-.9.8-1.2.4-.4.8-.7 1.1-1 .4-.3.7-.7 1.1-1.1.3-.4.5-.9.7-1.5-.4.1-.7.4-1 .7-.3.4-.5.8-.7 1.1-.2.4-.5.7-.8.9-.3.3-.7.3-1.2.1zm3 22.4c-.3-.5-.4-.9-.3-1.3.1-.4.3-.8.6-1.2-.7.1-1.2.4-1.4.9-.3.5-.6 1-1.1 1.3.2.1.5.1.9.1s.8.1 1.3.2zm-1.1-11.3c-.4.1-.6.3-.9.8.5-.1.8-.3.9-.8zm-.2-21c.2-.2.4-.5.4-.7 0-.2-.2-.4-.6-.5.1.3.1.5.1.7-.1.2 0 .4.1.5zm1-8c.1.5 0 .8 0 1.1-.1.3-.1.5 0 .7.2-.2.5-.4.7-.7s.6-.5.9-.7c.3-.2.6-.4.9-.4.3-.1.6.1.9.4.1-.7.2-1.3.3-1.9.1-.6.2-1.1.2-1.7-.5.1-.8.4-1.1.7-.2.4-.5.8-.7 1.1-.2.4-.5.7-.8 1-.3.3-.8.4-1.3.4zm0 13.2c.2-.3.6-.6 1.1-.8.5-.2.6-.6.3-1.2-.1.4-.4.8-.9 1.1-.5.2-.7.6-.5.9zm1.7-7.3l.4-.4c.2-.2.3-.4.4-.5.1-.2.2-.4.2-.5 0-.2-.1-.3-.4-.4 0 .4-.2.7-.5 1-.3.2-.3.5-.1.8zm3 35c.1-.5.4-1.1.9-1.6.6-.5 1-1.1 1.3-1.6-.4-.2-.9-.2-1.5-.1-.6.2-1 .2-1.3.2.4.5.6.8.6 1.1-.4.4-.7.9-1 1.6.1.1.3.2.5.4.2.3.4.3.5 0zm.5-55.4c-.3.1-.5.2-.6.4-.1.2-.2.4-.4.7.6-.3 1-.6 1-1.1zm6.4 20.6c0-.5.2-.7.5-.6-.1-.2-.2-.3-.3-.4-.1-.1-.3-.2-.4-.3.4-2 .6-3.9.7-5.7.1-1.8.4-3.7.7-5.8.4-.1.7-.1.8 0 .1.1.4.2.7.4.6-.2 1.1-.2 1.4 0 .4.2.7.4 1.1.7.5 2.6 1 5.2 1.4 7.6.5 2.5 1.2 4.7 2 6.8-.1.1-.2.2-.4.3-.1.1-.2.3-.1.6-.3.1-.5 0-.5-.3s-.1-.5-.2-.6c-.1.5-.4.6-.9.4-.5-.2-.8-.3-1.1-.4-.3.4-.7.6-1.1.5-.2-.1-.4-.3-.4-.6-.1-.3-.1-.5-.3-.7-.2 0-.4 0-.6.1-.1.1-.4.1-.7 0-.1-.4-.2-.6-.4-.8-.2-.2-.4-.3-.7-.4-.3-.1-.5-.2-.7-.4-.1 0-.3-.2-.5-.4zm4.2-8.1c-.4.2-.8.4-1.1.7l-.9.9c1-.3 1.6-.9 2-1.6zM66 45.8c0-.2.1-.3.2-.4.1-.1.2-.2.3-.4-.2.1-.4.1-.7 0-.3-.1-.4 0-.4.2.2 0 .2.1.2.3.1.3.2.3.4.3zm.6-23.7c.1.2 0 .3 0 .4-.1.1-.2.1-.4.1-.1 0-.3.1-.4.1-.1.1-.1.2 0 .4.3-.1.6-.2.8-.3.3-.1.5-.2.7-.5-.1-.1-.2-.1-.3-.2h-.4zm2 4.4c.1-1.2-.2-1.8-.8-1.8-.6 0-1.1.4-1.6 1.1.3.1.5.1.7 0 .1-.1.4-.2.7-.2.2.1.3.3.3.6-.1.4.2.4.7.3zm2.1 20c-.5.9-1.1 1.7-1.9 2.3-.8.6-1.4 1.3-1.9 2.3.8-.3 1.4-.9 2.1-1.8.6-.9 1.2-1.7 1.9-2.4-.1-.1-.1-.1 0-.2 0-.2 0-.2-.2-.2zm-2.8 7.2c.6-.3 1.3-.8 2-1.5l2-2c-.2-.1-.2-.3-.2-.5s-.1-.3-.3-.4c-.6.8-1.2 1.4-1.9 2.1-.7.6-1.2 1.4-1.6 2.3zm4.5-1.6c-.2.4-.5.8-.9 1.1s-.9.7-1.3 1.1c-.4.4-.7.7-1 1.1-.2.4-.3.9-.1 1.4.5-.7 1.1-1.3 1.8-1.9.7-.6 1.5-.9 2.3-1-.2-.3-.3-.6-.4-.9 0-.3-.2-.6-.4-.9zm-1.8 8.2c.4-.9.9-1.7 1.6-2.2.7-.6 1.4-1.1 2.1-1.6-.1-.5-.4-.9-1-1.1L72 56.7c-.4.4-.9.8-1.4 1.1.1.2 0 .5-.3.7-.3.3-.5.5-.6.8.1.5.3.9.4 1.2.2.4.3.7.4 1 .3-.2.4-.4.3-.5-.1-.2-.2-.4-.2-.7zm6.7-2.5c-.7-.1-1.3 0-1.8.2s-.9.4-1.2.8-.7.7-1 1.2c-.3.4-.6.9-1 1.3 1.2-.2 2.1-.7 2.7-1.4.7-.9 1.5-1.6 2.3-2.1zm.8 3c-.1-.2-.1-.5 0-.7.1-.3.1-.4 0-.4-.1.2-.3.4-.6.5-.3.1-.5.3-.6.6.3 0 .5 0 .6.1.1.1.3.1.6-.1zm1.2-2.1c.1-.3.3-.5.6-.5s.4-.2.5-.6h-.9c.1.2 0 .5-.2.7-.1.2-.1.3 0 .4zM108.6.8c.1.5-.1 1-.4 1.3.4.7.8 1.3 1.3 1.9.5.6.9 1.3 1.3 2 .4-.3.6-.7.8-1.1.2-.4.5-.8.9-1.1 1.6-.3 3.1-.7 4.3-1.4 1.2-.6 2.5-1.2 3.8-1.7.2-.1.3-.1.4 0 .1.1.1.2.3.2.6-.6 1.4-.8 2.3-.7.9.1 1.9.1 2.9-.1.5.4 1.1.6 1.8.7.7.1 1.4.1 2.2.1.8 0 1.6-.1 2.3-.3.8-.2 1.4-.4 2-.5.3.2.5.4.6.7.1.3.2.6.4.7-1 1.4-2 2.8-3.1 4.1-1.1 1.3-2.1 2.7-3.1 4.1-.1.1-.2.1-.3.2-.1.1-.2.1-.4.1-.1.6-.4 1.2-.7 1.8-.4.6-.7 1.1-1.1 1.7-.4.6-.7 1.2-1.1 1.7-.4.6-.8 1-1.3 1.4-.5 1.3-1.3 2.5-2.2 3.5-.1 3.2-.3 6.3-.4 9.4-.2 3.1-.3 6.4-.4 9.8-.1 1.5-.2 3.3-.3 5.4-.1 2-.2 3.8 0 5.2 0 .9.1 1.9.2 2.8.1.9.1 1.8-.2 2.6.1.3-.1.4-.4.4-.3 0-.5 0-.5.2-.1.2-.1.4.1.6.2.2.2.5.2.8-.7.8-1.4 1.6-2.2 2.2-.8.7-1.6 1.3-2.4 2-.1.1-.1.3-.1.6.1.3 0 .5-.1.6-1.3.6-2.2.4-2.6-.6-.6.1-1.2.1-1.7.1-.6 0-1-.1-1.3-.4-.9.4-2 .6-3.3.5-1.3-.1-2.5-.1-3.5-.3-.4-.4-.6-.8-.6-1.3-.1-.5-.1-1 0-1.5s.1-1.1.2-1.6 0-1-.1-1.4c-.1-.2-.2-.4-.3-.5-.1-.2-.3-.4-.4-.5-.1-.2-.1-.4-.1-.5 0-.2.2-.4.5-.5-.1-.5-.2-1-.2-1.5v-1.6c.1-1.4 0-3-.2-4.7-.2-1.7-.3-3.4-.3-5v-3.6c0-1.3-.1-2.7-.1-4-.1-1.4-.1-2.7-.1-4v-3.5c0-.1 0-.3.1-.4.1-.2.1-.3 0-.4-.1-.4-.3-.7-.5-.7-.2-.1-.5-.3-.7-.6-1.4-1.4-2.6-3.2-3.6-5.3-.6-.6-1.1-1.2-1.5-1.9s-.9-1.4-1.4-2.2c-.2 0-.4-.1-.5-.2-.1-.1-.3-.2-.6-.2-.1-.3-.2-.5-.3-.7-.1-.1-.2-.4-.1-.8-.9-.1-1.6-.5-1.9-1.3-.3-.8-.6-1.7-.7-2.5-.1-.2-.1-.5-.2-.7-.1-.2-.1-.4-.1-.6.1-.3.2-.5.4-.6.2-.1.4-.3.5-.6.5-.8 1-1.8 1.4-2.8.5-1.1 1-1.8 1.5-2.3.3 0 .5.1.7.2.2.1.4.3.6.4.2-.1.2-.2 0-.4-.2-.1-.2-.3-.1-.6 2.2-.1 4.2-.3 6.1-.6 1.9-.3 4-.2 6.1 0 .3-.5 1-.3 1.5.3zM93.2 5.5c.2-.2.5-.4.7-.5.2-.2.4-.4.5-.7-.3.1-.6.3-.8.6-.3.2-.4.4-.4.6zm4.2 2.7c-.2.2-.4.3-.7.2-.1.3-.4.6-.7.7-.3.1-.7.3-1 .4-.4.1-.7.3-.9.6-.3.2-.4.6-.4 1.1.8-.3 1.6-.8 2.3-1.4.7-.7 1.2-1.2 1.4-1.6zM94 7.6c.5-.1.8-.3 1.1-.5.3-.2.6-.4 1.1-.5-.1-.4-.3-.6-.5-.6-.2.4-.5.6-.8.8-.3.2-.6.5-.9.8zm1.1-4.9c.7.8 1.4 1.7 2.1 2.6.7.9 1.4 1.8 2.2 2.6 1.1 1.7 2.4 3.3 3.8 4.9 1.4 1.6 2.5 3.3 3.3 5.1.6.5 1.2.9 2 1.3.7.4 1.2 1.1 1.3 1.9.1.4.1.8 0 1.4-.1.6-.1 1.1-.1 1.7-.1.8-.1 1.6-.1 2.2v1.9c.1.8.1 1.5.1 2-.1.5-.1 1.1-.3 1.7 0 .1.1.1.2.1s.2.1.2.2c-.1.6-.2 1.3-.1 1.9v1.5c0 .5 0 1 .1 1.3.1.3.1.7.3 1.2.2 1.1.3 2 .3 3v2.6c0 .7.1 1.4.4 2.2.2.7.2 1.4-.1 2.2.3.3.4.8.3 1.5-.1.7-.3 1.2-.5 1.6.1.5.1 1 0 1.4-.1.5-.1 1.1.2 1.9 1.6.1 3 .1 4.2 0 1.2 0 2.6-.2 4.3-.4.2-.1.4-.1.6.2.2.2.3.2.3-.1.1-.9.1-1.8 0-2.7-.1-.9-.2-1.7-.2-2.5 0-2.7.1-5.3.2-7.8s.3-5 .4-7.4c.1-2.5.3-4.9.4-7.3.1-2.4.1-4.9.1-7.4.4-.2.6-.5.7-.8.1-.4.4-.7.7-.8.2-.9.6-1.6 1.4-2.2 0-.5.1-.8.4-1 .2-.2.5-.4.7-.6.3-.8.7-1.5 1.3-2.2.6-.6.9-1.2 1.1-1.9 1.1-1.1 2-2.2 2.9-3.5.8-1.3 1.7-2.5 2.7-3.7-.5-.1-1 0-1.4.1-.4.1-.8.2-1.3.3-.6 0-1.3-.1-1.9-.2-.6-.1-1.2-.3-1.8-.4-.6-.1-1.2-.2-1.9-.3-.6 0-1.3.1-2 .3-.2.3-.5.7-.7 1.3-.2.6-.5.9-1 1.1 0 .9-.4 1.6-1.1 2.1.1.5 0 .8-.4 1.1-.4.3-.6.6-.8 1-.1.2-.2.5-.2.7 0 .3-.1.5-.2.7-.2.5-.6 1-1 1.6-.4.6-.8 1.1-1.1 1.5.1.5.2.9.1 1.2 0 .4-.3.5-.9.5-1.2-1.1-2.1-2.3-2.9-3.7-.7-1.3-1.5-2.7-2.3-4.2-.5-.9-1.1-1.7-1.6-2.5-.6-.8-1-1.7-1.4-2.6-2 .1-4 .1-6.1.2-2.3.2-4.2.3-5.9.4zm2.4 10.9c.5-.2.7-.4.8-.5-.5.1-.7.3-.8.5zm1.3 1.7c-.2.1-.5.2-.9.4-.4.1-.5.4-.4.7.8-.4 1.5-.9 2.2-1.4.6-.5 1.3-1 2.2-1.3 0-.3-.2-.5-.5-.6-.2.5-.5 1-1.1 1.3l-1.5.9zm3.5.7c-.6.4-1.3.7-2 1-.7.3-1.2.8-1.4 1.4.9-.3 1.7-.7 2.4-1.2s1.4-1 2-1.6c-.2.1-.5.1-.7 0-.3 0-.4.1-.3.4zm-1.8 4.6c.5-.5 1-1 1.7-1.3l1.8-1.2c.2-.1.4-.2.7-.3.3-.1.3-.2 0-.4-.6.2-1.2.5-1.8 1.1-.6.6-1.3 1-2.1 1.2 0 .2-.1.4-.2.6-.2.2-.2.3-.1.3zm3.2 24.1c.3.1.6 0 .9-.3.3-.2.5-.5.7-.7-.3.1-.6.2-.9.4-.2.2-.5.4-.7.6zm.4 8.3c.8-.3 1.6-.8 2.3-1.7-.6-.2-1.1 0-1.3.6-.2.6-.5 1-1 1.1zm.1-25.2c.8-.3 1.5-.8 2-1.4.5-.6 1.1-1 1.8-1.1-.1-.1-.1-.3 0-.5 0-.2-.1-.2-.3-.1-.5.6-1.1 1.2-1.8 1.5-.7.4-1.2.9-1.7 1.6zm0 11.5c.4-.1.8-.3 1.1-.6.4-.3.7-.5 1-.7.3-.2.7-.4 1-.6.4-.1.7-.2 1.1-.1v-.8c-1.8.7-3.2 1.6-4.2 2.8zm.8-4.2c.1.5 0 .8-.4 1.1.5-.2 1.1-.6 1.8-1 .6-.4 1.3-.8 1.9-1.1.1-.3.1-.5 0-.7-.1-.2 0-.4.1-.7-1.3.6-2.4 1.4-3.4 2.4zm3.9 8.5l-.4.4c-.2.2-.4.2-.7 0-.2.4-.4.6-.7.9-.3.2-.6.5-.9.7-.3.2-.6.4-.9.7-.3.3-.5.6-.7.9.8-.5 1.5-1 2.2-1.6.6-.6 1.5-1 2.5-1.3 0-.2 0-.4.1-.5-.1-.2-.2-.2-.5-.2zm-2.3 12.7c-.2.5-.5.9-1.1 1.1-.5.2-.8.6-1 1.2.9-.5 1.8-1 2.5-1.5.8-.6 1.5-1.2 2.1-2-.2-.2-.2-.3-.2-.3-.6.7-1.5 1.2-2.3 1.5zm-1.7-.8c.6-.5 1.3-.9 1.9-1.4.6-.5 1.2-.9 1.9-1.4-.1-.1-.1-.2 0-.3 0-.1 0-.1-.1-.2-.5.6-1.2 1.1-2 1.6-1 .5-1.5 1.1-1.7 1.7zm.2-6.2c.6-.4 1.3-.8 1.9-1.3.6-.5 1.2-.9 1.9-1.2.1-.1.3-.1.5-.1.2.1.3-.1.2-.4-1 .3-1.8.7-2.5 1.3-.7.6-1.3 1.2-2 1.7zm.5-5.7c.5-.5 1.1-.8 1.8-1.1.7-.3 1.2-.7 1.6-1.3-.6.3-1.3.6-2 1-.6.2-1.1.7-1.4 1.4zm.1-14.1c.4-.2.8-.5 1.1-.7.4-.3.8-.5 1.3-.6v-.4c0-.1 0-.2-.1-.2-.3.4-.7.7-1.3 1-.5.3-.8.6-1 .9zm4.2 27.4c-.5.7-1.1 1.2-2 1.6-.8.4-1.5.9-2.1 1.6.8 0 1.4-.1 2-.4.6-.2 1.1-.5 1.5-.9s.9-.7 1.3-1.1c.4-.4.8-.7 1.3-1-.5-.1-.8 0-1.1.1-.2.2-.6.2-.9.1zM108 22.1c-.1-.3-.1-.5 0-.6.1-.1.1-.2.1-.5-.2-.2-.4-.3-.6-.5-.2-.1-.5-.3-.7-.5.1.5.3.8.5 1.1.2.4.4.7.7 1zm-.5 28c.4-.2.7-.3.9-.1.3.1.6.2.9 0v-.5c0-.2-.1-.5-.2-.7-.1.4-.4.6-.8.7-.4 0-.7.2-.8.6zm2.9 9.8c.5.1.8.2 1.1.1.2 0 .6 0 1.1.1-.1-.4 0-.7.3-.9.3-.3.6-.5 1-.8.4-.3.8-.5 1.1-.8.4-.3.6-.6.7-1.1-.6.1-1.2.3-1.6.6l-1.2.9c-.4.3-.8.7-1.1 1-.5.4-.9.6-1.4.9zm2.7-52.1c.1.3-.1.5-.4.7-.3.2-.4.4-.3.5.9-.3 1.8-.7 2.5-1.4.8-.6 1.7-.9 2.7-.9.1-.2.2-.4.5-.7.3-.3.3-.4 0-.5-.6.3-1.4.7-2.3 1.1-.7.6-1.7 1-2.7 1.2zm1 52.4c.2.1.3.1.4 0 .1-.1.2-.3.4-.4-.4.1-.7.3-.8.4zm5.5-56.4c0-.1.1-.2.2-.3.1-.1.2-.1.2-.3-.1 0-.2-.1-.2-.2h-.3c.1.2.1.3 0 .4-.1.2 0 .3.1.4zM181.9 56.8c-.1.2 0 .4 0 .5.1.1.2.1.3.2.1 0 .2.1.3.2s.1.2 0 .5c-1 .4-1.8.9-2.3 1.7-.6.8-1.2 1.5-1.8 2.3-.5-.2-.8-.3-1.1-.2-.2.1-.6.2-1 .5-.9.1-1.7.1-2.5.3l-2.4.3c-.8.1-1.6.1-2.4 0-.8-.1-1.6-.3-2.5-.6-.8-2.9-1.7-5.8-2.5-8.6-.9-2.8-1.7-5.7-2.5-8.6-.2-.2-.4-.3-.5-.4-.2-.1-.4-.3-.5-.4-.5 1.1-.8 2.2-1.1 3.3-.3 1.2-.5 2.3-.7 3.5-.2 1.1-.4 2.3-.6 3.4-.2 1.1-.5 2.2-.8 3.3-.8.2-1.4.7-1.6 1.4-.3.7-.6 1.3-1.1 1.8-.4 0-.7 0-.8.1-.1.1-.3-.1-.4-.4-.3-.1-.4 0-.4.3s-.1.3-.4.2c-1-.2-2.1-.2-3.2-.2-1.1.1-2.1-.1-2.9-.5-1 .5-2.1.8-3.3.8-1.2 0-2.3-.1-3.2-.3.1-.6.2-1.2.5-1.6.3-.4.5-.9.6-1.5.1-.4.1-.5-.1-.6-.2 0-.3-.2-.2-.4.2-.5.4-1 .4-1.7 0-.6.2-1.1.6-1.4-.1-.5-.1-1-.1-1.5.1-.6.1-1.1.3-1.5.4-1.6.7-3.1 1-4.4.3-1.4.6-3 .8-4.9.2-2.2.6-4.4 1.1-6.7.5-2.2.8-4.4 1.1-6.7.1-.5 0-.9 0-1.4-.1-.4-.1-.9 0-1.4.1-1 .3-1.9.7-2.8.3-.9.5-1.8.7-2.7.1-1.3.2-2.7.1-4.2 0-1.4-.1-3-.1-4.8.4-.4.6-.7.7-.9.1-.3.1-.7.2-1.3.2 0 .5 0 .8-.1.3-.1.5.1.5.4.8-.4 1.3-.9 1.7-1.7-.4.3-.9.6-1.4.9-.6.3-1.1.3-1.7 0 .8-.8 1.7-1.6 2.5-2.3.9-.7 1.7-1.5 2.5-2.3.7.1 1.1 0 1.3-.1.2-.1.4-.5.7-1.1.9-.1 1.6.2 2 .9-.5.4-.7.8-.7 1.3s-.1 1.1-.2 1.8c-.2 1.3-.5 2.8-.9 4.4-.4 1.6-.6 3.2-.7 4.9-.1.9-.1 1.8-.1 2.7.1.9-.1 1.6-.6 2.3-.6 3.9-1.1 7.5-1.4 11-.3 3.5-1 7-1.9 10.7-.1.4-.1.6.2.6.2 0 .3.1.3.4-.3 2-.7 4-1.3 5.9-.6 1.9-1 3.7-1.2 5.4.4.3 1 .5 1.6.5h2.1c.7-.1 1.4-.1 2.2 0 .7 0 1.3.2 1.8.4.3-1.2.6-2.7.8-4.7.3-2 .7-3.9 1.2-5.7.1-.5.2-1 .4-1.5.1-.5.3-1 .6-1.3.2-.4.5-.6.8-.7.3-.1.7 0 1.3.3.1.4 0 .7-.1.9-.1.2-.3.5-.4.7.8.1 1.7.1 2.5 0 .9-.1 1.7-.2 2.5-.4.8-.1 1.6-.2 2.5-.2.8 0 1.6.2 2.3.5-.1.5-.1.9 0 1.2.1.3.2.6.4.8.1.2.3.4.5.6.2.2.4.4.5.7.1.4 0 .6-.3.6-.3.1-.4.3-.3.6.5 1.1.9 2.2 1.2 3.4.4 1.2.7 2.5 1.1 3.7.5-.1.8-.3 1.1-.5.2-.2.7-.3 1.3-.2.2.2.3.5.4.8.1.3 0 .6-.3.8 1-.1 1.8-.1 2.5.2.7.2 1.4.5 2.1.7-.3-1.7-.6-3.3-.9-4.9-.3-1.5-.5-3.1-.7-4.8-.5-5-1.4-9.8-2.5-14.5-1.1-4.7-2.3-9.5-3.6-14.5-.1-.1 0-.2 0-.4.1-.1.1-.3.1-.4-.1-.1-.1-.3-.3-.4-.1-.2-.2-.3-.3-.4-.3-1.1-.5-2.3-.6-3.4-.1-1.2-.3-2.3-.6-3.3-.5-1.3-1-2.6-1.6-3.8-.6-1.2-1.2-2.4-1.6-3.6-.5.2-.8.2-1.1.2-.3 0-.6-.2-1.1-.4-.7 0-1.5.1-2.5.4-.9.3-1.9.5-2.8.7-.9.2-1.7.2-2.5.1s-1.3-.6-1.6-1.4c2-.3 4-.6 5.9-1 2-.4 4.1-.5 6.3-.4.1.3.2.5.4.7.1.2.1.4-.1.6.3.1.5.1.7.3.1.1.3.2.6.3.8 2.2 1.7 4.5 2.6 6.8.9 2.3 1.3 4.9 1.3 7.7 1.9 5.8 3.4 11.7 4.5 17.6 1.1 5.9 2.1 12 2.8 18.2.6.5.8 1 .7 1.7-.4.6-.5 1.3-.6 2.1zm-39.8 3c.6-.1 1.2-.2 1.6-.5.4-.3.8-.6 1.2-1.1.4-.4.7-.8.9-1.3.3-.5.5-.9.8-1.3 0-.1-.1-.2-.4-.2-.6.8-1.3 1.6-1.8 2.5-.5.8-1.3 1.4-2.3 1.9zm1.6-4.2c-.2.1-.4.2-.7.1-.3 0-.3.2 0 .6.8-.5 1.4-1 2.1-1.7.6-.7 1.2-1.4 1.6-2.2-.6.5-1.1 1-1.5 1.6-.5.6-1 1.1-1.5 1.6zm.1-5.2c0 .4-.1.7-.2 1.2-.1.4-.2.8 0 1 .3-.3.6-.7.8-1.1.2-.4 0-.8-.6-1.1zm2.1-13.3c.1.4 0 .8 0 1.2-.1.4-.1.7 0 .8.2-.5.5-.9.8-1.2.4-.4.8-.7 1.1-1 .4-.3.7-.7 1.1-1.1.3-.4.5-.9.7-1.5-.4.1-.7.4-1 .7-.3.4-.5.8-.7 1.1-.2.4-.5.7-.8.9-.4.3-.8.3-1.2.1zm3 22.4c-.3-.5-.4-.9-.3-1.3.1-.4.3-.8.6-1.2-.7.1-1.2.4-1.4.9-.3.5-.6 1-1.1 1.3.2.1.5.1.9.1s.8.1 1.3.2zm-1.2-11.3c-.4.1-.6.3-.9.8.5-.1.8-.3.9-.8zm-.2-21c.2-.2.4-.5.4-.7 0-.2-.2-.4-.6-.5.1.3.1.5.1.7 0 .2 0 .4.1.5zm1-8c.1.5 0 .8 0 1.1-.1.3-.1.5 0 .7.2-.2.5-.4.7-.7s.6-.5.9-.7c.3-.2.6-.4.9-.4.3-.1.6.1.9.4.1-.7.2-1.3.3-1.9.1-.6.2-1.1.2-1.7-.5.1-.8.4-1.1.7-.2.4-.5.8-.7 1.1-.2.4-.5.7-.8 1-.2.3-.7.4-1.3.4zm0 13.2c.2-.3.6-.6 1.1-.8.5-.2.6-.6.3-1.2-.1.4-.4.8-.9 1.1-.4.2-.6.6-.5.9zm1.8-7.3l.4-.4c.2-.2.3-.4.4-.5.1-.2.2-.4.2-.5 0-.2-.1-.3-.4-.4 0 .4-.2.7-.5 1-.3.2-.4.5-.1.8zm3 35c.1-.5.4-1.1.9-1.6.6-.5 1-1.1 1.3-1.6-.4-.2-.9-.2-1.5-.1s-1 .1-1.3.1c.4.5.6.8.6 1.1-.4.4-.7.9-1 1.6.1.1.3.2.5.4.2.4.3.4.5.1zm.5-55.4c-.3.1-.5.2-.6.4-.1.2-.2.4-.4.7.6-.3.9-.6 1-1.1zm6.4 20.6c0-.5.2-.7.5-.6-.1-.2-.2-.3-.3-.4-.1-.1-.3-.2-.4-.3.4-2 .6-3.9.7-5.7.1-1.8.4-3.7.7-5.8.4-.1.7-.1.8 0 .1.1.4.2.7.4.6-.2 1.1-.2 1.4 0 .4.2.7.4 1.1.7.5 2.6 1 5.2 1.4 7.6.5 2.5 1.2 4.7 2 6.8-.1.1-.2.2-.4.3-.1.1-.2.3-.1.6-.3.1-.5 0-.5-.3s-.1-.5-.2-.6c-.1.5-.4.6-.9.4-.5-.2-.8-.3-1.1-.4-.3.4-.7.6-1.1.5-.2-.1-.4-.3-.4-.6-.1-.3-.1-.5-.3-.7-.2 0-.4 0-.6.1-.1.1-.4.1-.7 0-.1-.4-.2-.6-.4-.8-.2-.2-.4-.3-.7-.4-.3-.1-.5-.2-.7-.4-.1 0-.3-.2-.5-.4zm4.1-8.1c-.4.2-.8.4-1.1.7l-.9.9c1-.3 1.7-.9 2-1.6zm-.3 28.6c0-.2.1-.3.2-.4.1-.1.2-.2.3-.4-.2.1-.4.1-.7 0-.3-.1-.4 0-.4.2.2 0 .2.1.2.3 0 .3.1.3.4.3zm.6-23.7c.1.2 0 .3 0 .4-.1.1-.2.1-.4.1-.1 0-.3.1-.4.1-.1.1-.1.2 0 .4.3-.1.6-.2.8-.3.3-.1.5-.2.7-.5-.1-.1-.2-.1-.3-.2h-.4zm1.9 4.4c.1-1.2-.2-1.8-.8-1.8-.6 0-1.1.4-1.6 1.1.3.1.5.1.7 0 .1-.1.4-.2.7-.2.2.1.3.3.3.6 0 .4.2.4.7.3zm2.2 20c-.5.9-1.1 1.7-1.9 2.3-.8.6-1.4 1.3-1.9 2.3.8-.3 1.4-.9 2.1-1.8.6-.9 1.2-1.7 1.9-2.4-.1-.1-.1-.1 0-.2 0-.2-.1-.2-.2-.2zm-2.9 7.2c.6-.3 1.3-.8 2-1.5l2-2c-.2-.1-.2-.3-.2-.5s-.1-.3-.3-.4c-.6.8-1.2 1.4-1.9 2.1-.6.6-1.2 1.4-1.6 2.3zm4.6-1.6c-.2.4-.5.8-.9 1.1s-.9.7-1.3 1.1c-.4.4-.7.7-1 1.1-.2.4-.3.9-.1 1.4.5-.7 1.1-1.3 1.8-1.9.7-.6 1.5-.9 2.3-1-.2-.3-.3-.6-.4-.9 0-.3-.2-.6-.4-.9zm-1.9 8.2c.4-.9.9-1.7 1.6-2.2.7-.6 1.4-1.1 2.1-1.6-.1-.5-.4-.9-1-1.1l-1.3 1.3c-.4.4-.9.8-1.4 1.1.1.2 0 .5-.3.7-.3.3-.5.5-.6.8.1.5.3.9.4 1.2.2.4.3.7.4 1 .3-.2.4-.4.3-.5 0-.2-.1-.4-.2-.7zm6.8-2.5c-.7-.1-1.3 0-1.8.2s-.9.4-1.2.8-.7.7-1 1.2c-.3.4-.6.9-1 1.3 1.2-.2 2.1-.7 2.7-1.4.7-.9 1.4-1.6 2.3-2.1zm.8 3c-.1-.2-.1-.5 0-.7.1-.3.1-.4 0-.4-.1.2-.3.4-.6.5-.3.1-.5.3-.6.6.3 0 .5 0 .6.1.1.1.3.1.6-.1zm1.2-2.1c.1-.3.3-.5.6-.5s.4-.2.5-.6h-.9c.1.2 0 .5-.2.7-.2.2-.2.3 0 .4zM213.3 10.6c-.1-.2-.1-.3-.1-.4.1-.1.1-.3 0-.6.8-1.2 1.7-2.3 2.7-3.3 1-1.1 1.8-2.3 2.5-3.7.2-.1.4 0 .5 0 .1.1.2.2.4.2.1-.6.4-.9.7-1.1.2 0 .4.1.5.2.1.1.2.2.4.3 1 .1 2 .1 2.9-.1 1-.2 1.9-.3 2.8-.3.2 0 .5 0 .7.1.2.1.4.1.7.1.5 0 1-.1 1.4-.2.4-.1.8.1 1.2.5.2.9.3 1.9.1 3-.2 1.1-.3 2.1-.4 3-.1 1.3-.1 2.6 0 3.8.1 1.2 0 2.3-.3 3.2-.1.2 0 .2.2.2s.2.1.2.3c0 .3 0 .6-.1.9-.1.3-.1.6-.1.9 0 .1 0 .1.1.1s.1 0 .2.1c0 .1 0 .2-.1.1-.1 0-.1 0-.1.1.1.1.1.2.1.1 0 0 .1 0 .1.1.1.2 0 .5 0 .7-.1.2-.1.4 0 .7 0 .2 0 .3.1.5.1.1.1.3.1.4 0 .3 0 .6-.1.8-.1.3-.1.5-.1.8 0 .2 0 .4.1.5.1.2.1.3.2.4.1.5 0 .9 0 1.4-.1.4-.1.9 0 1.4 0 .4 0 .8.1 1.2.1.4 0 .8-.1 1.2.2.1.3.3.2.6-.1.3-.1.6-.1.9.1.4.1.7.2 1.2.1.4.2.9.2 1.4v1.5c.1.6.1 1.2.1 1.8 0 .6 0 1.1-.1 1.7 0 .1 0 .1-.1.2s-.1.1-.1.3c0 .4 0 .7.1 1.1.1.4.2.7.2 1.1v1.9c.2.4.3.8.2 1.4-.1.6-.1 1.2 0 1.8 0 .1 0 .2.1.3.1.1.1.1.1.2s0 .2-.1.3c-.1.1-.1.1-.1.2s0 .2.1.4c.1.1.1.2.1.4 0 .8 0 1.5.1 2.2.1.7.1 1.3.1 1.9v.7c0 .3-.1.5-.3.6.3.4.5.9.5 1.5s0 1-.2 1.3c-.4.1-.5.1-.5-.2 0-.2-.1-.4-.3-.4-.1.1-.1.2 0 .4.1.1 0 .2-.1.4.4.3.6.6.8 1.1-.3.6-.7 1.2-1.3 1.6-.6.4-1 1-1.4 1.6-.2.1-.4.3-.5.5-.1.2-.3.3-.6.4-.2.5-.6.9-1.1 1.1-.1.6-.5 1.1-1.1 1.5-.6.4-1.2.3-1.8-.2-.3.2-.6.2-1 .2s-.8 0-1.3.1c-.2.1-.4.1-.7.3-.3.1-.6.2-1 .2h-1c-.3-.1-.5-.2-.6-.5-.3.1-.5.2-.7.4-.1.2-.4.3-.7.2-.3-.1-.5-.3-.6-.6-.1-.3-.1-.5.1-.8-.1-1.3-.1-2.5 0-3.6s.1-2.2 0-3.4c-.4.3-.7.7-.8 1.3-.1.6-.4 1-1 1.1-.3.1-.5.1-.5-.1s-.2-.3-.4-.3c-.3-.1-.5.1-.7.4-.2.3-.4.6-.6 1-.2.4-.4.7-.6 1-.2.3-.5.4-.7.4-.2-.1-.4-.2-.4-.4s-.1-.5-.3-.8c-.3-.6-.6-1.1-.9-1.4-.3-.3-.7-.7-1.3-1.1-.1-.1-.3-.2-.4-.2-.2 0-.3-.1-.4-.2-.1-.1-.2-.2-.3-.4l-.3-.3c-.1-.1-.2-.1-.3 0-.1.1-.1 0-.3-.1 0-.2-.1-.4-.3-.4-.2 0-.4.1-.6.4-.2.3-.4.5-.6.7-.3.2-.5.4-.7.6-.1.2-.4.3-.7.4-.3.6-.7 1.1-1.1 1.5s-.8.8-1.1 1.4c-.3-.1-.5 0-.7 0-.2.1-.4.1-.7 0-.3 0-.5-.1-.7-.2-.2-.1-.5-.2-.7-.3-.1 0-.2 0-.4.1-.1.1-.3.1-.4.1-.1-.1-.2-.1-.3-.2-.1-.1-.1-.1 0-.1-.1 0-.1 0-.2.1s-.2.1-.3.2c-.3.1-.6.1-1 .1h-1.2c-.3 0-.6 0-.8-.1-.3-.1-.6-.1-.9 0-.1.1-.2.1-.3.2-.1.1-.1.1-.3.2-.2.1-.5.1-.9.1s-.7.1-1 .2c-.3-.4-.5-.7-.7-1.2-.2-.4-.4-.9-.6-1.3.1-.2.1-.3.3-.4.1-.1.2-.3.4-.5 0-.5-.1-.9-.2-1.2-.1-.4-.2-.8 0-1.2-.1-.1-.2-.1-.3.1-.1.2-.4.2-.7.1-.1-.2 0-.3 0-.4.1-.1.1-.1.1-.3-.1-.1-.3-.2-.5-.1-.2 0-.4-.1-.4-.3.1-.3.2-.5.4-.6.2-.1.4-.2.5-.3.1-.1.2-.3.4-.4.1-.2.3-.3.4-.4-.1-1.9-.2-3.9-.3-6-.1-2.1-.1-4.1 0-5.9-.1-.1-.2-.2-.2-.4 0-.1-.1-.2-.2-.3.1-.1.1-.2.2-.3.1-.1.1-.2.1-.4.1-.8 0-1.6-.2-2.4-.2-.8-.3-1.6-.4-2.4-.1-1.1 0-2.1 0-3 .1-1 .1-1.9 0-2.7-.1-.1-.1-.3 0-.5v-.5c-.1-.1-.1-.2-.2-.3-.1-.1-.1-.1-.1-.3-.1-.8 0-1.6.1-2.3.1-.7.2-1.4.1-2.2 0-.1 0-.2-.1-.4-.1-.1-.1-.3-.1-.4-.1-.8-.1-1.5 0-2.3.1-.8.1-1.5 0-2.3 0-.3-.1-.7-.2-1.2s-.2-1-.3-1.4c-.1-.2-.1-.4-.3-.6-.1-.2-.2-.4-.3-.7 0-.2.1-.4.2-.5.1-.1.2-.3.4-.4-.1-.2-.2-.4-.1-.8 0-.4.1-.6.2-.7-.1-.1-.2-.2-.3-.4-.1-.1-.2-.3-.3-.4.5-.6.9-1.3 1.4-1.9.4-.6.9-1.2 1.4-1.7 0-.4.1-.8.4-1.3.1-.1.1-.2.3-.2.1 0 .2-.1.2-.1.1-.1.2-.3.1-.4 0-.2 0-.3.1-.4.2-.4.5-.8.9-1.1.4-.3.6-.7.7-1.1.2-.1.4-.1.5 0 .1.1.2.1.4.2.2-.2.4-.4.5-.4.5.1 1 .1 1.4 0 .5-.1 1-.2 1.6-.2.5 0 .9.1 1.3.2s.8.2 1.3.2c.4-.1.8-.1 1.3-.2s1-.1 1.5 0c.8.1 1.3.3 1.8.6.4.4.8.8 1.3 1.2.1.2 0 .4-.1.4-.1.1-.2.2-.2.4.2 1.7.5 3.3 1 4.8s.9 3 1.4 4.4c.5 1.3.8 2.7 1.1 4 .3 1.3.5 2.7.8 4 .1-.1.1-.2 0-.4s-.1-.4 0-.7c.1-.2.2-.4.3-.5.1-.1.3-.2.4-.4.2-1.6.5-3.1.9-4.5s.7-2.8 1.1-4.1c.3 0 .5.1.6.2.1-.1.2 0 .3.1zm-21.4-2.3c-.2.3-.3.6-.4.8-.1.3-.3.5-.4.7-.1.1-.1.1-.2.1s-.2 0-.2.1c-.1.1-.2.2-.1.4v.4c-.2.3-.5.5-.8.6-.3.1-.4.4-.3.7.4-.5.8-.9 1.3-1.4.5-.4.9-.9 1.3-1.3.2-.3.4-.5.7-.7.3-.1.4-.3.5-.5.1-.2.2-.4.1-.7 0-.3-.1-.5-.3-.7-.2.3-.4.5-.5.7-.5.2-.6.5-.7.8zm-2.5 1.2c.2-.3.4-.6.7-1 .3-.4.5-.7.5-1-.2.3-.5.6-.7 1-.2.5-.4.8-.5 1zm1.2 4.1c-.1.4-.3.6-.7.7-.3.1-.5.5-.5.9.5-.4.9-.7 1.2-1.2.4-.4.7-.9 1.1-1.4-.3-.3-.6-.3-.9-.1-.3.3-.4.7-.2 1.1zm-.7 14.2c.2.1.4 0 .4-.1s.1-.2.3-.3c-.5-.5-.5-.9-.2-1.4-.2 0-.3-.1-.4-.2-.1-.1-.1-.2-.3-.3-.1.8 0 1.6.2 2.3zm0-3.2c.2-.1.4-.3.6-.5.1-.2.4-.4.7-.5 0-.3.2-.5.5-.7.4-.2.4-.4.2-.5-.3.4-.7.7-1.2 1-.6.3-.8.7-.8 1.2zm.1 5.7v.8c0 .2.1.4.2.5.5-.8 1-1.4 1.5-2 .6-.6 1.1-1.2 1.5-1.9 0-.1 0-.2-.1-.3-.1-.1-.1-.2 0-.4.1-.1.3-.3.6-.4.3-.2.3-.3 0-.4-.6.8-1.2 1.4-1.9 2-.7.6-1.3 1.3-1.8 2.1zm.1 4.7c.4-.1.6-.3.7-.6-.3.1-.4 0-.4-.2s-.1-.3-.4-.3c.1.3.1.5 0 .6 0 0 .1.2.1.5zm.4 9.4c.3-.2.5-.5.7-.8.2-.3.4-.6.7-.8-.1-.2-.1-.4-.2-.4-.1-.1 0-.2.1-.4-.2 0-.4 0-.4.1s-.1 0-.3-.1c-.1-.1-.1-.3-.1-.4 0-.2-.1-.3-.3-.3-.4.4-.5.8-.4 1.4.2.7.2 1.3.2 1.7zm1.4 11.5c-.1.5-.4.8-.7 1-.4.2-.5.6-.4 1.1.5-.1.8-.3 1.1-.7.3-.4.5-.8.7-1.1.3-.4.6-.7.8-1 .3-.3.5-.7.7-1.1-.5.2-.8.5-1.1.9-.3.5-.7.8-1.1.9zm1.8-38c-.1-.2 0-.4.1-.6h-.2-.2c-.2.3-.4.5-.7.7-.3.2-.5.5-.6 1-.3.1-.5.3-.7.4-.2.2-.4.4-.7.5.8 0 1.4-.2 1.7-.7.3-.6.7-1 1.3-1.3zm-1.6 34.8c-.1.4-.2.6-.3.8-.1.2-.3.3-.7.4.1.2 0 .4 0 .6-.1.2-.2.3-.2.4.3.1.5-.1.7-.4.2-.3.4-.6.7-.9l1.1-1.1c.4-.4.5-.8.4-1.3-.6.8-1.1 1.3-1.7 1.5zM191 22c-.1.1-.1.2 0 .2h.2c.1 0 .1-.1.3-.2.2-.1.5-.3.8-.7.3-.3.6-.5.9-.7.2.1.5.3.7.4.1-.3 0-.6 0-.9-.1-.3-.1-.5 0-.7-.6.4-1.1.8-1.4 1.3-.5.5-1 .9-1.5 1.3zm0 29.4c.7 0 1.2-.2 1.4-.6.2-.4.7-.7 1.3-.8-.1-.1-.1-.3 0-.5s0-.3-.3-.3c-.4.4-.8.8-1.2 1.1-.4.3-.9.7-1.2 1.1zm2.2-36.5c-.2.5-.5.8-.8 1.1-.4.2-.7.5-1 .9.5-.1.9-.3 1.2-.5.3-.2.7-.5 1-.7-.4-.1-.5-.1-.2-.2s.3-.2.2-.5h-.4zm-1.8-3.1c.5-.1.8-.1 1.1-.2.3-.1.6 0 .9.3-.1-.3-.1-.6 0-.9.1-.3 0-.6-.3-.9-.3.3-.6.6-.8.9-.3.2-.6.5-.9.8zm.6 27.6c.1-.2.3-.3.5-.4.2-.1.4-.1.6-.2.2-.1.3-.2.5-.4.1-.1.2-.4.1-.7-.4.2-.8.4-1.1.8-.3.4-.5.7-.6.9zm.1 9.2c.4-.1.7-.3 1.1-.6.4-.3.4-.5.3-.7-.2.2-.5.4-.7.6-.2.1-.4.4-.7.7zm.1-43.6h.5c0-.4-.1-.7-.2-.8 0 .2-.1.4-.2.4 0 .1-.1.2-.1.4zm.2 27.8c.2.2.4.2.5 0 .1-.1.2-.2.4-.2.2.1.3.2.3.3 0 .1.1.2.3.3-.1-.4-.1-.7-.1-1 .1-.3 0-.6-.1-.9l-.7.7c-.1.2-.4.5-.6.8zm.1 8.4c.3.1.5.1.6-.2.1-.2.3-.2.6 0-.1-.1-.1-.3 0-.4 0-.2 0-.3-.1-.3-.1.2-.3.4-.5.4-.4 0-.6.2-.6.5zm1-17.2c-.2.1-.4.3-.6.7-.2.3-.3.5-.2.4.2-.2.4-.2.6-.1.2.1.4.2.5.3-.1-.5-.1-1 0-1.4.1-.5 0-1-.1-1.4-.1.1-.1.2-.3.4-.1.1-.2.3-.3.5.2.1.3.2.3.4.1-.1.1.1.1.2zm2.3 30.4c-.2.8-.6 1.4-1.2 1.8-.6.4-1 .9-1.3 1.6.2-.1.3 0 .4 0 .1.1.2.1.5.1.1-.8.5-1.5 1-2.1.6-.6 1.1-1.2 1.5-1.8-.2-.2-.4-.2-.4 0 0 .4-.2.5-.5.4zM194.6 2c-.2-.3-.3-.4-.4-.2V2c0 1.1 0 2.1.1 2.9.1.8.1 1.6.2 2.4l.3 1.8c.1.6.2 1.2.2 1.8.1.8 0 1.5-.1 2.3-.1.8 0 1.5.4 2.2-.2.3-.2.6-.2 1 .1.4.1.8.1 1.2v2.7c.3 5.2.3 10.5.1 15.9-.2 5.4-.2 10.7 0 15.8.6-.1 1.4-.1 2.2 0 .8 0 1.7 0 2.5-.1.2 0 .4 0 .6-.1.2-.1.4-.2.6-.2.5-.1 1-.1 1.5 0s.9.1 1.3 0c.1-1.5.1-2.9 0-4.2-.1-1.3-.1-2.4-.1-3.6.1-.8 0-1.6 0-2.4-.1-.8-.2-1.5-.2-2.4 0-.2 0-.4.1-.6.1-.2.1-.4.1-.7-.1-.1-.1-.2-.2-.4-.1-.1-.1-.3-.1-.6.5-.2.9-.2 1.3-.1s.7.3 1 .6c.1.2.2.4.4.5.1.2.3.3.4.5.2.1.3.3.4.4.3.4.6.7.8 1.1.2.4.5.7.7 1 .6.8 1.1 1.6 1.7 2.2.5.7 1 1.4 1.4 2.1.4.1.7.4.9.8.2.4.5.7 1 .8.4-.4.7-.9 1-1.4.2-.6.6-1 1.1-1.4.1-.5.3-1 .6-1.3.3-.4.5-.7.7-1.1.4-.2.7-.6.9-1.1.2-.5.6-.8 1.1-.8.3 0 .7.1 1.1.4.4.3.7.6.8.8.1.2 0 .5-.1.7-.1.3-.2.5-.3.8.2.4.3.7.3 1.1-.1.4-.1.7 0 1.1.1 1 .1 2 .3 3.1.1 1.1.2 2.2.3 3.2.1.3.2.6.4.9.1.3.3.7.4 1.2.1.5 0 .9 0 1.4-.1.5 0 .9.4 1.2.3-.1.5-.2.6-.4.1-.2.3-.4.7-.4.2 0 .4.1.4.4 0 .2.2.3.5.2 1-.1 1.9-.3 2.8-.5.9-.2 1.8-.3 2.8-.2-.1-2-.2-4.3-.3-6.7-.1-2.4-.1-4.7-.3-6.9-.1-.6-.1-1.3-.1-1.8.1-.6.1-1.2 0-1.8-.1-1.6-.1-3.1-.3-4.5-.1-1.4-.2-2.8-.2-4.1v-1.6-1.6c-.1-.9-.1-1.9 0-2.8v-2.8c.1-.9 0-1.8 0-2.6-.1-.9-.1-1.7-.1-2.5.1-1.9.1-3.7.2-5.6.1-1.9.1-3.8.1-5.7-.2.2-.4.2-.6.1-.2-.1-.4-.2-.7-.2-.6 0-1.2 0-1.9.1s-1.4.2-2 .2c-.6.1-1.2.1-1.8 0-.6 0-1-.2-1.3-.4-.2.9-.5 1.8-.7 2.7-.2.9-.4 1.8-.6 2.6-.1.2-.1.3-.1.3s-.1.1-.1.2c-.1.5-.2.8-.2 1-.3 1.4-.5 2.8-.7 4.2-.2 1.4-.5 2.7-.7 4.1-.3 1.2-.6 2.4-.8 3.7-.2 1.3-.4 2.6-.4 3.7-.2.3-.3.6-.3 1s0 .7-.1 1.1c-.1.4-.2.7-.2 1.1 0 .4-.1.8-.2 1.2-.1.8-.3 1.6-.6 2.3-.3.7-.5 1.4-.6 2.1-.1.5-.2 1-.2 1.4 0 .5-.2.9-.7 1.1-.8-.3-1.3-.6-1.8-1.1-.1-.9-.3-1.9-.6-2.9s-.5-1.8-.6-2.5c-.1-.2-.1-.5 0-.7 0-.2 0-.4-.1-.7-.1-.2-.1-.4-.2-.6-.1-.1-.1-.3-.3-.6-.1-.2-.1-.4 0-.6v-.6c-.1-.3-.1-.5-.3-.7-.1-.2-.2-.5-.3-.7-.1-.3-.2-.6-.3-1-.1-.4-.1-.7-.3-1-.1-.6-.2-1.3-.4-1.8-.1-.6-.3-1.2-.4-1.8-.3-1.5-.6-3-.9-4.3-.3-1.3-.7-2.7-1.1-4-.5-1.5-1-3.1-1.4-4.7-.4-1.6-.8-3.2-1-4.9-1.3.1-2.8.1-4.3 0-1.9.1-3.5.1-5 .1zm-.1 51.6c.3-.1.4-.3.4-.6-.1.1-.1.1-.2 0-.1 0-.1 0-.1.1.2.1.2.1 0 .2s-.2.1-.1.3zm4.9.2c-.6.6-1.2 1.2-1.9 1.8-.7.6-1.2 1.3-1.5 2.2.1 0 .2 0 .3-.1.1-.1.2-.1.4 0 .3-.4.6-.7.8-.9.2-.3.5-.5.8-.8l.4-.4c.1-.1.2-.3.4-.4.3-.2.6-.5.8-.7.3-.2.4-.5.5-.8-.1.1-.2.2-.4.1h-.6zm-.3 3.5c.1.1.1.3 0 .4 0 .2 0 .2.2.2.4-.7.9-1.3 1.5-1.8s1.2-1.1 1.6-1.7c0-.2-.1-.3-.2-.3-.5.6-1 1.2-1.7 1.6-.5.5-1 1-1.4 1.6zm4.2-3.7c.1 0 .2 0 .2.1s.1.1.3 0c0-.1-.1-.2-.3-.2-.1 0-.2 0-.2.1zm2.5-12.4c.1-.2.2-.4.3-.5.1-.2.2-.4.2-.6-.1-.1-.2-.2-.3-.4-.1-.1-.2-.2-.4-.2-.1.4-.1.7-.1 1 .1.1.2.4.3.7zm1.3 6.5c0 .1 0 .1.1.2l.1.2c0 .1-.1.1-.2.3-.1.1-.2.2-.3.2-.1.1-.2.1-.4 0h-.4c-.1.2 0 .4.1.6.1.1.1.3 0 .4.1 0 .2 0 .4-.1.1-.1.2-.1.4-.1.1-.1.1-.2.1-.2-.1 0-.1-.1-.1-.2.4-.3.7-.6 1-1 .3-.4.6-.7 1-1.1l.9-.6c.3-.2.5-.4.4-.8-.5.5-1.1.8-1.6 1.1-.7.1-1.1.6-1.5 1.1zm-1-4.1c.3-.4.6-.6.9-.9.3-.2.6-.6.8-1h-.2-.1c-.1.4-.4.7-.7 1-.5.2-.7.5-.7.9zm1 1.3c-.2.2-.4.4-.7.6-.3.2-.4.4-.1.7.2 0 .4-.1.6-.4l.8-.8c.5-.4.9-.6 1.2-.9.4-.2.2-.6-.4-1-.3.2-.5.4-.7.7-.3.5-.5.8-.7 1.1zm1.9 4.5c.1.2 0 .3-.1.3s-.2.2 0 .4c-.3.1-.5.3-.6.5-.1.2-.3.4-.5.5.1.3.1.6.1.8v.8c-.1.2-.2.3-.4.5-.1.1-.3.3-.4.5.2 0 .5.1.7.4.2.3.4.3.5.1 0-.2 0-.3.1-.4-.4.1-.7-.1-.8-.4l.3-.3c.1-.1.1-.2.3-.3-.1-.2-.1-.4 0-.4l.4-.4c.4-.6.8-1.3 1.3-1.9.4-.6.9-1.2 1.4-1.7.2-.2.4-.3.5-.5.2-.1.3-.4.3-.7-.6.2-1.1.6-1.4 1-.7.6-1.1.9-1.7 1.2zm5.2.8c-.5.5-1 .9-1.5 1.4-.5.4-.9.9-1.4 1.4-.3 0-.4 0-.4.1.1.1.1.2-.1.4-.2.1-.4.3-.5.4.2.1.3.2.2.3-.1.1-.2.2-.4.2-.1.2 0 .3.1.3s.2.1.2.2c-.1.1-.2.2-.4.3-.1.1-.2.2-.3.4.3.2.5.6.7 1 .1.4.4.6.8.5.1-.2.1-.3-.2-.4-.2-.1-.3-.2-.3-.5.5-1 1.1-2 1.8-2.9.8-.9 1.5-1.9 2.2-2.8-.1 0-.2-.1-.2-.2-.1 0-.2-.1-.3-.1zm-4.4 2.3c.3-.1.5-.2.5-.4.1-.2.1-.4.3-.5.4-.4.7-.8 1.2-1.1.4-.4.8-.8 1.1-1.3-.7.4-1.3.9-1.8 1.4-.5.6-.9 1.2-1.3 1.9zm.8-27.8c.2.1.4.1.4 0s.1-.2.3-.1c.1-.3 0-.5-.1-.6-.1-.1-.2-.3-.2-.6-.2.1-.3 0-.3 0 0-.1-.1-.1-.3 0 0 .3.1.6.2.8.1.1.1.3 0 .5zm4.6-6.8c-.1.1-.2.1-.4.3-.2.2-.4.3-.6.4-.5.3-1 .6-1.7.9-.6.3-1 .7-1.1 1.1.6-.4 1.2-.8 1.9-1.3s1.5-.7 2.4-.4c.1-.1.1-.3 0-.6-.1-.2-.3-.4-.5-.4zm-3.7 9.5c.3-.2.7-.5 1.3-.7.6-.2.9-.6 1.1-1.2.2 0 .5-.1.9-.4-.1-.1-.1-.3 0-.4.1-.2.1-.3 0-.3-.2.3-.5.5-.9.7-.4.2-.8.4-1.1.5-.4.2-.7.4-1 .7s-.4.6-.3 1.1zm.5 2c.1.5.1.9.1 1.3s.2.8.4 1.1c.1-.3.1-.5 0-.6-.1-.1-.2-.2-.2-.4-.1-.6 0-1.1.4-1.5.4-.4.9-.7 1.5-1-.1-.2-.1-.3 0-.5.1-.1.1-.2-.1-.1-.3.4-.6.6-1 .9-.3.3-.7.5-1.1.8zm1-11.9c-.2 0-.4 0-.5.1-.1.1-.2 0-.4-.1 0 .4.1.5.4.3.2-.2.4-.3.5-.3zm2 34.9c-.4.4-.6.7-.9.9-.2.3-.5.5-.9.8.2.2.2.3 0 .4-.2.1-.3.2-.4.4.5-.3.8-.7 1.1-1.1.3-.4.8-.7 1.4-.9 0-.3-.1-.5-.3-.5zm-1.4-31.1c-.1.1-.3.2-.5.3-.2.1-.2.2-.1.3.4-.3.7-.5 1.1-.7.4-.2.8-.5 1.1-.8-.3.1-.6.3-.8.5-.4.1-.6.2-.8.4zm.9 1.6h.5c0-.2 0-.4-.1-.4.1.2 0 .2-.2.2-.1.1-.2.1-.2.2zm.7-7c.2 0 .4 0 .6.1.1.1.4.1.7 0 .1-.1.1-.3.2-.7.1-.3.1-.5 0-.7-.2.2-.5.4-.7.6-.3.3-.5.5-.8.7zm3.3 26.3c-.5.6-.9 1.2-1.3 1.8-.4.6-.8 1.2-1.3 1.8 0 .5-.1.8-.3 1.1-.2.3-.3.6-.3 1.1.7-.6 1.3-1.3 1.8-2 .5-.8.9-1.6 1.2-2.5.1-.1.3-.3.5-.4.2-.2.2-.4 0-.7h-.3zm-3-30.8l.4-.4c.1-.2.2-.3.1-.4 0 .1 0 .2-.1.1h-.2c.1.2 0 .3-.3.3-.2.2-.2.2.1.4l-.2.1.2-.1zm1.6 37c0 .1 0 .1-.1 0s-.1-.1-.1 0c-.1.1-.2.3-.4.5-.3.5-.4.9-.4 1.2.4-.3.6-.6.9-1 .2-.4.5-.7.8-1.1.4-.5.8-.9 1.2-1.2.4-.3.4-.7 0-1.4-.3.4-.6.9-.8 1.4s-.7 1.1-1.1 1.6zm-.6-37.9c.3-.2.6-.3.8-.5.2-.1.4-.4.6-.7-.7.4-1.2.8-1.4 1.2zm1.4 39.8c-.2.2-.4.5-.7.7-.3.2-.4.5-.4.8.1-.2.2-.4.5-.6.3-.2.5-.4.8-.5.3-.2.6-.4.8-.5.2-.2.4-.4.4-.6v-.4c0-.2-.1-.3-.3-.3l-.6.6c0 .3-.2.5-.5.8zm-.8 3.9c.1 0 .1.1.1.4-.1.3 0 .4.1.5.1-.2.1-.4.2-.6.1-.1.2-.3.2-.6-.1.1-.2.1-.4.1-.1 0-.2.1-.2.2zm3.6 2.1c-.2.4-.5.7-.9.9-.4.2-.6.6-.6 1.3-.3.4-.6.4-1 .3-.4-.2-.6-.4-.7-.8-.1.5-.1.9-.1 1.3v1.6c.6-.4 1.2-.8 1.6-1.4.4-.6.8-1.1 1.2-1.6.2-.3.5-.5.7-.7.2-.2.3-.4.3-.7-.1 0-.2 0-.2-.1-.1-.1-.2-.1-.3-.1zm-2.9.2c-.1-.1-.2-.3-.3-.4-.1-.2-.2-.1 0 .2v.7c0 .1 0 .3.1.6.1-.2.2-.4.4-.6.1-.1.3-.3.4-.5-.1-.1-.2 0-.3 0-.1.1-.2.1-.3 0zm0-50c.2-.1.5-.1.9-.3-.1-.3-.1-.6.1-.8.2-.3.2-.5 0-.6-.1.4-.2.7-.4.9-.3.3-.5.5-.6.8zm.8 46.3c.3-.2.6-.3.8-.5.2-.1.4-.4.4-.7-.3.1-.6.2-.8.4-.2 0-.4.3-.4.8zm.4 2.9c.3-.1.6-.3.9-.7.3-.3.3-.7 0-1-.2.3-.5.5-.7.7-.3.2-.3.5-.2 1zm2.5 4.6c-.1.1-.1.2-.1.4 0 .1-.1.2-.4.3-.4-.1-.6-.5-.7-1.1-.4.1-.6.3-.8.5-.2.2-.4.5-.5.8.2.1.4.3.4.6.7-.3 1.5-.5 2.3-.6.8-.1 1.4-.5 1.8-1.1-.2 0-.3-.1-.3-.4.1-.3 0-.4-.2-.4-.3.2-.6.4-.8.5-.2.3-.5.4-.7.5zm-.1-1.4c.5-.5 1-.8 1.6-1.1.6-.3 1.1-.7 1.4-1.2-.2.1-.3.1-.5.1-.1-.1-.3-.1-.6-.1-.3.4-.7.8-1.1 1.2-.4.4-.7.8-.8 1.1zm3.9 1.2c-.2.2-.5.4-.7.6l-.6.6c.5-.1.8-.3 1-.6.2-.3.4-.6.7-.9-.2-.1-.3-.1-.3 0s0 .2-.1.3zm2.9-2.9c.1.1.2 0 .2-.2s0-.2-.1 0c0 0 0 .1-.1.2-.1.2-.1.2 0 0zm1.1-1.1c.1-.1.1-.2.2-.2s.1-.1.2-.2h-.4c.1.1.1.2 0 .3-.2 0-.2 0 0 .1zM278.8 56.8c-.1.2 0 .4 0 .5.1.1.2.1.3.2.1 0 .2.1.3.2s.1.2 0 .5c-1 .4-1.8.9-2.3 1.7-.6.8-1.2 1.5-1.8 2.3-.5-.2-.8-.3-1.1-.2-.2.1-.6.2-1 .5-.9.1-1.7.1-2.5.3l-2.4.3c-.8.1-1.6.1-2.4 0-.8-.1-1.6-.3-2.5-.6-.8-2.9-1.7-5.8-2.5-8.6-.9-2.8-1.7-5.7-2.5-8.6-.2-.2-.4-.3-.5-.4-.2-.1-.4-.3-.5-.4-.5 1.1-.8 2.2-1.1 3.3-.3 1.2-.5 2.3-.7 3.5-.2 1.1-.4 2.3-.6 3.4-.2 1.1-.5 2.2-.8 3.3-.8.2-1.4.7-1.6 1.4-.3.7-.6 1.3-1.1 1.8-.4 0-.7 0-.8.1-.1.1-.3-.1-.4-.4-.3-.1-.4 0-.4.3s-.1.3-.4.2c-1-.2-2.1-.2-3.2-.2-1.1.1-2.1-.1-2.9-.5-1 .5-2.1.8-3.3.8-1.2 0-2.3-.1-3.2-.3.1-.6.2-1.2.5-1.6.3-.4.5-.9.6-1.5.1-.4.1-.5-.1-.6-.2 0-.3-.2-.2-.4.2-.5.4-1 .4-1.7 0-.6.2-1.1.6-1.4-.1-.5-.1-1-.1-1.5.1-.6.1-1.1.3-1.5.4-1.6.7-3.1 1-4.4.3-1.4.6-3 .8-4.9.2-2.2.6-4.4 1.1-6.7.5-2.2.8-4.4 1.1-6.7.1-.5 0-.9 0-1.4-.1-.4-.1-.9 0-1.4.1-1 .3-1.9.7-2.8.3-.9.5-1.8.7-2.7.1-1.3.2-2.7.1-4.2 0-1.4-.1-3-.1-4.8.4-.4.6-.7.7-.9.1-.3.1-.7.2-1.3.2 0 .5 0 .8-.1.3-.1.5.1.5.4.8-.4 1.3-.9 1.7-1.7-.4.3-.9.6-1.4.9-.6.3-1.1.3-1.7 0 .8-.8 1.7-1.6 2.5-2.3.9-.7 1.7-1.5 2.5-2.3.7.1 1.1 0 1.3-.1.2-.1.4-.5.7-1.1.9-.1 1.6.2 2 .9-.5.4-.7.8-.7 1.3s-.1 1.1-.2 1.8c-.2 1.3-.5 2.8-.9 4.4-.4 1.6-.6 3.2-.7 4.9-.1.9-.1 1.8-.1 2.7.1.9-.1 1.6-.6 2.3-.6 3.9-1.1 7.5-1.4 11-.3 3.5-1 7-1.9 10.7-.1.4-.1.6.2.6.2 0 .3.1.3.4-.3 2-.7 4-1.3 5.9-.6 1.9-1 3.7-1.2 5.4.4.3 1 .5 1.6.5h2.1c.7-.1 1.4-.1 2.2 0 .7 0 1.3.2 1.8.4.3-1.2.6-2.7.8-4.7.3-2 .7-3.9 1.2-5.7.1-.5.2-1 .4-1.5.1-.5.3-1 .6-1.3.2-.4.5-.6.8-.7.3-.1.7 0 1.3.3.1.4 0 .7-.1.9-.1.2-.3.5-.4.7.8.1 1.7.1 2.5 0 .9-.1 1.7-.2 2.5-.4.8-.1 1.6-.2 2.5-.2.8 0 1.6.2 2.3.5-.1.5-.1.9 0 1.2.1.3.2.6.4.8.1.2.3.4.5.6.2.2.4.4.5.7.1.4 0 .6-.3.6-.3.1-.4.3-.3.6.5 1.1.9 2.2 1.2 3.4.4 1.2.7 2.5 1.1 3.7.5-.1.8-.3 1.1-.5.2-.2.7-.3 1.3-.2.2.2.3.5.4.8.1.3 0 .6-.3.8 1-.1 1.8-.1 2.5.2.7.2 1.4.5 2.1.7-.3-1.7-.6-3.3-.9-4.9-.3-1.5-.5-3.1-.7-4.8-.5-5-1.4-9.8-2.5-14.5-1.1-4.7-2.3-9.5-3.6-14.5-.1-.1 0-.2 0-.4.1-.1.1-.3.1-.4-.1-.1-.1-.3-.3-.4-.1-.2-.2-.3-.3-.4-.3-1.1-.5-2.3-.6-3.4-.1-1.2-.3-2.3-.6-3.3-.5-1.3-1-2.6-1.6-3.8-.6-1.2-1.2-2.4-1.6-3.6-.5.2-.8.2-1.1.2-.3 0-.6-.2-1.1-.4-.7 0-1.5.1-2.5.4-.9.3-1.9.5-2.8.7-.9.2-1.7.2-2.5.1s-1.3-.6-1.6-1.4c2-.3 4-.6 5.9-1 2-.4 4.1-.5 6.3-.4.1.3.2.5.4.7.1.2.1.4-.1.6.3.1.5.1.7.3.1.1.3.2.6.3.8 2.2 1.7 4.5 2.6 6.8.9 2.3 1.3 4.9 1.3 7.7 1.9 5.8 3.4 11.7 4.5 17.6 1.1 5.9 2.1 12 2.8 18.2.6.5.8 1 .7 1.7-.4.6-.5 1.3-.6 2.1zm-39.8 3c.6-.1 1.2-.2 1.6-.5.4-.3.8-.6 1.2-1.1.4-.4.7-.8.9-1.3.3-.5.5-.9.8-1.3 0-.1-.1-.2-.4-.2-.6.8-1.3 1.6-1.8 2.5-.5.8-1.3 1.4-2.3 1.9zm1.6-4.2c-.2.1-.4.2-.7.1-.3 0-.3.2 0 .6.8-.5 1.4-1 2.1-1.7.6-.7 1.2-1.4 1.6-2.2-.6.5-1.1 1-1.5 1.6-.5.6-1 1.1-1.5 1.6zm.1-5.2c0 .4-.1.7-.2 1.2-.1.4-.2.8 0 1 .3-.3.6-.7.8-1.1.2-.4 0-.8-.6-1.1zm2.1-13.3c.1.4 0 .8 0 1.2-.1.4-.1.7 0 .8.2-.5.5-.9.8-1.2.4-.4.8-.7 1.1-1 .4-.3.7-.7 1.1-1.1.3-.4.5-.9.7-1.5-.4.1-.7.4-1 .7-.3.4-.5.8-.7 1.1-.2.4-.5.7-.8.9-.4.3-.7.3-1.2.1zm3 22.4c-.3-.5-.4-.9-.3-1.3.1-.4.3-.8.6-1.2-.7.1-1.2.4-1.4.9-.3.5-.6 1-1.1 1.3.2.1.5.1.9.1s.8.1 1.3.2zm-1.2-11.3c-.4.1-.6.3-.9.8.5-.1.8-.3.9-.8zm-.1-21c.2-.2.4-.5.4-.7 0-.2-.2-.4-.6-.5.1.3.1.5.1.7-.1.2-.1.4.1.5zm.9-8c.1.5 0 .8 0 1.1-.1.3-.1.5 0 .7.2-.2.5-.4.7-.7s.6-.5.9-.7c.3-.2.6-.4.9-.4.3-.1.6.1.9.4.1-.7.2-1.3.3-1.9.1-.6.2-1.1.2-1.7-.5.1-.8.4-1.1.7-.2.4-.5.8-.7 1.1-.2.4-.5.7-.8 1-.2.3-.7.4-1.3.4zm0 13.2c.2-.3.6-.6 1.1-.8.5-.2.6-.6.3-1.2-.1.4-.4.8-.9 1.1-.4.2-.6.6-.5.9zm1.8-7.3l.4-.4c.2-.2.3-.4.4-.5.1-.2.2-.4.2-.5 0-.2-.1-.3-.4-.4 0 .4-.2.7-.5 1-.3.2-.4.5-.1.8zm3 35c.1-.5.4-1.1.9-1.6.6-.5 1-1.1 1.3-1.6-.4-.2-.9-.2-1.5-.1s-1 .1-1.3.1c.4.5.6.8.6 1.1-.4.4-.7.9-1 1.6.1.1.3.2.5.4.2.4.3.4.5.1zm.5-55.4c-.3.1-.5.2-.6.4-.1.2-.2.4-.4.7.6-.3.9-.6 1-1.1zm6.4 20.6c0-.5.2-.7.5-.6-.1-.2-.2-.3-.3-.4-.1-.1-.3-.2-.4-.3.4-2 .6-3.9.7-5.7.1-1.8.4-3.7.7-5.8.4-.1.7-.1.8 0 .1.1.4.2.7.4.6-.2 1.1-.2 1.4 0 .4.2.7.4 1.1.7.5 2.6 1 5.2 1.4 7.6.5 2.5 1.2 4.7 2 6.8-.1.1-.2.2-.4.3-.1.1-.2.3-.1.6-.3.1-.5 0-.5-.3s-.1-.5-.2-.6c-.1.5-.4.6-.9.4-.5-.2-.8-.3-1.1-.4-.3.4-.7.6-1.1.5-.2-.1-.4-.3-.4-.6-.1-.3-.1-.5-.3-.7-.2 0-.4 0-.6.1-.1.1-.4.1-.7 0-.1-.4-.2-.6-.4-.8-.2-.2-.4-.3-.7-.4-.3-.1-.5-.2-.7-.4-.1 0-.3-.2-.5-.4zm4.1-8.1c-.4.2-.8.4-1.1.7l-.9.9c1-.3 1.7-.9 2-1.6zm-.3 28.6c0-.2.1-.3.2-.4.1-.1.2-.2.3-.4-.2.1-.4.1-.7 0-.3-.1-.4 0-.4.2.2 0 .2.1.2.3 0 .3.1.3.4.3zm.6-23.7c.1.2 0 .3 0 .4-.1.1-.2.1-.4.1-.1 0-.3.1-.4.1-.1.1-.1.2 0 .4.3-.1.6-.2.8-.3.3-.1.5-.2.7-.5-.1-.1-.2-.1-.3-.2h-.4zm1.9 4.4c.1-1.2-.2-1.8-.8-1.8-.6 0-1.1.4-1.6 1.1.3.1.5.1.7 0 .1-.1.4-.2.7-.2.2.1.3.3.3.6 0 .4.2.4.7.3zm2.2 20c-.5.9-1.1 1.7-1.9 2.3-.8.6-1.4 1.3-1.9 2.3.8-.3 1.4-.9 2.1-1.8.6-.9 1.2-1.7 1.9-2.4-.1-.1-.1-.1 0-.2 0-.2-.1-.2-.2-.2zm-2.9 7.2c.6-.3 1.3-.8 2-1.5l2-2c-.2-.1-.2-.3-.2-.5s-.1-.3-.3-.4c-.6.8-1.2 1.4-1.9 2.1-.6.6-1.2 1.4-1.6 2.3zm4.6-1.6c-.2.4-.5.8-.9 1.1s-.9.7-1.3 1.1c-.4.4-.7.7-1 1.1-.2.4-.3.9-.1 1.4.5-.7 1.1-1.3 1.8-1.9.7-.6 1.5-.9 2.3-1-.2-.3-.3-.6-.4-.9 0-.3-.2-.6-.4-.9zm-1.9 8.2c.4-.9.9-1.7 1.6-2.2.7-.6 1.4-1.1 2.1-1.6-.1-.5-.4-.9-1-1.1l-1.3 1.3c-.4.4-.9.8-1.4 1.1.1.2 0 .5-.3.7-.3.3-.5.5-.6.8.1.5.3.9.4 1.2.2.4.3.7.4 1 .3-.2.4-.4.3-.5 0-.2-.1-.4-.2-.7zm6.8-2.5c-.7-.1-1.3 0-1.8.2s-.9.4-1.2.8-.7.7-1 1.2c-.3.4-.6.9-1 1.3 1.2-.2 2.1-.7 2.7-1.4.7-.9 1.4-1.6 2.3-2.1zm.8 3c-.1-.2-.1-.5 0-.7.1-.3.1-.4 0-.4-.1.2-.3.4-.6.5-.3.1-.5.3-.6.6.3 0 .5 0 .6.1.1.1.3.1.6-.1zm1.2-2.1c.1-.3.3-.5.6-.5s.4-.2.5-.6h-.9c.1.2 0 .5-.2.7-.2.2-.2.3 0 .4zM19 78.6c.5.5.7 1.2.6 2.2l-.3 3c-.1.4-.1.8 0 1.2.1.4.1.8.1 1.1 0 .2 0 .4-.1.5-.1.2-.1.4-.2.6-.1 1.5-.1 2.9 0 4.4.1 1.5.1 3 0 4.4-.1.9-.1 1.9-.1 2.9s-.1 1.9-.2 2.9c0 .5 0 .9-.1 1.4-.1.4-.1.9 0 1.4.1 1.1.1 2.1.1 3.1-.1 1-.1 2-.2 3.1-.1 1.8-.2 3.5-.1 5.2 0 1.6 0 3.3-.2 5 .5.4 1.1.5 1.8.4.7-.1 1.4-.2 2-.2.9 0 1.8.1 2.7.2.9.1 1.8.3 2.7.4.9.1 1.8.2 2.6.3.9 0 1.8-.1 2.7-.3l.3.6c.1.2.2.4.4.6-.1.5-.3 1.1-.5 1.6-.2.6-.4 1.1-.5 1.7-.3 1.5-.3 3 0 4.4.3 1.4.7 2.6 1.1 3.7-.3.1-.5.1-.7.3-.2.1-.4.2-.7.4-.1.2-.1.4 0 .6.1.2.1.3 0 .4-.5.5-1 .9-1.5 1.3-.6.4-1.1.8-1.6 1.2-.5.4-1.1.8-1.6 1.3-.5.4-1.1.8-1.8 1.1-.2 0-.3-.1-.3-.2s-.1-.2-.2-.4c-.8.2-1.5.3-2.3.3h-2.2c-.8-.1-1.5-.2-2.2-.4-.7-.2-1.3-.3-2-.4-.3-.1-.6-.1-1-.1s-.7 0-1-.1c-.6 0-1.3.1-1.8.2-.6.1-1.2.2-1.9.1-.4 0-.8 0-1.3-.1-.4-.1-.9-.1-1.4 0-.8.1-1.7.2-2.6.4-.9.1-1.8.2-2.6.2-.2.1-.3 0-.3-.1s0-.3-.1-.4l-.2-.2c-.1-.1-.1-.2-.1-.2-.1-.3-.1-.6 0-.9.1-.3.1-.6 0-.9-.1-.2-.1-.4-.3-.6-.1-.2-.2-.4-.2-.6-.1-.3-.1-.6-.1-.9.1-.3.1-.6.1-.9-.1-.8-.3-1.5-.4-2.3-.2-.8-.3-1.6-.4-2.4-.1-.8-.1-1.5 0-2.3.1-.8.1-1.5 0-2.4 0-.3 0-.6-.1-.9-.1-.3-.1-.6-.1-.9 0-.4.1-.7.2-1.1.1-.4.2-.7.2-1.1.1-.3.1-.6 0-.8v-.8c.1-.3.1-.6.1-1s.1-.7.1-1c.1-.3.1-.6.2-1s.1-.6.1-.8c-.1-.3-.2-.6-.4-.8-.2-.3-.4-.5-.4-.8.5-.4.9-.7 1.3-1.1.4-.4.5-.9.4-1.6 0-.3-.1-.5-.4-.7-.2-.2-.4-.5-.4-.7 0-.2.1-.5.4-.7.2-.2.4-.5.5-.7.1-.2.1-.8 0-1.6 0-.8-.1-1.4-.2-1.8-.1-.2-.1-.4-.2-.6-.1-.2-.2-.4-.2-.5 0-.2 0-.4.1-.4.1-.1.2-.1.3-.3-.2-.8-.2-1.6-.2-2.4 0-.8 0-1.6-.1-2.4-.1-.7-.2-1.3-.3-1.9-.1-.5-.2-1.1-.3-1.7-.1-.4-.1-.8 0-1.1.1-.4.1-.7.1-1.1 0-.2-.1-.4-.2-.6-.1-.2-.2-.4-.2-.5-.1-.5-.1-.9 0-1.4.1-.4.1-.9.1-1.4-.1-.2-.1-.4-.3-.5-.1-.1-.2-.3-.2-.5.6-1.3 1.5-2.5 2.5-3.5s1.9-2 2.8-3.2c-.1-.5.1-.9.4-1.1.3-.2.6-.5.9-.9 1.9-.3 3.8-.5 5.7-.6 1.9 0 3.9-.1 5.9-.3zm-13 36c.3 0 .5.1.6.3.1.2.3.4.4.7-.4.6-.9 1.2-1.4 1.8-.5.6-1.1 1.1-1.6 1.5l-.7.7c-.2.3-.4.5-.4.8.5-.6 1.2-1.3 1.9-1.9.7-.6 1.3-1.2 1.6-1.9.4-.1.6 0 .7.2.1.3.2.3.4.1.1-.4.1-.8 0-1.2v-1.2c.1-.3.1-.6.2-.9.1-.3 0-.5-.2-.6-.2.3-.4.5-.8.7-.3.4-.6.6-.7.9zm-2.9 16.2c.5-.7 1.1-1.2 1.9-1.6.8-.4 1.5-.8 2.1-1.5-.2-.1-.3-.3-.1-.6.1-.3.1-.5 0-.7-.6.3-1.2.7-1.6 1.1-.4.5-.9.8-1.6 1.1.2.5.1.9-.2 1.2-.5.4-.6.7-.5 1zm2.5-40.4c-.2.8-.5 1.5-1 1.9-.5.5-.9 1-1.4 1.5.3.1.6-.1.8-.4.2-.3.5-.6.7-.9.4-.1.7-.3.9-.6.2-.3.4-.5.8-.6 0-.2 0-.3.1-.3.1-.2.2-.3.1-.4 0-.1 0-.2.2-.4.2-.1.4 0 .6.1-.1-.2-.1-.4 0-.7.1-.3.1-.5 0-.6-.3.3-.6.5-.9.7-.3.1-.6.4-.9.7zM5.3 131h.4c.2 0 .3 0 .4.1-.1.2-.3.3-.5.4-.2.1-.3.3-.1.6-.3.2-.6.3-1 .4-.4.1-.8.1-1.2 0 .1.2.1.5.1.8 0 .3.1.6.3.7.2-.1.4-.3.5-.4.2-.2.4-.4.6-.5.4-.2.7-.5 1.1-.7.4-.2.6-.4.9-.7.2-.2.4-.5.4-.8.1-.3 0-.7-.3-1.2-.2.3-.5.5-.8.6-.5.1-.7.4-.8.7zm-1.9-8.7l1.5-.9 1.5-.9c.1-.2.1-.3.1-.4-.1-.1-.1-.3-.1-.6h.9c-.1-.1-.1-.3 0-.6s0-.4-.3-.4c-.5.8-1.1 1.4-1.8 1.9-.6.6-1.3 1.2-1.8 1.9zm3.4 13.3c-.2.6-.6.9-1.1 1.1-.1.3-.2.5-.3.7-.1.2-.3.4-.6.5-.3.1-.4 0-.4-.3.1-.2 0-.3-.3-.3.1.4.1.6-.2.7-.2.1-.4.3-.4.6H6c.1-.4.5-.7 1.1-1 .4-.5.7-.9 1.1-1.2.4-.4.8-.7 1.2-1.1.1-.2 0-.3-.1-.3-.6.1-1.1.2-1.4.2-.3 0-.7.1-1.1.4zM5.4 94.1c-.3.9-.6 1.6-1.1 2.1-.1.1-.3.2-.5.4-.2.1-.2.3-.1.5.5-.5.9-1 1.4-1.4.5-.5 1-.9 1.6-1.3-.1-.2-.1-.4.1-.6.2.1.3 0 .4 0 .1-.1.2-.2.3-.2 0-.5 0-.9.1-1.1-.5.2-.8.5-1.1.8-.3.3-.7.6-1.1.8zm-1.6 32.5c.3-.1.6-.3.9-.5.3-.2.6-.5.9-.7.3-.2.6-.3 1-.5.4-.1.4-.5.3-.9-.4.6-.9 1.1-1.5 1.4-.6.3-1.2.8-1.6 1.2zM7 86.2c-.2 0-.4.1-.5.2-.1.1-.3.3-.5.4-.2.3-.4.6-.5 1-.1.4-.3.6-.6.9l-.6.6c-.3.1-.4.3-.3.6.5-.5.9-1 1.4-1.4.5-.5 1-.9 1.7-1.3.1-.2.1-.5 0-.7.2 0 .3-.1.3-.3-.1 0-.2 0-.2-.1s0-.2.1-.4c.1-.1.1-.3.1-.4 0-.1-.1-.2-.3-.3-.2.3-.3.7-.1 1.2zm-3 27.1c.1.2.1.5 0 .7.4 0 .6-.1.6-.3.1-.2.2-.4.4-.5.5-.3.9-.6 1.4-1 .4-.4.9-.7 1.4-1-.1-.2 0-.4 0-.7.1-.3 0-.5-.3-.5-.6.5-1.3 1.1-1.8 1.6-.6.5-1.1 1-1.7 1.7zm3.2-12.1c-.6.5-1.1.9-1.5 1.2-.3.3-.6.6-1 .8-.4.3-.6.6-.6 1 .6-.3 1.1-.8 1.7-1.4.5-.7 1.2-1.1 2-1.3-.1-.1-.1-.3 0-.5s0-.3-.1-.4c0 .2-.1.3-.2.4-.1.1-.2.1-.3.2zm-1.6 33.3c-.2.2-.5.4-.8.5-.3.2-.3.4-.1.8.2-.3.4-.6.7-.8l.9-.6.9-.6c.3-.2.5-.5.7-.9-.5.2-.9.4-1.2.7-.4.3-.7.6-1.1.9zm.9-12.2h.6v-.4c-.4 0-.6.1-.6.4l-.2-.2v.2c-.3.3-.7.5-1.2.7-.5.2-.6.5-.4 1 .2-.3.5-.5.9-.7.4-.1.6-.4.7-.8h.2v-.2zm-1.8-11.8c.5-.2.8-.5 1-.9.2-.4.6-.7 1.2-.8.3.1.5.3.5.5s.2.4.5.5c.1-.6.1-1 0-1.4v-1.5c0-.1-.1-.1-.3-.1-.3.3-.6.6-1 .8-.4.2-.7.5-1 .7-.3.3-.5.6-.7.9-.2.3-.3.7-.2 1.3zm.3-9.7c.5-.2.8-.5 1.1-1h-.4c-.1.3-.2.5-.3.5-.1.1-.3.3-.4.5zm.4-3c.4-.4.8-.6 1.2-.9.5-.2.8-.6 1-1.1-.4.1-.8.4-1.3.9s-.8.8-.9 1.1zm2.1 5.6c-.3.1-.5.3-.7.5-.2.2-.4.5-.5.7-.2.1-.4.2-.6.4-.2.1-.2.3-.1.5.6.1 1.1 0 1.3-.3.2-.3.6-.6 1-.7v-.7c0-.2-.1-.4-.4-.4zm-1.2-4.1c.4-.2.8-.2 1.4 0-.1-.2-.1-.4 0-.7 0-.3 0-.5-.1-.6-.1.2-.4.4-.8.6-.5.2-.6.4-.5.7zm.2-15.4c.3.1.5.2.5.4s.1.4.2.5c-.1-.3-.1-.6 0-.9.1-.3.1-.5-.2-.6 0 .2-.1.3-.2.3l-.3.3zm4.3-3.3c-.5.1-.9.1-1.3.3-.4.1-.9.1-1.3.1.1 1.1.1 2.2 0 3.2s-.1 2.1 0 3.1c.1.7.2 1.4.4 2.1.2.6.4 1.3.4 1.9 0 .3 0 .6-.1 1s-.1.7-.1 1.1c.2 1.2.2 2.4.2 3.5s0 2.2.1 3.3c0 .3.1.6.2.9.1.3.2.6.2.9.1 1.7.1 3.6 0 5.7s-.1 4.1-.3 6c-.1 1.3-.2 2.5-.2 3.6s.1 2.1.2 3.1c-.5.3-.6.7-.5 1.2.1.5.1 1.1.1 1.7-.1 1.6-.2 3.2-.3 5-.1 1.8.1 3.1.4 4.1.5.1.9.3 1.3.7.5-.2 1.1-.3 1.6-.3h1.5c1.1 0 2.2-.1 3.2-.4 1-.3 2-.4 3-.4.4 0 .8 0 1.2.1.4.1.8.2 1.2.2.4 0 .7 0 1-.1.3-.1.7-.1 1-.1.6.1 1.3.2 1.9.4.6.2 1.3.3 2 .5.7.1 1.3.2 2 .3.6 0 1.3-.1 1.9-.4.1 0 .2.1.4.3.1.2.2.2.2-.1-.5-.9-.8-2-.9-3.2-.1-1.3-.1-2.3-.1-3.2.1-.7.2-1.3.3-1.8.1-.5.2-.9.4-1.4-.5-.1-1-.2-1.5-.1h-1.7c-.6 0-1.2 0-1.8-.1-.6-.1-1.1-.2-1.5-.5-1.4-.1-2.8-.1-4 0-1.3.1-2.6 0-3.9-.2-.1-.4-.2-.6-.1-.7 0-.1 0-.3-.2-.7.1-2.3.1-4.5.2-6.7s.2-4.5.3-6.8c.1-1.3.1-2.6 0-3.9-.1-1.3 0-2.5.1-3.7.1-2.3.2-4.6.2-6.9 0-2.3.1-4.7.2-7 .1-.5 0-1.1 0-1.6-.1-.5-.1-1 0-1.5 0-.1 0-.2.1-.4.1-.1.1-.3.2-.4 0-.2-.1-.6-.2-1.1 0-.2 0-.4.1-.6.1-.2 0-.4-.3-.4-1.2.1-2.4.2-3.6.2-1.4.1-2.6.1-3.8.2zM9 138.2c.3.1.5 0 .7-.3.1-.3.2-.5.1-.6-.1.2-.3.3-.4.4-.2.1-.3.3-.4.5zm1.6-1.6c.9-.6 1.7-1.1 2.5-1.5-.6-.3-1.1-.2-1.5.3-.3.5-.6.9-1 1.2zm4.8-1c-.2.1-.3.2-.5.4-.1.1-.3.2-.5.4-.1.1-.3.2-.5.2s-.3 0-.4.1c-.2.1-.4.3-.6.5-.2.2-.4.3-.7.2 0 .3-.1.5-.4.6-.3.1-.4.3-.3.4.4-.2 1-.3 1.8-.3.3-.5.7-.9 1.4-1.3.6-.4 1.2-.8 1.6-1.2.1-.1.3-.2.5-.4.2-.1.2-.3 0-.4-.1.2-.3.4-.6.5-.3.1-.6.2-.8.3zm4.1-.6c-.6.6-1.2 1.2-1.9 1.6-.7.4-1.3.9-1.9 1.5.1.1.3.2.4.1h.5c.4-.8.9-1.3 1.6-1.7.7-.4 1.4-.8 2-1.4-.2.1-.3 0-.4 0-.1-.1-.2-.1-.3-.1zm4.2.1c-.1.1-.3.2-.6.3-.3.1-.5.1-.6.3-.5.3-.9.5-1.2.7-.3.2-.7.4-1.1.7-.4.3-.7.5-1 .6-.2.1-.3.4-.2.9l.9.3c.3.1.7.1 1.1.1-.1-.2-.1-.4-.2-.5-.1-.1-.1-.3 0-.5.5-.5 1.1-.9 1.6-1.3l1.8-1.2c-.2.1-.3 0-.3 0 0-.3-.1-.4-.2-.4zm-1.2 3.8c.1-.1.2 0 .3 0 .1.1.1.1.3 0v-.4c-.3 0-.5.1-.6.4zm.5-1.2c.1.1 0 .2 0 .3-.1.1-.1.1 0 .1l.4-.4c.2-.1.2-.1 0 0H23zm6-1.2c-.8.2-1.4.5-2 .9-.6.4-1.2.7-2.1.8-.1.4-.3.6-.4.6.1.2.2.5.4.7.1.2.2.4.4.5v-.9c.9-.6 1.7-1.2 2.5-1.8.8-.6 1.6-1.3 2.4-2-.2-.1-.5-.2-.8-.2-.4 0-.7.1-.8.2.2.4.4.7.4 1.2zm-1.9-.9c.1 0 .2 0 .3-.1.1-.1.1-.1.3 0 0-.1 0-.2-.1-.3-.1-.1-.1-.1-.1-.3H27c0 .4.1.6.1.7zM60.4 80.1c.2 1.5.2 2.9.1 4.3l-.3 4.2c-.1 1.2-.2 2.5-.3 3.7-.1 1.3-.1 2.5-.3 3.6-.1 1.2-.3 2.3-.6 3.5s-.5 2.3-.6 3.5c-.1.8-.1 1.5 0 2.3v2.3c0 .8 0 1.5.1 2.3.1.8.1 1.5.1 2.3 0 .5 0 1-.1 1.4-.1.5-.1 1-.1 1.4.1 1.7.3 3.4.7 5.1.3 1.7.5 3.5.7 5.2.1 1.2.2 2.5.2 3.7 0 1.3.1 2.5.4 3.6-.2.5-.3 1.1-.3 1.7.1.6.2 1.1.5 1.5-.5.5-.9 1.1-1.1 1.8-.2.8-.4 1.5-.7 2.3-.4.1-.7.1-1 0-.2-.1-.5-.3-.7-.4-.2.1-.4.2-.4.4s-.1.4-.4.4c-.7-.1-1.4-.1-2.2.1-.8.2-1.6.2-2.3 0-.3 0-.4.1-.4.3 0 .2-.1.2-.4.1-.4-.2-.9-.3-1.4-.4-.5-.1-1.1-.1-1.6-.2-.6 0-1.1-.1-1.6-.2s-1-.3-1.3-.6c-.2-2-.4-4.3-.8-6.7-.4-2.4-.6-4.9-.8-7.3-.1-.9-.2-2-.4-3.1s-.3-2.3-.4-3.4c-.1-.6-.2-1.1-.4-1.7-.1-.5-.2-1.1-.4-1.7-.2-1.2-.4-2.4-.5-3.6-.1-1.3-.2-2.5-.4-3.7-.1-.8-.2-1.6-.4-2.3-.1-.7-.2-1.7-.4-2.8-.1-.6-.2-1.3-.3-2.1-.1-.8-.2-1.6-.3-2.5-.1-.6-.2-1.2-.3-1.9-.1-.7-.3-1.3-.4-2-.1-.6-.1-1.3 0-1.9 0-.6-.2-1.2-.7-1.6.4-.6.4-1.4.3-2.2-.2-.8-.3-1.6-.3-2.4.5-.5 1-1 1.4-1.6l1.2-1.8c.4-.6.8-1.1 1.3-1.6.4-.5 1-.9 1.6-1.3.2-.3.2-.5 0-.6-.2-.1-.2-.3.1-.4.5-.1.8 0 1.1.1.3.1.5.2.7.4.2 1.5.4 3.1.5 4.8.1 1.7.2 3.4.4 5 .1.5.1.9 0 1.4 0 .4 0 .8.1 1 .1.4.3.7.5.9.2.2.4.5.4.8-.2.4-.4.7-.7 1 .5 2 .7 4.4.7 6.9 0 2.6.1 5 .2 7.2.1.8.1 1.6.2 2.4.1.8.1 1.6.1 2.4.1 2.3.2 4.5.3 6.8.1 2.2.2 4.4.5 6.7.1 1.1.3 2.2.4 3.2.2 1 .3 2.2.4 3.6.4.3.7.5 1 .7.3.2.7.2 1.2.1.4-.1.7-.4.8-.7.1-.4.4-.5.9-.5.3.1.5.3.6.5.1.2.2.4.3.7l.9-.3c.3-.1.7-.1 1-.1.1-.4.3-.6.6-.7.4-.1.7-.1 1-.3 0-.4-.1-.6-.3-.8-.2-.2-.3-.5-.3-.8-.1-.3 0-.4.2-.4.3.1.4 0 .3-.3-.2-.7-.3-1.4-.3-2.2.1-.7.1-1.5 0-2.2-.1-2-.4-4.1-.7-6.2-.4-2.1-.6-4.2-.7-6.3-.1-1-.1-2.1 0-3.2 0-1.1 0-2.3-.1-3.5-.2-2.5 0-4.8.4-7.1.5-2.3.8-4.8 1-7.5.1-1.8.2-3.7.4-5.6.1-1.9.2-4 .2-6.1-1.8-.6-3.5-.9-5.3-.7-1.8.1-3.7.2-5.7.2-.2-.3-.6-.5-1-.6-.4-.1-.7-.4-.7-.9.6-.1 1.3-.2 2.1-.2h2.3c1.8 0 3.5 0 5.4.1 2.4.2 3.9.6 5.3 1.3zM41.6 96.9c.3-.1.4-.2.4-.5s.1-.5.3-.6c-.4-.2-.7-.4-1-.4 0 .3.1.5.2.7.1.1.2.4.1.8zm3 5c-.2.4-.4.7-.7 1.1-.3.4-.5.7-.7 1.1-.2.4-.3.8-.4 1.3-.1.4 0 .9.3 1.4.4-1 .9-2 1.4-3 .5-1 .8-2 .9-3 .1-.2.3-.3.5-.3s.3-.1.2-.4v-.4c0-.1 0-.2-.1-.2-.3.3-.5.6-.7 1-.2.5-.4.9-.7 1.4zm-1.2 7.6c.2-.3.4-.5.4-.7 0-.2.1-.5.3-.9-.3-.1-.5-.2-.5-.4-.1-.2-.2-.4-.5-.4.1.5.2.9.2 1.4s0 .7.1 1zm-.2-18.9c.3-.4.5-.7.7-1.1.1-.4.5-.7.9-.8-.1-.3-.1-.5-.1-.7.1-.2 0-.4-.3-.7-.2.5-.5 1-.8 1.6-.3.6-.5 1.2-.4 1.7zm2.4 18.5c-.2.5-.5.9-.7 1.4-.2.5-.4 1-.5 1.5-.1.1-.3.2-.4.3-.2.1-.1.3.2.4.6-1.3 1.3-2.3 2.3-3 .1-.3 0-.6-.1-.8-.1-.3-.1-.5.1-.7-.2.1-.4.3-.5.5-.2.1-.3.3-.4.4zm-1.5-23.6c.4.1.5 0 .5-.3s-.1-.5-.2-.7c.1.3 0 .5-.1.5-.3.1-.3.2-.2.5zm0-2.6c.1.2.2.2.3 0 .1-.1 0-.2-.2-.3v.1c-.1.1-.1.2-.1.2zm.1 33.2c.1 0 .2.2.2.5.2-.1.3-.3.5-.5.1-.2.3-.4.5-.6l.6-.3c.2 0 .4.1.7.4-.1-.5-.1-1.1 0-1.8s0-1.1-.4-1.3c-.4.5-.7 1.1-.9 1.8-.4.7-.7 1.3-1.2 1.8zm.1-23.6c.1.2.2.4.4.4.2.1.3.2.3.5 0 .2 0 .4-.1.6-.1.2-.2.5-.3.7-.1.2-.1.4-.3.7-.1.3-.1.4.1.4.1-.2.2-.5.4-.7.2-.2.4-.5.4-.8.1-.5.1-1 0-1.5-.1-.6-.3-1-.4-1.4 0 .3-.1.5-.3.6-.1 0-.2.2-.2.5zm1.3 4.6c-.2.1-.2.2-.2.3 0 .1.1.1.2.1s.2 0 .2-.1c0 0-.1-.1-.2-.3zm.1 28.7c.1.2.1.4 0 .6-.1.2 0 .4.2.4.1-.3.2-.5.4-.7l.6-.6c.2-.2.3-.4.4-.7.1-.3 0-.6-.2-.9-.2.1-.4.3-.4.4-.1.2-.1.4-.1.6 0 .2-.1.4-.2.5-.2.3-.4.4-.7.4zm0-20.7c.2.1.4 0 .4-.2 0-.3-.1-.4-.2-.4-.1.2-.1.3-.1.3.1 0 0 .1-.1.3zm.3 13.4c0-.3.2-.5.5-.7.3-.2.3-.4 0-.6 0 .3-.1.5-.4.7-.3.1-.3.3-.1.6zm.2 2.9h.5c.2 0 .3-.1.4-.2 0-.2 0-.4-.1-.5-.1-.1-.2-.3-.3-.4-.1.3-.1.5-.3.6-.1.1-.2.3-.2.5zm.4 10.8c.3-.6.6-1.3.9-2 .3-.7.2-1.5-.2-2.3-.2.8-.5 1.5-.8 2.1-.4.6-.4 1.3.1 2.2zm.3 3.5c.2-.4.2-.6 0-.4-.2 0-.2.2 0 .4zm.2 1.4c.1-.4 0-.5-.3-.5.1.2.2.4.3.5zm.4-2.6c-.1-.3.1-.5.5-.7.4-.2.4-.4 0-.5 0 .3-.1.5-.4.7-.3.1-.3.3-.1.5zm2.4 2.3c-.3.4-.6.7-1.1 1.1-.4.4-.4.8-.1 1.4.3-.1.5-.1.7 0 .2.1.3.1.4 0 0-.4.1-.7.2-1 .1-.3.3-.5.5-.7.2-.2.4-.5.6-.7.2-.2.3-.5.4-.7-.2.1-.4 0-.5 0-.1-.1-.2-.2-.3-.2-.1.1-.2.2-.3.4-.1.1-.2.3-.3.4h-.2zm1.5 2.5c.4.1.8.2 1.2.1.5 0 .9-.1 1.3-.1.1-.3 0-.4-.2-.4s-.3-.1-.2-.4c.3-.4.5-.8.7-1.2.2-.5.6-.8 1.1-.9.3-.1.5 0 .5.2.1.2.2.3.5.3.1-.2.2-.4.4-.5.1-.2.2-.4.4-.6-1.5-.1-2.5.1-3.2.7-.7.6-1.4 1.3-2 2 0-.1-.1-.2-.2-.1-.1 0-.1.1 0 .1.2.1.2.2 0 .4-.2 0-.3.2-.3.4zM89 97.8c.2 1.6.2 3.2.1 4.7s-.1 2.9-.1 4.2c-.1.1-.1.2-.3.3-.2.2-.4.3-.6.3-.4.8-.6 1.8-.9 2.8-.2 1.1-.6 2-1 2.8-.4.3-.8.5-1.2.6-.5.1-1 .2-1.4.3-.5.1-1 .2-1.4.3-.5.1-.9.3-1.2.6-.4-.3-.8-.4-1.2-.2-.4.1-.8.2-1.2.2.5 3.5.5 6.6 0 9.4 0 1.7-.2 3.4-.5 5.1-.4 1.7-.4 3.7-.3 6 0 .3-.1.6-.4.8-.3.2-.5.5-.7.8-.2.5-.4.7-.4.8-.1.1-.1.2 0 .4-.2.5-.4 1-.7 1.4-.3.4-.6.9-.7 1.5-.4 0-.7-.1-1.1-.2-.4-.1-.7.1-.8.7-1.2 0-2.3 0-3.3.1s-2.1-.1-3.3-.7c0-3.4 0-6.7.1-10s0-6.4-.1-9.5v-4.5c-.2-3-.1-6.2.3-9.5s.5-6.6.5-9.9c0-.3-.1-.5-.2-.6-.1-.1-.2-.3-.2-.6.2-.3.4-.8.4-1.4 0-.6-.1-1.1-.4-1.3.2-.3.4-.6.4-.8.1-.3.2-.5.4-.8.2-.3.2-.4 0-.3-.2.1-.3 0-.3-.3.6-2 1.2-3.8 1.9-5.3s1.3-3.3 1.9-5.4c.2 0 .2.2.2.6 0 .4.2.6.6.6v3.3h.4c-.2.5-.4 1.1-.6 1.8-.2.7 0 1.2.6 1.4-.2.4-.3.7-.5 1-.1.3-.1.8.1 1.4 0 .3.1.4.2.3.1-.1.2 0 .2.3s-.1.5-.2.5c-.1.1-.2.2-.2.5 0 .6 0 1 .1 1.1.1.2 0 .5-.1 1 0 .3.1.4.2.3.1-.1.2 0 .2.3s0 .5-.1.7l-.3.6-.3.6c-.1.2-.1.6-.1 1 .2 0 .4-.2.6-.5.1-.3.2-.3.2 0 .2.5.1.8-.1 1-.2.1-.5.3-.7.6 0 .8 0 1.5.1 2s.3.8.7.8c-.2.5-.3 1.1-.5 1.7-.1.6-.1 1.1.1 1.7-.2 1.1-.3 2.3-.4 3.6-.1 1.3-.2 2.6-.2 3.9-.1 1.3-.1 2.6-.2 3.9-.1 1.3-.2 2.5-.4 3.6.2.8.3 1.7.2 2.7-.1 1 0 1.9.2 2.8-.1 0-.1 0-.2.1s-.1.3.2.4v7.2c0 .3.1.8.3 1.7-.6.8-1.1 1.6-1.7 2.2-.5.6-1 1.4-1.4 2.3h1.6v-1.2c.4-.3.7-.7.9-1.2.3-.5.6-1 1-1.5h-.4v-.5c1-.3 1.9-.5 2.9-.6.9-.1 1.7-.3 2.5-.6 0-1.7.1-3.5.3-5.3.2-1.8.5-3.6.8-5.3 0-1.2 0-2.5-.1-4-.1-1.4-.1-2.8 0-4.1 0-1.3.1-2.6.4-3.8.2-1.2.5-2.2 1-3.1 1 0 1.9-.1 2.8-.4.9-.2 1.6-.5 2.2-.8.8-.3 1.6-.4 2.3-.4.7 0 1.3-.4 1.8-1.2 0-1.1 0-2.2-.1-3.4s0-2.3.1-3.4c-.4 0-.7.1-1.1.2-.4.1-.7.1-1.1-.2-.4.6-1 .9-1.8 1-.8.1-1.3-.1-1.8-.4-.6 0-1.2.1-1.7.3-.6.2-1.1.3-1.7.3-.2-.6-.3-1.3-.2-2.2.1-.8 0-1.4-.2-1.7.2-.6.3-1.4.1-2.2-.1-.8-.3-1.4-.5-1.7.6-.2 1.2-.4 1.8-.5.6-.1 1.3-.2 2-.2s1.3-.1 2-.1 1.3-.1 1.9-.2c.4 0 .7-.1 1.1-.3.4-.2.7-.3 1.1-.3 1-.3 2-.4 2.9-.4.9.1 1.8-.2 2.5-.8.2 0 .3-.1.2-.3-.1-.2 0-.3.2-.3 0-1.7.1-3.3.2-4.7.1-1.4.2-2.9.2-4.3-.5.5-1.1.8-1.8.9l-2.1.3c-.7.1-1.4.1-2.2 0-.7-.1-1.3-.1-1.8-.1-.4 0-.6 0-.7-.1-.1-.1-.4-.2-.8-.5s-.8-.4-1.3-.4c-.5.1-.8-.2-1-.7h-.8v.8c-.2-.3-.4-.4-.7-.3-.3.1-.6 0-.8-.3-.3.3-.6.5-1.1.5H78c-.5 0-1-.1-1.5-.1s-1 0-1.5.1c-.8 0-1.5.2-2.1.5-.6.3-1 .3-1.4 0-.2-.3-.2-.4.2-.4s.5.1.5.4c.4-.5.9-.8 1.5-.9s1.4-.1 2.3-.1c.8 0 1.6-.2 2.5-.5.9-.4 1.7-.5 2.5-.5s1.6.1 2.4.3c.8.2 1.5.3 2.3.3.9 0 1.9-.1 2.9-.3 1-.2 1.9-.3 2.9-.3.4.3.8.4 1.3.2.5-.1 1-.2 1.4-.2.5-.2.8-.1 1 .3.2.4.3.8.3 1.4v2c-.1.7-.1 1.3-.1 1.8 0 1.7 0 3.2-.1 4.6-.1 1.3-.3 2.4-.7 3.2-.2.3-.4.6-.5.8-.2.3-.3.5-.3.8-.3 0-.4.3-.4 1-.2.3-.4.7-.7 1.2-.3.5-.6 1.1-.7 1.7-.4.3-.9.4-1.4.3-.5 0-1 0-1.6.3zm-21.6 36.7c-.2.5-.2 1.2-.1 1.9.1.8.1 1.6.1 2.4l.2-.4c.1-.2.2-.5.2-.7h-.3v-1.1c.4 0 .7-.2.9-.6.2-.4.4-.7.7-1 .2-.3.5-.6.9-.9.4-.3.4-.7.3-1.3-.2.3-.4.6-.6 1-.2.4-.4.7-.6 1-.2.3-.4.6-.7.7-.3.1-.5.2-.8 0 .1-.5.2-1 .6-1.3.3-.4.6-.7.9-1 .3-.3.6-.7.8-1.1s.4-1 .4-1.7c-.4.9-.7 1.7-1.2 2.3-.6.7-1.1 1.2-1.7 1.8zm0-22.2c0 .3 0 .5-.1.7-.1.2 0 .3.1.3 0-.2.2-.5.5-1l.6-.6c-.2.3-.4.5-.6.5-.1.1-.3.1-.5.1zm0-18.9c.2 0 .2.1.2.2-.1.1 0 .2.2.2.1-.9.4-1.8.8-2.5s.8-1.5 1.2-2.2c.4-.7.7-1.5 1-2.3.3-.8.3-1.8.1-2.9-.4 1.3-.9 2.9-1.4 4.7-.6 1.9-1.3 3.5-2.1 4.8zm.4 10.1c.1-.7.3-1.3.7-1.8.3-.5.7-1 1-1.4.4-.4.6-.8.9-1.3.2-.4.3-1 .2-1.7-.4.8-.7 1.6-1.1 2.2-.4.6-.8 1.4-1.2 2.2 0 .1 0 .1-.1.2s-.2.1-.4-.2c0 .5-.1 1.1 0 1.8-.1.5-.2 1.1-.4 1.6.4-.3.8-.6 1.1-1 .3-.5.1-.6-.7-.6zm.4 4.9c-.2 0-.4 0-.6.1-.1.1-.2.4-.2.9.6-.3 1.1-.9 1.6-1.9.5-1 1.1-1.6 1.9-1.9-.2-.3-.2-.6 0-1.1.2-.4.2-.6 0-.6-.6.8-1.1 1.6-1.5 2.2-.4.7-.8 1.4-1.2 2.3zm1.6 6.6c.1.5 0 1-.3 1.4-.2.4-.5.8-.8 1.2-.3.4-.6.8-.9 1.3-.3.4-.4 1-.4 1.7.6-.8 1.1-1.5 1.6-2.1l1.5-1.8c-.2-.3-.2-.7-.2-1.3.1-.6 0-.9-.2-.9-.1.1-.1.2-.1.3-.1.2-.2.2-.2.2zm-2.4 1.7c.1-.1.1-.2.2-.4s.2-.5.2-.8c-.2 0-.3-.1-.3-.3v-.7 2.2zm0 4.5v2.2c.4-.5.8-1.1 1.3-1.6.5-.6.7-1.1.7-1.6-.2.3-.5.6-.9 1s-.7.3-1.1 0zm1.2 3.9c-.2.3-.4.6-.7.9-.3.3-.4.7-.4 1.2.4-.5.8-1.2 1.2-1.9.4-.8.9-1.4 1.5-1.9v-1.1c-.2.5-.4 1-.7 1.5-.4.6-.7 1-.9 1.3zm-1.2 5.4v.6c.1-.1.2-.2.2-.4 0-.1 0-.3.1-.4 0-.1 0-.2.1-.4-.1 0-.1 0-.2.1-.1.2-.2.3-.2.5zm.8-24.9c0 .3-.1.6-.4.8-.2.2-.3.5-.1.8.2-.5.6-1.1 1.1-1.6.5-.6.9-1.1 1.3-1.6.2-.3.4-.7.7-1.1.3-.5.3-.8.1-1.1-.6.5-1 1.2-1.3 1.9-.3.7-.8 1.4-1.4 1.9zm1.2-12.2l-1.3 1.3c-.4.4-.5 1.1-.4 2 .6-.9 1.2-1.8 1.6-2.6s1-1.6 1.5-2.4v-1.1c-.2.3-.5.7-.7 1.1 0 .6-.3 1.2-.7 1.7zm.4 3.9c-.2.3-.4.6-.7.9-.3.3-.5.7-.5 1.3.1-.4.3-.8.6-1.1.3-.3.5-.6.8-.9.3-.3.5-.6.7-1.1.2-.4.3-.9.3-1.5-.2.3-.4.6-.6 1-.3.4-.4.8-.6 1.4zm-1.2 13.9c.5-.3.8-.7 1.1-1.1.2-.5.5-.8.9-1.1 0-.3.1-.5.2-.7.1-.2.1-.1-.2.2-.2.5-.5 1-.9 1.3-.6.2-.9.7-1.1 1.4zm0 1.6c.5-.3.8-.6 1.1-1.1.2-.4.5-.6.9-.6v-1.2c-.4.6-.7 1.2-1.1 1.5-.4.5-.7.9-.9 1.4zm0 18.8c.2-.6.5-1.1.8-1.4.3-.4.6-.8.7-1.3v-.5c-.2.8-.5 1.4-.9 1.8-.4.4-.6.8-.6 1.4zm.4-28.8c.2-.5.6-1 1.1-1.4.5-.4.6-.8.4-1.4-.2.5-.4 1-.7 1.4-.3.4-.6.8-.8 1.4zm.4-16.1c0-.3.1-.5.3-.7.2-.2.2-.3 0-.3 0 .3-.1.5-.4.7-.1.2-.1.3.1.3zm0 9.5c0-.3.2-.8.7-1.5.5-.7.7-1.3.7-1.8-.2.5-.5 1.1-.8 1.6-.2.4-.4 1-.6 1.7zm0 12.7c.2-.3.4-.6.6-.8.2-.3.5-.5.9-.8-.2 0-.3-.2-.2-.5.1-.4 0-.5-.2-.5 0 .5-.2 1-.5 1.4-.4.2-.6.7-.6 1.2zm0 5.6c.2-.3.4-.5.5-.6.2-.1.4-.3.5-.6v-1c0-.4-.1-.6-.3-.6 0 .5-.1 1-.4 1.5-.2.6-.3 1-.3 1.3zm0 5c.2-.3.3-.6.5-.8.1-.2.2-.5.2-.8-.2.3-.3.6-.5.8-.1.3-.2.5-.2.8zm.4.6c0-.3.1-.5.2-.6.1-.1.2-.3.2-.6-.2.1-.3.2-.4.4-.3.3-.3.5 0 .8zm0-28.8c.2 0 .4-.4.4-1.1 0 .3-.1.5-.2.6-.2 0-.2.2-.2.5zm0 34.4c.1-.1.1-.2.2-.4s.2-.5.2-.9c0 .4-.1.6-.2.7-.2.1-.2.3-.2.6zm0 1.5c.1 0 .1 0 .2-.1s.2-.3.2-.4l-.4.5zm.3-42.6c.2-.3.3-.6.4-.8.1-.2.2-.4.4-.4-.2-.3-.4-.2-.6.1-.1.5-.2.8-.2 1.1zm0 56.1c.2 0 .5 0 1-.1s.8-.2 1-.5c-.4 0-.7 0-1 .1-.2 0-.6.2-1 .5zm2-4.6c-.2.8-.4 1.4-.7 1.7-.3.3-.6.9-.8 1.8.6-.4 1.1-1 1.5-1.8.4-.9.6-1.6.9-2.1 0 .3-.1.5-.3.5-.3-.1-.5-.1-.6-.1zm.3 2.7c.4-.3.8-.8 1.2-1.4.4-.7.7-1.3.8-1.8-.5.3-.8.8-1.1 1.4-.2.7-.5 1.3-.9 1.8zm2.7-3.2v.5l-.2.4c-.1.2-.2.5-.2.8.2-.6.4-1 .7-1.1.3-.2.4-.5.4-1.1-.2.3-.4.4-.5.3-.1-.2-.2-.1-.2.2zm4.2-22.8c.2-.3.5-.6.9-.8.4-.3.5-.5.2-.8-.3.6-.6 1.2-1.1 1.6zm.8-16.6c.2-.6.4-1.2.6-1.7.2-.5.6-.8 1-1.1-.6-.3-1.1-.1-1.4.5-.3.6-.3 1.4-.2 2.3zm.8 14.4c0-.1 0-.2.1-.4 0-.2 0-.4-.1-.4s-.1 0-.2.1c-.1.3 0 .5.2.7zm2-17.8c0 .3.1.5.2.6.1.1.2.2.2.5-.4.5-.8 1.1-1.1 1.8-.3.6-.6 1.4-.8 2.2.8-.3 1.4-.9 1.7-1.9.3-1 .6-2 1.1-3.1-.2.3-.4.4-.6.2-.4-.2-.6-.3-.7-.3zm-1.6 19c.2-.3.4-.7.6-1.2.2-.5.4-.9.5-1.2-.4 0-.6.3-.8 1-.2.6-.3 1.1-.3 1.4zm1.1 1.6c0-.3.1-.4.4-.3.3.1.4 0 .4-.3 0-.5.2-1.2.7-2 .5-.8.9-1.6 1.2-2.5h-.4c-.2.8-.6 1.7-1.1 2.5-.5.9-.9 1.8-1.2 2.6zm3.2-20.6c-.4.8-.8 1.6-1.2 2.2-.4.6-.8 1.4-1.2 2.3h.8c.4-.9.8-1.6 1.2-2.3.4-.6.7-1.4 1.1-2.2h-.7zm1.5-.5c-.2.3-.3.5-.2.6.1.1.2.3.2.6-.4.5-.8 1-1.1 1.6-.3.6-.6 1.4-.8 2.2h.4c.2-1.2.5-2.1 1.1-2.8.6-.7.9-1.4 1.1-2.2-.2 0-.3.1-.4.2 0 .2-.2.1-.3-.2zm-.5 16.1h-1.1c.2 0 .2.1.2.3-.1.2 0 .5.2.7-.2 0-.3.1-.4.4-.1.2-.2.5-.4.9.4-.6.7-1.1.9-1.4.3-.3.5-.6.6-.9zm-1 3.9c.2 0 .4-.3.7-.9.3-.6.4-1.1.4-1.4-.2.6-.4 1.1-.7 1.2-.3.2-.4.5-.4 1.1zM89 92.8c-.5.8-.9 1.4-1.4 1.9-.5.4-.9 1.1-1.3 2.1h.4c.1 0 .1 0 .2-.1l.2-.2c.1-.1.1-.2.1-.4.2-.3.3-.6.4-.9.1-.3.3-.6.7-.9.2-.5.5-.9.7-1.2.3-.3.3-.6.1-.9v.6zm-1.2 4c.2-.3.4-.6.7-1 .3-.4.5-.8.5-1.4-.2.6-.5 1-.8 1.1-.3.2-.4.6-.4 1.3zm1.6-.6h.8c.2-.9.5-1.5.9-2s.7-1.1.7-1.9c-.4.8-.8 1.4-1.3 1.9-.6.4-.9 1.1-1.1 2zm1.1-3.4c0-.2.1-.3.2-.4.1-.1.1-.1.3-.1-.2-.3-.4-.3-.5 0-.2.4-.2.5 0 .5zM133 78.5c.2.2.4.4.5.6.2.2.4.3.7.4.5.8.6 1.8.5 2.8-.1 1.1-.4 1.9-.8 2.6v2.4c0 .8-.1 1.5-.3 2.3-.2.1-.4.3-.6.4-.2.2-.4.3-.6.4 0 .1 0 .2.1.3.1.1.1.2 0 .5-.6.8-1.3 1.5-2 2.2-.8.6-1.4 1.4-1.8 2.2-1.2.1-2.5.1-3.9.1s-2.7.1-4 .4c-.5.1-.9.3-1.3.4-.4.2-.8.3-1.3.4-.5.1-.9.1-1.3.1-.4-.1-.8 0-1.2.1-.2 1.3-.4 2.6-.5 3.8-.1 1.2-.2 2.4-.2 3.7.4-.2.8-.3 1.3-.5.5-.1 1.1-.2 1.6-.3.6-.1 1.1 0 1.6.1s.9.4 1.2.7c.1 1.7.2 3.4.1 5.2 0 1.8-.2 3.4-.7 4.8 0 .2-.1.4-.2.4h-.6c.1.5.1 1 0 1.4-.1.4-.4.8-.7 1.1-.3.4-.6.7-1 1-.3.3-.6.7-.8 1l.3 2.1c.1.7 0 1.4-.1 2 1.4-.3 3-.5 4.7-.7 1.7-.2 3.4-.4 5.2-.4 1.8-.1 3.5-.1 5.1-.1 1.7 0 3.1.1 4.4.2.1.3.1.6.2.8.1.3 0 .5-.1.8-.2.1-.3.1-.5 0-.1-.1-.3-.1-.6 0 .2 1.1.1 2.4-.1 3.9-.3 1.5-.3 2.9-.2 4.3.1.5.2 1 .4 1.5s.2 1-.1 1.6c-.2.1-.4.1-.5.1-.1-.1-.2-.1-.4-.2.2.8 0 1.5-.6 1.9-.6.5-1.1 1-1.4 1.6 0 .3 0 .6.1.8.1.2.1.5 0 .8-1.3.1-2.5.1-3.5.1H126c-1 0-2-.1-2.9-.2-1-.1-2-.2-3.1-.3-.3-.1-.4 0-.4.1s-.1.2-.4.2c-.4-.1-.7-.3-.8-.4-1.3-.2-2.7-.3-4.2-.4-1.5-.1-3-.2-4.4-.2-.4 0-.8.1-1.2.2-.4.1-.8.2-1.2.2-.1 0-.2 0-.4-.1-.1-.1-.2-.1-.4-.1h-1.4c-.5 0-1-.1-1.4-.4-.1-.2-.2-.4-.4-.6-.1-.1-.2-.3-.4-.6-.1-.2 0-.4 0-.4.1-.1.2-.2.2-.4-.3-2.6-.5-5.4-.6-8.3-.1-2.9-.4-5.6-.8-8.3.1-.5.2-1 .1-1.7 0-.7-.2-1.2-.4-1.6V114c0-1.2-.1-2.5-.1-3.8-.1-1.3-.1-2.6-.1-3.9v-3.6c.1-.9.1-1.8.1-2.7 0-.8.1-1.7.2-2.7.1-.9.1-1.9.1-2.9-.1-1-.2-2-.3-2.9-.1-1-.3-1.9-.4-2.9-.1-1-.1-1.9-.1-2.9.8 0 1.2.3 1.3.9l.3 1.8c.5-.8 1.1-1.6 1.8-2.5.7-.8 1.1-1.7 1.2-2.7-.2 0-.4.2-.6.5-.2.3-.5.7-.7 1s-.5.7-.8 1c-.3.3-.5.4-.8.4-.3.1-.5-.1-.7-.4-.2-.3-.3-.6-.2-1 .1-.4.3-.8.7-1.2l1.2-1.2c.5-.5.8-1 1.1-1.5.3-.5.6-1 .9-1.4.2 0 .4 0 .5.1.1.1.2.1.4.3.1-.1.2-.3.1-.5 0-.2 0-.4.1-.5.9.1 1.9.1 3 .1 1.1-.1 2.2 0 3.2.1.8-.2 1.7-.3 2.5-.4.9-.1 1.6.1 2.1.4.5-.3 1-.5 1.4-.5.5 0 1.1-.1 1.7-.1.2 0 .3 0 .2.1s-.1.2-.1.3c2.1-.2 4.1-.4 5.8-.4 1.7.3 3.9.2 6.5.1zm-30.2 12.8c.1-.3.2-.5.4-.7.2-.2.3-.4.2-.7-.1.3-.2.5-.4.7-.3.2-.3.4-.2.7zm0 16.2c.1 0 .2-.1.3-.4.1-.2.1-.4 0-.4l-.3.3c-.1.2-.1.3 0 .5zm.3-13.1c.1-.2.2-.4.4-.6.2-.2.4-.4.5-.6.2-.4.5-.8.7-1.2.3-.4.3-.8.2-1.1-.4.5-.8 1-1.3 1.6-.5.6-.6 1.2-.5 1.9zm0 4c.2-.3.4-.7.5-1.1.1-.4.3-.8.6-1.1.2-.1.3 0 .4 0 .1.1.1.1.3 0 .2-.3.5-.6.8-1.1.3-.4.3-.9 0-1.6-.2.4-.4.8-.7 1.2l-.9 1.2c-.3.4-.6.8-.8 1.2-.2.6-.2 1-.2 1.3zm.6 15.8c.8-.3 1.3-.7 1.8-1.4.4-.6.9-1.2 1.6-1.6-.1-.3 0-.5 0-.7.1-.2 0-.4-.2-.6-.5.7-1 1.4-1.5 2.2-.6.8-1.2 1.5-1.7 2.1zm2 6.2c.1.2 0 .4 0 .4-.1.1-.1.2-.1.4l-.7.7c-.2.1-.4.3-.6.6 0 .1-.1.2-.2.4s0 .2.3 0c.5-.3 1-.7 1.4-1.3.5-.6 1-1 1.4-1.2 0-.1 0-.2.1-.2.1-.3 0-.5 0-.7-.1-.2-.1-.4 0-.6-.2 0-.4.1-.5.2-.1.1-.2.3-.3.4-.1.2-.2.4-.3.5-.1.2-.3.3-.5.4zm-1.5 14.5c.1.3.1.6.1.8 0 .2.1.4.2.5.1-.3.2-.5.4-.6.2-.1.4-.2.5-.5 0-.5.1-1 .4-1.3.2-.3.5-.6.8-.9.3-.3.6-.5.9-.8s.5-.6.6-1.1c-.6.4-1.3 1-2 1.8-.7 1-1.3 1.6-1.9 2.1zm.1-2.2c.1-.1.2-.3.3-.6.1-.3.1-.5 0-.5 0 .2-.1.4-.2.6-.2.1-.2.3-.1.5zm1.4 5.6c-.2.1-.4.1-.6.1-.1 0-.3 0-.5-.1.1.1.1.2 0 .4-.1.1-.1.2 0 .2l.3-.3c.2.1.3 0 .4 0 .1-.2.3-.2.4-.3.8-.7 1.5-1.4 2.3-2 .8-.6 1.5-1.4 2.2-2.2.1-.2.1-.3-.1-.4-.2-.1-.3-.2-.4-.3-.6.9-1.3 1.7-2 2.5-.6.8-1.3 1.6-2 2.4zm-1-39.2c.2-.3.5-.5.8-.7.3-.1.4-.4.4-.8-.2 0-.3.1-.5.2-.1.1-.3.3-.4.5-.1.2-.2.4-.2.5 0 .2 0 .3-.1.3zm.6 16.4c.1-.1.3-.2.5-.2s.4 0 .6.1c.1-.2.2-.5.3-.7.1-.3.2-.4.5-.5-.1-.1-.1-.2-.1-.4.1-.2.1-.3 0-.4-.3.3-.6.7-1 1.1-.3.4-.6.7-.8 1zm.1-25.6c.1 0 .2 0 .3.1.1.1.2.1.4 0-.1-.2-.1-.4 0-.6 0-.2 0-.4-.1-.5-.1.2-.2.3-.3.4-.2.3-.2.5-.3.6zm.3-2.8c.2-.1.4-.2.6-.4-.1 0-.1-.1-.1-.3.1-.2 0-.3-.1-.3-.1.2-.2.4-.2.6 0 .1-.1.3-.2.4zm.2 20.3c.2 0 .3 0 .4.1.1.1.2.1.4.2.2-.1.2-.3.2-.7 0-.3-.1-.5-.2-.7-.1.2-.2.4-.4.5-.1.2-.2.4-.4.6zm.4 9.9c.2-.1.4-.3.6-.5.2-.2.3-.5.2-.8-.1.2-.3.5-.5.7-.2.3-.3.5-.3.6zm.3 5.9c.1 0 .2 0 .3-.1.1-.1.2-.2.3-.2 0-.2-.1-.3-.2-.4-.1.2-.2.3-.3.4-.2-.1-.2.1-.1.3zm.4 2.5c.1-.1.2 0 .3 0 .1.1.2.1.4 0 .1-.2 0-.4 0-.5-.1-.2-.2-.2-.3 0 .2.1.2.1 0 .2-.4.1-.5.1-.4.3zm19.6-45.8c-.1 0-.2 0-.3-.1-.1-.1-.1-.1-.3 0-3.2.1-6.4.2-9.6.5-3.2.3-6.4.5-9.4.6.4 2 .6 3.9.5 5.7-.1 1.8-.2 3.5-.3 5.3-.1 1.2-.1 2.4-.1 3.5.1 1.1.1 2.2.3 3.4.1 2.6.4 5.2.8 7.8.4 2.6.5 5.4.4 8.3.5.4.7.8.7 1.2 0 .5-.2.9-.6 1.2.2 1.3.1 2.6-.1 3.7s-.3 2.2-.1 3.2c.1.3.2.6.4.8.1.3.2.5.3.8.1.6.2 1.3.1 1.9 0 .6.1 1.3.4 1.9 0 .2 0 .3-.1.4-.1.1-.1.2 0 .4.2.1.3.3.3.6s0 .5.2.7c0 .3-.1.4-.4.4-.2 0-.3.2-.2.5.2.2.3.1.4-.2.1-.3.3-.4.6-.3.3.3.6.4.9.4h1.3c.5.1 1 .2 1.4.3.5.1 1 .3 1.5.4.6.1 1.2.3 1.8.4.6.2 1 .2 1.2.2.2-.1.4-.2.6-.4.1-.2.3-.4.4-.5.1-.2.3-.3.5-.4.2-.1.4-.1.7 0 .1.1.2.3.1.5v.7h4.6c1.5 0 3.2 0 4.9-.2.4.3 1 .4 1.7.4.7-.1 1.3 0 1.8.1-.1-1.8-.1-3.5.2-5.1.2-1.6.3-3.3.3-5-1.1.1-2.3.1-3.6.1-1.3 0-2.5 0-3.7.1-1.2.1-2.4.1-3.6.2-1.2.1-2.3.2-3.3.5-.3.1-.6.2-.9.1-.3 0-.6 0-.9.1-.3.1-.6.3-.8.4-.2.2-.5.2-.8.2-.5-.1-.8-.4-.9-1-.1-.6-.2-1.2-.1-2 0-.7.1-1.4.1-2.2.1-.7.1-1.2 0-1.5-.2-.8-.5-1.4-.7-2-.2-.6-.3-1.3-.3-2.1.2-.2.5-.2.8 0 0-.5.1-.8.4-1 .3-.2.6-.3 1.1-.4.4-.1.8-.1 1.3-.1.4 0 .8-.1 1.1-.3-.1-1.6-.1-3.1 0-4.3.1-1.2.2-2.4 0-3.5-.7-.3-1.4-.3-2.1 0-.7.3-1.4.5-2.2.7-.2-.1-.3 0-.3.2s-.1.3-.3.3c-.6-.2-.9-.6-1.1-1.1-.2-.8-.1-1.7.1-2.8.2-1 .4-2.1.4-3.3v-2-1.9c0-.5 0-1.1-.1-1.7-.1-.6-.1-1.2-.1-1.8 0-.6.1-1.1.3-1.5.2-.4.5-.7 1-.9.1-.1.3-.1.6 0s.6.1.8 0c.5-.1.9-.1 1.4-.2s.9-.2 1.3-.2c.7-.1 1.4-.1 2 0 .6.1 1.2 0 1.9-.1.5-.1.9-.1 1.3-.3.4-.1.8-.2 1.3-.3 1.1-.1 2.2-.2 3.2-.2 1.1 0 2.1-.1 3.2-.2 0-1.1.1-2.3.2-3.8s.3-3 .5-4.4c-.3-.2-.7-.3-1.2-.3h-1.6c-.6 0-1.2.1-1.8.1-.6.5-1.2.5-1.7.4zm-18.2 58.3c.3-.1.5 0 .7 0 .2.1.5.1.8 0 .6-.6 1.1-1.2 1.6-1.8.5-.6 1-1.3 1.4-2.1-.2 0-.4 0-.5-.1-.1-.1-.3-.1-.6 0-.2 1.1-.7 1.8-1.4 2.2s-1.4 1.2-2 1.8zm5.5-3.2c-.2.8-.5 1.4-1 1.8-.5.4-.9.9-1.2 1.5.4.1.8.1 1.1-.1.4-.2.4-.4.2-.5.4-.5.8-.9 1.3-1.4.4-.5.8-1 1.1-1.5-.2-.1-.4-.1-.5-.1-.2 0-.3-.1-.4-.2-.1.1-.1.2-.1.4-.1.1-.2.1-.5.1zm.4 3.3c.1-.1.2-.1.4 0 .1.1.2 0 .2-.1-.1 0-.1-.1 0-.4.1-.3.1-.4 0-.3-.1.2-.2.3-.4.4-.1 0-.2.2-.2.4zm1-1.1c.5-.3.8-.6 1.1-1 .3-.4.6-.7 1-1.1-.2.1-.4 0-.4-.1s-.1-.2-.3-.2c0 .5-.2.8-.6 1.1-.3.5-.6.9-.8 1.3zm1.2 1.2c.1.1.3.2.4.1.2 0 .4 0 .5.1-.1-.1 0-.4.1-.7.1-.4.1-.5-.1-.5-.1.3-.2.5-.4.6-.2.2-.3.3-.5.4zm1.8-46.4c-.2.6-.5 1.2-.8 1.7-.3.5-.6 1-.9 1.6.4 0 .7 0 .8-.1-.1-.4-.1-.8 0-1.1.1-.3.3-.6.6-.8.2-.3.5-.5.7-.7.2-.2.3-.5.3-.8-.1.1-.2.2-.4.1 0 0-.2 0-.3.1zm-.1 46.7c.2 0 .3 0 .4.1.4-.4.8-.9 1.3-1.4.4-.6.7-1.1.9-1.5-.4.5-.9 1-1.4 1.4-.5.2-.9.7-1.2 1.4zm2.9-46.7c.1-.1.1-.2.2-.3.1-.1.2-.2.2-.3h-.4c-.1.1-.1.2-.1.4s0 .2.1.2zm2.3-.6c.1.6-.1 1.1-.6 1.5-.5.4-.8.8-1.1 1.2.1.1.3.1.5 0s.5-.1.7 0c-.2-.7-.1-1.2.3-1.6.4-.4.7-.8.8-1.2-.3-.1-.5 0-.6.1zm-.9 45.1c.1-.2.3-.4.6-.5s.5-.2.7-.4h-1.2c.1.2 0 .3-.1.5-.2.1-.1.2 0 .4zm3.9-.9c-.3.6-.7 1.2-1.2 1.6-.5.4-.8 1-.9 1.8.4-.1.6-.3.7-.6l.3-.9c.3-.4.6-.7.9-1 .3-.3.6-.6.7-1h-.5zm-.1-44.5c-.1.7-.4 1.2-.8 1.5-.4.3-.8.8-1.1 1.4h.5c.1 0 .2-.1.4-.1.2-.6.6-1.1 1-1.5.4-.4.8-.9 1.1-1.4-.6-.2-.9-.1-1.1.1zm.5 47.1c.3-.3.6-.5 1-.7.4-.2.6-.5.7-1-.4.2-.8.4-1.1.8l-.6.9zm1-44.9c.4-.4.8-.8 1.2-1.1.4-.4.8-.8 1.1-1.2-.3 0-.5 0-.6-.1-.1-.1-.3-.1-.6 0 .1.7 0 1.2-.4 1.4-.2.1-.5.5-.7 1zm2.4 46h.7c0-.2.1-.4.4-.6.3-.2.2-.3 0-.4-.2.2-.4.3-.6.5-.3 0-.4.2-.5.5zm2.2-2.4c.1-.3.3-.5.4-.6.2-.1.3-.3.4-.6-.3.1-.5.1-.7 0-.2-.1-.4-.1-.5-.1-.1.1 0 .3.1.5s.2.5.3.8zM154.1 97.9h130.6v19.5H154.1z"/><g><path class="st2" d="M162.1 106.8c-.2-.6-.4-1.1-.6-1.6-.6.6-1.3 1.2-2.1 1.7l-.2-.3c.7-.5 1.4-1.2 2.1-2-.5-.9-1-1.9-1.8-2.9l.3-.3c.8.9 1.4 1.8 1.9 2.6.6-.8 1.1-1.6 1.5-2.6.8.4 1.2.7 1.2.9 0 .1-.2.2-.6.2h-.1c-.5.8-1 1.5-1.6 2.2.9 1.9 1.4 3.9 1.4 5.9 0 2.4-.4 3.8-1.1 4.4-.3.2-.7.4-1.2.4 0-.4-.2-.6-.5-.8-.3-.1-.6-.2-1.1-.3v-.4c.8.1 1.4.2 1.8.2.4 0 .7-.2.9-.5.4-.8.5-1.9.5-3.3 0-.7-.1-1.4-.2-2.1-.7 1.4-1.7 2.6-3 3.7l-.3-.3c1.1-1.4 2.1-2.9 2.8-4.8zm6.6 2h3l.8-1c.3.3.7.6 1.1 1.1l-.2.3h-4.6c.5 1.1 1 2 1.7 2.7.7.8 1.8 1.5 3.2 2.2-.4.3-.6.6-.7 1-2.3-1.2-3.8-3-4.5-5.3-.3 1.6-1 2.8-1.9 3.7-.8.8-1.9 1.4-3.2 1.9l-.2-.4c1.8-.8 3.1-2 3.8-3.5.3-.6.6-1.4.7-2.3h-3.9l-.2-.4h4.1v-.1c.1-.5.1-.9.1-1.4v-3.2h-3.7l-.2-.4h3.9v-2.8c1.1 0 1.7.2 1.7.4s-.2.3-.7.4v1.9h2.4l.8-1c.3.3.7.6 1 1.1l-.2.3h-4v3.2c-.1.6-.1 1.1-.1 1.6zm-3.9-4c1.2 1 1.9 1.9 1.9 2.7 0 .5-.2.7-.6.7-.3 0-.5-.2-.5-.6-.1-.8-.4-1.6-1.1-2.5l.3-.3zm4.8 3.4c.5-1 .9-2.2 1.3-3.6.9.4 1.4.7 1.4.9 0 .1-.2.2-.6.2-.4.8-.9 1.7-1.7 2.6l-.4-.1zM178 113.1h4.3v-11.6c1.1 0 1.6.1 1.6.4 0 .1-.2.3-.7.5v10.7h4.4v-8.7c1.1.1 1.6.2 1.6.5 0 .2-.2.3-.6.4v9.7h-1v-1.5H178v1.6h-.9v-10.7c1.1.1 1.6.2 1.6.4 0 .1-.2.3-.7.5v7.8zM196.2 109.8l.2.3c-.6 1.8-.9 2.9-.9 3.6 0 .5-.2.5-.6.1-.4-.5-.7-1.5-.7-3 0-.9.2-2.3.5-4.2.1-.4.1-.7.1-.9 0-.4-.1-.7-.3-1l.1-.1c.8.4 1.2.9 1.2 1.4 0 .1-.1.7-.4 1.7-.4 1.3-.6 2.4-.6 3.4 0 .5.1 1 .2 1.5.1.3.3.1.5-.6.1-1 .4-1.6.7-2.2zm2.4-2c.3-.4.8-.8 1.3-1.2.1-.1.1-.2 0-.2s-.2 0-.3-.1c-.7-.1-1.3-.4-1.7-.9l.2-.1c.3.2.8.3 1.3.4.5.1 1.2.1 2 0h.5c.3 0 .5.2.6.3.1.1.2.2.1.4 0 .2-.3.3-.7.2-.7-.1-1.7.3-3 1.2h-.3zm-.4 2.1c0 1.5.7 2.3 2.2 2.5.4.1.9.1 1.4 0h.4c.2 0 .4.1.5.2.2.1.3.3.2.4 0 .3-.8.4-2.3.2-1.1-.1-1.8-.4-2.3-.9-.4-.5-.6-1.3-.5-2.4h.4zM209.7 105.7c.5.1.8.2.8.4 0 .1-.2.3-.6.4v8.9h-1v-8.2c-.7 1.1-1.4 2.1-2.1 3l-.3-.3c1.7-2.4 2.9-5.4 3.8-8.9 1 .3 1.5.5 1.5.8 0 .1-.2.2-.7.3-.4 1.2-.8 2.4-1.4 3.6zm6.5 3.8v4.6h3.2l.8-1.2c.4.3.7.8 1.1 1.3l-.2.3h-10.2l-.2-.4h4.5v-4.6h-3.5l-.2-.4h3.7v-3.8h-3.9l-.2-.4h7.8l.8-1.1c.4.4.8.8 1 1.2l-.2.3h-4.4v3.8h2.3l.7-1c.4.3.7.7 1 1.1l-.2.3h-3.7zm-2.4-8.5c1.8.9 2.6 1.8 2.6 2.6 0 .4-.2.6-.6.6-.3 0-.5-.2-.6-.6-.3-.8-.9-1.5-1.7-2.2l.3-.4zM228.8 105.9c0-.7-.1-1.1-.1-1.3-.1-.2-.3-.3-.6-.4v-.2c1.1-.3 1.6-.1 1.6.6v.3c-.1.4-.1.8-.1 1.2v.2c.3-.1.5-.2.7-.3.2-.1.3-.2.5-.2.4 0 .6.1.6.3 0 .2-.5.5-1.5.8-.1 0-.3.1-.4.1v1.8c.5-.1.8-.1 1-.2.2-.1.5-.2 1-.4.2-.1.3-.1.4-.2.2 0 .4.1.6.2l.2.2c0 .2-.4.4-1.1.6-.7.2-1.4.3-2 .3v2.2c1.2.4 2 .7 2.4 1s.6.6.6.8c0 .3-.1.4-.4.4-.1 0-.2-.1-.3-.2-.6-.5-1.3-1-2.2-1.4v.5c0 .9-.6 1.4-1.9 1.5-.7.1-1.3 0-1.8-.3-.3-.2-.5-.5-.5-.8 0-.4.2-.7.6-1 .4-.3 1-.5 1.6-.6h1.2v-2.2c-.8.1-1.3.1-1.4.1-1.2 0-1.7-.5-1.5-1.5h.3c0 .6.4 1 1.1 1 .4 0 .9 0 1.5-.1v-1.8c-1.3.1-2.2-.3-2.8-1.2l.1-.2c.6.6 1.5.9 2.7.7l-.1-.3zm.2 6.1c-.5-.1-1-.1-1.4-.1-1 .1-1.5.4-1.5 1 0 .2.1.4.4.5.3.2.7.2 1.2.2.5-.1.9-.2 1.1-.4.1-.2.2-.6.2-1.2zM238.4 107.5c.2.8.6 1.1 1.3.9.2-.1.6-.3 1.3-.6.6-.3 1.1-.5 1.6-.4.8 0 1.4.3 1.9.8s.7 1.1.7 1.9c0 1.3-.6 2.5-1.8 3.4-.9.7-2 1.2-3.4 1.5v-.2c1.2-.4 2.1-1 2.9-1.7 1-.9 1.4-1.9 1.4-3 0-.7-.2-1.2-.5-1.6-.3-.4-.7-.5-1.1-.5-.4 0-.8.1-1.2.3-.5.3-.9.5-1.2.8-.2.1-.3.2-.4.2-1 .3-1.5-.2-1.6-1.5l.1-.3zm1.2-1.6c.6-.4 1.2-.7 1.9-.9-.6-.2-1.2-.6-1.7-1.3l.1-.2c.6.5 1.2.8 1.7.9.3.1.7.1 1.3.1.8 0 1.1.2 1.1.6 0 .2-.1.4-.4.4h-.2c-.3-.1-.6-.1-.8-.1-.8 0-1.7.2-2.9.6l-.1-.1zM259.1 106.6v-2.3h-2.4l-.2-.4h2.6v-2.6c1 0 1.6.2 1.6.4 0 .1-.2.3-.7.4v1.8h1.2l.7-1c.3.3.6.7.9 1.1l-.1.3H260v2.3h1.6l.7-1c.3.3.6.6.9 1l-.2.3h-3c.7 1.5 1.8 2.8 3.3 3.9-.3.2-.6.5-.8.8-1.2-1.2-2.1-2.5-2.6-4.1v5.4h-.9v-4.6c-.7 1.2-1.5 2.2-2.5 3 .3.4.5.7.5 1 0 .4-.2.5-.5.5-.2 0-.4-.1-.4-.4 0-.2 0-.4-.1-.5-.6.2-1.4.5-2.4.7v.6c0 .3.1.5.3.5.4.1 1.6.1 3.6.1 2.2 0 3.5 0 4-.1.4-.1.7-.7.8-1.9l.4.1c0 .8 0 1.2.1 1.4.1.2.3.2.5.2 0 .5-.3.8-.8.9-.5.1-2 .1-4.7.1-2.9 0-4.5-.1-4.8-.3-.2-.1-.3-.5-.3-1v-5.1h-.7v.2c0 1.6-.2 2.9-.6 3.9-.4 1.1-1.2 2-2.4 2.8l-.3-.3c1-.8 1.6-1.9 2-3.1.2-.9.4-2 .4-3.2v-.3h-.7v.7h-.9v-6.4l.1.1c.4.2.7.3.9.4h1c.2-.7.3-1.5.3-2.3 1 .2 1.5.3 1.5.5 0 .1-.2.2-.6.4-.2.4-.5.9-.8 1.4h2.6l.6-.7c.6.5.9.8.9 1 0 .1 0 .1-.1.2l-.4.3v5.2h-.9v-.7h-1.1v3.7h.4c.3-.7.4-1.6.6-2.5.8.2 1.3.4 1.3.6 0 .1-.2.2-.6.2-.2.6-.5 1.1-.8 1.6.5-.1 1-.2 1.5-.2-.1-.2-.3-.5-.5-.7l.3-.2c.2.2.4.3.6.4 1.1-1.1 1.9-2.5 2.5-4.1l.1-.1h-2.6l-.2-.4h3zm-7-3h-1.7v2h1.7v-2zm0 2.4h-1.7v2.1h1.7V106zm2.7-.4v-2H253v2h1.8zm0 2.5V106H253v2.1h1.8zM271.3 105.6h-4.9l-.2-.4h5.1v-3.9c1.2 0 1.7.1 1.7.4 0 .2-.2.3-.7.5V105.1h4.8l.6-.8c.7.6 1 .9 1 1.1 0 .1-.1.1-.2.2l-.4.2c0 4.2-.4 6.9-1 8-.4.7-1 1-2 1 0-.3-.3-.6-.7-.7-.3-.1-1-.3-2.2-.5v-.5c1.2.2 2.2.3 3 .3.6 0 1-.2 1.2-.7.5-1.1.7-3.6.7-7.3h-5c-.1 2.3-.6 4.2-1.4 5.6-1 1.8-2.7 3.2-5 4.2l-.2-.4c2.5-1.3 4.1-3.2 4.9-5.5.6-.9.8-2.2.9-3.7z"/></g></svg>