<svg version="1.1" id="レイヤー_1" xmlns="http://www.w3.org/2000/svg" x="0" y="0" viewBox="0 0 268 60" xml:space="preserve"><style>.st0{fill:#fff}</style><path class="st0" d="M8.3 10.9c0 1.8-.7 2.8-2.2 2.8 0-.3-.1-.5-.4-.6-.2-.1-.8-.3-1.6-.4v-.4c.8.1 1.5.2 2.1.2.5 0 .8-.2.9-.5.1-.4.2-.8.2-1.4 0-.4-.1-.8-.2-1.3-1.7 1.5-4 2.7-6.8 3.5l-.2-.4c2.8-1 5.1-2.4 6.7-4.1-.2-.4-.3-.7-.4-1C4.9 8.5 3 9.4.7 10.1v-.3C3 9 4.8 7.9 6.1 6.6c0-.1-.1-.1-.1-.2-.1-.1-.2-.3-.4-.5-1.3.8-2.8 1.4-4.6 1.8l-.2-.3C3 6.7 4.7 5.8 6 4.6H2.5l-.2-.4H10l.8-.9c.4.3.8.7 1.1 1l-.2.3H8.2C8.5 5.9 9 7 9.6 7.9c.7-.8 1.5-1.7 2.1-2.6.7.5 1.1.8 1.1 1 0 .1-.1.2-.3.2h-.3c-.7.6-1.5 1.2-2.3 1.9 1 1.3 2.3 2.4 4 3.3-.3.2-.6.5-.8.9-2.9-1.8-4.7-4.4-5.4-7.9h-.5c-.4.3-.8.6-1.3.9 1.6 1.8 2.4 3.5 2.4 5.3zM6.6 2V0c1 0 1.5.1 1.5.4 0 .1-.2.3-.7.4V2h4.8l.6-.7c.7.7 1.1 1.1 1.1 1.3 0 .1-.1.1-.2.2l-.5.1c-.3.4-.7.7-1.1 1l-.3-.2c.2-.4.4-.8.6-1.3H2.1v.1c0 .8-.2 1.5-.5 2-.1.2-.3.4-.5.4s-.3-.1-.5-.2c-.1-.1-.1-.2-.1-.4s.1-.4.4-.6c.5-.5.8-1.3.9-2.3h.4c0 .1.1.3.1.5h4.3zM27.3 6c-.3.3-.7.7-1.2.9-.5.3-1.3.5-2 .8-.2.1-.4.2-.5.2 0 .2.1.4.1.6.1.7 0 1.1-.2 1.5-.2.3-.4.5-.7.6-.4 0-.5-.2-.4-.6.1-.3.2-1 .3-1.6v-.1c-.3.1-.6.2-.8.4-.5.3-1 .6-1.3 1.1-.3.4-.5 1-.2 1.5.3.4 1 .8 1.7.7.7 0 1.1-.1 1.6-.2s.9-.2 1.1-.2c.5 0 .7.1 1 .3.3.2.3.5 0 .6-.1.1-.3.1-.9.2-.6.1-1.7.2-2.4.2-.8 0-1.6-.2-2.3-.6-.6-.3-.7-.9-.7-1.5s.3-1 .7-1.5c.4-.4 1-.8 1.6-1.1.2-.2.5-.4.8-.6 0-.3-.1-.5-.2-.7-.3-.4-.7-.6-1.1-.6-.3-.1-.7 0-1.1.2-.1.1-.2.1-.3.2-.2.3-.4.5-.6.8-.4.6-.9.9-1.2.9-.4 0-.4-.2-.4-.5s.1-.6.4-.7c.3-.1.5-.3.9-.5.7-.5 1.2-1.3 1.8-2.2.1-.5.2-.8.4-1.1-.1 0-.3 0-.4.1-.5.1-1 0-1.4-.2-.4-.3-.5-.8-.4-1 .2-.3.5-.1.9.1.4.1.8.2 1.3 0 .1 0 .2 0 .3-.1.1-.5-.1-.6-.2-.8-.2-.2-.2-.5-.1-.6.1-.1.4-.1.6 0 .1 0 .2.1.2.2.2 0 .5.1.6.1.2 0 .5.1.6.2.2.1.1.3-.1.5-.1.3-.5.7-.9 1 0 .1-.1.2-.2.2-.1.3-.3.7-.4 1-.4.7-.6 1.1-1 1.8-.1.1-.1.2-.2.3.1-.2.3-.2.4-.3.4-.2.7-.2 1.1-.1.4.1.6.2.9.5.1-.1.1-.2.2-.3.6-.7 1-1.2 1.8-1.5.8-.4 1.7-.5 2.3 0 .7.5.5 1.1.2 1.5zm-5-4c.1-.1.2-.1.2-.1.3-.1.3-.3.3-.4-.1-.1-.2-.1-.4-.2h-.2c.1.1.1.3.1.4V2zm4.3 2.9c-.1-.2-.5-.3-1-.2-.6.1-1 .5-1.4.8-.4.3-.7.9-.9 1.4.1.1.1.2.1.3.2-.1.3-.1.4-.2.7-.2 1.5-.6 2.2-1 .7-.4.7-.9.6-1.1zM31.5 10.5c1 .3 1.8.8 2.4 1.4.3.3.4.6.4 1 0 .5-.3.8-.7.8-.3 0-.4-.2-.6-.6-.3-.8-.9-1.6-1.7-2.3l.2-.3zM40.3 4.5c1.4-1.2 2.5-2.7 3.2-4.4.8.3 1.2.6 1.2.8 0 .1-.2.2-.7.2-.9 1.4-2.1 2.7-3.6 3.7l-.1-.3zm3.2 2.1c0 .1-.2.2-.5.3v6.8h-.9V7.6c-.5.6-1 1.2-1.6 1.8l-.3-.3c1.3-1.6 2.4-3.6 3.4-6.1.8.3 1.2.6 1.2.8 0 .1-.2.2-.6.2-.4.9-.8 1.6-1.2 2.3.4.1.5.2.5.3zm3.9 2.2v2.3c1.2-.3 2.2-.5 3-.7l.1.4c-1.7.6-3.6 1.1-5.7 1.6-.1.4-.1.6-.3.6-.2 0-.4-.5-.7-1.3.8-.1 1.7-.2 2.5-.4h.2V8.8h-2.2l-.2-.4h2.4V6.1c1 0 1.5.2 1.5.4 0 .1-.2.3-.6.4v1.5h1.1l.7-1c.3.3.6.6.9 1.1l-.1.3h-2.6zm5.2-3.4v7c0 .8-.5 1.2-1.5 1.2 0-.3-.1-.4-.3-.5-.2-.1-.7-.3-1.6-.4v-.4c.8.1 1.4.1 2 .1.4 0 .6-.2.6-.5V5.4h-1.6l.1.1.1.1-.2.3h-6l-.2-.5h2.6V2.9h-2l-.2-.4h2.1V.2c1 0 1.5.1 1.5.4 0 .1-.2.3-.6.4v1.6h1l.7-.9.2.2c.3.1.5.4.7.7l-.2.3h-2.4v2.5h1.3l.7-1 .6.6h2.6l.7-1c.3.3.7.7 1 1.1l-.2.3h-1.5zm-.4-4l.7-.9c.4.3.7.7.9 1l-.2.3h-3.8l-.2-.4h2.6zM67.5 6c-.3.3-.7.7-1.2.9-.5.3-1.3.5-2 .8-.2.1-.4.2-.5.2 0 .2.1.4.1.6.1.7 0 1.1-.2 1.5-.2.3-.4.5-.7.6-.4 0-.5-.2-.4-.6.1-.3.2-1 .3-1.6v-.1c-.3.1-.6.2-.8.4-.5.3-1 .6-1.3 1.1-.3.4-.5 1-.2 1.5.3.4 1 .8 1.7.7.7 0 1.1-.1 1.6-.2s.9-.2 1.1-.2c.5 0 .7.1 1 .3.3.2.3.5 0 .6-.1.1-.3.1-.9.2-.6.1-1.7.2-2.4.2-.8 0-1.6-.2-2.3-.6-.6-.3-.7-.9-.7-1.5s.3-1 .7-1.5c.4-.4 1-.8 1.6-1.1.3-.2.6-.3.9-.5 0-.3-.1-.5-.2-.7-.3-.4-.7-.6-1.1-.6-.3-.1-.7 0-1.1.2-.1.1-.2.1-.3.2-.2.3-.4.5-.6.8-.4.6-.9.9-1.2.9-.4 0-.4-.2-.4-.5s.1-.6.4-.7c.3-.1.5-.3.9-.5.7-.5 1.2-1.3 1.8-2.2.3-.4.4-.8.5-1.1-.1 0-.3 0-.4.1-.5.1-1 0-1.4-.2-.4-.2-.5-.8-.3-1 .2-.3.5-.1.9.1.4.1.8.2 1.3 0 .1 0 .2 0 .3-.1.1-.5-.1-.6-.2-.8-.2-.2-.2-.5-.1-.6.1-.1.4-.1.6 0 .1.1.2.1.2.2.2 0 .5.1.6.1.2 0 .5.1.6.2.2.1.1.3-.1.5-.1.3-.5.7-.9 1-.1.1-.2.1-.3.2-.1.3-.3.7-.4 1-.4.7-.6 1.1-1 1.8-.1.1-.1.2-.2.3-.1-.3.1-.3.2-.4.4-.2.7-.2 1.1-.1.4.1.7.2.9.5.1-.1.1-.2.2-.3.6-.7 1-1.2 1.8-1.5.8-.4 1.7-.5 2.3 0 .7.5.4 1.1.2 1.5zm-5.1-4c.1-.1.2-.1.2-.1.3-.1.3-.3.3-.4-.1-.1-.2-.1-.4-.2h-.2c.1.1.1.3.1.4V2zm4.4 2.9c-.1-.2-.5-.3-1-.2-.6.1-1 .5-1.4.8-.4.4-.8.9-1 1.5.1.1.1.2.1.3.2-.1.3-.1.4-.2.7-.3 1.5-.7 2.2-1.1.8-.4.8-.9.7-1.1zM71.7 10.5c1 .3 1.8.8 2.4 1.4.3.3.4.6.4 1 0 .5-.3.8-.7.8-.3 0-.4-.2-.6-.6-.3-.8-.9-1.6-1.7-2.3l.2-.3zM87.9 6.4V3.5H83l-.2-.4h5.1V.3c1.1.1 1.6.2 1.6.4 0 .1-.2.3-.7.5v2H92l.7-1c.3.3.6.6.9 1l.1.2-.2.3h-4.9v2.8h4.3l.9-1.1c.5.2.9.6 1.2 1l-.2.3H89c1.6 2.1 3.7 3.7 6.3 4.8-.3.3-.6.6-.8.9-2.4-1.3-4.3-3.1-5.6-5.2v6.4H88V7.8c-1.5 2.2-3.5 3.9-6 5.2l-.3-.3c2.5-1.5 4.4-3.5 5.8-5.9H82l-.2-.4h6.1zM103.4 7.2V3h-5.3l-.2-.4h5.5V.1c1 0 1.6.2 1.6.4 0 .1-.2.3-.7.4v1.7h4l.8-1c.4.3.7.7 1 1.1l-.2.3h-5.6v4.3h4.8l.8-1c.3.2.7.6 1.1 1.1l-.2.3h-6.3l.1.1c1.8 1.8 3.9 3 6.3 3.8-.3.3-.6.6-.8 1-2.3-1.1-4.3-2.6-5.8-4.5v5.6h-.9V8.5c-1.6 1.9-3.6 3.3-6.2 4.2l-.2-.3c2.5-1.2 4.4-2.8 5.9-4.8h-5.7l-.2-.4h6.4zm-3.9-3.6c1.4.8 2.1 1.6 2.1 2.5 0 .4-.2.6-.6.6-.2 0-.4-.2-.5-.6-.2-.8-.6-1.6-1.2-2.3l.2-.2zm6.1 3c.6-1 1-2.1 1.3-3.3.9.4 1.4.6 1.4.8 0 .1-.2.2-.7.2-.4.8-1 1.6-1.7 2.5l-.3-.2zM124.2 6c-.3.3-.7.7-1.2.9-.5.3-1.3.5-2 .8-.2.1-.4.2-.5.2 0 .2.1.4.1.6.1.7 0 1.1-.2 1.5-.2.3-.4.5-.7.6-.4 0-.5-.2-.4-.6.1-.3.2-1 .3-1.6v-.1c-.3.1-.6.2-.8.4-.5.3-1 .6-1.3 1.1-.3.4-.5 1-.2 1.5.3.4 1 .8 1.7.7.7 0 1.1-.1 1.6-.2s.9-.2 1.1-.2c.5 0 .7.1 1 .3.3.2.3.5 0 .6-.1.1-.3.1-.9.2-.6.1-1.7.2-2.4.2-.8 0-1.6-.2-2.3-.6-.6-.3-.7-.9-.7-1.5s.3-1 .7-1.5c.4-.4 1-.8 1.6-1.1.3-.2.6-.3.9-.5 0-.3-.1-.5-.2-.7-.3-.4-.7-.6-1.1-.6-.3-.1-.7 0-1.1.2-.1.1-.2.1-.3.2-.2.3-.4.5-.6.8-.4.6-.9.9-1.2.9-.4 0-.4-.2-.4-.5s.1-.6.4-.7c.3-.1.5-.3.9-.5.7-.5 1.2-1.3 1.8-2.2.3-.4.4-.8.5-1.1-.1 0-.3 0-.4.1-.5.1-1 0-1.4-.2-.4-.2-.5-.8-.3-1 .2-.3.5-.1.9.1.4.1.8.2 1.3 0 .1 0 .2 0 .3-.1.1-.5-.1-.6-.2-.8-.2-.2-.2-.5-.1-.6.1-.1.4-.1.6 0 .1.1.2.1.2.2.2 0 .5.1.6.1.2 0 .5.1.6.2.2.1.1.3-.1.5-.1.3-.5.7-.9 1-.1.1-.2.1-.3.2-.1.3-.3.7-.4 1-.4.7-.6 1.1-1 1.8-.1.1-.1.2-.2.3.1-.1.3-.1.4-.2.4-.2.7-.2 1.1-.1.4.1.6.2.9.5.1-.1.1-.2.2-.3.6-.7 1-1.2 1.8-1.5.8-.4 1.7-.5 2.3 0 .5.3.3.9 0 1.3zm-5.1-4c.1-.1.2-.1.2-.1.3-.1.3-.3.3-.4-.1-.1-.2-.1-.4-.2h-.2c.1.1.1.3.1.4.1.1.1.2 0 .3zm4.4 2.9c-.1-.2-.5-.3-1-.2-.6.1-1 .5-1.4.8-.4.3-.7.9-.9 1.4.1.1.1.2.1.3.2-.1.3-.1.4-.2.7-.3 1.5-.7 2.2-1.1.7-.3.7-.8.6-1zM139.5 6.3c0-.4 0-1.1-.5-1.5-.5-.5-.9-.7-1.5-.7-.5-.1-1.1 0-1.5.2-.4.2-1.1.6-1.5.9-.4.3-1.1.8-1.5 1.2-.5.4-1.1.7-1.7.6-.5 0-1.1-.3-1.4-.5-.3-.2-.4-.5-.3-.7.1-.2.3-.1.5-.1.3.1.6.1.9.1.4 0 .7-.3 1-.4.3-.1 1.3-.7 1.7-.9l1.6-.8c.6-.3 1.3-.5 2.1-.5s1.7.4 2.2.9c.5.5.8 1 .9 1.9.1.8-.1 1.6-.6 2.3-.5.7-1.4 1.2-2 1.6-.7.3-1.4.6-2.2.8-.6.1-1.1.2-1.3.2-.2 0-.3-.1-.3-.2s.1-.2.3-.2c.2 0 .4 0 1.1-.2.7-.2 1.5-.6 2.1-.9.6-.3 1.2-1 1.5-1.4.3-.4.4-1.2.4-1.7zM147.5 5.4c-.3.5-.4 1.1-.4 1.3 0 .2.3.5.5.8.2.3.7.8 1.1 1.4.4.5.8 1.1 1.2 1.7.3.7.5 1.3.5 1.8s-.1.8-.4.8c-.3.1-.5-.1-.6-.5-.1-.3-.2-.7-.3-1.2s-.5-1.2-.8-1.8c-.3-.7-.8-1.4-1.1-1.7-.2-.4-.7-.8-.7-1.2s.3-1.1.6-1.7c.3-.6 1-1.5 1.3-2 .4-.5 1-1.1 1.2-1.4.2-.2.1-.5 0-.7 0-.2-.1-.4.1-.4.2-.1.4.1.7.3.3.2.4.5.4.9 0 .3-.2.6-.5.9-.3.3-1 .8-1.4 1.2-.6.3-1.1 1-1.4 1.5zM166.6 11c-.6.7-1.4 1.1-2.2 1.3-.9.2-1.7.2-2.7 0-1-.2-1.4-.6-1.4-1.1 0-.5.6-.9 1.2-1 .6-.1 1.2-.1 1.8.3.4.4.4.8.2 1.2.8-.1 1.6-.3 2.1-.8.7-.5 1-1.3 1-2.1s-.6-1.7-1.5-2.1c-.9-.4-2-.4-3-.1-1.1.3-1.7.9-2.2 1.5-.5.7-.9 1.5-1 1.9-.1.4-.3.7-.5.8-.1.1-.3.1-.6-.1-.2-.2-.2-.5-.2-.7 0-.2.4-.8.7-1.1.3-.4.8-1 1.3-1.7.6-.6 1.5-1.7 1.9-2.2.4-.4 1.5-1.8 1.7-2.1.2-.2.3-.4.2-.5-.1-.1-.4 0-.5.1-.2.1-1 .6-1.5.9-.5.3-.8.4-1.3.4-.4 0-.7-.2-.9-.4-.2-.2-.2-.4-.2-.5.1-.2.2-.2.4-.1.2 0 .4.1.6.1.2 0 .4 0 .9-.2s1.2-.5 1.8-.8c.6-.3.9-.5 1.2-.5.3 0 .7.2.9.4.2.2.2.4.2.5 0 .2-.1.2-.4.4-.2.1-.7.6-1.2 1-.5.5-1 1.2-1.4 1.6 0 0-.4.4-1.2 1.3.2-.2.5-.3.9-.5.7-.2 1.4-.4 2.2-.3.9.1 1.6.4 2.2.8.6.5 1.1 1.1 1.2 2.1.1.9-.2 1.6-.7 2.3zm-4.9-.3c-.5 0-.9.3-.6.7.1.2.6.4 1.3.4.6-.7 0-1.1-.7-1.1z"/><g><path class="st0" d="M171.9 26.2V44c0 4.2-2.9 7.4-5.4 9.4l3.7 4.7c5-4 7.6-8.9 7.6-14.1V26.2h-5.9zM195.5 42.6c0 3.5-.9 6.2-2.5 7.8-1.1 1.1-2.6 1.7-4 2.1v-28h-6V59h.5c2.7 0 9.2.1 13.6-4.3 2.9-2.8 4.3-6.9 4.3-12.1h-5.9zM206.7 37.5l-1.5 5.8h26.4l1.5-5.8zM256.2 26.2h-20.4l-1.5 6h23c-1.5 12.8-8.4 19.6-21.1 20.6l-1.5 6.1c16.9-.7 26.7-9.8 28.6-26.4-.3 0-.5.1-.8.1-3.5-.1-6.3-2.9-6.3-6.4z"/><path class="st0" d="M262.5 30.8c-2.5 0-4.6-2-4.6-4.5s2-4.6 4.6-4.6c2.5 0 4.5 2 4.5 4.6 0 2.4-2 4.5-4.5 4.5zm0-6.3c-1 0-1.7.8-1.7 1.7 0 .9.8 1.7 1.7 1.7.9 0 1.7-.8 1.7-1.7 0-1-.8-1.7-1.7-1.7z"/><g><path class="st0" d="M165.3 28.6h-9.6l.7-2.4h-12.2c-.9 3.9-3.3 8.9-6.3 10.3l-1.6 6.3c5.8 0 10-5.2 12.2-10.7h10.6c-.7 19.5-9.6 20.3-18.3 20.6l-1.6 6h1.1c8.9-.3 23.9-.9 24.8-26.6l.2-3.5zM167.7 21.9l-1.6 5.5h-3.4l1.6-5.5h3.4z"/><path class="st0" d="M162.6 21.9l-1.6 5.5h-3.4l1.6-5.5h3.4z"/></g></g><g><path class="st0" d="M11.9 25.6v13.9h11.9v13.9l8-8V25.6z"/><path class="st0" d="M19.9 57.4V43.5h-12v-14l-7.9 8v19.9z"/></g><g><path class="st0" d="M56 23.6h-6.5L41 35.9v9.5l3.1-4.5V59h5.6V32.9z"/><path class="st0" d="M70.2 45.9h13.2l1.4-5.3H70.2v-6.1h13.2l1.4-5.2H70.2v-5.7h-5.6v5.7H54.1l-1.5 5.2h12v6.1H52.7l-1.5 5.3h13.4v7.4h-12L51 59h32.4l1.5-5.7H70.2zM103.4 33.5h-4.3v-9.9h-5.7v9.9h-2.8l-1.5 5.7h4.3V59h5.7V39.2h2.8zM119.9 39.8v2h-1.3l-1 4.3h2.3v7.2h-1.7l-1.5 5.7h2.4c3.5-.2 5.2-2 5.4-4.4v-8.5h3.3v7.2H126l-1.5 5.7h2.8c3.5-.2 4.8-1.9 5-4.4V41.8h-7.6v-2h-4.8z"/><path class="st0" d="M104.8 39.8v2h-1.5l-1 4.3h2.5v7.2h-2l-1.5 5.7h2.8c3.5-.2 5.2-2 5.4-4.4v-8.5h3.3v7.2H111l-1.5 5.7h2.8c3.5-.2 4.8-1.9 5-4.4V41.8h-7.6v-2h-4.9zM119.9 33.5h6v-2.1h-7.2v1.5c0 4.1-3.8 6-6.8 6h-7.3v-5.4h8.5v-2.1h-9.8l1.3-5h8.5v-2.8h5.5v2.8h11.9v8.3c-.2 2.6-1.4 4.1-4.7 4.1h-6l.1-5.3z"/></g></svg>