<?xml version="1.0" encoding="utf-8"?>
<!-- Generator: Adobe Illustrator 26.0.3, SVG Export Plug-In . SVG Version: 6.00 Build 0)  -->
<svg version="1.1" id="レイヤー_1" xmlns="http://www.w3.org/2000/svg" xmlns:xlink="http://www.w3.org/1999/xlink" x="0px"
	 y="0px" viewBox="0 0 42 32" style="enable-background:new 0 0 42 32;" xml:space="preserve">
<style type="text/css">
	.st0{fill:#98B13B;}
</style>
<g>
	<g>
		<path class="st0" d="M21,7.5c-2.4,0-4.4-1.7-4.4-3.8S18.6,0,21,0c2.4,0,4.4,1.7,4.4,3.8S23.4,7.5,21,7.5z M21,1.5
			c-1.6,0-2.9,1-2.9,2.3S19.4,6,21,6c1.6,0,2.9-1,2.9-2.3S22.6,1.5,21,1.5z"/>
	</g>
	<path class="st0" d="M23.8,27.3c-1.4,0-2.6-1-2.6-2.3v-5.7c0,0-0.1-0.1-0.2-0.1c-0.1,0-0.2,0.1-0.2,0.1l0,5.7
		c0,1.3-1.2,2.3-2.6,2.3c-1.4,0-2.4-1-2.4-2.3l0-7.3c0-0.4,0-1.6,0-5.8c0-0.4,0.3-0.8,0.8-0.8s0.8,0.3,0.8,0.8l0,13.1
		c0,0.5,0.4,0.8,0.9,0.8c0.6,0,1.1-0.4,1.1-0.8l0-5.7c0-0.9,0.8-1.6,1.8-1.6s1.8,0.7,1.8,1.6V25c0,0.4,0.5,0.8,1.1,0.8
		c0.5,0,0.9-0.3,0.9-0.8V11.9c0-0.4,0.3-0.8,0.8-0.8s0.8,0.3,0.8,0.8V25C26.2,26.3,25.2,27.3,23.8,27.3z"/>
	<path class="st0" d="M27.2,18.8c-1.3,0-2.4-1-2.4-2.2c0-0.4,0.3-0.8,0.8-0.8s0.8,0.3,0.8,0.8c0,0.4,0.4,0.7,0.9,0.7
		c0.5,0,0.8-0.3,0.8-0.7v-4.9c0-1.4-1.4-2.5-3.2-2.5h-7.6c-1.8,0-3.2,1.1-3.2,2.5v4.9c0,0.4,0.3,0.7,0.8,0.7c0.5,0,0.9-0.3,0.9-0.7
		c0-0.4,0.3-0.8,0.8-0.8s0.8,0.3,0.8,0.8c0,1.2-1.1,2.2-2.4,2.2c-1.3,0-2.3-0.9-2.3-2.2v-4.9c0-2.2,2.1-4,4.7-4h7.6
		c2.6,0,4.7,1.8,4.7,4v4.9C29.5,17.9,28.5,18.8,27.2,18.8z"/>
	<path class="st0" d="M21,32c-10.2,0-21-2.5-21-7.1c0-1.2,0.8-2.9,4.4-4.4c0.4-0.1,0.8,0,0.9,0.4c0.2,0.3,0,0.8-0.4,0.9
		c-2.3,1-3.6,2.1-3.6,3.2c0,2.7,8,5.7,19.6,5.7c11.5,0,19.6-3,19.6-5.7c0-1.1-1.3-2.2-3.6-3.2c-0.4-0.1-0.5-0.6-0.4-0.9
		c0.2-0.3,0.6-0.5,0.9-0.4c3.6,1.5,4.4,3.3,4.4,4.4C42,29.5,31.2,32,21,32z"/>
	<path class="st0" d="M4.1,24.5c-0.1,0-0.1,0-0.2,0c-0.4-0.1-0.6-0.5-0.5-0.8l0.5-2l-3.2-0.2c-0.4,0-0.7-0.4-0.6-0.7
		c0-0.4,0.4-0.7,0.7-0.6l4,0.3c0.2,0,0.4,0.1,0.5,0.3c0.1,0.2,0.2,0.4,0.1,0.6L4.7,24C4.7,24.3,4.4,24.5,4.1,24.5z"/>
</g>
</svg>
