<?xml version="1.0" encoding="utf-8"?>
<!-- Generator: Adobe Illustrator 26.0.3, SVG Export Plug-In . SVG Version: 6.00 Build 0)  -->
<svg version="1.1" id="レイヤー_1" xmlns="http://www.w3.org/2000/svg" xmlns:xlink="http://www.w3.org/1999/xlink" x="0px"
	 y="0px" viewBox="0 0 42 32" style="enable-background:new 0 0 42 32;" xml:space="preserve">
<style type="text/css">
	.st0{fill:#98B13B;}
</style>
<g>
	<path class="st0" d="M21.3,23.1c-3.8,0-7.1-2.4-7.8-5.6l-0.6-2.7c-0.6-2.8,0.9-5.6,3.8-7L17.3,9c-2.3,1.2-3.5,3.4-3,5.6l0.6,2.7
		c0.6,2.6,3.3,4.5,6.5,4.5c0.4,0,0.8,0,1.2-0.1c1.9-0.3,3.5-1.2,4.5-2.6c0.8-1.1,1.1-2.4,0.8-3.7l-0.6-2.7c-0.2-0.9-0.6-1.7-1.3-2.4
		l1-0.9c0.8,0.9,1.4,1.9,1.6,3l0.6,2.7c0.3,1.6,0,3.3-1,4.7c-1.2,1.7-3.2,2.8-5.4,3.2C22.2,23.1,21.7,23.1,21.3,23.1z"/>
	<polygon class="st0" points="25,27.6 24.9,26.3 30.6,25.9 30.7,27.2 	"/>
	<path class="st0" d="M36.3,32H25.2v-1.3h11.2c0.5,0,0.9-0.2,1.3-0.4c0.3-0.3,0.5-0.6,0.5-0.9c0-2.7-4.2-5.2-10.4-6.3l0.2-1.3
		c7.1,1.2,11.5,4.2,11.5,7.6c0,0.7-0.3,1.4-0.9,1.9C37.9,31.7,37.2,32,36.3,32z"/>
	<path class="st0" d="M21,32H5.7c-1.7,0-3.1-1.2-3.1-2.7c0-2.3,2-4.4,5.6-5.9c1.8-0.8,4-1.4,6.4-1.7l0.2,1.3
		c-2.3,0.4-4.4,0.9-6.1,1.7c-3,1.3-4.8,3-4.8,4.7c0,0.8,0.8,1.4,1.7,1.4H21c1,0,1.7-0.6,1.7-1.4c0-0.8-0.8-1.4-1.7-1.4l-9.7-0.7
		l0.1-1.3l9.7,0.7c0,0,0,0,0,0c1.7,0,3,1.2,3,2.7C24.1,30.8,22.7,32,21,32z"/>
	<path class="st0" d="M33,8.2h-1.4c0-1.9-1.9-3.4-4.2-3.4V3.4c2.3,0,4.2-1.5,4.2-3.4H33c0,1.9,1.9,3.4,4.2,3.4v1.3
		C34.9,4.8,33,6.3,33,8.2z M30.3,4.1c0.9,0.4,1.6,1.1,2,1.8c0.5-0.7,1.2-1.4,2-1.8c-0.9-0.4-1.6-1.1-2-1.8C31.8,3,31.1,3.7,30.3,4.1
		z"/>
	<path class="st0" d="M24.9,11.6h-3v-0.7c0-1.4-1.1-2.5-2.5-2.5h-0.7V6.6h0.7c1.4,0,2.5-1.1,2.5-2.5V3.4h3v0.7
		c0,1.4,1.1,2.5,2.5,2.5h0.7v1.9h-0.7c-1.4,0-2.5,1.1-2.5,2.5V11.6z M23.2,10.2h0.4c0.2-1.2,1-2.2,2.1-2.7C24.7,7,23.9,6,23.6,4.8
		h-0.4C23,6,22.2,7,21.1,7.5C22.2,8,23,9,23.2,10.2z"/>
	<rect x="12.9" y="2.7" class="st0" width="3.2" height="1.3"/>
	<rect x="13.9" y="2" class="st0" width="1.4" height="2.7"/>
	<rect y="30.7" class="st0" width="42" height="1.3"/>
</g>
</svg>
