<?xml version="1.0" encoding="utf-8"?>
<!-- Generator: Adobe Illustrator 26.0.3, SVG Export Plug-In . SVG Version: 6.00 Build 0)  -->
<svg version="1.1" id="レイヤー_1" xmlns="http://www.w3.org/2000/svg" xmlns:xlink="http://www.w3.org/1999/xlink" x="0px"
	 y="0px" viewBox="0 0 42 32" style="enable-background:new 0 0 42 32;" xml:space="preserve">
<style type="text/css">
	.st0{fill:#98B13B;}
</style>
<g>
	<path class="st0" d="M41.2,32H0.8C0.4,32,0,31.6,0,31.2v-20c0-0.2,0.1-0.4,0.2-0.6L10.6,0.2C10.7,0.1,10.9,0,11.1,0h21.4
		c0.2,0,0.5,0.1,0.6,0.3l8.6,10.6c0.1,0.1,0.2,0.3,0.2,0.5v19.8C42,31.6,41.6,32,41.2,32z M1.6,30.4h38.7V11.7L32.2,1.6H11.5
		l-9.9,9.9V30.4z"/>
	<path class="st0" d="M41.2,12.2C41.2,12.2,41.2,12.2,41.2,12.2L0.8,12C0.4,12,0,11.7,0,11.2c0-0.4,0.3-0.8,0.8-0.8l40.4,0.2
		c0.5,0,0.8,0.4,0.8,0.8C42,11.9,41.6,12.2,41.2,12.2z"/>
	<path class="st0" d="M26.2,32c-0.5,0-0.8-0.4-0.8-0.8v-20c0-0.1,0-0.3,0.1-0.4l6.4-10.4C32.1,0,32.6-0.1,33,0.1
		c0.4,0.2,0.5,0.7,0.3,1.1L27,11.4v19.8C27,31.6,26.6,32,26.2,32z"/>
	<path class="st0" d="M25.6,20.9H0.8c-0.5,0-0.8-0.4-0.8-0.8c0-0.4,0.4-0.8,0.8-0.8h24.8c0.5,0,0.8,0.4,0.8,0.8
		C26.4,20.5,26.1,20.9,25.6,20.9z"/>
	<path class="st0" d="M7.3,32c-0.5,0-0.8-0.4-0.8-0.8V20.1c0-0.4,0.4-0.8,0.8-0.8s0.8,0.4,0.8,0.8v11.1C8.1,31.6,7.7,32,7.3,32z"/>
	<path class="st0" d="M13.3,32c-0.5,0-0.8-0.4-0.8-0.8V20.1c0-0.4,0.4-0.8,0.8-0.8s0.8,0.4,0.8,0.8v11.1C14.2,31.6,13.8,32,13.3,32z
		"/>
	<path class="st0" d="M19.4,32c-0.5,0-0.8-0.4-0.8-0.8V20.1c0-0.4,0.4-0.8,0.8-0.8s0.8,0.4,0.8,0.8v11.1C20.2,31.6,19.9,32,19.4,32z
		"/>
</g>
</svg>
