<?xml version="1.0" encoding="utf-8"?>
<!-- Generator: Adobe Illustrator 26.0.3, SVG Export Plug-In . SVG Version: 6.00 Build 0)  -->
<svg version="1.1" id="レイヤー_1" xmlns="http://www.w3.org/2000/svg" xmlns:xlink="http://www.w3.org/1999/xlink" x="0px"
	 y="0px" viewBox="0 0 42 32" style="enable-background:new 0 0 42 32;" xml:space="preserve">
<style type="text/css">
	.st0{fill:#98B13B;}
</style>
<g>
	<g>
		<path class="st0" d="M25.7,32c-0.4,0-0.6-0.3-0.6-0.6V16.3c0-0.3,0.3-0.6,0.6-0.6s0.6,0.3,0.6,0.6v15.1C26.3,31.7,26,32,25.7,32z"
			/>
		<path class="st0" d="M41.4,32c-0.4,0-0.6-0.3-0.6-0.6V16.9h-18v14.5c0,0.3-0.3,0.6-0.6,0.6c-0.4,0-0.6-0.3-0.6-0.6V16.3
			c0-0.3,0.3-0.6,0.6-0.6h19.2c0.4,0,0.6,0.3,0.6,0.6v15.1C42,31.7,41.7,32,41.4,32z"/>
		<path class="st0" d="M37.8,32c-0.4,0-0.6-0.3-0.6-0.6V16.3c0-0.3,0.3-0.6,0.6-0.6s0.6,0.3,0.6,0.6v15.1C38.4,31.7,38.1,32,37.8,32
			z"/>
		<path class="st0" d="M7,32H0.6c-0.3,0-0.5-0.2-0.6-0.4c-0.1-0.2,0-0.5,0.2-0.6l7.2-5.3c0.1-0.1,0.3-0.1,0.4-0.1h14.2
			c0.4,0,0.6,0.3,0.6,0.6c0,0.3-0.3,0.6-0.6,0.6h-7.7l-7.1,5.2C7.3,32,7.1,32,7,32z M2.4,30.8h4.3l5.7-4.2H8.1L2.4,30.8z"/>
		<path class="st0" d="M14.2,32c-0.4,0-0.6-0.3-0.6-0.6v-5.3c0-0.3,0.3-0.6,0.6-0.6s0.6,0.3,0.6,0.6v5.3C14.9,31.7,14.6,32,14.2,32z
			"/>
		<path class="st0" d="M41.4,20.2h-3.6c-0.4,0-0.6-0.3-0.6-0.6c0-0.3,0.3-0.6,0.6-0.6h3.6c0.4,0,0.6,0.3,0.6,0.6
			C42,20,41.7,20.2,41.4,20.2z"/>
		<path class="st0" d="M41.4,23.5h-3.6c-0.4,0-0.6-0.3-0.6-0.6c0-0.3,0.3-0.6,0.6-0.6h3.6c0.4,0,0.6,0.3,0.6,0.6
			C42,23.2,41.7,23.5,41.4,23.5z"/>
		<path class="st0" d="M41.4,26.7h-3.6c-0.4,0-0.6-0.3-0.6-0.6c0-0.3,0.3-0.6,0.6-0.6h3.6c0.4,0,0.6,0.3,0.6,0.6
			C42,26.4,41.7,26.7,41.4,26.7z"/>
		<path class="st0" d="M41.4,29.9h-3.6c-0.4,0-0.6-0.3-0.6-0.6c0-0.3,0.3-0.6,0.6-0.6h3.6c0.4,0,0.6,0.3,0.6,0.6
			C42,29.7,41.7,29.9,41.4,29.9z"/>
		<path class="st0" d="M25.7,20.2h-3.6c-0.4,0-0.6-0.3-0.6-0.6c0-0.3,0.3-0.6,0.6-0.6h3.6c0.4,0,0.6,0.3,0.6,0.6
			C26.3,20,26,20.2,25.7,20.2z"/>
		<path class="st0" d="M25.7,23.5h-3.6c-0.4,0-0.6-0.3-0.6-0.6c0-0.3,0.3-0.6,0.6-0.6h3.6c0.4,0,0.6,0.3,0.6,0.6
			C26.3,23.2,26,23.5,25.7,23.5z"/>
		<path class="st0" d="M25.7,26.7h-3.6c-0.4,0-0.6-0.3-0.6-0.6c0-0.3,0.3-0.6,0.6-0.6h3.6c0.4,0,0.6,0.3,0.6,0.6
			C26.3,26.4,26,26.7,25.7,26.7z"/>
		<path class="st0" d="M25.7,29.9h-3.6c-0.4,0-0.6-0.3-0.6-0.6c0-0.3,0.3-0.6,0.6-0.6h3.6c0.4,0,0.6,0.3,0.6,0.6
			C26.3,29.7,26,29.9,25.7,29.9z"/>
	</g>
	<g>
		<path class="st0" d="M6,22.6c-2.7,0-4.8-1.9-4.8-4.3c0-1.3,0.6-2.5,1.8-3.4c-0.4-0.6-0.6-1.2-0.6-1.9c0-1.5,1-2.9,2.6-3.5
			C4.8,9.1,4.7,8.7,4.7,8.2c0-1.7,1.6-3.2,3.5-3.2c1.6,0,2.9,1,3.4,2.3c2.1,0.2,3.8,1.9,3.8,3.8c0,0.6-0.2,1.2-0.5,1.8
			c1.4,0.8,2.3,2.2,2.3,3.7c0,2.4-2.2,4.3-4.8,4.3c-0.4,0-0.6-0.3-0.6-0.6c0-0.3,0.3-0.6,0.6-0.6c1.9,0,3.5-1.4,3.5-3.2
			c0-1.3-0.9-2.5-2.2-3c-0.2-0.1-0.3-0.2-0.4-0.4c-0.1-0.2,0-0.4,0.1-0.5c0.4-0.5,0.6-1.1,0.6-1.7c0-1.5-1.3-2.7-3-2.7c0,0,0,0,0,0
			c-0.3,0-0.6-0.2-0.6-0.5c-0.1-1-1.1-1.7-2.2-1.7C7,6.2,6,7.1,6,8.2c0,0.4,0.2,0.8,0.4,1.2C6.5,9.6,6.6,9.8,6.5,10
			c-0.1,0.2-0.3,0.3-0.5,0.4c-1.4,0.3-2.4,1.4-2.4,2.6c0,0.6,0.2,1.2,0.7,1.7c0.1,0.1,0.2,0.3,0.1,0.5c0,0.2-0.1,0.3-0.3,0.4
			c-1.1,0.6-1.7,1.6-1.7,2.7C2.4,20,4,21.5,6,21.5c0.2,0,0.5,0,0.7-0.1c0.3-0.1,0.7,0.1,0.8,0.5c0.1,0.3-0.2,0.6-0.5,0.7
			C6.6,22.6,6.3,22.6,6,22.6z"/>
		<path class="st0" d="M17.9,13.1c-0.2,0-0.5,0-0.7-0.1c-0.3-0.1-0.6-0.4-0.5-0.7c0.1-0.3,0.4-0.5,0.8-0.5c0.2,0,0.3,0,0.5,0
			c1.3,0,2.4-1,2.4-2.2c0-0.8-0.4-1.5-1.2-1.9c-0.2-0.1-0.3-0.2-0.3-0.4c0-0.2,0-0.3,0.1-0.5c0.3-0.3,0.4-0.7,0.4-1.1
			c0-0.9-0.7-1.6-1.6-1.8c-0.2,0-0.4-0.2-0.5-0.4c-0.1-0.2,0-0.4,0.1-0.5c0.2-0.2,0.3-0.5,0.3-0.8c0-0.7-0.6-1.3-1.4-1.3
			c-0.7,0-1.3,0.5-1.4,1.1c0,0.3-0.3,0.5-0.6,0.5c0,0,0,0,0,0c-1.1,0-2,0.8-2,1.8c0,0.3-0.3,0.6-0.6,0.6c-0.4,0-0.6-0.3-0.6-0.6
			c0-1.5,1.2-2.7,2.8-2.9c0.4-1,1.4-1.7,2.6-1.7C17.8,0,19,1.1,19,2.5C19,2.7,19,3,18.9,3.3c1.1,0.5,1.8,1.5,1.8,2.7
			c0,0.5-0.1,0.9-0.4,1.4c0.8,0.6,1.2,1.5,1.2,2.5C21.6,11.6,19.9,13.1,17.9,13.1z"/>
		<path class="st0" d="M9.2,23.8c-0.4,0-0.6-0.3-0.6-0.6v-7.6c0-0.3,0.3-0.6,0.6-0.6s0.6,0.3,0.6,0.6v7.6
			C9.8,23.5,9.5,23.8,9.2,23.8z"/>
		<path class="st0" d="M9.2,19.5c-0.1,0-0.2,0-0.3-0.1l-2.6-1.3C5.9,18,5.8,17.6,6,17.3c0.2-0.3,0.6-0.4,0.9-0.2l2.6,1.3
			c0.3,0.2,0.4,0.5,0.2,0.8C9.6,19.4,9.4,19.5,9.2,19.5z"/>
	</g>
</g>
</svg>
