<svg version="1.1" id="レイヤー_1" xmlns="http://www.w3.org/2000/svg" x="0" y="0" viewBox="0 0 181 40" xml:space="preserve"><style>.st0{fill:#231815}</style><path class="st0" d="M5.6 7.3c0 1.2-.5 1.9-1.5 1.9 0-.2-.1-.3-.2-.4-.1-.1-.5-.2-1.1-.3v-.3c.5.1 1 .1 1.4.1.3 0 .5-.1.6-.3.2-.2.2-.5.2-.9 0-.3 0-.6-.1-.9C3.7 7.2 2.2 8 .3 8.6l-.1-.2c1.9-.7 3.4-1.6 4.5-2.8-.1-.3-.2-.5-.3-.6-1 .8-2.3 1.4-3.8 1.9l-.1-.3C2 6 3.2 5.3 4.1 4.5c0 0 0-.1-.1-.1 0-.1-.1-.3-.2-.4-.8.5-1.9 1-3.1 1.2L.5 5C2 4.5 3.2 3.9 4 3.1H1.7l-.1-.3h5.2l.5-.6.7.7-.1.2H5.5c.2.8.5 1.6 1 2.3.5-.5 1-1.1 1.4-1.8.5.3.8.5.8.7 0 .1-.1.1-.2.1h-.2c-.5.4-1 .8-1.6 1.3.7.9 1.5 1.6 2.7 2.2-.3.1-.4.3-.6.5-1.9-1.2-3.2-3-3.6-5.3h-.3c-.3.3-.6.5-.9.7C5.1 5 5.6 6.1 5.6 7.3zm-1.2-6V0c.7 0 1 .1 1 .2s-.1.2-.4.3v.8h3.2l.4-.5c.5.5.7.8.7.9 0 .1 0 .1-.1.1h-.4c-.2.4-.4.6-.7.8l-.2-.1c.1-.3.3-.6.4-.9H1.4v.1c0 .6-.1 1-.3 1.3-.1.2-.2.3-.4.3-.1 0-.2 0-.3-.1 0-.1-.1-.2-.1-.3 0-.1.1-.2.3-.4.3-.3.5-.9.5-1.5h.2c0 .1 0 .2.1.4h3zM18.4 4c-.2.2-.5.5-.8.6-.3.2-.9.4-1.3.5-.1 0-.2.1-.4.2v.4c0 .4 0 .8-.1 1-.1.2-.3.3-.5.4-.2 0-.3-.2-.3-.4.1-.2.1-.6.2-1v-.1c-.2.1-.4.2-.5.3-.4.2-.7.4-.9.7-.2.3-.3.7-.1 1 .2.3.7.5 1.1.5.5 0 .8-.1 1.1-.1.3-.1.6-.1.8-.1.3 0 .5 0 .7.2.2.1.2.3 0 .4-.1 0-.2.1-.6.1-.4 0-1.1.1-1.6.1s-1.1-.2-1.5-.4c-.4-.2-.5-.6-.5-1s.2-.7.5-1c.3-.3.7-.5 1.1-.8l.6-.3c0-.2 0-.3-.1-.5-.2-.3-.5-.4-.7-.4-.2 0-.5 0-.7.1-.1 0-.1.1-.2.1-.1.2-.3.4-.4.6-.3.4-.6.6-.8.6-.3 0-.3-.2-.3-.4s.1-.4.2-.5l.6-.3c.4-.3.8-.9 1.2-1.5.2-.3.3-.5.4-.7h-.3c-.4 0-.7 0-.9-.1-.2-.2-.3-.5-.2-.6.1-.2.3-.1.6 0 .2.1.5.1.9 0h.2c.1-.3 0-.4-.1-.5-.1-.1-.1-.3-.1-.4.1-.1.3-.1.4 0 .1 0 .1.1.2.1.2 0 .4.1.4.1.1 0 .3.1.4.1.1.1 0 .2 0 .4-.5.1-.8.4-1.1.6-.1 0-.1.1-.2.1-.1.2-.2.5-.3.6-.3.5-.4.8-.7 1.2 0 .1-.1.1-.1.2.2 0 .3-.1.3-.1.3-.1.5-.1.8-.1.3 0 .4.1.6.3 0-.1.1-.1.1-.2.4-.5.7-.8 1.2-1 .5-.2 1.2-.3 1.6 0 .4.3.3.8.1 1zM15 1.4c.1 0 .1-.1.1-.1.2-.1.2-.2.2-.2S15.2 1 15 1h-.1c.1 0 .1.1.1.2v.2zm2.9 1.9c-.1-.1-.3-.2-.7-.1-.4.1-.7.3-1 .5-.2.3-.4.6-.5 1 0 .1.1.1.1.2.1 0 .2-.1.3-.1.5-.2 1-.5 1.5-.7.4-.3.4-.6.3-.8zM21.3 7.1c.7.2 1.2.5 1.6.9.2.2.3.4.3.7 0 .3-.2.5-.5.5-.2 0-.3-.1-.4-.4-.2-.6-.6-1.1-1.1-1.6l.1-.1zM27.1 3c.9-.8 1.7-1.8 2.2-3 .5.2.8.4.8.5 0 .1-.1.1-.4.1-.6 1-1.4 1.8-2.4 2.5l-.2-.1zm2.2 1.4c0 .1-.1.2-.4.2v4.6h-.6V5.1c-.3.4-.7.8-1.1 1.2l-.2-.2c.9-1 1.6-2.4 2.3-4.1.5.2.8.4.8.5 0 .1-.1.1-.4.2-.3.6-.5 1.1-.8 1.5.3.1.4.2.4.2zM32 5.9v1.6c.8-.2 1.5-.3 2-.5v.3c-1.2.4-2.4.8-3.8 1.1 0 .3-.1.4-.2.4s-.3-.3-.5-.9c.6-.1 1.1-.2 1.7-.3h.1V5.9h-1.5l-.1-.3h1.6V4.1c.7 0 1 .1 1 .3 0 .1-.1.2-.4.3v1h.8l.5-.7c.2.2.4.4.6.7l-.1.2H32zm3.5-2.3v4.7c0 .5-.3.8-1 .8 0-.2-.1-.3-.2-.4-.2-.1-.5-.2-1-.3v-.1c.5.1 1 .1 1.3.1.3 0 .4-.1.4-.3V3.6h-1l-.1.2h-4.1l-.1-.3h1.7V2h-1.3l-.1-.3h1.4V.1c.7 0 1 .1 1 .2s-.1.2-.4.3v1.1h.7l.5-.6.1.1c.2.2.3.4.4.5l-.1.3H32v1.7h.9l.5-.7c.1.2.3.3.4.4h1.8l.5-.6.7.7-.1.2h-1.2zM35.2 1l.5-.6c.2.2.5.5.6.7l-.1.2h-2.5l-.2-.3h1.7zM45.5 4c-.2.2-.5.5-.8.6-.3.2-.9.4-1.3.5-.1 0-.2.1-.4.2v.4c0 .4 0 .8-.1 1-.1.2-.3.3-.5.4-.2 0-.3-.2-.3-.4.1-.2.1-.6.2-1v-.1c-.2.1-.4.2-.5.3-.4.2-.7.4-.9.7-.2.3-.3.7-.1 1 .2.3.7.5 1.1.5.5 0 .8-.1 1.1-.1.3-.1.6-.1.8-.1.3 0 .5 0 .7.2.2.1.2.3 0 .4-.1 0-.2.1-.6.1-.4 0-1.1.1-1.6.1s-1.1-.2-1.5-.4c-.4-.2-.5-.6-.5-1s.2-.7.5-1c.3-.3.7-.5 1.1-.8l.6-.3c0-.2 0-.3-.1-.5-.2-.3-.5-.4-.7-.4-.2 0-.5 0-.7.1-.1 0-.1.1-.2.1-.1.2-.3.4-.4.6-.3.4-.6.6-.8.6-.6 0-.6-.2-.6-.4s.1-.4.2-.5l.6-.3c.5-.3.8-.9 1.2-1.5.2-.3.3-.5.4-.7h-.3c-.4 0-.7 0-.9-.1-.2-.2-.3-.5-.2-.6.1-.2.3-.1.6 0 .2.1.5.1.9 0h.2c.1-.3 0-.4-.1-.5-.1-.1-.1-.3-.1-.4.1-.1.3-.1.4 0 .1 0 .1.1.2.1.2 0 .4.1.4.1.1 0 .3.1.4.1.1.1 0 .2 0 .4-.1.2-.3.5-.6.7-.1 0-.1.1-.2.1-.1.2-.2.5-.3.6-.3.5-.4.8-.7 1.2 0 .1-.1.1-.1.2-.1-.1 0-.2.1-.2.3-.1.5-.1.8-.1.3 0 .4.1.6.3 0-.1.1-.1.1-.2.4-.5.7-.8 1.2-1 .5-.2 1.2-.3 1.6 0 .4.3.3.8.1 1zm-3.4-2.6c.1 0 .1-.1.1-.1.2-.1.2-.2.2-.2s-.1-.1-.3-.1H42c0 .1.1.2.1.3v.1zM45 3.3c-.1-.1-.3-.2-.7-.1-.4.1-.7.3-1 .5-.2.2-.5.6-.6.9 0 .1.1.1.1.2.1 0 .2-.1.3-.1.5-.2 1-.5 1.5-.7.5-.2.5-.5.4-.7zM48.3 7.1c.7.2 1.3.5 1.7.9.2.2.3.4.3.7 0 .3-.2.5-.5.5-.2 0-.3-.1-.4-.4-.2-.6-.6-1.1-1.1-1.6v-.1zM59.3 4.3V2.4H56l-.1-.3h3.4V.2c.7.1 1.1.1 1.1.3 0 .1-.2.2-.5.3v1.4h2.2l.5-.7.6.6.1.1-.1.2h-3.3v1.9h2.9l.6-.7c.3.2.5.5.7.8l-.1.2h-4c1.1 1.4 2.5 2.5 4.2 3.2-.2.2-.4.4-.5.6-1.6-.9-2.9-2.1-3.8-3.5v4.3h-.6v-4c-1 1.5-2.3 2.6-4 3.5l-.3-.2c1.7-1 3-2.3 3.9-3.9h-3.7l-.1-.3h4.2zM69.7 4.9V2h-3.6l-.1-.3h3.7V0c.7 0 1.1.1 1.1.3 0 .1-.1.2-.4.3v1.1H73l.5-.7c.3.2.5.5.7.7l-.1.3h-3.8v2.9h3.2l.5-.7.7.7-.1.2h-4.3l.1.1c1.2 1.2 2.6 2 4.3 2.6-.2.2-.4.4-.5.6-1.6-.7-2.9-1.7-3.9-3v3.8h-.6V5.7c-1.1 1.3-2.4 2.2-4.2 2.8l-.1-.2c1.7-.8 3-1.9 4-3.2h-3.9l-.1-.3h4.3zm-2.6-2.5c.9.5 1.4 1.1 1.4 1.7 0 .3-.1.4-.4.4-.2 0-.3-.1-.3-.4-.1-.5-.4-1-.8-1.5l.1-.2zm4.1 2.1c.4-.7.7-1.4.9-2.3.6.3.9.4.9.6 0 .1-.1.1-.4.2-.3.5-.7 1.1-1.2 1.7l-.2-.2zM83.7 4c-.2.2-.5.5-.8.6-.3.2-.9.4-1.3.6-.1 0-.2.1-.4.2v.4c0 .4 0 .8-.1 1-.1.2-.2.3-.4.3s-.3-.2-.3-.4c.1-.2.1-.6.2-1v-.1c-.2.1-.4.2-.5.3-.4.2-.7.4-.9.7-.2.3-.3.7-.1 1 .2.3.7.5 1.1.5.5 0 .8-.1 1.1-.1.3-.1.6-.1.8-.1.3 0 .5 0 .7.2.2.1.2.3 0 .4-.1 0-.2.1-.6.1-.4 0-1.1.1-1.6.1s-1.1-.2-1.5-.4c-.4-.2-.5-.6-.5-1s.2-.7.5-1c.3-.3.7-.5 1.1-.8l.6-.3c0-.2 0-.3-.1-.5-.2-.3-.5-.4-.7-.4-.2 0-.5 0-.7.1-.1 0-.1.1-.2.1-.1.2-.3.4-.4.6-.3.4-.6.6-.8.6-.3 0-.3-.2-.3-.4s.1-.4.2-.5l.6-.3c.4-.3.8-.9 1.2-1.5.2-.3.3-.5.4-.7h-.3c-.4 0-.7 0-.9-.1-.2-.2-.3-.5-.2-.6.1-.2.3-.1.6 0 .2.1.5.1.9 0h.2c.1-.3 0-.4-.1-.5-.1-.1-.1-.3-.1-.4.1-.1.3-.1.4 0 .1 0 .1.1.2.1.2 0 .4.1.4.1.1 0 .3.1.4.1.1.1 0 .2 0 .4-.1.2-.3.5-.6.7-.1 0-.1.1-.2.1-.1.2-.2.5-.3.6-.3.5-.4.8-.7 1.2 0 .1-.1.1-.1.2.1 0 .2-.1.3-.1.3-.1.5-.1.8-.1.3 0 .4.1.6.3 0-.1.1-.1.1-.2.4-.5.7-.8 1.2-1 .5-.2 1.2-.3 1.6 0-.1.2-.3.7-.5.9zm-3.4-2.6c.1 0 .1-.1.1-.1.2-.1.2-.2.2-.2s-.1-.1-.3-.1h-.1c0 .1.1.2.1.3v.1zm3 1.9c-.1-.1-.3-.2-.7-.1-.4.1-.7.3-1 .5-.2.3-.5.6-.6 1 0 .1.1.1.1.2.1 0 .2-.1.3-.1.5-.2 1-.5 1.5-.7.4-.3.4-.6.4-.8zM94.1 4.3c0-.3 0-.7-.3-1-.3-.3-.6-.5-1-.5s-.8.1-1 .2c-.3.1-.7.4-1 .6-.3.2-.7.6-1 .8-.3.3-.8.4-1.1.4-.4 0-.7-.2-.9-.4-.2-.2-.3-.4-.2-.4.1-.1.2-.1.3 0h.4c.2 0 .5-.2.6-.3.2-.1.9-.5 1.1-.6.3-.2.7-.4 1.1-.5.4-.2.9-.4 1.4-.4.6 0 1.1.3 1.5.6.3.3.5.7.6 1.3.1.5-.1 1-.4 1.5-.3.5-.9.8-1.4 1.1-.4.2-1 .4-1.5.6-.4.1-.7.1-.9.1-.1 0-.2 0-.2-.1s.1-.1.2-.1.2 0 .7-.1c.5-.1 1-.4 1.4-.6.4-.2.8-.6 1-1 .5-.4.6-.9.6-1.2zM99.4 3.6c-.2.3-.3.7-.3.9 0 .1.2.3.3.5.1.2.4.6.8.9.3.4.6.8.8 1.2.2.5.4.9.4 1.2 0 .3-.1.5-.3.6-.2 0-.4-.1-.4-.3-.1-.2-.1-.5-.2-.8-.1-.4-.3-.8-.6-1.2-.2-.4-.6-.9-.7-1.2-.2-.2-.4-.5-.5-.8 0-.3.2-.7.4-1.1.2-.4.6-1 .9-1.4.3-.3.7-.8.8-.9.1-.2.1-.4 0-.5 0-.1 0-.2.1-.3.1-.1.3 0 .5.2.2.1.3.4.3.6 0 .2-.1.4-.4.6-.2.2-.7.5-1 .8-.4.2-.7.7-.9 1zM112.3 7.4c-.4.5-.9.8-1.5.9-.6.2-1.1.1-1.8 0s-1-.4-1-.7c0-.3.4-.6.8-.7.4-.1.8-.1 1.2.2.3.2.3.5.1.8.5-.1 1.1-.2 1.4-.5.4-.4.6-.9.6-1.4 0-.5-.4-1.2-1-1.4-.6-.3-1.3-.3-2-.1-.7.2-1.2.6-1.5 1-.3.4-.6 1-.7 1.3-.1.3-.2.5-.3.5-.1 0-.2.1-.4-.1-.1-.1-.1-.3-.1-.5 0-.1.3-.5.5-.8.2-.3.5-.7.9-1.1.4-.4 1-1.2 1.3-1.5.2-.3 1-1.2 1.1-1.4.1-.2.2-.3.1-.3-.1-.1-.3 0-.4.1-.1.1-.7.4-1 .6-.3.2-.6.3-.9.3s-.5-.1-.6-.3c-.1-.1-.2-.3-.1-.4 0-.1.2-.1.3-.1.1 0 .2.1.4.1.1 0 .3 0 .6-.2.3-.1.8-.4 1.2-.6.4-.2.6-.4.8-.4.2 0 .5.1.6.3.1.2.2.3.1.4 0 .1-.1.2-.2.3-.2.1-.5.4-.8.7-.3.3-.7.8-1 1.1 0 0-.3.3-.8.9.2-.1.3-.2.6-.3.4-.2.9-.3 1.5-.2.6.1 1.1.2 1.5.5.4.3.8.8.8 1.4.2.7.1 1.2-.3 1.6zm-3.3-.2c-.4 0-.6.2-.4.5.1.1.4.2.9.3.4-.5 0-.8-.5-.8z"/><g><path class="st0" d="M115.9 17.7v12c0 2.8-2 5-3.6 6.3l2.5 3.1c3.4-2.7 5.1-6 5.1-9.5v-12h-4zM131.8 28.7c0 2.4-.6 4.2-1.7 5.3-.8.8-1.7 1.2-2.7 1.4V16.6h-4v23.2h.4c1.8 0 6.2.1 9.2-2.9 1.9-1.9 2.9-4.6 2.9-8.1h-4.1zM139.3 25.3l-1 3.9h17.8l1-3.9zM172.7 17.7H159l-1 4h15.5c-1 8.6-5.7 13.2-14.2 13.9l-1 4.1c11.4-.5 18-6.6 19.3-17.8h-.5c-2.5 0-4.4-1.9-4.4-4.2z"/><path class="st0" d="M177 20.7c-1.7 0-3.1-1.4-3.1-3 0-1.7 1.4-3.1 3.1-3.1 1.7 0 3 1.4 3 3.1 0 1.7-1.4 3-3 3zm0-4.2c-.7 0-1.2.5-1.2 1.2 0 .6.5 1.2 1.2 1.2.6 0 1.2-.5 1.2-1.2-.1-.7-.6-1.2-1.2-1.2z"/><g><path class="st0" d="M111.4 19.3h-6.5l.4-1.6h-8.2c-.6 2.6-2.2 6-4.2 6.9l-1.1 4.3c3.9 0 6.7-3.5 8.2-7.2h7.2c-.5 13.1-6.4 13.7-12.4 13.9l-1 4.1h.7c6-.2 16.1-.6 16.7-17.9l.2-2.5zM113.1 14.7l-1 3.7h-2.3l1-3.7h2.3z"/><path class="st0" d="M109.6 14.7l-1 3.7h-2.3l1-3.7h2.3z"/></g></g><g><path fill="#e50012" d="M8 17.2v9.4h8.1V36l5.3-5.4V17.2z"/><path fill="#004da0" d="M13.4 38.7v-9.4h-8v-9.4L0 25.3v13.4z"/></g><g><path class="st0" d="M37.8 15.9h-4.4l-5.7 8.3v6.4l2-3v12.2h3.8V22.1z"/><path class="st0" d="M47.4 30.9h8.8l1-3.5h-9.8v-4.2h8.8l.9-3.5h-9.7v-3.8h-3.8v3.8h-7.1l-1 3.5h8v4.2h-8l-1 3.5h9.1v5h-8.2l-1 3.9h21.8l1-3.9h-9.8zM69.7 22.6h-2.9v-6.7H63v6.7h-1.9l-1 3.8H63v13.4h3.8V26.4h1.9zM80.8 26.8v1.4H80l-.7 2.9h1.6V36h-1.1l-1 3.8h1.6c2.3-.1 3.5-1.3 3.6-3v-5.7h2.2V36H85l-1 3.8h1.9c2.3-.1 3.2-1.3 3.4-3v-8.6h-5.1v-1.4h-3.4z"/><path class="st0" d="M70.6 26.8v1.4h-1l-.7 2.9h1.7V36h-1.4l-1 3.8h1.9c2.3-.1 3.5-1.3 3.6-3v-5.7H76V36h-1.2l-1 3.8h1.9c2.3-.1 3.2-1.3 3.4-3v-8.6H74v-1.4h-3.4zM80.9 22.6H85v-1.4h-4.8v1c0 2.8-2.5 4-4.6 4h-4.9v-3.6h5.7v-1.4h-6.6l.9-3.4h5.8v-1.9h3.7v1.9h8v5.6c-.1 1.8-.9 2.8-3.2 2.8h-4.1v-3.6z"/></g></svg>