<svg xmlns="http://www.w3.org/2000/svg" viewBox="0 0 36 30"><path fill="#fff" d="M2.8 1.6h28v26h-28z"/><path d="M3.8 16.5v12.1c0 .3.1.4.4.4h26.1c.3 0 .4-.1.4-.4V13.8v-.3c0-.2.1-.2.2-.2s.2.1.3.2V29c0 .5 0 .5-.5.5H3.9c-.5 0-.5 0-.5-.5V16.5c0-.3-.1-.5-.3-.6-.9-.6-1.7-1.2-2.7-1.7-.3-.2-.4-.3-.4-.5s.2-.2.4-.2c.8-.2 1.7-.3 2.5-.4.3 0 .3-.1.3-.4V2.3c0-.6 0-.6.6-.6h24.8c.2 0 .6-.2.6.3 0 .4-.4.3-.6.3H4.1c-.4 0-.4.1-.4.4v10c0 .3.1.4.4.4l3.9-.3c.2 0 .4 0 .5.2 1.3 1.4 2.6 2.8 3.7 4.4.3.5.6.9.8 1.5.4-.5.8-1 1.1-1.4 3.5-4.4 7.5-8.2 12-11.5C29 3.6 32 1.8 35 .2c.1 0 .1-.1.2-.1.1-.1.2-.1.4 0 .1.1.1.3 0 .4-.3.6-.6 1.3-.7 1.9-.7 2.7-.5 5.3.7 7.8.3.7.3.7-.4.8-3.3.7-6.4 1.7-9.3 3.4-2.5 1.5-4.8 3.3-6.9 5.3-2.3 2.2-4.5 4.6-6.4 7.2-.4.5-.5.4-.7-.1-1.9-3.9-4.5-7.3-7.7-10.1-.2-.1-.3-.2-.4-.2z"/><path d="M.9 13.8c.9-.2 1.6-.3 2.4-.4 1.5-.2 2.9-.3 4.4-.4.5 0 .7.1 1 .4 1.4 1.5 2.7 3 3.7 4.8.2.3.3.6.4.8.2.4.3.4.6.1 1.5-2 3.1-3.9 4.8-5.6C22.3 9.1 27 5.4 32.3 2.3c.8-.5 1.6-.9 2.5-1.4.1.1 0 .2 0 .3-.7 1.6-.9 3.4-.7 5.1.1 1.4.5 2.7 1.1 3.9.1.2.1.3-.2.3-4.4.8-8.3 2.5-11.9 5.2-3.4 2.5-6.3 5.4-9 8.6-.6.7-1.1 1.4-1.7 2.1C9.5 21.3 6.1 16.9.9 13.8z" fill="#b71c25"/></svg>