<svg xmlns="http://www.w3.org/2000/svg" viewBox="0 0 85 85"><circle cx="42.5" cy="42.5" r="42.5" fill="#fff100"/><path d="M26.8 49.9h-2.9v-6.8c-.5.6-1 1.1-1.6 1.7L20.6 43c1.2-1.2 2.2-2.5 3.1-4.1.9-1.5 1.6-3 2-4.3l2.8.6c-.4 1.4-1.1 2.8-1.9 4.2h.2v2.2c1.9-2.3 3.3-4.7 4-7l2.9.5c-.1.5-.3.9-.4 1.2h7.4v.7c-.2 2.1-.6 3.8-1.2 5.2-.7 1.3-1.4 2.4-2.3 3.3 1.4.7 3.1 1.3 5.1 1.8l-1.5 2.6c-2.3-.7-4.2-1.5-5.9-2.6-1.7 1.2-3.9 2-6.6 2.6l-1.1-2.3c2.1-.5 3.9-1.2 5.4-2.2-1.2-1.1-2.1-2.3-2.7-3.6-.4.5-.9 1-1.4 1.6L26.8 42v7.9zm14.6-15.4H21.5v-2.3h8.3v-1.8H33v1.8h8.4v2.3zm-6.8 9.4c1.6-1.5 2.5-3.4 2.9-5.6h-5.2c-.3.5-.5 1-.8 1.4.6 1.5 1.7 2.9 3.1 4.2zm1.6-2.6l-1.7 1.2c-.5-.8-1.3-1.7-2.2-2.8l1.6-1c.7.6 1.4 1.4 2.3 2.6zM52.5 38.5h-5.8V50h-2.8V30.8h8.7v7.7zm-2.6-4.6v-1.4h-3.2v1.4h3.2zm0 2.9v-1.4h-3.2v1.4h3.2zm1.5 11.7v.5h-2.7v-9.4h9.2v8.9h-6.5zm3.7-5.5v-1.5h-3.7V43h3.7zm-3.7 3.4h3.7v-1.6h-3.7v1.6zM63 47.8c0 .6-.2 1-.7 1.4-.5.4-1 .6-1.7.6h-2.2l-.3-2.4h1.3c.2 0 .3-.1.5-.2.1-.1.2-.3.2-.4v-8.2h-6v-7.7H63v16.9zm-6.1-13.9h3.3v-1.4h-3.3v1.4zm3.3 1.5h-3.3v1.4h3.3v-1.4z"/></svg>