<svg xmlns="http://www.w3.org/2000/svg" viewBox="0 0 85 85"><circle cx="42.5" cy="42.5" r="42.5" fill="#fff100"/><path d="M26.9 50H24v-9.1c-.4.7-.9 1.4-1.4 2.1l-1.9-1.7c.8-1 1.6-2.5 2.7-4.6 1-2.1 1.8-4.2 2.3-6.3l3 .4c-.5 2.1-1.2 4-2.2 5.9h.5V50zm6.1-7.6c-1.4 2.1-2.8 3.7-4.2 5L27 45.5c2.7-2.7 4.6-5.4 5.7-8.1h-5.1V35H33v-4.3h3V35h5.7v2.4h-5.3c.4.8.8 1.6 1.4 2.5.6.9 1.2 1.7 1.8 2.5.6.8 1.6 1.7 2.8 2.8l-2 2.2c-1.6-1.5-3.1-3.4-4.4-5.5v7.8h-3v-7.3zM58.6 48.6H48.2v1h-3.1v-18h16.7v18h-3.2v-1zm0-10v-4.5H48.2v4.5h10.4zM48.2 46h10.3v-4.9H48.2V46z"/></svg>