<svg version="1.1" id="レイヤー_1" xmlns="http://www.w3.org/2000/svg" x="0" y="0" viewBox="0 0 85 106" xml:space="preserve"><style>.st1{fill:#fff}</style><path fill="#98b13b" d="M85 105.1L42.5 83.5 0 105.1V0h85z"/><path class="st1" d="M35.2 51.3c-2 0-3.5-.6-4.4-1.8-.9-1.2-1.4-3.2-1.4-5.8 0-2.7.5-4.6 1.4-5.8s2.4-1.8 4.4-1.8 3.5.6 4.4 1.8S41 41 41 43.6c0 2.7-.5 4.7-1.4 5.9s-2.4 1.8-4.4 1.8zm0-13c-.9 0-1.6.4-2 1.3-.4.9-.6 2.2-.6 4.1 0 1.9.2 3.2.6 4.1s1.1 1.3 1.9 1.3 1.5-.4 1.9-1.3.6-2.2.6-4.1c0-1.9-.2-3.2-.6-4.1-.2-.9-.9-1.3-1.8-1.3zM43.2 50.4v-2.8h.3c1.5.9 2.9 1.3 4.2 1.3 1 0 1.8-.2 2.4-.6s.9-1 .9-1.9c0-.7-.2-1.2-.7-1.5-.5-.4-1.4-.5-2.8-.5h-.9v-2.2h.8c2.2 0 3.3-.7 3.3-2 0-.6-.2-1-.7-1.3s-1.1-.4-2-.4c-1.2 0-2.5.4-4.1 1.2h-.3V37c1.7-.6 3.2-.9 4.8-.9 1.8 0 3.2.3 4.1 1s1.4 1.5 1.4 2.6c0 .8-.3 1.5-.8 2.2s-1.2 1-2.1 1.2v.1c1 .2 1.8.6 2.3 1.1s.9 1.3.9 2.3c0 1.4-.5 2.6-1.6 3.4s-2.6 1.3-4.4 1.3c-1.8 0-3.5-.3-5-.9z"/></svg>