<svg version="1.1" id="レイヤー_1" xmlns="http://www.w3.org/2000/svg" x="0" y="0" viewBox="0 0 85 106" xml:space="preserve"><style>.st1{fill:#fff}</style><path fill="#98b13b" d="M85 105.1L42.5 83.5 0 105.1V0h85z"/><path class="st1" d="M35.2 51.3c-2 0-3.5-.6-4.4-1.8-.9-1.2-1.4-3.2-1.4-5.8 0-2.7.5-4.6 1.4-5.8s2.4-1.8 4.4-1.8 3.5.6 4.4 1.8S41 41 41 43.6c0 2.7-.5 4.7-1.4 5.9-.9 1.2-2.4 1.8-4.4 1.8zm0-13c-.9 0-1.6.4-2 1.3-.4.9-.6 2.2-.6 4.1 0 1.9.2 3.2.6 4.1.4.9 1.1 1.3 1.9 1.3.9 0 1.5-.4 1.9-1.3.4-.9.6-2.2.6-4.1 0-1.9-.2-3.2-.6-4.1-.2-.9-.9-1.3-1.8-1.3zM53.8 51h-9.4v-2.1h3.2v-8.5h-3.2v-2c1.2 0 2.1-.2 2.7-.5s.9-.9.9-1.6h2.7v12.6h3.1V51z"/></svg>