<svg version="1.1" id="レイヤー_1" xmlns="http://www.w3.org/2000/svg" xmlns:xlink="http://www.w3.org/1999/xlink" x="0" y="0" viewBox="0 0 405 358" xml:space="preserve"><style>.st4,.st5,.st6,.st7{fill:#6a625d;stroke:#6a3906;stroke-width:1.2009;stroke-linecap:round;stroke-linejoin:round;stroke-miterlimit:10}.st5,.st6,.st7{fill:#fdf2de}.st6,.st7{fill:#a6a093;stroke-width:1.3362}.st7{fill:none}.st8{fill:#fff}.st9{fill:none;stroke:#6a3906;stroke-width:1.2009;stroke-linecap:round;stroke-linejoin:round;stroke-miterlimit:10}.st10{fill:#a6a093}.st15,.st16{fill:#fdf2de;stroke:#6a3906;stroke-width:1.3362;stroke-linecap:round;stroke-linejoin:round;stroke-miterlimit:10}.st16{fill:#94d4f5}.st17{fill:#fdf2de}.st20{fill:#8b655b}.st21,.st22,.st23{fill:none;stroke:#6a3906;stroke-width:1.0295;stroke-linecap:round;stroke-linejoin:round;stroke-miterlimit:10}.st22,.st23{stroke-width:1.0022}.st23{fill:#f8ceb9}.st24{fill:#6a3906}.st47{stroke:#6a3906;stroke-width:.4667}.st47,.st50,.st60,.st72,.st74,.st75{fill:none;stroke-linejoin:round}.st50{stroke:#6a3906;stroke-width:.4667;stroke-dasharray:1.0044,1.0044}.st60,.st72,.st74,.st75{stroke:#e95513;stroke-width:1.8666;stroke-linecap:round;stroke-miterlimit:10}.st72,.st74,.st75{fill:#6a3906;stroke:#6a3906;stroke-width:.8124}.st74,.st75{fill:#fdf2de;stroke-width:1.6248}.st75{fill:none}</style><path fill="#fff" stroke="#231815" stroke-width=".892" stroke-miterlimit="10" d="M307.4 174.1l-25-2 4 6.8-38.4 22.5 6.6 11.4 38.4-22.6 4 6.7z"/><path fill="#fff" stroke="#231815" stroke-width="1.037" stroke-miterlimit="10" d="M277.2 110.4l-23.9-16.7v9.1h-51.7 0-51.8v-9l-23.9 16.7 23.9 16.7v-9h51.8v-.1h51.7v9.1z"/><path fill="#fff23f" stroke="#231815" stroke-width=".892" stroke-miterlimit="10" d="M151.6 211.2l-8.6-23.6-4.5 6.4-36.5-25.4-7.6 10.8 36.6 25.4-4.5 6.4z"/><path d="M108.1 222.6c1.1 0 2.1.3 3.1.8.9.5 1.7 1.3 2.2 2.2.6 1 .8 2 .8 3.1s-.3 2.1-.8 3.1c-.5.9-1.3 1.7-2.2 2.2-1 .6-2 .8-3.1.8s-2.1-.3-3.1-.8c-.9-.5-1.7-1.3-2.2-2.2-.6-1-.8-2-.8-3.1s.3-2.1.8-3.1c.5-.9 1.3-1.7 2.2-2.2 1-.5 2-.8 3.1-.8zm0 .4c-1 0-2 .3-2.9.8-.9.5-1.5 1.2-2 2-.5.9-.8 1.8-.8 2.9s.3 2 .8 2.9c.5.9 1.2 1.5 2 2 .9.5 1.8.8 2.9.8s2-.3 2.9-.8c.9-.5 1.5-1.2 2-2 .5-.9.8-1.8.8-2.9s-.3-2-.8-2.9c-.5-.9-1.2-1.5-2-2-.9-.5-1.8-.8-2.9-.8zm.7 1.9v6.7h1.5v.8h-3.9v-.8h1.6v-5.8c-.4.3-.9.5-1.6.7l-.2-.8c.7-.2 1.3-.5 1.8-.9h.8zM120 229.2c-.1.1-.2.3-.3.6 0 .1-.1.2-.1.2s-.1 0-.1-.1c-.6-.9-1-1.8-1.4-2.7 0 1.7 0 3.5.1 5.3v2c0 .1 0 .1-.1.1h-.6c-.1 0-.1 0-.1-.1v-1.1c0-2.1.1-4.1.1-6-.4 1.5-1.1 2.9-1.9 4.2l-.1.1s-.1 0-.1-.1c-.1-.2-.2-.4-.3-.5.5-.7 1-1.4 1.3-2.1.3-.7.7-1.4 1-2.4H115.6c-.1 0-.1 0-.1-.1v-.5c0-.1 0-.1.1-.1h2v-1.2c0-.7 0-1.2-.1-1.6.3 0 .6 0 .8.1.1 0 .2.1.2.1 0 .1 0 .1-.1.3-.1.1-.1.5-.1 1.1v1.2H119.9c.1 0 .1 0 .1.1v.5c0 .1 0 .1-.1.1h-1.5c.3.9.9 1.8 1.6 2.6zm6.1 5.1c0 .1 0 .1-.1.1h-.6c-.1 0-.1 0-.1-.1v-.8h-4v.8c0 .1 0 .1-.1.1h-.6c-.1 0-.1 0-.1-.1V223.6c0-.1 0-.1.1-.1h5.4c.1 0 .1 0 .1.1v10.7zm-.8-7.6v-2.3h-4v2.3h4zm0 3v-2.3h-4v2.3h4zm0 3.1v-2.5h-4v2.5h4zM132.4 225.9c0 .1 0 .1-.1.1h-4.1c-.1 0-.1 0-.1-.1v-.5c0-.1 0-.1.1-.1h4.1c.1 0 .1 0 .1.1v.5zm-.4-1.7c0 .1 0 .1-.1.1h-3.2c-.1 0-.1 0-.1-.1v-.5c0-.1 0-.1.1-.1h3.2c.1 0 .1 0 .1.1v.5zm-.1 10c0 .1 0 .1-.1.1h-.5c-.1 0-.1 0-.1-.1v-.4h-1.8v.7c0 .1 0 .1-.1.1h-.5c-.1 0-.1 0-.1-.1V230.7c0-.1 0-.1.1-.1h3.1c.1 0 .1 0 .1.1V232.4l-.1 1.8zm-.2-6.5c0 .1 0 .1-.1.1h-2.8c-.1 0-.1 0-.1-.1v-.5c0-.1 0-.1.1-.1h2.8c.1 0 .1 0 .1.1v.5zm0 1.7c0 .1 0 .1-.1.1h-2.8c-.1 0-.1 0-.1-.1v-.5c0-.1 0-.1.1-.1h2.8c.1 0 .1 0 .1.1v.5zm-.5 3.7v-1.9h-1.8v1.9h1.8zm8.5.7c-.1.1-.3.3-.4.5-.1.1-.1.2-.2.2 0 0-.1 0-.2-.1-1.6-.8-2.6-2-3-3.7-.4 1.7-1.5 3-3.1 3.7-.1 0-.2.1-.2.1l-.2-.2c-.1-.2-.3-.3-.4-.4 1.2-.4 2-1 2.6-1.9.4-.7.7-1.5.8-2.6v-.6-.7c.3 0 .5.1.7.1.1 0 .2.1.2.1 0 .1 0 .1-.1.2s-.1.3-.1.6c.1 1.3.6 2.3 1.4 3.2.6.8 1.4 1.2 2.2 1.5zm-.1-5.7c-.1.1-.2.3-.3.5-.1.2-.1.2-.2.2 0 0-.1 0-.2-.1-1.6-.7-2.5-1.7-3-3.1-.2.8-.6 1.4-1.1 2-.5.5-1.1.9-1.9 1.2-.1 0-.2.1-.2.1l-.2-.2c-.1-.2-.2-.3-.4-.4 1.2-.4 2-.9 2.5-1.6.4-.6.6-1.4.7-2.3v-.6-.6c.1 0 .3 0 .7.1.1 0 .2.1.2.1 0 .1 0 .1-.1.2s-.1.3-.1.6c.1 1.2.5 2.2 1.3 2.9.7.3 1.4.7 2.3 1zm-5.3 1.8c-.3.7-.7 1.3-1.2 1.8l-.1.1s-.1 0-.2-.1l-.3-.2-.1-.1v-.1c.5-.5.9-1 1.1-1.7 0 0 0-.1.1-.1 0 0 .1 0 .2.1l.3.2c.2 0 .2 0 .2.1zm.2-5.3c-.3.7-.7 1.3-1.1 1.8l-.1.1s-.1 0-.2-.1l-.3-.2-.1-.1v-.1c.4-.4.8-1 1-1.6 0 0 0-.1.1-.1s.1 0 .2.1l.3.1c.2 0 .2 0 .2.1 0-.1 0 0 0 0zm4.7-.1c0 .1 0 .1-.1.2-.1 0-.1.1-.2.2-.4.5-.8.9-1.1 1.2-.1.1-.2.1-.2.1s-.1 0-.2-.1-.3-.2-.4-.3c.5-.3.9-.7 1.2-1.2.1-.2.2-.3.3-.5.2.1.4.1.6.3l.1.1zm0 5.4c0 .1 0 .1-.1.2-.1 0-.1.1-.2.2-.4.5-.8.9-1.2 1.2-.1.1-.2.1-.2.1s-.1 0-.2-.1-.2-.2-.4-.3c.5-.3.9-.7 1.2-1.2.1-.2.2-.3.3-.5.2.1.4.1.6.3.2 0 .2 0 .2.1zM273.3 223.4c1.1 0 2.1.3 3.1.8.9.5 1.7 1.3 2.2 2.2.6 1 .8 2 .8 3.1s-.3 2.1-.8 3.1c-.5.9-1.3 1.7-2.2 2.2-1 .6-2 .8-3.1.8s-2.1-.3-3.1-.8c-.9-.5-1.7-1.3-2.2-2.2-.6-1-.8-2-.8-3.1s.3-2.1.8-3.1c.5-.9 1.3-1.7 2.2-2.2.9-.6 1.9-.8 3.1-.8zm0 .4c-1 0-2 .3-2.9.8-.9.5-1.5 1.2-2 2-.5.9-.8 1.8-.8 2.9s.3 2 .8 2.9c.5.9 1.2 1.5 2 2 .9.5 1.8.8 2.9.8s2-.3 2.9-.8c.9-.5 1.5-1.2 2-2 .5-.9.8-1.8.8-2.9s-.3-2-.8-2.9c-.5-.9-1.2-1.5-2-2-1-.6-1.9-.8-2.9-.8zm-2.4 3.8c.1-.7.4-1.2.9-1.6.4-.3.9-.4 1.5-.4.7 0 1.3.2 1.7.6.4.4.6.8.6 1.4 0 .5-.1.9-.4 1.2-.2.3-.6.7-1.2 1.3-.6.5-1.1 1-1.4 1.3-.3.3-.5.6-.7 1h3.7v.8h-4.7v-.7c.4-.9 1.2-1.9 2.3-2.8.6-.5 1-.9 1.2-1.2.2-.2.2-.5.2-.8 0-.4-.1-.7-.4-.9-.2-.2-.5-.3-.9-.3-.9 0-1.3.5-1.4 1.5l-1-.4zM285.3 228.8v.6c0 .1 0 .1-.1.2 0 0-.1.1-.2.1-.6.2-1.1.5-1.7.7v3.5c0 .5-.1.8-.3 1-.2.2-.6.2-1.2.2h-.4s0-.1-.1-.2c-.1-.2-.1-.4-.3-.6.3 0 .6.1 1 .1.2 0 .3 0 .4-.1.1-.1.1-.2.1-.4v-3.2c-.5.2-.9.3-1.2.4-.2.1-.4.2-.5.2-.1.1-.1.1-.2.1s-.1 0-.1-.1c-.1-.2-.1-.4-.2-.8.3-.1.7-.1 1.1-.3l1.1-.3V227h-1.8c-.1 0-.1 0-.1-.1v-.6c0-.1 0-.1.1-.1h1.9v-1c0-.7 0-1.2-.1-1.6.3 0 .6 0 .9.1.1 0 .2.1.2.1s0 .1-.1.2c0 .1-.1.5-.1 1.1v1.1h1.8c.1 0 .1 0 .1.1v.6c0 .1 0 .1-.1.1h-1.8v2.5c.7-.2 1.3-.5 1.9-.7zm6.6-3.4c0 .1 0 .1-.1.1h-2.2v8.3c0 .5-.1.8-.4 1-.2.2-.7.2-1.6.2h-.4s-.1-.1-.1-.2c-.1-.3-.1-.5-.2-.6.3 0 .7.1 1.2.1.3 0 .5 0 .6-.1.1-.1.1-.2.1-.4v-8.3H285.2c-.1 0-.1 0-.1-.1v-.6c0-.1 0-.1.1-.1h6.7c.1 0 .1 0 .1.1v.6zM297.6 226.7c0 .1 0 .1-.1.1h-4c-.1 0-.1 0-.1-.1v-.5c0-.1 0-.1.1-.1h4c.1 0 .1 0 .1.1v.5zm-.4 8.2c0 .1 0 .1-.1.1h-.5c-.1 0-.1 0-.1-.1v-.5h-1.9v.7c0 .1 0 .1-.1.1h-.5c-.1 0-.1 0-.1-.1V231.3c0-.1 0-.1.1-.1h3.1c.1 0 .1 0 .1.1v3.6zm.1-9.9c0 .1 0 .1-.1.1H294c-.1 0-.1 0-.1-.1v-.5c0-.1 0-.1.1-.1h3.2c.1 0 .1 0 .1.1v.5zm-.2 3.4c0 .1 0 .1-.1.1h-2.9c-.1 0-.1 0-.1-.1v-.5c0-.1 0-.1.1-.1h2.9c.1 0 .1 0 .1.1v.5zm0 1.7c0 .1 0 .1-.1.1h-2.9c-.1 0-.1 0-.1-.1v-.5c0-.1 0-.1.1-.1h2.9c.1 0 .1 0 .1.1v.5zm-.6 3.7v-1.9h-1.9v1.9h1.9zm8.5-6.4c-.2.2-.3.3-.4.5-.1.1-.1.2-.1.2s-.1 0-.2-.1c-1.3-.9-2.4-2-3.3-3.3-.8 1.4-1.9 2.5-3.1 3.3-.1.1-.2.1-.2.1l-.2-.2c-.1-.2-.2-.3-.4-.4 1.3-.8 2.4-1.8 3.2-3.2.2-.3.3-.5.3-.7.2 0 .5.1.7.2.1 0 .2.1.2.2s0 .1-.1.1h-.1c1.2 1.6 2.4 2.7 3.7 3.3zm-.4 3.7c0 .1 0 .1-.1.1s-.2.1-.4.4c-.8.9-1.6 1.6-2.4 2.1-.9.6-2 1.1-3.3 1.4h-.2c-.1 0-.1-.1-.2-.2-.1-.2-.2-.3-.3-.5 1.4-.4 2.7-.8 3.6-1.4.8-.5 1.5-1.1 2.2-1.9.2-.2.3-.4.4-.7.2.2.4.3.6.4 0 .2.1.3.1.3zm-2.6-3.4s0 .1-.1.1-.2.1-.4.3c-.7.8-1.6 1.4-2.8 1.9-.1.1-.2.1-.2.1l-.2-.2c-.1-.2-.2-.3-.4-.4 1.3-.5 2.3-1.1 3.1-2 .1-.2.2-.3.3-.4.2.1.4.2.6.4.1.1.1.1.1.2zm1.3 1.6c0 .1 0 .1-.1.1s-.2.1-.3.3c-1 1.2-2.4 2.1-4.1 2.8-.1 0-.2.1-.2.1l-.2-.2c-.1-.2-.2-.3-.4-.4 1.8-.6 3.2-1.5 4.2-2.8.1-.1.2-.3.3-.5.2.1.4.3.6.4.1.1.2.1.2.2zM181.6 161.4c1.1 0 2.1.3 3.1.8.9.5 1.7 1.3 2.2 2.2.6 1 .8 2 .8 3.1s-.3 2.1-.8 3.1c-.5.9-1.3 1.7-2.2 2.2-1 .6-2 .8-3.1.8s-2.1-.3-3.1-.8c-.9-.5-1.7-1.3-2.2-2.2-.6-1-.8-2-.8-3.1s.3-2.1.8-3.1c.5-.9 1.3-1.7 2.2-2.2 1-.5 2-.8 3.1-.8zm0 .4c-1 0-2 .3-2.9.8-.9.5-1.5 1.2-2 2-.5.9-.8 1.8-.8 2.9s.3 2 .8 2.9c.5.9 1.2 1.5 2 2 .9.5 1.8.8 2.9.8s2-.3 2.9-.8c.9-.5 1.5-1.2 2-2 .5-.9.8-1.8.8-2.9s-.3-2-.8-2.9c-.5-.9-1.2-1.5-2-2-.9-.5-1.9-.8-2.9-.8zm-2.4 3.4c.4-1 1.1-1.5 2.3-1.5.7 0 1.3.2 1.7.6.4.3.5.8.5 1.3s-.2.9-.5 1.2c-.3.3-.6.4-1 .5v.1c.6.1 1 .3 1.3.7.2.3.4.7.4 1.2 0 .7-.3 1.2-.8 1.6-.4.3-1 .5-1.6.5-1.3 0-2.1-.5-2.5-1.5l.9-.3c.2.7.8 1.1 1.6 1.1.4 0 .8-.1 1.1-.4.2-.3.3-.6.3-1 0-1-.6-1.5-1.7-1.5h-.6v-.8h.5c1.1 0 1.7-.4 1.7-1.3 0-.4-.1-.7-.4-.9-.2-.2-.5-.3-.9-.3-.7 0-1.2.4-1.4 1.1l-.9-.4zM193.7 166.8v.6c0 .1 0 .1-.1.2 0 0-.1.1-.2.1-.6.2-1.1.5-1.7.7v3.5c0 .5-.1.8-.3 1-.2.2-.6.2-1.2.2h-.4s0-.1-.1-.2c-.1-.2-.1-.4-.3-.6.3 0 .6.1 1 .1.2 0 .3 0 .4-.1.1-.1.1-.2.1-.4v-3.2c-.5.2-.9.3-1.2.4-.2.1-.4.2-.5.2-.1.1-.1.1-.2.1s-.1 0-.1-.1c-.1-.2-.1-.4-.2-.8.3-.1.7-.1 1.1-.3l1.1-.3v-2.8H189c-.1 0-.1 0-.1-.1v-.6c0-.1 0-.1.1-.1h1.9v-1c0-.7 0-1.2-.1-1.6.3 0 .6 0 .9.1.1 0 .2.1.2.1s0 .1-.1.2c0 .1-.1.5-.1 1.1v1.1h1.8c.1 0 .1 0 .1.1v.6c0 .1 0 .1-.1.1h-1.8v2.5c.7-.2 1.4-.5 2-.8zm6.6-3.3c0 .1 0 .1-.1.1H198v8.3c0 .5-.1.8-.4 1-.2.2-.7.2-1.6.2h-.4s-.1-.1-.1-.2c-.1-.3-.1-.5-.2-.6.3 0 .7.1 1.2.1.3 0 .5 0 .6-.1.1-.1.1-.2.1-.4v-8.3H193.6c-.1 0-.1 0-.1-.1v-.6c0-.1 0-.1.1-.1h6.7c.1 0 .1 0 .1.1v.6zM213.4 166.5c-.1.2-.3.3-.4.5-.1.1-.1.2-.2.2 0 0-.1 0-.2-.1-2.3-1-4.1-2.4-5.4-4.4-1.3 1.8-3 3.3-5.2 4.5-.1 0-.2.1-.2.1l-.2-.2c-.1-.2-.2-.3-.4-.5 2.3-1 4.1-2.5 5.3-4.3.2-.2.3-.5.4-.7.3.1.6.1.8.2.1 0 .2.1.2.1 0 .1 0 .1-.1.2l-.1.1c1.4 2 3.3 3.4 5.7 4.3zm-2.4 6.6c0 .1 0 .1-.1.1h-.6c-.1 0-.1 0-.1-.1v-.5h-5.7v.6c0 .1 0 .1-.1.1h-.6c-.1 0-.1 0-.1-.1v-4.6c0-.1 0-.1.1-.1h7.2c.1 0 .1 0 .1.1v2.5l-.1 2zm-.8-1.2v-2.8h-5.7v2.8h5.7zm-.3-5.3c0 .1 0 .1-.1.1h-5c-.1 0-.1 0-.1-.1v-.6c0-.1 0-.1.1-.1h5c.1 0 .1 0 .1.1v.6zM221.9 165.5v-2.2c0-.4 0-.8-.1-1.1.5.1.8.1 1 .2.1 0 .2.1.2.2s0 .1-.1.2-.1.2-.1.5v2.2c1.2-.1 2.1-.1 2.6-.2.1 0 .1 0 .1.1v.6c0 .1 0 .2-.1.2-.8 0-1.7 0-2.7.1 0 1.3-.1 2.2-.2 2.6-.1.9-.6 1.3-1.3 1.3-.3 0-.6 0-1-.1-.1 0-.1-.1-.2-.2 0-.2-.1-.4-.2-.7.5.1.9.2 1.2.2.2 0 .4-.1.4-.2.1-.1.1-.3.2-.5.1-.5.1-1.3.1-2.3-1.2.1-2.4.3-3.7.4v3.8c.1.6.2.9.6 1.1.3.2.9.2 1.8.2 1 0 2.1-.1 3.1-.2h.1c.1 0 .1 0 .1.1v.6c0 .1 0 .2-.1.2-.9.1-1.9.2-3.1.2-1.3 0-2.1-.2-2.6-.5-.4-.3-.6-.8-.7-1.5 0-.4-.1-1.7-.1-3.9-.8.1-1.4.2-1.8.3-.2 0-.4.1-.6.2h-.1c-.1 0-.1 0-.2-.1-.1-.3-.2-.6-.2-.8.3 0 .6 0 1-.1.3 0 .6-.1 1.1-.2.5-.1.8-.1.9-.2v-1.4c0-.5-.1-.9-.2-1.3.4 0 .7.1 1 .2.1 0 .2.1.2.2v.2c0 .1-.1.3-.1.6v1.4c1.5-.1 2.7-.3 3.8-.4zM145 71c1.1 0 2.1.3 3.1.8.9.5 1.7 1.3 2.2 2.2.6 1 .8 2 .8 3.1s-.3 2.1-.8 3.1c-.5.9-1.3 1.7-2.2 2.2-1 .6-2 .8-3.1.8s-2.1-.3-3.1-.8c-.9-.5-1.7-1.3-2.2-2.2-.6-1-.8-2-.8-3.1s.3-2.1.8-3.1c.5-.9 1.3-1.7 2.2-2.2.9-.5 2-.8 3.1-.8zm0 .4c-1 0-2 .3-2.9.8-.9.5-1.5 1.2-2 2-.5.9-.8 1.8-.8 2.9s.3 2 .8 2.9c.5.9 1.2 1.5 2 2 .9.5 1.8.8 2.9.8s2-.3 2.9-.8c.9-.5 1.5-1.2 2-2 .5-.9.8-1.8.8-2.9s-.3-2-.8-2.9c-.5-.9-1.2-1.5-2-2-.9-.5-1.9-.8-2.9-.8zm1.2 1.9v5h1.1v.7h-1.1v1.7h-.9V79h-3.1v-.7l2.7-5.1h1.3zm-.9 5.1v-2.5-1-.9h-.1c-.1.1-.2.3-.3.6-.2.5-.4.8-.5 1.1l-1.4 2.7h2.3zM155.8 74.8v-1.3c0-.5 0-.9-.1-1.2.5 0 .8.1 1 .2.1 0 .2.1.2.2 0 0 0 .1-.1.2-.1.2-.1.4-.2.7v1.2c.6-.1 1.3-.3 1.9-.5h.1s.1 0 .1.1v.5c0 .1 0 .1-.1.2-.6.2-1.3.4-2 .5v2.6c1.3-.7 2.5-1 3.4-1 .8 0 1.5.2 1.9.7.4.4.6.9.6 1.5 0 .8-.3 1.4-.8 1.8-.5.3-1.1.5-1.8.5-.4 0-.7-.1-1-.2-.1 0-.2-.1-.2-.3 0-.2-.1-.4-.2-.6.4.2.8.3 1.4.3.6 0 1-.1 1.4-.4.3-.3.5-.7.5-1.1 0-.5-.2-.9-.5-1.2-.3-.2-.7-.4-1.3-.4-.8 0-1.8.4-3.2 1.1 0 .4 0 1.1.1 2V82.1c0 .2 0 .3-.1.3-.2.1-.4.1-.5.1-.1 0-.1 0-.2-.1 0 0-.1-.1-.1-.2l-.2-.2c-.4-.4-1-.9-1.9-1.4-.1 0-.2.1-.4.3-.1.1-.1.1-.2.1s-.1 0-.2-.1l-.4-.8c.4-.1.9-.3 1.2-.5.4-.2 1.1-.6 2.1-1.1v-2.8c-.8.1-1.6.1-2.3.1-.1 0-.2-.1-.2-.2 0-.2-.1-.4-.1-.6h.7c.4-.1 1-.1 1.7-.2zm0 4.4c-.1 0-.6.4-1.6 1 1 .6 1.5.9 1.6.9h.1s.1 0 .1-.1v-.9c-.2-.4-.2-.7-.2-.9zm4.3-4.8c.1-.1.2-.3.3-.5 0-.1.1-.1.1-.1 1.1.2 1.9.7 2.5 1.3v.2c-.2.2-.3.4-.4.5h-.1-.1c-.5-.7-1.3-1.2-2.3-1.4zM170.1 76.2c0 .1 0 .1-.1.2-.1 0-.1.2-.2.4-.2.4-.4.8-.7 1.1-.1.1-.1.2-.2.2 0 0-.1 0-.2-.1s-.2-.1-.4-.2c.4-.5.7-1 .9-1.4h-1.3v5.2c0 .4-.1.7-.4.9-.2.1-.5.2-1.1.2h-.4s-.1-.1-.1-.2c0-.2-.1-.4-.2-.6.4 0 .7.1.9.1.2 0 .3 0 .4-.1.1-.1.1-.2.1-.3v-5.1H165c-.1 0-.1 0-.1-.1v-.5c0-.1 0-.1.1-.1h2.9c-.5-.6-1.2-1.1-2-1.6v-.1s0-.1.1-.1l.2-.2.1-.1h.1c.3.2.6.3.9.6.6-.5 1.1-1 1.5-1.6h-3.6c-.1 0-.1 0-.1-.1v-.5c0-.1 0-.1.1-.1h4c.1 0 .2.1.4.2.2.2.3.3.3.4 0 .1-.1.2-.2.2s-.2.2-.4.4c-.5.6-1 1.1-1.5 1.5.1.1.3.2.6.5v.1s0 .1-.1.1l-.2.2c0 .1-.1.1-.1.1h1.5c.1 0 .2.1.3.2.2.1.3.2.3.3zm2.2 5.1s0 .1-.1.1-.2.1-.3.2c-.6.5-1.4 1-2.2 1.4-.1 0-.2.1-.2.1l-.2-.2c-.1-.1-.2-.3-.3-.4.9-.3 1.7-.7 2.3-1.3l.4-.4c.2.1.4.2.5.4l.1.1zm4.2-8.7c0 .1 0 .1-.1.1h-2.9c-.2.5-.3.9-.5 1.3h2.6c.1 0 .1 0 .1.1v6.4c0 .1 0 .1-.1.1h-5c-.1 0-.1 0-.1-.1v-6.4c0-.1 0-.1.1-.1h1.7c.2-.3.3-.8.5-1.3h-2.6c-.1 0-.1 0-.1-.1V72c0-.1 0-.1.1-.1h6.3c.1 0 .1 0 .1.1v.6zm-1.5 3.3v-1.3h-3.7v1.3h3.7zm0 1.9v-1.3h-3.7v1.3h3.7zm0 2v-1.4h-3.7v1.4h3.7zm1.8 2.4c-.1.1-.2.2-.3.4-.1.1-.1.2-.2.2 0 0-.1 0-.2-.1-.8-.4-1.5-.9-2.2-1.6V81s0-.1.1-.1l.2-.2.1-.1h.1c.8.9 1.6 1.4 2.4 1.6zM181.5 75.3c.2-.7.4-1.3.5-1.9.1-.3.1-.7.1-1v-.2c.4.1.7.2 1 .3.1 0 .1.1.1.2s0 .1-.1.2-.2.2-.2.4l-.6 1.9c.5-.1.9-.1 1.2-.1.6 0 1 .2 1.3.5.2.3.4.8.4 1.5 0 1.8-.2 3.2-.7 4.2-.3.7-.8 1-1.5 1-.5 0-1-.1-1.3-.2-.1 0-.2-.1-.2-.2 0-.3-.1-.6-.2-.8.6.2 1 .4 1.5.4.2 0 .4 0 .5-.2.1-.1.2-.3.4-.5.4-.9.6-2.1.6-3.7 0-.5-.1-.9-.2-1.1-.1-.2-.4-.3-.7-.3-.4 0-.8 0-1.4.1-.8 2.3-1.7 4.4-2.6 6.1 0 .1-.1.1-.1.1h-.1c-.2-.1-.3-.2-.5-.4l-.1-.1v-.1c1-1.6 1.8-3.5 2.5-5.5-.5.1-1 .2-1.7.3-.3 0-.5.1-.6.2-.1 0-.1.1-.2.1s-.1 0-.2-.1c-.1-.2-.2-.5-.3-.9h.2c.4 0 .8 0 1.1-.1.7.1 1.3 0 2.1-.1zm4.6-.4c.2-.1.4-.3.6-.4h.1s.1 0 .1.1c.9.8 1.6 1.8 2.1 3.1v.1s0 .1-.1.1c-.1.1-.3.2-.5.3h-.1c-.1 0-.1 0-.1-.1-.5-1.4-1.2-2.4-2.1-3.2zM193.8 71.8c.4.1.7.2.9.3.1.1.2.1.2.2v.2c-.1.2-.2.3-.2.5-.2 1.1-.4 2.1-.4 3v.5c0 .4 0 .7.1 1 .1-.2.3-.5.5-1 .2-.4.4-.7.5-.9.1.2.1.4.3.5 0 .1.1.1.1.2s0 .1-.1.2c-.3.6-.6 1.2-.8 1.7-.1.2-.1.3-.1.4v.1c0 .1 0 .1-.1.1s-.3.1-.6.1c-.1 0-.1 0-.1-.1-.2-.6-.3-1.4-.3-2.4 0-.7.1-1.7.3-3 .1-.6.1-1 .1-1.2-.3-.2-.3-.3-.3-.4zm4 .1c.4 0 .7.1.9.1.1 0 .2.1.2.2v.7c.1 1.4.2 2.6.2 3.4 0 1.9-.4 3.3-1.1 4.2-.5.7-1.2 1.4-2.1 1.9-.1 0-.1.1-.2.1s-.1 0-.2-.1c-.2-.2-.4-.3-.7-.4 1-.5 1.8-1.1 2.2-1.8.4-.5.7-1.1.8-1.7.2-.6.2-1.3.2-2.1 0-1 0-2-.1-3.1.1-.6 0-1-.1-1.4z"/><g><path d="M220 71c1.1 0 2.1.3 3.1.8.9.5 1.7 1.3 2.2 2.2.6 1 .8 2 .8 3.1s-.3 2.1-.8 3.1c-.5.9-1.3 1.7-2.2 2.2-1 .6-2 .8-3.1.8s-2.1-.3-3.1-.8c-.9-.5-1.7-1.3-2.2-2.2-.6-1-.8-2-.8-3.1s.3-2.1.8-3.1c.5-.9 1.3-1.7 2.2-2.2 1-.5 2-.8 3.1-.8zm0 .4c-1 0-2 .3-2.9.8-.9.5-1.5 1.2-2 2-.5.9-.8 1.8-.8 2.9s.3 2 .8 2.9c.5.9 1.2 1.5 2 2 .9.5 1.8.8 2.9.8s2-.3 2.9-.8c.9-.5 1.5-1.2 2-2 .5-.9.8-1.8.8-2.9s-.3-2-.8-2.9c-.5-.9-1.2-1.5-2-2-.9-.5-1.9-.8-2.9-.8zm2.1 2v.8h-3.2l-.1 1.7v.8c.3-.5.8-.8 1.5-.8s1.2.3 1.6.8c.4.5.6 1 .6 1.7 0 .8-.3 1.5-.8 1.9-.4.4-1 .6-1.6.6-1.2 0-2-.5-2.3-1.5l.9-.3c.2.7.7 1 1.4 1 .5 0 .8-.2 1.1-.5.2-.3.3-.7.3-1.2 0-.6-.1-1-.4-1.3-.2-.3-.6-.4-1-.4-.3 0-.6.1-.9.3-.2.2-.4.4-.5.6l-.8-.1.2-4.2h4zM231.6 78.6c-.1.1-.2.3-.4.4 0 .1-.1.2-.1.2s-.1 0-.1-.1c-.5-.8-.9-1.5-1.2-2.2v5.9c0 .1 0 .1-.1.1h-.6c-.1 0-.1 0-.1-.1v-1c0-1.8.1-3.4.1-4.9-.5 1.5-1 2.8-1.6 3.8l-.1.1s-.1-.1-.1-.2c-.1-.2-.2-.3-.3-.5.8-1.2 1.5-2.6 2-4h-1.5c-.1 0-.1 0-.1-.1v-.5c0-.1 0-.1.1-.1h1.7V73c0-.7 0-1.2-.1-1.6.3 0 .6 0 .8.1.1 0 .2 0 .2.1s0 .1-.1.3c0 .1-.1.5-.1 1.1v2.7H231.3c.1 0 .1 0 .1.1v.5c0 .1 0 .1-.1.1h-1.2c.2.7.8 1.4 1.5 2.2zm-3-4.1c0 .1 0 .1-.1.2l-.4.2h-.1v-.1c-.1-.8-.3-1.5-.6-2.1 0 0 0-.1.1-.1l.3-.1h.1l.1.1c.2.3.4 1 .6 1.9zm3.1-1.8s0 .1-.1.1c-.1.1-.1.1-.1.3-.2.6-.4 1.2-.7 1.7 0 .1-.1.2-.1.2s-.1 0-.2-.1-.2-.1-.3-.1c.3-.7.5-1.3.7-2 0-.1.1-.3.1-.5.2.1.5.1.7.2-.1.1 0 .1 0 .2zm7 3.5c0 .1-.1.1 0 0l-1.8.1h-5.1c-.1 0-.1 0-.1-.1v-.5c0-.1 0-.1.1-.1h2.7v-.9h-2.1c-.1 0-.1 0-.1-.1v-.4c0-.1 0-.1.1-.1h2.1v-.9H232.1c-.1 0-.1 0-.1-.1v-.5c0-.1 0-.1.1-.1H234.5c0-.6 0-1.1-.1-1.4.4 0 .6 0 .8.1.1 0 .2.1.2.1 0 .1 0 .1-.1.3-.1.1-.1.5-.1 1h2.9c.1 0 .1 0 .1.1v.5c0 .1 0 .1-.1.1h-2.9v.9h2.4c.1 0 .1 0 .1.1v.4c0 .1 0 .1-.1.1h-2.4v.9h3.3c.1 0 .1 0 .1.1v.4zm-1.1.9v4.6c0 .4-.1.7-.3.8-.2.2-.6.2-1.1.2h-.4s-.1-.1-.1-.2c-.1-.2-.2-.4-.3-.5h.9c.3 0 .4 0 .5-.1 0-.1.1-.2.1-.3v-.9h-3.8v2.1c0 .1 0 .1-.1.1h-.6c-.1 0-.1 0-.1-.1v-5.6c0-.1 0-.1.1-.1h5c.1-.1.2 0 .2 0zm-.8 1.5v-.9H233v.9h3.8zm0 1.5v-.9H233v.9h3.8zM245.5 73c0 .1 0 .1-.1.1H243.6c.2.3.3.6.5 1v.1s0 .1-.1.1l-.4.1h-.1s-.1 0-.1-.1c-.1-.4-.3-.8-.5-1.2h-1.1c-.3.5-.8 1.1-1.3 1.6-.1.1-.2.1-.2.1s-.1 0-.2-.1-.2-.2-.4-.3c.8-.8 1.5-1.6 1.8-2.5.1-.2.1-.4.2-.5.3 0 .5.1.7.2.1 0 .1.1.1.1s0 .1-.1.2-.1.2-.2.3c0 0 0 .1-.1.2 0 .1-.1.1-.1.2h3.2c.1 0 .1 0 .1.1v.3zm5.8 7.9c0 .1 0 .1-.1.1H247.6v1.9c0 .1 0 .1-.1.1h-.5c-.1 0-.1 0-.1-.1V81H244c-.4 1-1.4 1.6-2.9 1.9h-.2c-.1 0-.1-.1-.2-.2-.1-.2-.2-.3-.4-.4 1.5-.2 2.4-.7 2.9-1.4H240.1c-.1 0-.1 0-.1-.1v-.5c0-.1 0-.1.1-.1h3.4c.1-.2.1-.5.1-1h-1.7c-.1 0-.1 0-.1-.1v-4.7c0-.1 0-.1.1-.1h7.3c.1 0 .1 0 .1.1V79.3c0 .1 0 .1-.1.1h-1.6v1H251.2c.1 0 .1 0 .1.1v.4zm-2.6-4.9v-.8h-6v.8h6zm0 1.4v-.8h-6v.8h6zm0 1.4v-.9h-6v.9h6zm-1.7 1.5v-1h-2.5c0 .4-.1.7-.1 1h2.6zm4.2-7.3c0 .1 0 .1-.1.1h-2.5c.1.2.3.5.5.9v.1s0 .1-.1.1l-.4.1h-.1s-.1 0-.1-.1c-.1-.4-.3-.8-.5-1.1h-1.1c-.2.4-.5.8-.8 1.1l-.2.2s-.1 0-.2-.1-.3-.2-.4-.2c.6-.6 1-1.3 1.3-2.1.1-.2.1-.4.2-.6.2 0 .5.1.7.1.1 0 .1.1.1.1 0 .1 0 .1-.1.2 0 0-.1.1-.2.3l-.2.4h4.1c.1 0 .1 0 .1.1v.4z"/></g><g><path d="M331.7 177.7c0 .1 0 .1-.1.2-.1 0-.1.2-.2.4-.2.4-.4.8-.7 1.1-.1.1-.1.2-.2.2 0 0-.1 0-.2-.1s-.2-.1-.4-.2c.4-.5.7-1 .9-1.4h-1.3v5.2c0 .4-.1.7-.4.9-.2.1-.5.2-1.1.2h-.4s-.1-.1-.1-.2c0-.2-.1-.4-.2-.6.4 0 .7.1.9.1.2 0 .3 0 .4-.1.1-.1.1-.2.1-.3V178h-2.1c-.1 0-.1 0-.1-.1v-.5c0-.1 0-.1.1-.1h2.9c-.5-.6-1.2-1.1-2-1.6v-.1s0-.1.1-.1l.2-.2.1-.1h.1c.3.2.6.3.9.6.6-.5 1.1-1 1.5-1.6h-3.6c-.1 0-.1 0-.1-.1v-.5c0-.1 0-.1.1-.1h4c.1 0 .2.1.4.2.2.2.3.3.3.4 0 .1-.1.2-.2.2s-.2.2-.4.4c-.5.6-1 1.1-1.5 1.5.1.1.3.2.6.5v.1s0 .1-.1.1l-.2.2c0 .1-.1.1-.1.1h1.5c.1 0 .2.1.3.2.3.1.3.2.3.3zm2.2 5.1s0 .1-.1.1-.2.1-.3.2c-.6.5-1.4 1-2.2 1.4-.1 0-.2.1-.2.1l-.2-.2c-.1-.1-.2-.3-.3-.4.9-.3 1.7-.7 2.3-1.3l.4-.4c.2.1.4.2.5.4.1 0 .1.1.1.1zm4.3-8.7c0 .1 0 .1-.1.1h-2.9c-.2.5-.3.9-.5 1.3h2.6c.1 0 .1 0 .1.1v6.4c0 .1 0 .1-.1.1h-5c-.1 0-.1 0-.1-.1v-6.5c0-.1 0-.1.1-.1h1.7c.2-.3.3-.8.5-1.3h-2.6c-.1 0-.1 0-.1-.1v-.6c0-.1 0-.1.1-.1h6.3c.1 0 .1 0 .1.1v.7zm-1.6 3.3v-1.3h-3.7v1.3h3.7zm0 1.9V178h-3.7v1.3h3.7zm0 2v-1.4h-3.7v1.4h3.7zm1.8 2.4c-.1.1-.2.2-.3.4-.1.1-.1.2-.2.2 0 0-.1 0-.2-.1-.8-.4-1.5-.9-2.2-1.6v-.1s0-.1.1-.1l.2-.2.1-.1h.1c.9.9 1.6 1.4 2.4 1.6zM343.2 176.8c.2-.7.4-1.3.5-1.9.1-.3.1-.7.1-1v-.2c.4.1.7.2 1 .3.1 0 .1.1.1.2s0 .1-.1.2-.2.2-.2.4l-.6 1.9c.5-.1.9-.1 1.2-.1.6 0 1 .2 1.3.5.2.3.4.8.4 1.5 0 1.8-.2 3.2-.7 4.2-.3.7-.8 1-1.5 1-.5 0-1-.1-1.3-.2-.1 0-.2-.1-.2-.2 0-.3-.1-.6-.2-.8.6.2 1 .4 1.5.4.2 0 .4 0 .5-.2.1-.1.2-.3.4-.5.4-.9.6-2.1.6-3.7 0-.5-.1-.9-.2-1.1-.1-.2-.4-.3-.7-.3-.4 0-.8 0-1.4.1-.8 2.3-1.7 4.4-2.6 6.1 0 .1-.1.1-.1.1h-.1c-.2-.1-.3-.2-.5-.4l-.1-.1v-.1c1-1.6 1.8-3.5 2.5-5.5-.5.1-1 .2-1.7.3-.3 0-.5.1-.6.2-.1 0-.1.1-.2.1s-.1 0-.2-.1c-.1-.2-.2-.5-.3-.9h.2c.4 0 .8 0 1.1-.1.7 0 1.3 0 2.1-.1zm4.6-.4c.2-.1.4-.3.6-.4h.1s.1 0 .1.1c.9.8 1.6 1.8 2.1 3.1v.1s0 .1-.1.1c-.1.1-.3.2-.5.3h-.1c-.1 0-.1 0-.1-.1-.5-1.4-1.2-2.4-2.1-3.2zM359 174.6c-.7.1-1.8.3-3.2.6-.2 0-.3.1-.5.1-.1 0-.2.1-.2.1-.1 0-.2-.1-.2-.2-.1-.2-.2-.5-.3-.9h1.1c1.1-.1 2.2-.3 3.2-.5.2 0 .3-.1.4-.1.1-.1.1-.1.2-.1s.1 0 .2.1c.2.2.4.4.6.5.1.1.1.1.1.2s-.1.2-.2.2c-.2.1-.4.2-.6.5-1.2 1.2-2.2 2.4-3.3 3.4.9-.6 1.9-.9 2.8-.9 1 0 1.7.3 2.3.9.5.5.7 1.1.7 1.9 0 1-.4 1.9-1.2 2.5-.8.5-1.7.8-3 .8-.8 0-1.4-.2-1.8-.5-.3-.3-.5-.6-.5-1s.2-.7.5-1c.3-.2.6-.4 1-.4.6 0 1.1.2 1.5.6.3.3.6.8.7 1.3 1.3-.4 1.9-1.2 1.9-2.4 0-.7-.2-1.2-.7-1.6-.4-.3-.9-.5-1.5-.5-1.2 0-2.3.5-3.5 1.4-.2.2-.6.5-1.1 1-.1.1-.1.1-.2.1 0 0-.1 0-.1-.1l-.5-.5v-.1s0-.1.1-.1c.8-.7 1.8-1.7 2.9-2.9 1-.8 1.9-1.7 2.4-2.4zm-.5 8.5c-.1-.5-.3-.8-.5-1-.2-.2-.5-.3-.9-.3-.2 0-.4.1-.6.2-.1.1-.2.3-.2.4 0 .3.1.5.4.6.2.1.6.2.9.2.4 0 .7 0 .9-.1zM376.9 177.5c-.2.2-.3.3-.4.5-.1.1-.1.2-.2.2 0 0-.1 0-.2-.1-2.3-1-4.1-2.5-5.4-4.3-1.2 1.7-2.9 3.2-5.2 4.3-.1 0-.2.1-.2.1l-.2-.2c-.1-.2-.2-.3-.4-.4 1.2-.5 2.3-1.2 3.3-2 .8-.7 1.5-1.4 2-2.2.2-.3.3-.5.3-.7.3 0 .6.1.8.2.1 0 .2.1.2.2s0 .1-.1.1c0 0-.1 0-.1.1.8 1.1 1.7 2 2.7 2.7 1 .5 1.9 1.1 3.1 1.5zm-1 2.6c0 .1 0 .1-.1.1h-5.7c-.4 1.1-.9 2.1-1.3 3 1.4-.1 3-.2 4.7-.4-.4-.5-.8-.9-1.2-1.4v-.1s0-.1.1-.1l.4-.2h.2c.8.8 1.6 1.8 2.5 3v.1s0 .1-.1.1l-.4.3c-.1 0-.1.1-.1.1s-.1 0-.1-.1c-.3-.5-.6-.9-.7-1.1-2.1.3-4.5.5-7.1.7-.3 0-.4.1-.5.1 0 .1-.1.1-.2.1s-.1 0-.1-.1c-.1-.2-.1-.5-.2-.9h2c.5-1 1-2 1.3-3H366c-.1 0-.1 0-.1-.1v-.6c0-.1 0-.1.1-.1h9.9c.1 0 .1 0 .1.1v.5zm-2.4-2.4c0 .1 0 .1-.1.1h-5.1c-.1 0-.1 0-.1-.1v-.6c0-.1 0-.1.1-.1h5.1c.1 0 .1 0 .1.1v.6zM382.3 183c0 .1-.1.1-.2.1s-.2.1-.4.2c-.9.5-1.9.9-3 1.1h-.2c-.1 0-.1-.1-.2-.2-.1-.2-.2-.3-.4-.5 1.2-.2 2.2-.5 3-1 .2-.1.3-.2.5-.4.3.1.5.3.7.4.2.2.2.2.2.3zm5.5-.9c0 .1 0 .1-.1.1h-8c-.1 0-.1 0-.1-.1v-5.3c0-.1 0-.1.1-.1h8c.1 0 .1 0 .1.1v5.3zm-.7-6.3c0 .1 0 .1-.1.1h-6.7c-.1 0-.1 0-.1-.1v-2.3c0-.1 0-.1.1-.1H386.9c.1 0 .1 0 .1.1v1.5l.1.8zm-.1 2.6v-1h-6.7v1h6.7zm0 1.6v-1h-6.7v1h6.7zm0 1.6v-1h-6.7v1h6.7zm-.7-6.3v-1.2H381v1.2h5.3zm2.8 8.4c-.2.2-.3.3-.3.5-.1.1-.1.2-.2.2h-.2c-1.3-.3-2.4-.8-3.3-1.4 0 0-.1 0-.1-.1 0 0 0-.1.1-.1l.3-.2c.1 0 .1-.1.1-.1h.1c1 .6 2.2 1 3.5 1.2z"/></g><g><path d="M117.4 348.5c.7.1 1.5.1 2.5.1h4.5c.3 0 .5 0 .6-.1h.2c.1 0 .1 0 .2.1.2.2.4.3.6.5 0 .1.1.1.1.2s0 .2-.1.2c-.1.1-.2.2-.3.4-.6 1.6-1.4 3-2.5 4.2-1.2 1.3-2.4 2.3-3.8 3.1-.1.1-.1.1-.2.1s-.2 0-.2-.1c-.2-.2-.4-.3-.7-.4 1-.5 1.8-1 2.5-1.6.5-.4 1.1-1 1.6-1.6 1.1-1.2 1.9-2.6 2.4-4.1h-4.9c-.7 0-1.5 0-2.2.1-.1 0-.2-.1-.2-.2v-.4c-.1-.3-.1-.4-.1-.5zM129.4 350.1c.5.1 1.1.1 1.9.1h4.3c.4 0 .7 0 .8-.1h.1s.1 0 .2.1c.2.1.3.3.5.5v.1c0 .1 0 .1-.1.2s-.2.1-.3.2c-.5.8-1.2 1.5-1.8 2l-.1.1s-.1 0-.1-.1c-.2-.2-.4-.3-.6-.3.8-.6 1.4-1.2 1.8-1.9h-4.6c-.3 0-.9 0-1.6.1-.1 0-.1 0-.2-.1-.1-.3-.2-.5-.2-.9zm3 1.6c.5 0 .8.1 1 .2.1 0 .1.1.1.1v.1c-.1.1-.1.3-.1.5 0 1.1-.3 2.1-.8 3-.4.7-1 1.3-1.7 1.7-.1.1-.1.1-.2.1 0 0-.1 0-.1-.1-.2-.2-.4-.3-.6-.3 1.7-.9 2.6-2.3 2.6-4.4 0-.3-.1-.6-.2-.9zM141.4 355.3c.1-.3.2-.5.3-.7 0-.1.1-.1.2-.1h.1c2.2.4 4.2 1.1 6 2 .1 0 .1.1.1.1v.1l-.3.6c0 .1-.1.1-.2.1h-.1c-1.7-1-3.8-1.7-6.1-2.1zm.2-4c.1-.3.2-.6.3-.7 0-.1.1-.1.1-.1h.1c1.4.3 2.6.7 3.8 1.2.1 0 .1.1.1.1v.1c-.1.2-.1.4-.2.6 0 .1-.1.1-.1.1h-.1c-1.2-.5-2.5-1-4-1.3zm.9-3.3c.1-.3.3-.6.3-.7 0-.1.1-.1.1-.1h.1c1.7.3 3.2.8 4.4 1.4.1 0 .1.1.1.2v.1c0 .2-.1.4-.3.6 0 .1-.1.1-.1.1h-.2c-1.1-.8-2.7-1.3-4.4-1.6zM153.4 347.4c.4 0 .7.1 1 .2.1 0 .1.1.1.2v.1c-.1.2-.1.6-.1 1.3V353.1c0 .1-.1.2-.2.2h-.6c-.1 0-.2-.1-.2-.2V349.2c.1-.7.1-1.3 0-1.8zm.6 9.4c1.3-.4 2.3-1 3-1.8.7-.8 1-2 1-3.4v-2.2c0-1.1 0-1.8-.1-2.2.4 0 .8.1 1.1.2.1 0 .1.1.1.2v.1c-.1.2-.1.7-.1 1.7v2.2c0 1.7-.4 3-1.1 3.9-.7.8-1.6 1.5-2.8 1.9h-.2c-.1 0-.1 0-.2-.1-.3-.2-.5-.3-.7-.5zM162.9 351.7c.6.1 1.5.1 2.8.1H172.5c.1 0 .1.1.1.2v.6c0 .1 0 .2-.1.2H165c-.5 0-1 0-1.4.1h-.4c-.1 0-.2-.1-.2-.2-.1-.3-.1-.6-.1-1zM179.3 351.1c.3 0 .6.1.8.4.2.2.3.4.3.7 0 .3-.1.6-.4.8-.2.2-.4.3-.7.3-.3 0-.6-.1-.8-.4-.2-.2-.3-.4-.3-.7 0-.3.1-.6.4-.8.2-.2.4-.3.7-.3zM193.4 350h2.6c.1 0 .2.1.2.2v.6c0 .1 0 .2-.1.2h-2.6c0 1.7-.3 3.1-.9 4.1-.6 1.1-1.7 1.9-3.2 2.5-.1 0-.2.1-.2.1s-.1 0-.1-.1c-.2-.2-.4-.4-.7-.5 1.7-.5 2.8-1.3 3.4-2.4.5-.9.8-2.1.8-3.6h-3.3v2.7c0 .1-.1.1-.2.1h-.6c-.1 0-.2 0-.2-.2 0-.9.1-1.5.1-2v-.7h-.7c-.6 0-1.2 0-2 .1-.1 0-.1-.1-.1-.2v-.7c.6 0 1.3.1 2.2.1h.7v-1.1c0-.8 0-1.5-.1-1.9.4 0 .8.1 1 .2.1 0 .1.1.1.1s0 .1-.1.2-.1.6-.1 1.4v1.1h3.3v-1.1c0-.9 0-1.6-.1-2 .4.1.8.1 1 .2.1 0 .2.1.2.2v.2c-.1.2-.1.7-.1 1.5l-.2.7zM198.9 352.2c.3.1.6.3.9.4.1.1.1.1.1.2 0 0 0 .1-.1.2s-.2.3-.3.5c-.4.8-.8 1.4-1.3 2-.1.1-.1.1-.2.1 0 0-.1 0-.1-.1-.2-.1-.4-.2-.7-.3.6-.6 1.1-1.3 1.5-2.1 0-.3.1-.6.2-.9zm3.1-2.3v-.8c0-.8 0-1.4-.1-1.8.5 0 .8.1 1.1.1.1 0 .2.1.2.2s0 .1-.1.2-.1.6-.1 1.3v.8h1.7c.9 0 1.8 0 2.6-.1.1 0 .1.1.1.2v.6c0 .1-.1.2-.2.2H202.9v5.1c0 .6-.2 1-.6 1.2-.4.2-.9.3-1.5.4-.1 0-.2-.1-.2-.2-.1-.3-.3-.5-.5-.7.7 0 1.2-.1 1.6-.2.1-.1.2-.1.3-.3 0-.1.1-.3.1-.5v-4.8H200c-.7 0-1.4 0-2.2.1-.1 0-.1-.1-.1-.2 0-.4-.1-.7-.1-.8.7.1 1.5.1 2.4.1h2zm2.8 2.8c.1-.1.3-.2.6-.4h.1s.1 0 .1.1c.6.6 1.2 1.3 1.8 2.3v.1s0 .1-.1.2c-.2.2-.3.3-.5.4h-.1s-.1 0-.1-.1c-.4-1-1-1.8-1.8-2.6zm1.8-6.1c.4 0 .7.1 1 .4.2.2.3.5.3.9s-.1.7-.4 1c-.2.2-.5.3-.9.3s-.7-.1-1-.4c-.2-.2-.3-.5-.3-.9s.1-.7.4-1c.2-.2.5-.3.9-.3zm0 .5c-.2 0-.4.1-.6.3-.1.2-.2.3-.2.5s.1.4.3.6c.2.1.3.2.5.2s.4-.1.6-.3c.1-.2.2-.3.2-.5s-.1-.4-.3-.6c-.1-.2-.3-.2-.5-.2zM209.1 351.7c.6.1 1.5.1 2.8.1H218.7c.1 0 .1.1.1.2v.6c0 .1 0 .2-.1.2h-7.6c-.5 0-1 0-1.4.1h-.4c-.1 0-.2-.1-.2-.2v-1zM224.9 350.7c1.5.4 2.9 1 4.2 1.8.1 0 .1.1.1.1v.1l-.3.6c0 .1-.1.1-.1.1h-.1c-1.2-.8-2.4-1.3-3.7-1.7V357.3c0 .1-.1.1-.2.1h-.6c-.1 0-.2-.1-.2-.2 0-.7.1-1.6.1-2.6v-5.7c0-.9 0-1.6-.1-2.1.5 0 .9.1 1.1.2.1 0 .2.1.2.2 0 0 0 .1-.1.2-.1.2-.1.6-.1 1.4v1.9zM237.1 351.1c.3 0 .6.1.8.4.2.2.3.4.3.7 0 .3-.1.6-.4.8-.2.2-.4.3-.7.3-.3 0-.6-.1-.8-.4-.2-.2-.3-.4-.3-.7 0-.3.1-.6.4-.8.1-.2.4-.3.7-.3zM246.8 351v-1.6c0-.9-.1-1.5-.2-1.9.5 0 .8.1 1.1.2.1 0 .2.1.2.2v.2c-.1.2-.2.7-.2 1.4v1.4l3.7-.9c.4-.1.7-.2.9-.3 0 0 .1-.1.2-.1h.2c.2.1.4.3.6.5.1 0 .1.1.1.2s0 .1-.1.2-.2.3-.3.4c-.6 1.2-1.3 2.1-2.1 2.8-.1.1-.1.1-.2.1 0 0-.1 0-.2-.1-.2-.1-.4-.2-.7-.3 1-.8 1.8-1.8 2.3-2.9l-4.4 1.1v3.1c0 .5.2.8.5 1 .3.1.8.2 1.5.2 1.1 0 2-.1 2.9-.2h.1c.1 0 .1.1.1.2 0 .3.1.5.1.6 0 .1-.1.2-.2.2-.8.1-1.8.2-2.9.2-1.2 0-2-.2-2.4-.5-.3-.3-.5-.8-.5-1.4v-3l-1.1.3c-.8.2-1.5.4-1.9.6h-.1c-.1 0-.1 0-.1-.1-.1-.2-.2-.5-.3-.8.6-.1 1.4-.2 2.4-.4l1-.6zM255.9 348.9c.2-.3.4-.5.5-.6l.1-.1h.1c.8.5 1.6 1 2.3 1.7 0 .1.1.1.1.1v.1c-.2.2-.3.4-.4.6l-.1.1s-.1 0-.1-.1c-.8-.6-1.6-1.2-2.5-1.8zm.3 6.8c.5-.1.9-.3 1.3-.5 1.4-.8 2.7-1.6 3.7-2.4 1.5-1.2 2.6-2.4 3.5-3.5 0 .3.1.6.2.8v.2c0 .1 0 .2-.1.3-.8.9-1.8 1.9-3.1 3-1 .8-2.3 1.7-3.9 2.5-.3.2-.5.3-.7.5-.1.1-.1.1-.2.1s-.1 0-.2-.1c-.1-.3-.3-.6-.5-.9zM273.4 353.2c.6.5 1.1.9 1.5 1.4v.1s0 .1-.1.1c-.1.2-.2.3-.4.4l-.1.1s-.1 0-.1-.1c-.4-.5-.9-1-1.4-1.4-1.2 1.4-2.7 2.5-4.5 3.5-.1 0-.1.1-.2.1s-.1 0-.2-.1c-.2-.2-.4-.3-.7-.4 2-1 3.6-2.2 4.8-3.6-.5-.4-1.2-.9-2-1.3.2-.2.3-.4.4-.5l.1-.1h.1c.5.3 1.1.7 1.9 1.2.8-1 1.4-2.1 1.9-3.2l-3.8.1c-.8 1.1-1.8 2.1-2.8 3-.1.1-.1.1-.2.1 0 0-.1 0-.1-.1-.2-.1-.4-.3-.6-.4 1.6-1.2 2.8-2.6 3.6-4.1.2-.4.4-.8.5-1.3.3.1.6.2.9.4.1 0 .1.1.1.2s0 .1-.1.2-.3.2-.4.4c-.1.2-.3.4-.4.7h2.9c.4 0 .6-.1.7-.1.1-.1.1-.1.2-.1 0 0 .1 0 .2.1.2.1.3.3.6.5 0 .1.1.1.1.2s0 .1-.1.2-.2.2-.3.4c-.5 1.2-1.2 2.3-2 3.4zM278.3 351.7c.6.1 1.5.1 2.8.1H287.9c.1 0 .1.1.1.2v.6c0 .1 0 .2-.1.2h-7.6c-.5 0-1 0-1.4.1h-.4c-.1 0-.2-.1-.2-.2.1-.3.1-.6 0-1z"/></g><ellipse cx="200.9" cy="168.7" rx="37.7" ry="16.9" fill="none" stroke="#000" stroke-width=".663" stroke-miterlimit="10"/><g><path d="M17.1 190.2c0 .1 0 .1-.1.2-.1 0-.1.2-.2.4-.2.4-.4.8-.7 1.1-.1.1-.1.2-.2.2 0 0-.1 0-.2-.1s-.2-.1-.4-.2c.4-.5.7-1 .9-1.4h-1.3v5.2c0 .4-.1.7-.4.9-.2.1-.5.2-1.1.2H13s-.1-.1-.1-.2c0-.2-.1-.4-.2-.6.4 0 .7.1.9.1.2 0 .3 0 .4-.1.1-.1.1-.2.1-.3v-5.1H12c-.1 0-.1 0-.1-.1v-.5c0-.1 0-.1.1-.1h2.9c-.5-.6-1.2-1.1-2-1.6v-.1s0-.1.1-.1l.2-.2.1-.1h.1c.3.2.6.3.9.6.6-.5 1.1-1 1.5-1.6h-3.6c-.1 0-.1 0-.1-.1v-.5c0-.1 0-.1.1-.1h4c.1 0 .2.1.4.2.2.2.3.3.3.4 0 .1-.1.2-.2.2s-.2.2-.4.4c-.5.6-1 1.1-1.5 1.5.1.1.3.2.6.5v.1s0 .1-.1.1l-.2.2c0 .1-.1.1-.1.1h1.5c.1 0 .2.1.3.2l.3.3zm2.2 5.1s0 .1-.1.1-.2.1-.3.2c-.6.5-1.4 1-2.2 1.4-.1 0-.2.1-.2.1l-.2-.2c-.1-.1-.2-.3-.3-.4.9-.3 1.7-.7 2.3-1.3l.4-.4c.2.1.4.2.5.4.1 0 .1.1.1.1zm4.2-8.6c0 .1 0 .1-.1.1h-2.9c-.2.5-.3.9-.5 1.3h2.6c.1 0 .1 0 .1.1v6.4c0 .1 0 .1-.1.1h-5c-.1 0-.1 0-.1-.1v-6.4c0-.1 0-.1.1-.1h1.7c.2-.3.3-.8.5-1.3h-2.6c-.1 0-.1 0-.1-.1v-.6c0-.1 0-.1.1-.1h6.3c.1 0 .1 0 .1.1v.6zm-1.5 3.2v-1.3h-3.7v1.3H22zm0 1.9v-1.3h-3.7v1.3H22zm0 2v-1.4h-3.7v1.4H22zm1.8 2.5c-.1.1-.2.2-.3.4-.1.1-.1.2-.2.2 0 0-.1 0-.2-.1-.8-.4-1.5-.9-2.2-1.6v-.1s0-.1.1-.1l.2-.2.1-.1h.1c.8.8 1.6 1.3 2.4 1.6zM26.7 186.1c.4.1.6.2.9.3.1.1.2.1.2.2 0 0 0 .1-.1.2 0 .1-.1.3-.2.8-.3 1.8-.5 3.2-.5 4.2s.1 1.8.3 2.5c.1-.2.4-.9.9-2.1l.3.6c.1.1.1.1.1.2 0 0 0 .1-.1.3-.3.6-.5 1.2-.7 1.8v.5c0 .1 0 .1-.1.1-.2.1-.3.1-.5.2-.1 0-.1 0-.2-.1-.2-.4-.4-1.1-.5-1.8-.1-.7-.2-1.3-.2-1.9 0-1.1.1-2.4.3-3.9.1-.8.2-1.4.2-1.8v-.3zm6 2.6c0-1.1-.1-1.8-.1-2 0-.4-.1-.7-.2-.9.5 0 .8.1 1 .1.1 0 .2.1.2.2v.2c0 .1-.1.3-.1.5v1.8c.5-.1 1.1-.2 1.8-.3h.1s.1 0 .1.1v.6c0 .1 0 .1-.1.1-.7.1-1.3.2-1.9.3v1.8c0 1.3-.2 2.3-.5 3.1-.3.7-.9 1.4-1.8 2-.1.1-.2.1-.2.1-.1 0-.1 0-.2-.1s-.3-.2-.6-.3c.6-.3 1.1-.7 1.4-1 .3-.3.5-.7.7-1.2.3-.6.4-1.5.4-2.6v-1.7c-.7.1-1.3.1-1.8.1h-1.1c-.1 0-.2-.1-.2-.2 0-.2 0-.4-.1-.7h1.4c.8.1 1.3.1 1.8 0zM44.4 187.1c-.7.1-1.8.3-3.2.6-.2 0-.3.1-.5.1-.1 0-.2.1-.2.1-.1 0-.2-.1-.2-.2-.1-.2-.2-.5-.3-.9h1.1c1.1-.1 2.2-.3 3.2-.5.2 0 .3-.1.4-.1.1-.1.1-.1.2-.1s.1 0 .2.1c.2.2.4.4.6.5.1.1.1.1.1.2s-.1.2-.2.2c-.2.1-.4.2-.6.5-1.2 1.2-2.2 2.4-3.3 3.4.9-.6 1.9-.9 2.8-.9 1 0 1.7.3 2.3.9.5.5.7 1.1.7 1.9 0 1-.4 1.9-1.2 2.5-.8.5-1.7.8-3 .8-.8 0-1.4-.2-1.8-.5-.3-.3-.5-.6-.5-1s.2-.7.5-1c.3-.2.6-.4 1-.4.6 0 1.1.2 1.5.6.3.3.6.8.7 1.3 1.3-.4 1.9-1.2 1.9-2.4 0-.7-.2-1.2-.7-1.6-.4-.3-.9-.5-1.5-.5-1.2 0-2.3.5-3.5 1.4-.2.2-.6.5-1.1 1-.1.1-.1.1-.2.1 0 0-.1 0-.1-.1l-.5-.5v-.1s0-.1.1-.1c.8-.7 1.8-1.7 2.9-2.9 1-.8 1.8-1.7 2.4-2.4zm-.5 8.5c-.1-.5-.3-.8-.5-1-.2-.2-.5-.3-.9-.3-.2 0-.4.1-.6.2-.1.1-.2.3-.2.4 0 .3.1.5.4.6.2.1.6.2.9.2.3 0 .6 0 .9-.1zM62.2 190c-.2.2-.3.3-.4.5-.1.1-.1.2-.2.2 0 0-.1 0-.2-.1-2.3-1-4.1-2.5-5.4-4.3-1.2 1.7-2.9 3.2-5.2 4.3-.1 0-.2.1-.2.1l-.2-.2c-.1-.2-.2-.3-.4-.4 1.2-.5 2.3-1.2 3.3-2 .8-.7 1.5-1.4 2-2.2.2-.3.3-.5.3-.7.3 0 .6.1.8.2.1 0 .2.1.2.2s0 .1-.1.1c0 0-.1 0-.1.1.8 1.1 1.7 2 2.7 2.7 1 .6 2 1.1 3.1 1.5zm-.9 2.6c0 .1 0 .1-.1.1h-5.7c-.4 1.1-.9 2.1-1.3 3 1.4-.1 3-.2 4.7-.4-.4-.5-.8-.9-1.2-1.4v-.1s0-.1.1-.1l.4-.2h.2c.8.8 1.6 1.8 2.5 3v.1s0 .1-.1.1l-.4.3c-.1 0-.1.1-.1.1s-.1 0-.1-.1c-.3-.5-.6-.9-.7-1.1-2.1.3-4.5.5-7.1.7-.3 0-.4.1-.5.1 0 .1-.1.1-.2.1s-.1 0-.1-.1c-.1-.2-.1-.5-.2-.9h2c.5-1 1-2 1.3-3h-3.3c-.1 0-.1 0-.1-.1v-.7c0-.1 0-.1.1-.1h9.9c.1 0 .1 0 .1.1v.6zm-2.5-2.4c0 .1 0 .1-.1.1h-5.1c-.1 0-.1 0-.1-.1v-.6c0-.1 0-.1.1-.1h5.1c.1 0 .1 0 .1.1v.6zM67.7 195.5c0 .1-.1.1-.2.1s-.2.1-.4.2c-.9.5-1.9.9-3 1.1h-.2c-.1 0-.1-.1-.2-.2-.1-.2-.2-.3-.4-.5 1.2-.2 2.2-.5 3-1 .2-.1.3-.2.5-.4.3.1.5.3.7.4.2.2.2.2.2.3zm5.4-.8c0 .1 0 .1-.1.1h-8c-.1 0-.1 0-.1-.1v-5.3c0-.1 0-.1.1-.1h8c.1 0 .1 0 .1.1v5.3zm-.7-6.3c0 .1 0 .1-.1.1H65.7c-.1 0-.1 0-.1-.1v-2.3c0-.1 0-.1.1-.1H72.3c.1 0 .1 0 .1.1v2.3zm-.1 2.5v-1h-6.7v1h6.7zm0 1.6v-1h-6.7v1h6.7zm0 1.6v-1h-6.7v1h6.7zm-.7-6.3v-1.2h-5.3v1.2h5.3zm2.8 8.5c-.2.2-.3.3-.3.5-.1.1-.1.2-.2.2h-.2c-1.3-.3-2.4-.8-3.3-1.4 0 0-.1 0-.1-.1 0 0 0-.1.1-.1l.3-.2c.1 0 .1-.1.1-.1h.1c1.1.6 2.2 1 3.5 1.2z"/></g><g><path class="st4" d="M45.7 168.5c.5.7.3 2.3 0 3.2-.2.5-.4 1-.9 1.2-.6.2-1.3.2-1.9.3-.2-.6-.1-1.2-.3-1.7h-.1"/><path class="st5" d="M26.6 128.8c-.4 4.4-.6 8 1.1 12.1 1.7 4.2 3.9 8.1 5.7 12.3 1.8 4.1 5.8 12.4 3.2 16.7-1 1.7-3.7 3-3.8 5.1-.2 3.1 4.1 2.3 5.8 1.1 1.9-1.3 3.1-3.3 4.7-4.9 1.2-1.2 3.2-1.8 2.5-3.8-.5-1.3-1.9-1.9-2.6-3.1-1.9-3.6-2-7.5-3.1-11.4-2-6.7-3.6-13.7-5.4-20.4"/><path class="st4" d="M43.5 165.2c0-.1 0-.1.1-.2 1.1-.8 2 1 2.2 1.8.2.5.4 1.2.3 1.8-.1.7-.8 1.3-1.3 1.8-.6.6-1.1 1.1-1.8 1.6s-1.3 1-1.9 1.6c-1 1.1-2 2.4-3.2 3.2-.5.4-1 .4-1.6.6-1.3.4-3.1.2-4-1-.4-.4-.6-1.5-.5-2 .1-.7.8-1.2 1.3-1.6.6-.5 1.2-1.1 1.8-1.6.5-.5.9-1.2 1.4-1.5.2.7 1.3.8 1.9.7.6-.1.9-.3 1.4-.6.8-.4 1.5-1.1 2.1-1.9.6-.7 1.1-1.6 1.5-2.4.2.1.2-.1.3-.3zM51.8 174.2c.6.4.2 1.9.2 2.5 1.1.1 2.2-.1 3.3-.1.3-1.4.4-2.8.4-4.3"/><path class="st5" d="M51.7 138c0 4.2.2 8.5.4 12.7.2 3.3.3 6.5.5 9.8.1 1.7.3 3.4.5 5.1.1.8.1 1.9.4 2.5.9 2 3.4 3.8 1.1 5.8-1.9 1.6-5.6 3.9-8.2 4-1.2.1-3.8-.6-3.9-2.2-.1-2.5 2.9-3 4.3-4.4 1.6-1.7 1.3-2.9 1-5.2-.8-6-2.4-11.8-3.3-17.7-.7-4.5-3.2-9.2-1.8-13.9"/><path class="st4" d="M48.2 173.3c1-.1 1.5-.3 2.3-.8.9-.6 1.8-1.3 2.7-2 .4-.3 1.2-.9 1.4-1.4l.3.4c.6.9 1.5 2.4.6 3.4-.5.6-1.2 1-1.9 1.4-1 .6-1.8 1.4-2.8 2-1.1.8-2.3 1.7-3.6 2.1-.8.2-1.6.3-2.4.1-.9-.2-2.3-.3-3-.9-.8-.7-.4-1.9-.2-2.8.3-1.1 1.1-1.7 2-2.3.3-.2 1.1-.9 1.5-.6.4.2.5.6.8.8.7.5 1.5.7 2.3.6z"/><path class="st6" d="M57.5 105.7c0 5.2-1.5 10-2.3 15-.7 4.5-2.4 9-2.6 13.6-.1 2.1.7 4.1 1 6.1-4.4-1-7.5-1.1-12.2-.9-3.3.2-6.7.8-10 .5-2.8-.2-5.4-1.4-8.2-1.5-.2-5.1 1.8-9.4 2.9-14.2 1.2-5.6 2.1-11.2 3.1-16.8.5-2.8 1.7-3.9 2.9-6.3"/><path class="st6" d="M30.9 98.6c-1 2.7-2.1 5.3-2.7 8.1 9.8 1.1 20.3 1.5 30.1 1.4.3-1.7-.1-3.7-.3-5.4-.2-2.1-.1-4.2-.3-6.2-.2-2.4-.3-4.9-.4-7.3-.1-1.2-.2-2.4-.1-3.5.1-.9.6-2.1.4-2.8"/><path class="st7" d="M52.5 131.9c-.6 1.8-1.7 3.3-3.8 3.6"/><path class="st5" d="M45.7 92.4c1.2 1.9-.5 4.2-1.4 5.9-.2.4-2.4 3.4-1.9 3.8 1.3.9 4.4 3.3 2.3 4.7-1.5 1-5.2-.8-6.4-1.8-2.1-1.7.2-4.1.8-6.2.7-2 1.3-4.5 1.6-6.6"/><path class="st8" d="M44.2 98.8c-1.6.4-3.3.7-4.7-.3-.6 1.3-1.5 2.8-1.9 4.2-.6 2.2 1.3 2.5 2.9 3.1 1.2.5 3.6 1.9 4.6.1.8-1.4-1.4-2.5-2.3-3.6-1.1-1.4.1-1.8.8-3"/><path class="st9" d="M45.7 92.4c1.2 1.9-.5 4.2-1.4 5.9-.2.4-2.4 3.4-1.9 3.8 1.3.9 4.4 3.3 2.3 4.7-1.5 1-5.2-.8-6.4-1.8-2.1-1.7.2-4.1.8-6.2.7-2 1.3-4.5 1.6-6.6M39.5 98.2c.8 1.1 2.5 1.3 3.7.9"/><path class="st5" d="M27.3 89.5c.5 1.6.2 3 1.3 4.6.8 1.2 1.7 2.4 2.8 3.4 1 .8 2.4 1.5 2.8 2.8.4 1.2.1 2.8-.4 4-.5 1.2-1.7 2.3-1.5 3.7.3 2 3.8 6 6 4.9 2-.9-.3-3.5-.6-4.8-.4-1.5.8-2.8 1.2-4.1.5-1.5.5-3.3.4-4.9-.1-1.6-1.3-4.8-3-5.2"/><path class="st8" d="M38.6 104.6c-1.7.2-3.1.2-4.4-.9-1.9 2.6-2.3 6.1.6 8.3 1.1.8 3.7 1.9 4.3-.1.4-1.4-1.4-3.2-1.4-4.7 0-.9.3-2 .5-2.3"/><path class="st9" d="M27.3 89.5c.5 1.6.2 3 1.3 4.6.8 1.2 1.7 2.4 2.8 3.4 1 .8 2.4 1.5 2.8 2.8.4 1.2.1 2.8-.4 4-.5 1.2-1.7 2.3-1.5 3.7.3 2 3.8 6 6 4.9 2-.9-.3-3.5-.6-4.8-.4-1.5.8-2.8 1.2-4.1.5-1.5.5-3.3.4-4.9-.1-1.6-1.3-4.8-3-5.2M34.6 103.7c1.1.6 1.7 1.2 3.2 1.1"/><path class="st10" d="M35.1 68.7c-.7 2.2 0 4.9 1.9 6.3 1.8 1.3 2.8-.1 3.5-1.8 1.2-2.5 2.2-6 2.7-8.8.1-.8.4-2 .2-2.8-.5-2.2-3.7.4-4.4 1-1.7 1.7-3.2 3.7-3.9 6.1zM52.2 66c-1.1 1.7-1.7 3.8-2.6 5.6-1.9 3.7-3.5 8-4.3 12.1-.1.7-.8 2.3-.5 2.9.5.9 1.8.1 2.7-.3 1.4-.5 2.8-1.1 4.2-1.6 1.8-.7 3.1-2.2 4.5-3.6 1.7-1.8 3.4-3.9 5.3-5.6 3.4-3.2 7-7.5 6.4-12.4-.2-1.4-.6-3.8-1.8-4.8-2.4-2-6.2.6-8.2 2-2.3 1.5-4.3 3.4-5.7 5.7z"/><path d="M40.8 75.5c-.5 4.1-2.2 7.8-2.9 11.8-.1.7-.6 2-.1 2.6.4.4 2.4.5 2.9.6 2.4.1 3.6-1.4 4.2-3.5.5-2.1.7-4 1-6.1.2-1.9 1.1-3.6 1.6-5.5.5-1.8 1-3.6 1.8-5.2s2.1-2.9 3.1-4.4c.8-1.2 3.8-4.3 1.6-5.5-1.9-1-4.7.6-6.2 1.7-2 1.3-3.1 3.9-4.1 6-1.2 2.3-2.6 4.8-2.9 7.5z" fill="#f09fc2"/><path class="st5" d="M43.7 63.1c-1.5 4.4 3.2 6.3 6.9 4.9 2.7-1 5.3-4 6.1-6"/><path d="M38 68.8c-1.7-3.8 8-5.7 7.3-10.1-.9-6.4-10.4.7-13.1 2.1" fill="#94d4f5" stroke="#6a3906" stroke-width="1.201" stroke-linecap="round" stroke-linejoin="round" stroke-miterlimit="10"/><path d="M37.3 64.4c1.1 2.1-.9 5.2-2 7-1.5 2.4-3.9 4.4-6.1 6.2-1.6 1.4-3.2 3.1-5.1 4.2-2.4 1.3-4 0-5.7-1.7-2.1-2.1-3.5-3.2-2.9-6.4.4-2.5 1.6-4 3.2-5.9 2.7-3.4 6.7-4.3 10.8-4.5 2-.1 6.7-1 7.8 1.1z" fill="#94d4f5"/><path d="M40.9 80.9c1.4 1.1 3 3.5 3.3 5.3-1.9.5-3.5 2-5.4 2.4-1.6.3-2.5-.6-3.9-1.1-1.7-.6-4.2-.2-5.8.6-1.1.6-1.8 1.7-3.1 1-.9-.5-1.4-1.9-1.7-2.7-.6-1.6.1-2.7.1-4.2" fill="#8dc21f" stroke="#6a3906" stroke-width="1.201" stroke-linecap="round" stroke-linejoin="round" stroke-miterlimit="10"/><path class="st5" d="M35.6 88.4c-.6-.3-1.3 0-1.9.1-.6.1-1.3 0-1.9-.1-1.4-.1-2.9-.2-4.2.4-.7.3-.9 1-.4 1.7.4.5 1.5.2 1.8.7.4.6-.6 1.4-1 1.6-.6.4-.9.7-.7 1.5.1.3.1.6.2.9.1.3.3.4.4.7.1.3 0 .6.1.9.1.3.2.6.4.9.2.3.4.4.6.8.1.3.2.6.4.8.8.8 2.1.3 2.9-.3 1-.7 1.6-1.4 2.3-2.4.5-.9 1.1-2 1.9-2.7.3-.3.7-.5 1-.7"/><path class="st6" d="M22.8 80.6c-.3-.1-.8 0-1.1 0-.5 0-.9 0-1.4.3-1.3.6-2 1.9-2.1 3.3-.1 2.8 2.5 5.3 5.3 5 .6-.1 1.7-.4 1.9-1"/><path class="st9" d="M55.9 72.5c-.1-1.7.4-3.6 1-5.2.9-2.4 2.3-4.9 4.3-6.6 1.1-1 2.5-1.7 4-1.4 1.5.3 1.7 1.1 2.6 2.2"/><path class="st6" d="M47.9 60.7c-2.6 0-5.3.9-7.4 2.4.7 1 1.3 2 2 3-1.1.4-2.1 1.3-3.1 1.9.4 3.1.4 6.4-.5 9.4"/><path class="st9" d="M55 63c-3.8 3.1-6.3 9.1-8.1 13.6-1 2.5-1.2 5.5-1.7 7.6"/><path class="st15" d="M32.2 67.2c0 4.4-6.8 5.1-8.9 1.9"/><path class="st9" d="M46.3 63.4c-2.3 4.3-5.8 10.7-5.8 15.3"/><path class="st16" d="M36.7 67.2c2.3 4.1 5.7 9.1 4.3 14.1-2.3 0-4.6-.2-6.8-.2s-4.2 1-6.3 1.5c-1 .2-2.1.7-3 .9-1.2.2-1.5-.3-2.6-.7"/><path class="st17" d="M22 84.4c-.2-.8-.5-1.3-.1-2.1.3-.6.9-1 1.5-1.4.8-.5 1.5-1 2.3-1.5 1.3-.9 2.6-2.3 4.3-2.5.3 0 .9-.1 1.2.1.2.2.2.6.3.9.1.4.3.4.8.3.4-.1.9-.2 1.2-.3.6-.2 1.2-.9 1.7 0 .2.5.2 1.2.8 1.5.3.1.6.1.8.4.1.2.1.8.1 1.1 0 .4-.1.7-.3 1-.3.4-.4.4-.1.8.6.9.2 1.4-.5 2.1-.5.5-.2 1.2-.9 1.6-1.8 1-4 1.1-6 1.4-1 .2-2.1-.1-3.1-.1-1-.1-2-.1-2.6-.7-.7-.7-1.2-1.7-1.4-2.6z"/><path class="st9" d="M21.7 83c.2-.9.4-1.5 1.2-2 .9-.6 1.8-.9 2.7-1.5 1-.7 1.9-1.6 3-2.1.6-.3 2.1-.9 2.6-.2.6.7.1 1.7-.7 1.9"/><path class="st9" d="M29.1 79.5c.8-.3 1.7-.4 2.5-.6.6-.1.9-.5 1.5-.8.5-.3 1.7-1 2.3-.7.7.3-.1 2-.5 2.4-1.1 1.5-3.1 2.4-4.9 2.7M35.5 79.6c.6-.2 1.3.1 1.3.7 0 .8-.5 1.6-1.1 2.1-1.5 1.2-3.5 2.1-5.4 2.4M35.9 82.5c.6.1.9.4.9 1 0 1.4-2.5 1.9-3.5 2.3-.6.2-1.2.3-1.7.6"/><path class="st9" d="M35.4 85.3c.4.5.1 1.3-.4 1.6-.8.4-1.8.5-2.7.7-1.9.4-3.8.6-5.8.6-1.7 0-3.4-.4-4.1-2-.2-.5-.5-1.1-.6-1.6-.2-.5-.1-1.5.1-1.9"/><path class="st4" d="M65.7 75.3c2-1.8 4.4-4.1 7.1-5 .7 3.1 2.9 6.4 4.2 9.4 1.3 2.9 3 5.6 4.3 8.5-2.8 2.3-5.6 4.3-7.8 7.2-1.8 2.3-3.8 4.5-5.5 6.9-.7 1-1.6 1.8-2.3 2.9-2.6-.7-6-.6-8.6-.6-.3-2.5-1.5-4.8-2.3-7.2-.8-2.2-1.6-4.5-1.8-6.8"/><path d="M57.9 87.1c.8 1.7 1.7 3.4 2.3 5.2.8 2.6 2.4 5.1 3 7.8" fill="#807871" stroke="#6a3906" stroke-width="1.201" stroke-linecap="round" stroke-linejoin="round" stroke-miterlimit="10"/><path class="st6" d="M60.2 61.4c.4.8.9 1.8 1.3 2.7-1.4.6-3.3 1.4-4.9 1.8 0 .7.5 1.4.8 2-3.9 3.2-8 9.6-9.6 14.1"/><path class="st4" d="M65.2 59.2c1.5.3 2.9 2.2 2.7 3.7 1.1-1.3 1.2-1.7.2-3.2-.8-1.1-1.7-1.8-3-1.9-3.8-.1-7 3-8.9 6-1.2 2-2 4.3-2.3 6.6-.3 2.2.5 4.4.7 6.6.5-.2 1.1-.5 1.6-.8-.9-2.9-.3-6.2.7-9 .9-2.4 2.3-4.9 4.3-6.6 1.1-1 2.4-1.7 4-1.4z"/><path d="M72.6 77.7c1.2 2.3 2.9 4.5 4 6.9.5 1.1.6 1.5-.2 2.6-.4.6-2 2.3-2 2.3" fill="none" stroke="#9e9e9f" stroke-width="2.004" stroke-linecap="round" stroke-linejoin="round" stroke-miterlimit="10"/><path class="st6" d="M67.2 62.8c1.9 5.5.2 10.8-2.5 15.7-2.2 4-4.9 7-8.3 10-1.3 1.2-2.7 1.6-4.2 2.4-3.2 1.7-7 2.7-10.5 3.6-.4.1-5.5.8-5.4 1-.6-1.8-2.2-5.1-2.1-7 1.8-.5 3.4-1.3 5.1-1.9 1.3-.5 2.5-.8 3.8-1.4 3.4-1.7 6.3-3.2 9-6 2.6-2.7 4.4-5.8 6.2-9"/><path class="st7" d="M63.7 58.5c1.3-.7 3.1 3.4 3.4 4.4 1.9 5.5.2 10.8-2.5 15.7-2.2 4-4.9 7-8.3 10-1.3 1.2-2.7 1.6-4.2 2.4-3.2 1.7-7 2.7-10.5 3.6-.4.1-5.5.8-5.4 1-.6-1.8-2.2-5.1-2.1-7 1.8-.5 3.4-1.3 5.1-1.9 1.3-.5 2.5-.8 3.8-1.4 3.4-1.7 6.3-3.2 9-6 2.6-2.7 4.4-5.8 6.2-9"/><path class="st20" d="M81.7 35.6c4 1.6 3.5 7.1 2.3 10.4 3.1 2.9 1.9 9.2-.7 12.1-1.4 1.5-3 3.6-4.8 4.5-2 1.1-4.1 1.9-6.1 3.2-1.8 1.3-4.2 3.5-2.6 5.9-2.4-.8-3.6-1.9-4-4.3-.4-2.6.7-3.7 2-5.8 1.5-2.4.5-3 .6-5.6.1-2.9.7-5.5 2.6-7.7 2-2.3 4.1-4.2 5.6-6.9 1.2-2.3 2.4-5 4.9-6.1"/><path class="st15" d="M30.7 47c-2 .5-4.1-1.3-4.8-4-.7-2.7.4-5.3 2.3-5.8"/><path class="st8" d="M26 38.2c-3.5-4.3-4.3-12.4-3-17.9 1.3-5.7 5.1-9.8 9.5-13.4.8-.6 1.7-1.1 2.4-1.7.8-.7.6-.8 1.1-1.7.8-1.3 2.1-2.1 3.4-2.7 1.9-.8 4.2-.9 6.2-.8 5.1.2 10.6 1 15.6 2.1 1.6.3 2.9 1 4.4 1.5 7.2 2.7 11.6 6.9 14.6 14.2 1 2.5 1.4 6.6 1.5 9.3.1 2.9-.5 7.4-2 9.5"/><path class="st17" d="M77.4 34.6c.6 19.1-14 28.2-27.6 28.6-12 .3-21.1-8.1-21.6-27.2-.6-19.1 11.1-26.2 21.7-26.5 13.5-.4 26.9 6 27.5 25.1z"/><path class="st20" d="M80.7 35.7c-.3.6-.7 1.1-1 1.8-.2.4-.1.9-.6.6-.3-.2-.7-.8-1-1.1-.3-.4-.6-.9-1.1-1.1-.5-.2-1.1-.2-1.6-.3-1.1-.2-1.6-.9-2.4-1.6-.4-.3-.8-.6-1.1-1.1-.2-.4-.2-1.1-.5-1.4-.5-.7-2.5-.8-3.3-.9-1.3-.1-2.8 0-4.2-.3-1.7-.4-3.3-.9-4.9-1.1-2.6-.5-5.4-1-7.7-2.2-2.2-1.1-4.3-2.3-5.8-4.3-1.3-1.8-3.1-3.1-4.3-5-.5-.8-.9-1.8-1.6-2.4-1.2-1-1.7-.1-2.2 1-.6 1.1-1 2.3-1.6 3.4-1.2 2.3-1.9 4.7-3.8 6.6-1.1 1.1-2 2.4-3.1 3.5-.8.8-.7.8-.8 1.9-.1.9-.3 1.8-.3 2.7 0 1 1.1 3.1-.4 3.7-1.5.6-2.2-1.6-2.5-2.7-.4-1.7-.1-3.6-.2-5.4-.1-1.9 0-3.9.4-5.7.4-1.9 1.2-3.6 2-5.4 1.2-2.7 2.2-5 4.1-7.2 1.4-1.6 3.9-2.8 4.8-4.7.3 0 .7-.1 1 0 .3.6 1 1.3 1.5 1.6.1-2-3.2-4.5.1-5.6 2.1-.7 4.7-1.3 6.8-1.7C47.6.9 49.7 1 52 1c1.7 0 3.3.5 5 .6 1.3 0 2.5-.4 3.9-.1 1.9.4 3.4 1.5 5.1 2.4.7.4 1.5.4 2.3.6.8.3 1.6.7 2.4 1.2 1.5 1 3.1 2.3 4.3 3.7.7.8 1.3 1.7 2 2.6.6.9 1.3 1.6 1.9 2.5.6.8.5 1.7.9 2.6.4.9 1.1 1.5 1.6 2.3.4.8.4 1.9.5 2.8 0 1.7 0 3.3-.1 5-.2 1.7.2 3.3.1 5-.1.9-.3 2-.6 2.9-.4.2-.5.4-.6.6z"/><path class="st7" d="M37 10.9c1.4 2.1 1.5 3.4 3.1 5.4 2 2.6 3.8 5.2 6.3 7.3 4.4 3.8 9.6 4.8 14.9 6.1.8.2 1.6.4 2.5.5 1.5.2 3.1.3 4.6.3 1.3 0 2-.3 3 .7.8.9 1.3 2 2 3 .6.8.9 1.2 1.8 1.4 1 .2 2.2.5 2.9 1.4.4.4.6 1 1 1.3M54.3 12.3c1.1 2.3 3.9 5.1 5.9 6.7 2.6 2.1 6 3.2 9.1 4.3M38.2 14c-.3 4.3-2.7 8-4.9 11.4-1.5 2.3-3.8 4.7-6.4 6"/><path class="st7" d="M26 38.2c-3.5-4.3-4.3-12.4-3-17.9 1.3-5.7 5.1-9.8 9.5-13.4.8-.6 1.7-1.1 2.4-1.7.8-.7.6-.8 1.1-1.7.8-1.3 2.1-2.1 3.4-2.7 1.9-.8 4.2-.9 6.2-.8 5.1.2 10.6 1 15.6 2.1 1.6.3 2.9 1 4.4 1.5 7.2 2.7 11.6 6.9 14.6 14.2.9 2.3 1.2 4.8 1.4 7.3.2 2.7.5 5.3-.1 8-.5 2.1-.9 4.2-2.2 6"/><path class="st7" d="M77.3 36.8c-.6 17.6-14.5 26-27.6 26.4-11.4.3-21-8.1-21.6-27.2 0-1.6 0-3.2.1-4.6"/><path class="st7" d="M29.5 47c-1.5-.3-3-1.9-3.5-4-.6-2.5.2-4.9 1.9-5.7"/><path class="st21" d="M33.3 28.5s1.6-2.8 3.9-.1M56.7 27.8s1.6-2.8 3.9-.1"/><path class="st22" d="M43.3 43.8c.5.3.9.8 1.4 1.1"/><path class="st23" d="M41.8 50.8c3.1.6 7.8 0 10.7-.8-.6 3-1.5 8.3-5.1 8.7-3.1.3-4.5-4.4-5.4-7.3"/><g><path class="st24" d="M38 39.7c0 1.7-1.1 3-2.5 3.1-1.4 0-2.6-1.3-2.7-2.9 0-1.7 1.1-3 2.5-3.1 1.4 0 2.6 1.3 2.7 2.9z"/><path class="st8" d="M35.3 40.7c0 .4-.3.7-.7.8-.4 0-.7-.3-.8-.7 0-.4.3-.7.7-.8.4-.1.8.2.8.7z"/></g><g><path class="st24" d="M62.3 39c0 1.7-1.1 3-2.5 3.1-1.4 0-2.6-1.3-2.7-2.9 0-1.7 1.1-3 2.5-3.1 1.4 0 2.6 1.3 2.7 2.9z"/><path class="st8" d="M59.6 40c0 .4-.3.7-.7.8-.4 0-.7-.3-.8-.7 0-.4.3-.7.7-.8.4-.1.7.2.8.7z"/></g><radialGradient id="SVGID_1_" cx="559.401" cy="351.401" r="5.715" gradientTransform="matrix(.9995 -.0289 .0211 .7315 -503.303 -193.47)" gradientUnits="userSpaceOnUse"><stop offset=".344" stop-color="#f8ceb9"/><stop offset="1" stop-color="#fdf2de"/></radialGradient><path d="M69.1 47.2c.1 2.3-2.5 4.2-5.7 4.3-3.2.1-5.9-1.7-5.9-3.9-.1-2.3 2.5-4.2 5.7-4.3 3.1-.1 5.8 1.7 5.9 3.9z" fill="url(#SVGID_1_)"/><radialGradient id="SVGID_00000034086863358516192310000012776572686430651314_" cx="796.502" cy="350.389" r="5.714" gradientTransform="matrix(.8049 -.0232 .0211 .7315 -612.734 -189.602)" gradientUnits="userSpaceOnUse"><stop offset=".344" stop-color="#f8ceb9"/><stop offset="1" stop-color="#fdf2de"/></radialGradient><path d="M40.5 48.1c.1 2.3-2 4.2-4.6 4.2-2.6.1-4.7-1.7-4.8-4-.1-2.3 2-4.2 4.6-4.2 2.5 0 4.7 1.7 4.8 4z" fill="url(#SVGID_00000034086863358516192310000012776572686430651314_)"/><path d="M78.2 44c-5.4-.2-9.7 6.9-10 11.6-.1 1.5 1.9 7.4.4 8.1" fill="#8b655b" stroke="#6a3906" stroke-width="1.336" stroke-linecap="round" stroke-linejoin="round" stroke-miterlimit="10"/><path d="M71.4 56.1c-1.1 3.9-6.1 6.4-5.8 10.9.3 3.3 2.4 3.9 4.3 5.9" fill="#836959" stroke="#6a3906" stroke-width="1.336" stroke-linecap="round" stroke-linejoin="round" stroke-miterlimit="10"/><path class="st7" d="M84.1 46.1c3.8 4.6.9 10.9-3.2 14.4-3.9 3.3-12.7 5.6-10.8 12.4"/><path class="st7" d="M81.3 35.3c4.9 1.6 4.2 7.2 2.5 11.3-1.6 3.8-6.9 7.1-5.5 11.8"/><path class="st5" d="M74.4 36c.5-.1 1-.1 1.5 0 2.7.5 4.4 3.2 3.9 6.1-.5 2.9-3.1 4.8-5.8 4.4-.6-.1-1.1-.3-1.6-.6"/><g><path d="M32 42c1.2-5.4-5-8.5-9.2-9.1-4.5-.6-9.7.7-13.3 3.7-1.7-1.1-7.4 2-7.1 4.1.3 1.5 2.1.6 2.9.2-3.4.5-4.4 4.5-4.8 7.4-.6 4.2-.6 8 1.6 11.8 1.3 2.4 2.7 3.9 5.1 5.4 1.1.6 2.1 1.5 3.2 2 1.3.6 3.1 1.2 4.5.7" fill="#fff" stroke="#6a3906" stroke-width="1.336" stroke-linecap="round" stroke-linejoin="round" stroke-miterlimit="10"/><path class="st17" d="M7.5 59.8c.9 1.8 2 3.6 3.3 5.2 1.2 1.5 3.3 3.5 5.3 3.7 5.7.6 15.1.8 18.9-4.6 1.3-1.8 2-3.4 2.1-5.7.1-2.5-.5-5.1-1.2-7.5-.4-1.4-1-2.8-1.8-4.1-.7-1.2-.9-2.5-1.5-3.7-.5-1-1.2-1.3-2-2-2.6-2.4-7.4-5.4-11-3.8-2 .9-3.9 2.5-5.3 3.9-2.5 2.5-5.8 4.7-7.4 7.9-1.5 3.5-1 7.3.6 10.7z"/><path d="M.4 50.1c.4-2.7 1-7.2 3.7-8.6-2.5 1-.6-1.8.6-2.4 2.2-1.1 4.6-.7 6.7-2 4.6-2.9 9.4-3.7 14.6-1.8 2 .7 5.8 2.5 6.1 5 .4 3.2-2.4-.2-3.1-.9-2.2-1.9-4.3-1.9-7.1-1.8.8.6 1.3 1.6 1.2 2.7-.4 2.9-4 0-5.8.2l.2.3c-.1 1.4 1.1.7 0 2-.6.6-1.7 1.2-2.5 1.5-2.2.7-3.4.9-5.1 2.5-3.9 3.7-3.4 8.4-2.3 13 .2 1-.3 1.7-.5 2.8-.3 1.2.1 1.4.9 2.2 1.4 1.4 1.4.7 2.9.9 1.4.2 2.6 1.5 3.6 2.3-1.4 0-2.9.3-4.2-.3-1.4-.6-2.6-1.9-3.7-2.9-2-1.8-4.2-2.3-4.7-5.4C1.6 57.5.5 55.9.1 54c-.3-1.4.1-2.5.3-3.9z" fill="#cca072"/><path class="st7" d="M30.2 67.8c2.4-1 5.3-4.1 6.2-6.5 1.4-3.3.6-7.1-.4-10.4-.3-.9-.6-1.7-.9-2.5"/><path class="st7" d="M35.4 48.8c-.3-.5-.5-1.1-.8-1.7-.4-.8-.7-1.6-1.1-2.4-1.8-3-4-5.4-7.2-6.8-1.4-.6-3.1-.7-4.5-.2.9 1.3 1.9 3-.2 3.6-1.7.5-3.3-1.1-4.9-.8.4-.1 1.6 1.3 1.6 1.8-.1 1-1.4 1.1-2.2 1.2-4.3.8-8.7 5.1-9.5 9.4-.2 1.2 0 8.3 1.8 8.2"/><path class="st7" d="M32 42c1.2-5.4-5-8.5-9.2-9.1-4.5-.6-9.7.7-13.3 3.7-1.7-1.1-7.4 2-7.1 4.1.3 1.5 2.1.6 2.9.2-3.4.5-4.4 4.5-4.8 7.4-.6 4.2-.6 8 1.6 11.8 1.3 2.4 2.7 3.9 5.1 5.4 1.1.6 2.1 1.5 3.2 2 1.3.6 3.1 1.2 4.5.7"/><path class="st15" d="M8.9 60.6c-.3.1-.5.2-.8.3-1.4.9-1.8 2.7-.9 4.1.9 1.4 2.7 1.8 4.1.9.4-.3.7-.6 1-1"/><radialGradient id="SVGID_00000090258606669793156800000005233227249522764447_" cx="514.226" cy="150.269" r="3.425" gradientTransform="matrix(-.9543 .2988 .2994 .9563 461.312 -237.741)" gradientUnits="userSpaceOnUse"><stop offset=".344" stop-color="#f8ceb9"/><stop offset="1" stop-color="#fdf2de"/></radialGradient><path d="M12.2 60.7c.6 1.8 2.5 2.7 4.3 2.2 1.8-.6 2.9-2.5 2.3-4.3-.6-1.8-2.5-2.7-4.3-2.2-1.8.6-2.8 2.5-2.3 4.3z" fill="url(#SVGID_00000090258606669793156800000005233227249522764447_)"/><radialGradient id="SVGID_00000117659326091678321680000004105183047869429908_" cx="920.908" cy="150.315" r="3.439" gradientTransform="matrix(-.8617 .2698 .2994 .9563 781.095 -337.911)" gradientUnits="userSpaceOnUse"><stop offset=".344" stop-color="#f8ceb9"/><stop offset="1" stop-color="#fdf2de"/></radialGradient><path d="M29.5 55.2c.6 1.8 2.4 2.8 4 2.3 1.7-.5 2.6-2.4 2-4.2-.6-1.8-2.4-2.8-4-2.3-1.6.6-2.5 2.5-2 4.2z" fill="url(#SVGID_00000117659326091678321680000004105183047869429908_)"/><path class="st24" d="M29.4 50.2c.3.9 1.2 1.5 2.1 1.2.9-.3 1.4-1.3 1.1-2.2-.3-.9-1.2-1.5-2.1-1.2-.9.3-1.4 1.3-1.1 2.2z"/><path class="st8" d="M31 48.8c.1.2.3.3.6.3.3-.1.4-.3.3-.6-.1-.2-.3-.3-.6-.3-.2.2-.4.4-.3.6z"/><path class="st24" d="M16.2 54.7c.3.9 1.2 1.5 2.1 1.2.9-.3 1.4-1.3 1.1-2.2-.3-.9-1.2-1.5-2.1-1.2-1 .3-1.4 1.3-1.1 2.2z"/><path class="st8" d="M17.8 53.4c.1.2.3.3.6.3.2-.1.4-.3.3-.6-.1-.2-.3-.3-.6-.3-.3.1-.4.4-.3.6z"/><path class="st22" d="M27.8 53.3c-.2.3-.3.6-.5.9"/><path class="st23" d="M31.9 54.9c-3.3 1.5-5 2.2-8.1 2.8 1.4 3.7 4.2 3.4 5.5 3 1.9-.5 3.7-2.5 2.6-5.8"/></g><path class="st15" d="M21.2 73.7c.7-1.4 1.8-3.4 3.7-3.2 1.7.2 2.6 2.7 2.2 4.3-.5 2.1-3.1 3.1-5 3"/><path class="st7" d="M12 66.1c1.4 1.7 2.8 1.9 4.7 2.3"/><path class="st16" d="M19.1 68.8c-4.4-.5-7 3.9-6.6 7.8.2 1.8.9 3.6 2.2 4.9 1.5 1.6 4.3 1.9 6.1.6 1.3-.9 2.6-2.8 2.9-4.3.3-1.5-1-4-2.8-4-1 0-2.3 1.6-3.2 2"/></g><g><defs><path id="SVGID_00000121263824128667654730000014706791696967461801_" d="M285.3 13h119.2v122.7H285.3z"/></defs><clipPath id="SVGID_00000131328461681229414300000003036523278088645309_"><use xlink:href="#SVGID_00000121263824128667654730000014706791696967461801_" overflow="visible"/></clipPath><g clip-path="url(#SVGID_00000131328461681229414300000003036523278088645309_)" stroke="#6a3906" stroke-width="1.867" stroke-linecap="round" stroke-linejoin="round" stroke-miterlimit="10"><path d="M316.2 109.8v.7c-.1-.8-.1-1.6.3-2.3.8-1.3 2.1-2.1 2.9-3.4.7-1.1 1.5-2.4 1.5-3.7 0-.6.1-1.2-.1-1.7-.2-1-1.6-3.8-3.1-3-.4.2-.6.8-.8 1.2-.2.7.2 1.5.2 2.2 0 .8-.2 1.6-.9 2.2-.7.7-1.7.9-2.7 1-.4 0-.8.1-1.2-.1-.3-.2-.6-.5-.8-.8-.8-1.2-.8-3.2.6-4 .7-.4 1.6-.6 2.4-.8.7-.2 1.5-.4 1.6-1.1.5-2-2.7-2.1-3.9-2.1-.6 0-1.2.2-1.7.4-1.1.4-2.1.9-2.8 1.9-.5.7-.7 2.3-1.8 1.6-.7-.4-1.4-1.1-2.1-1.5-.8-.6-1.8-1.6-2.9-1.2-.7.2-1.1.8-1.1 1.5 0 .9.3 1.3.8 2 .7.9 1.7 1.7 2.4 2.6-.4-.5-1-.8-1.4-1.3-.2-.2-.4-.4-.5-.6-.5-.5-1.2-.9-1.8-1.3-.5-.2-1.3-.5-1.8-.2-.3.2-.4.7-.4 1 0 1.3 1 2 1.8 2.9.5.6.8 1.1 1.2 1.7.2.3 1.3 1.3.7 1.4-.4.1-1.1-.2-1.5-.3-.5-.1-1-.3-1.5-.4-.4-.1-.8-.2-1.2-.2-.4 0-.9-.1-1.3.1s-.4.7-.4 1.2c.1 1 1.4 1.6 2.2 2 1.2.6 2.6 1 3.8 1.7.4.2.8.4 1.2.7.2.2.5.3.7.5.6.5 1.1 1.1 1.7 1.5 1 .8 2.3 1.4 3.5 1.8.9.3 1.8.5 2.7.5" fill="#fdf2de"/><path d="M312.4 102.8c-1.4-.1-2.9 1.2-3.4 2.5-.3.8-.3 1.6-.3 2.4" fill="none"/></g><path d="M370.2 100.5c10.3 0 9 48.9 9 48.9h-8.3s-7.5-43.4-4.1-46.2l3.4-2.7z" clip-path="url(#SVGID_00000131328461681229414300000003036523278088645309_)" fill="#fff" stroke="#6a3906" stroke-width="1.867" stroke-linecap="round" stroke-linejoin="round" stroke-miterlimit="10"/><path d="M366.5 190l-5.3 37.6h-12.1c.5-3.1-5-37.6-5-37.6h22.4z" clip-path="url(#SVGID_00000131328461681229414300000003036523278088645309_)" fill="#fdf2de"/><path d="M377.8 148.5s4.2 6.5 1.4 9.1c-2.8 2.6-8 0-8 0l-1-10.3 7.6 1.2z" clip-path="url(#SVGID_00000131328461681229414300000003036523278088645309_)" fill="#fdf2de" stroke="#6a3906" stroke-width="1.867" stroke-linecap="round" stroke-linejoin="round" stroke-miterlimit="10"/><path d="M341.5 100.5c-4.5-.4-11.9 12.5-13.8 17.2l-10.3-8.9-7.9 6.9s8.3 13.6 17.7 14.4c8.8.7 13.2-12.1 13.2-12.1" clip-path="url(#SVGID_00000131328461681229414300000003036523278088645309_)" fill="#fff" stroke="#6a3906" stroke-width="1.867" stroke-linecap="round" stroke-linejoin="round" stroke-miterlimit="10"/><path d="M340.8 102.4c0 5.1-1.8 13.1-1.5 18.1.3 5 1.3 9.6 1.2 12.8-.2 7.4-7.8 15.4-7.8 56.6l44.1-.7c0-43.1-6.8-51.1-6.7-55.8.1-4.7 1-8.8 1.4-13.5.3-4.8-2-17.5-2-17.5l-9-8.5-19.7 8.5z" clip-path="url(#SVGID_00000131328461681229414300000003036523278088645309_)" fill="#ee847d"/><path d="M354.8 228.8c4.8-3.4 10.3 1 14.4 3.4.5 6-5.6 3.6-9.8 3.6-2.2 0-4.3.6-5.6-1.2-1.2-1.7-.3-4 1-5.3" clip-path="url(#SVGID_00000131328461681229414300000003036523278088645309_)" fill="#f29600" stroke="#6a3906" stroke-width="1.867" stroke-linecap="round" stroke-linejoin="round" stroke-miterlimit="10"/><path d="M346.9 102.1c.1 1.9.5 3.8.6 5.8.1 1.9-.5 4.4.2 6.1 2.7.2 5.4-.2 8.1-.3 2.5-.1 5.2.1 7.6-.3.2-3.5.6-8.4-.3-11.6" clip-path="url(#SVGID_00000131328461681229414300000003036523278088645309_)" fill="#fdf2de" stroke="#6a3906" stroke-width="1.867" stroke-linecap="round" stroke-linejoin="round" stroke-miterlimit="10"/><path d="M363.5 107.8c-1.2.2-2.3 1-3.5 1.2-1.3.2-2.8.3-4.1.4-3.2.3-5.2-.6-8-1.7l-.5 4 .3 2.3 15.7-.6.1-5.6z" clip-path="url(#SVGID_00000131328461681229414300000003036523278088645309_)" fill="#fff" stroke="#6a3906" stroke-width="1.867" stroke-linecap="round" stroke-linejoin="round" stroke-miterlimit="10"/><path d="M347.9 107.8c2.8 1 4.8 2 8 1.7 1.3-.1 2.8-.2 4.1-.4 1.2-.2 2.3-1.1 3.5-1.2M344.1 190s5.6 34.5 5 37.6M356.3 190v37.5M366.5 190l-5.3 37.5" clip-path="url(#SVGID_00000131328461681229414300000003036523278088645309_)" fill="none" stroke="#6a3906" stroke-width="1.867" stroke-linecap="round" stroke-linejoin="round" stroke-miterlimit="10"/><path d="M355.1 227.9c-4 0-6.8-.3-10.1 1.9-2.4 1.7-6.7 5-2.2 6.4 2.8.9 8.2.5 10.9-.2 4.3-1.2 3.5-4.4 2.1-7.8" clip-path="url(#SVGID_00000131328461681229414300000003036523278088645309_)" fill="#f29600" stroke="#6a3906" stroke-width="1.867" stroke-linecap="round" stroke-linejoin="round" stroke-miterlimit="10"/><path d="M340.3 121.4s9.6 1.5 13.9 1.6c4.2.1 16.7-2.2 16.7-2.2M340.3 126.4s9.6 1.5 13.9 1.6c4.2.1 16.7-2.2 16.7-2.2" clip-path="url(#SVGID_00000131328461681229414300000003036523278088645309_)" fill="none" stroke="#fff" stroke-width="1.867" stroke-linecap="round" stroke-linejoin="round" stroke-miterlimit="10"/><path d="M340.3 134.7s9.1 2.1 15.5 2.1 14.4-2.1 14.4-2.1M339.9 136.8s9.6 2.7 16 2.7 15-2.4 15-2.4" clip-path="url(#SVGID_00000131328461681229414300000003036523278088645309_)" fill="none" stroke="#6a3906" stroke-width=".933" stroke-linecap="round" stroke-linejoin="round" stroke-miterlimit="10"/><path d="M348.3 138.7c-.4 1.1-.7 2.3-1 3.5-.2 1.1-.7 2.2-.8 3.4-.6 0-1.1 0-1.6-.2.1-.2.3-.4.4-.6.1-.2.2-.5.2-.7.1-.5.2-1 .4-1.5.3-.7.4-1.8.9-2.4M350.7 139.1c.1.4.3.8.3 1.2 0 .2.1.5.1.7.2 1 .4 1.9.5 2.9.1 1.1.2 2.2.1 3.2.4 0 1 .1 1.4.1-.1-1.1-.3-2.1-.5-3.2-.1-.5 0-.9-.1-1.4 0-.3 0-.8-.1-1" clip-path="url(#SVGID_00000131328461681229414300000003036523278088645309_)" fill="none" stroke="#6a3906" stroke-width=".933" stroke-linecap="round" stroke-linejoin="round" stroke-miterlimit="10"/><path d="M350 136.2c-1.4 0-2.7-.3-4.1.1-.7.2-1.3.5-1.9.9-.6.4-.6.8-.9 1.4-.3.8-.8 2.5.2 3 1.1.6 2.2-.5 3-1.1 1-.8 2-1.6 2.9-2.5.5-.3 1.8-1.7.8-1.8-.4-.2-.9.1-1.2.2-.6.1-1.3.3-1.9.5-.5.2-1 .6-1.4.9-.3.2-.7.4-.9.7-.3.3-.5 1 .1 1.1.7.1 1.4-.5 2-.9.7-.4 1.4-1 1.9-1.6.3-.3.8-.8 1.3-.8" clip-path="url(#SVGID_00000131328461681229414300000003036523278088645309_)" fill="#ee847d" stroke="#6a3906" stroke-width=".933" stroke-linecap="round" stroke-linejoin="round" stroke-miterlimit="10"/><path d="M350.1 136.1c.9 0 1.8-.1 2.7 0 .9.1 1.9.3 2.8.6.7.3 1.3.9 1.8 1.5.5.5.7.8.8 1.5.2 1.3-.4 2.1-1.5 2.7-.6.4-1.5.3-2.2.2-.5-.1-1.3-.3-1.7-.7-.5-.4-.9-.8-1.3-1.4-.3-.5-.4-1.1-.5-1.8-.1-.6-.2-1-.5-1.5-.1-.2-.3-.6-.1-.8.1-.1.6 0 .7 0h1c.6.1 1.2.3 1.8.6.7.4 2 .5 2.4 1.3.2.5-.1 1.6-.6 1.8-.8.3-1.8-.3-2.4-.6-.5-.2-.9-.5-1.2-.9-.2-.4-.3-.7-.6-1.1-.4-.5-.8-.9-1.1-1.4" clip-path="url(#SVGID_00000131328461681229414300000003036523278088645309_)" fill="#ee847d" stroke="#6a3906" stroke-width=".933" stroke-linecap="round" stroke-linejoin="round" stroke-miterlimit="10"/><path d="M350.9 135.9c0-.4-1-.2-1.2-.2-.5.2-.9.4-1.2.9-.6.9-.2 1.9.8 2.3.7.3 1.9.2 2.3-.6.3-.6.4-1.6-.1-2.2-.2-.2-.4-.3-.7-.5" clip-path="url(#SVGID_00000131328461681229414300000003036523278088645309_)" fill="#ee847d" stroke="#6a3906" stroke-width=".467" stroke-linecap="round" stroke-linejoin="round" stroke-miterlimit="10"/><path d="M340.8 102.4c0 5.1-1.8 13.1-1.5 18.1.3 5 1.3 9.6 1.2 12.8-.2 7.4-7.8 15.4-7.8 56.6l44.1-.7c0-43.1-6.8-51.1-6.7-55.8.1-4.7 1-8.8 1.4-13.5.3-4.8-2-17.5-2-17.5l-9-8.5-19.7 8.5z" clip-path="url(#SVGID_00000131328461681229414300000003036523278088645309_)" fill="none" stroke="#6a3906" stroke-width="1.867" stroke-linecap="round" stroke-linejoin="round" stroke-miterlimit="10"/><g clip-path="url(#SVGID_00000131328461681229414300000003036523278088645309_)"><path d="M359.3 152.9H350c0 3.2-2.3 5.8-5 5.8h0v10.7h19.4v-10.7c-2.9 0-5.1-2.6-5.1-5.8z" fill="none" stroke="#6a3906" stroke-width=".933" stroke-linecap="round" stroke-linejoin="round" stroke-miterlimit="10"/><path class="st47" d="M358.1 155.6v-.5h-.5"/><path fill="none" stroke="#6a3906" stroke-width=".467" stroke-linejoin="round" stroke-dasharray=".8595,.8595" d="M356.8 155.2H352"/><path class="st47" d="M351.6 155.2h-.5v.5"/><path d="M351 156.5c-.5 1.8-1.9 3.1-3.4 3.3" fill="none" stroke="#6a3906" stroke-width=".467" stroke-linejoin="round" stroke-dasharray=".9137,.9137"/><path class="st47" d="M347.1 159.9c-.1 0-.1 0 0 0h-.5v.5"/><path class="st50" d="M346.6 161.4v5.5"/><path class="st47" d="M346.6 167.4v.4h.5"/><path fill="none" stroke="#6a3906" stroke-width=".467" stroke-linejoin="round" stroke-dasharray=".8798,.8798" d="M347.9 167.8h13.7"/><path class="st47" d="M362 167.8h.5v-.4"/><path class="st50" d="M362.5 166.4v-5.6"/><path class="st47" d="M362.5 160.3v-.5h-.5"/><path d="M361.2 159.7c-1.5-.5-2.7-1.8-3-3.6" fill="none" stroke="#6a3906" stroke-width=".467" stroke-linejoin="round" stroke-dasharray=".8901,.8901"/></g><path d="M318.4 68.9c-4.7-6.2-5.4-17.5-3.4-25.1 2.1-7.9 7.5-13.5 13.8-18.3 1.1-.8 2.4-1.4 3.5-2.3 1.2-.9.8-1.1 1.6-2.3 1.1-1.7 3.1-2.8 4.9-3.6 2.6-1.1 5.8-1.1 8.6-1 7.2.5 14.7 1.9 21.7 3.5 2.2.5 4 1.5 6.1 2.3 9.9 4.1 15.9 10.1 19.8 20.4 1.3 3.5 1.7 9.3 1.7 13.1 0 4-1 10.3-3.2 13.2" clip-path="url(#SVGID_00000131328461681229414300000003036523278088645309_)" fill="#fff"/><path d="M379.4 92.2c4.2 2.4 2.1 8 1 11.7-1.9 6.6-2.5 8 1.9 12.9 2.2 2.4 8.4 10.6 2.4 13.4 3.7-1.8 6.1-8.4 7.5-12.5 2-5.9-1.5-9.2-.6-14.9 1-5.7 5-9.3 4.4-15.8-.4-4.8-2.5-9.9-6.2-13" clip-path="url(#SVGID_00000131328461681229414300000003036523278088645309_)" fill="#c79f62" stroke="#6a3906" stroke-width="1.867" stroke-linecap="round" stroke-linejoin="round" stroke-miterlimit="10"/><path d="M390.3 65.9c0 26.7-15.4 38.8-34.4 38.8s-34.4-12.1-34.4-38.8c0-26.7 16.7-36.1 31.4-36.1 19 0 37.4 9.4 37.4 36.1z" clip-path="url(#SVGID_00000131328461681229414300000003036523278088645309_)" fill="#fdf2de"/><path d="M340.3 34.8c-.4 3.9-2.5 6.9-4.1 10.3-1.7 3.6-4.2 6.5-6.9 9.3-1.6 1.7-3.2 3.8-5.4 4.7-1.2.5-1.5.7-2 2.1-.6 1.9-1 3.8-1 5.7 0 1.1 0 1.5-1.1 1.5-2.1.1-2.3-1.7-2.7-3.5-.5-2.4-.1-5-.1-7.5 0-2.7.1-5.4.8-8 .6-2.7 1.8-5 2.9-7.4 1.8-3.7 3.3-6.8 6.1-9.9 2-2.2 5.5-3.7 6.9-6.4.3-.2.9-.3 1.2-.2.4.8 1.3 1.8 2 2.3.2-2.8-4.2-6.4.4-7.8 2.9-.9 6.6-1.6 9.6-2.1s6.1-.2 9.2-.2c2.4 0 4.6.9 6.9 1 1.9.1 3.5-.4 5.4.1 2.6.7 4.7 2.2 7 3.6 1 .6 2.1.6 3.2 1 1.2.4 2.2 1.1 3.3 1.8 2.1 1.4 4.2 3.4 5.8 5.4.9 1.2 1.8 2.5 2.6 3.7.8 1.2 1.7 2.3 2.5 3.5.7 1.1.7 2.5 1.2 3.6.5 1.2 1.5 2.1 2.1 3.3.6 1.1.5 2.6.5 3.9 0 2.4-.1 4.6-.4 6.9-.3 2.4 0 4.8-.8 7.2-.4 1.3-.9 2.8-1.7 4-.9 1.4-1.6 1.1-2.9.8-.1-2 0-4.1-.1-6.1-.1-1.3.4-3.1-1.3-2.9-1.3.2-2.5 1-3.9 1.1-1.5.2-3.1.1-4.6.2-3 .2-5.9-.4-8.7-1.4-1.4-.5-2.1-.9-3.7-1-1.5-.1-2.9-.2-4.2-.6-2.3-.8-4.1-2.6-6.3-3.8-3.6-1.9-7.6-4.1-10.5-7.6-1.5-1.8-2.9-3.6-4.2-5.4-1.2-1.7-1.6-5-3.3-5.7" clip-path="url(#SVGID_00000131328461681229414300000003036523278088645309_)" fill="#c79f62"/><path d="M338.8 31.2c1.9 3 1.9 4.7 4.1 7.7 2.7 3.7 5.1 7.5 8.5 10.5 6 5.5 13.3 7.1 20.5 9.1 6.7 1.8 10.3 1.3 17.1 1.1M359 33.8c1.5 3.3 5.2 7.3 7.9 9.6 3.6 3.1 8.3 4.7 12.5 6.4M340.3 34.8c-.6 6-4.1 11-7.4 15.8-2.6 3.8-6.7 7.7-11.1 8.9" clip-path="url(#SVGID_00000131328461681229414300000003036523278088645309_)" fill="none" stroke="#6a3906" stroke-width="1.867" stroke-linecap="round" stroke-linejoin="round" stroke-miterlimit="10"/><path d="M318.4 68.9c-4.7-6.2-5.4-17.5-3.4-25.1 2.1-7.9 7.5-13.5 13.8-18.3 1.1-.8 2.4-1.4 3.5-2.3 1.2-.9.8-1.1 1.6-2.3 1.1-1.7 3.1-2.8 4.9-3.6 2.6-1.1 5.8-1.1 8.6-1 7.2.5 14.7 1.9 21.7 3.5 2.2.5 4 1.5 6.1 2.3 9.9 4.1 15.9 10.1 19.8 20.4 1.3 3.5 1.7 9.3 1.7 13.1 0 4-1 10.3-3.2 13.2" clip-path="url(#SVGID_00000131328461681229414300000003036523278088645309_)" fill="none" stroke="#6a3906" stroke-width="1.867" stroke-linecap="round" stroke-linejoin="round" stroke-miterlimit="10"/><path d="M323.5 82.1c-2.8.6-5.7-2-6.5-5.8-.8-3.8.7-7.4 3.5-8M388.2 82.1c2.8.6 5.7-2 6.5-5.8.8-3.8-.7-7.4-3.5-8" clip-path="url(#SVGID_00000131328461681229414300000003036523278088645309_)" fill="#fdf2de" stroke="#6a3906" stroke-width="1.867" stroke-linecap="round" stroke-linejoin="round" stroke-miterlimit="10"/><path d="M389.9 59.5c.3 2 .4 4.1.4 6.4 0 26.7-15.4 38.8-34.4 38.8s-34.4-12.1-34.4-38.8c0-2.3.1-4.4.3-6.4" clip-path="url(#SVGID_00000131328461681229414300000003036523278088645309_)" fill="none" stroke="#6a3906" stroke-width="1.867" stroke-linecap="round" stroke-linejoin="round" stroke-miterlimit="10"/><path d="M336.4 57.4s2.3-3.8 5.4 0M368.4 57.4s2.3-3.8 5.4 0" clip-path="url(#SVGID_00000131328461681229414300000003036523278088645309_)" fill="none" stroke="#6a3906" stroke-width="1.438" stroke-linecap="round" stroke-linejoin="round" stroke-miterlimit="10"/><path d="M351.8 78.3c.6.5 1.2 1.1 1.8 1.7" clip-path="url(#SVGID_00000131328461681229414300000003036523278088645309_)" fill="none" stroke="#6a3906" stroke-width="1.4" stroke-linecap="round" stroke-linejoin="round" stroke-miterlimit="10"/><radialGradient id="SVGID_00000082360015284228896670000014122395149610845092_" cx="376.794" cy="122.854" r="7.982" gradientTransform="matrix(1 0 0 .7318 0 -10.748)" gradientUnits="userSpaceOnUse"><stop offset=".344" stop-color="#f8ceb9"/><stop offset="1" stop-color="#fdf2de"/></radialGradient><path d="M384.9 79.2c0 3.2-3.6 5.7-8.1 5.7s-8.1-2.6-8.1-5.7c0-3.2 3.6-5.7 8.1-5.7 4.5-.1 8.1 2.5 8.1 5.7z" clip-path="url(#SVGID_00000131328461681229414300000003036523278088645309_)" fill="url(#SVGID_00000082360015284228896670000014122395149610845092_)"/><radialGradient id="SVGID_00000146478090175920500600000001035295711828244864_" cx="334.565" cy="122.854" r="7.982" gradientTransform="matrix(1 0 0 .7318 0 -10.748)" gradientUnits="userSpaceOnUse"><stop offset=".344" stop-color="#f8ceb9"/><stop offset="1" stop-color="#fdf2de"/></radialGradient><path d="M342.7 79.2c0 3.2-3.6 5.7-8.1 5.7s-8.1-2.6-8.1-5.7c0-3.2 3.6-5.7 8.1-5.7 4.5-.1 8.1 2.5 8.1 5.7z" clip-path="url(#SVGID_00000131328461681229414300000003036523278088645309_)" fill="url(#SVGID_00000146478090175920500600000001035295711828244864_)"/><path d="M341.5 86.5s2.6 6.1 13.6 6.1c10.9 0 12.9-6.5 12.9-6.5" clip-path="url(#SVGID_00000131328461681229414300000003036523278088645309_)" fill="none" stroke="#6a3906" stroke-width="1.4" stroke-linecap="round" stroke-linejoin="round" stroke-miterlimit="10"/><g clip-path="url(#SVGID_00000131328461681229414300000003036523278088645309_)"><path class="st24" d="M342.6 71.1c0 2.3-1.6 4.2-3.6 4.2s-3.6-1.9-3.6-4.2c0-2.3 1.6-4.2 3.6-4.2s3.6 1.9 3.6 4.2z"/><path class="st8" d="M341.6 70.9c0 .6-.5 1-1 1s-1-.5-1-1c0-.6.5-1 1-1s1 .5 1 1z"/></g><g clip-path="url(#SVGID_00000131328461681229414300000003036523278088645309_)"><path class="st24" d="M376.5 71.1c0 2.3-1.6 4.2-3.6 4.2s-3.6-1.9-3.6-4.2c0-2.3 1.6-4.2 3.6-4.2s3.6 1.9 3.6 4.2z"/><path class="st8" d="M375.5 70.9c0 .6-.5 1-1 1-.6 0-1-.5-1-1 0-.6.5-1 1-1 .6 0 1 .5 1 1z"/></g><g clip-path="url(#SVGID_00000131328461681229414300000003036523278088645309_)"><path class="st60" d="M292.3 84.1c-3.9.7-3.6 8.5.4 8 2.4-.3 4.2-1.4 3.9-3.7-.3-2.2-1.9-4.1-4-4.2M297.8 79.5c1.2 2.9 2.5 5.9 3.7 8.8M303.4 79.8c-1.1.3-3.2 3.7-2.8 4.6.4.7 4.5 1 5.3.8M308.9 74.4c.8 2 1.8 4.2 1.9 6.5M310.6 83.3c-1.5-.1-1.9 2.5-.4 2.8 2.1.5 1.9-2.9.5-3.1"/></g></g><g><defs><path id="SVGID_00000082363818452147599760000010481775687961596591_" d="M143.4 223.5h111.3v112.9H143.4z"/></defs><clipPath id="SVGID_00000157302294183724520720000006541480130574331828_"><use xlink:href="#SVGID_00000082363818452147599760000010481775687961596591_" overflow="visible"/></clipPath><path d="M185.8 298.6c-14.3-5.8-9.2-42.7-7.4-49.3 1.8-6.9 6.5-11.8 12-15.9 1-.7 2.1-1.2 3-2 1-.8.7-1 1.4-2 1-1.5 2.7-2.4 4.3-3.1 2.3-1 5-1 7.5-.8 6.2.4 12.8 1.6 18.9 3 1.9.4 3.5 1.3 5.3 2 8.6 3.5 13.8 8.8 17.3 17.7 1.2 3 1.1 8.1 1.5 11.4 1.1 10.1 5.9 28.3-8.1 39.2" clip-path="url(#SVGID_00000157302294183724520720000006541480130574331828_)" fill="#fff" stroke="#6a3906" stroke-width="1.625" stroke-linecap="round" stroke-linejoin="round" stroke-miterlimit="10"/><path d="M249.5 259.7c-.1-.6-.1-1.2-.2-1.9.1-1.4.2-2.7.2-4.1 0-1.1 0-2.4-.5-3.4-.2-.4-.5-.8-.7-1.1l-.3-.9c-1.9-5-4.5-8.9-7.8-12-1.1-1.1-2.3-2.2-3.6-3-.9-.6-1.8-1.2-2.8-1.5-.3-.1-.6-.2-1-.3l-2.1-.9c-.3-.1-.5-.2-.8-.3-1.6-1-3.1-2-5-2.5-1.7-.4-3.1 0-4.7-.1-2-.1-4-.9-6-.9-2.7 0-5.4-.2-8 .2-2.7.4-5.9 1.1-8.4 1.8-4 1.2-.1 4.3-.3 6.8-.6-.4-1.4-1.3-1.8-2-.3-.1-.8 0-1.1.2-1.2 2.3-4.2 3.6-6 5.6-2.4 2.6-3.7 5.3-5.3 8.6-4.9 6.6-4.9 17.4-4.9 17.4-1.1 7.9-.9 16.4 2.3 23.9 1.5 3.5 3.5 7.6 7.3 9.1 2.3.9 5.4 1 7.9 1.2 3.5.3 6.5-.1 9.8-.6 3.8-.5 8.1 0 11.9 0 2.9 0 6.1-.4 8.9.1 2.4.4 4.7.9 7.2.5s4.9-.5 7.5-.5c14.2-10.9 9.3-29.3 8.3-39.4z" clip-path="url(#SVGID_00000157302294183724520720000006541480130574331828_)" fill="#946134"/><path d="M192.4 325s12-20.8 9.7-23.8l-2.3-3c-8.7-2.2-14.4 25.1-14.4 25.1" clip-path="url(#SVGID_00000157302294183724520720000006541480130574331828_)" fill="#fff" stroke="#6a3906" stroke-width="1.625" stroke-linecap="round" stroke-linejoin="round" stroke-miterlimit="10"/><path d="M194.4 364.4c2.5.2 5-1 7.3-1.7 2.5-.7 4.7-.9 7.3-.9 3.5 0 6.6-.7 10.2-.5 1.9.1 6.1.7 7.3-1.4 1.3-2.3-1.6-5.7-3.5-6.7-1.7-.9-3.5-1.6-5.1-2.5-1-.5-1.9-1.4-3-1.7-2.5-.7-5.7-.2-8.3-.2-3.6 0-7.5.4-9.8 3.2-2.1 2.5-4.5 4.8-3.6 8.5.3 1.4 1.2 2.4 1.3 3.7" clip-path="url(#SVGID_00000157302294183724520720000006541480130574331828_)" fill="#036eb7" stroke="#6a3906" stroke-width="1.625"/><path d="M209.4 387.2l-1.8-36.7-10.1.3s6.5 33.8 6.2 36.5" clip-path="url(#SVGID_00000157302294183724520720000006541480130574331828_)" fill="#fdf2de" stroke="#6a3906" stroke-width="1.625" stroke-linecap="round" stroke-linejoin="round" stroke-miterlimit="10"/><path d="M208.9 387.5c-3.5.2-6 0-8.7 2.1-2 1.5-5.6 4.6-1.7 5.7 2.5.7 7.2.1 9.4-.6 3.7-1.2 2.9-3.9 1.5-6.8" clip-path="url(#SVGID_00000157302294183724520720000006541480130574331828_)" fill="#946134" stroke="#6a3906" stroke-width="1.625" stroke-linecap="round" stroke-linejoin="round" stroke-miterlimit="10"/><path clip-path="url(#SVGID_00000157302294183724520720000006541480130574331828_)" fill="#fdf2de" stroke="#6a3906" stroke-width="1.625" stroke-linecap="round" stroke-linejoin="round" stroke-miterlimit="10" d="M208.8 388.7l-.9-38 8.9-.3-2.3 36.9"/><path d="M228.7 326.8s-8-22.6-5.2-25.2l2.8-2.6c8.9-.6 9.6 27.3 9.6 27.3" clip-path="url(#SVGID_00000157302294183724520720000006541480130574331828_)" fill="#fff" stroke="#6a3906" stroke-width="1.625" stroke-linecap="round" stroke-linejoin="round" stroke-miterlimit="10"/><path d="M199.1 334.2c-1.8 1.7-1.3 5.6-2.9 7.8-1.7 2.3-4.6 3.6-5.8 6.4-2.1 4.9 1.6 11.7 3.7 15.9.6-2.9 0-6.5 1.1-9.2 1.2-3 6.8-2.2 9.8-3 4-1.1 7.8-1.2 11.8-.2 5.1 1.3 5.9 4.6 8.7 8.6 3.5-1.6 5.9-2.8 5.7-6.8-.1-2.5 0-5.4-.6-7.9-1.1-5.4-3.1-10.5-3.7-15.9-.6-4.9.2-9.2.6-14.1.3-4.2-1.7-15.2-1.7-15.2L218 293l-17.2 7.4c0 4.4-1.6 11.4-1.3 15.8.3 4.4 1.1 8.3 1 11.2" clip-path="url(#SVGID_00000157302294183724520720000006541480130574331828_)" fill="#2ca6e0" stroke="#6a3906" stroke-width="1.625" stroke-linecap="round" stroke-linejoin="round" stroke-miterlimit="10"/><path d="M199.1 334.2c-1.8 1.7-1.3 5.6-2.9 7.8-1.7 2.3-4.6 3.6-5.8 6.4-2.1 4.9 1.6 11.7 3.7 15.9.6-2.9 0-6.5 1.1-9.2 1.2-3 6.8-2.2 9.8-3 4-1.1 7.8-1.2 11.8-.2 5.1 1.3 5.9 4.6 8.7 8.6 3.5-1.6 5.9-2.8 5.7-6.8-.1-2.5 0-5.4-.6-7.9-1.1-5.4-3.1-10.5-3.7-15.9-.6-4.9.2-9.2.6-14.1.3-4.2-1.7-15.2-1.7-15.2L218 293l-17.2 7.4c0 4.4-1.6 11.4-1.3 15.8.3 4.4 1.1 8.3 1 11.2" clip-path="url(#SVGID_00000157302294183724520720000006541480130574331828_)" fill="none" stroke="#6a3906" stroke-width="1.625" stroke-linecap="round" stroke-linejoin="round" stroke-miterlimit="10"/><path d="M209 388.8c3.9-3.3 9 .3 12.7 2.1.8 5.2-4.6 3.5-8.3 3.8-1.9.1-3.7.8-5-.7-1.2-1.4-.5-3.5.6-4.7" clip-path="url(#SVGID_00000157302294183724520720000006541480130574331828_)" fill="#946134" stroke="#6a3906" stroke-width="1.625" stroke-linecap="round" stroke-linejoin="round" stroke-miterlimit="10"/><path d="M216.1 343.8s0-.7-.1-.8c-.1-.3-.1-.5-.3-.8-.2-.5-.6-1-1-1.3-.4-.3-.8-.7-1.3-.9-.6-.2-1.4-.2-2-.3-1.1 0-2.1.1-3.2.2-.6.1-.9-.1-1.4-.2-.8-.2-1.5-.1-2.3 0-.7.1-1.5.1-2.2.2-1 .1-1.7.6-2.5 1.1-.5.3-.8.6-1.1 1-.5.6-1.7 1.3-1.8 2.2 1.7.1 3.4-.8 5.1-1.2 1.7-.4 3.5-.6 5.2-.8 3.9-.5 5.4-.6 8.9 1.6z" clip-path="url(#SVGID_00000157302294183724520720000006541480130574331828_)" fill="#036eb7"/><g clip-path="url(#SVGID_00000157302294183724520720000006541480130574331828_)"><path d="M229.2 339.8c-1.5-7.4-3-10.3-3-12.4.1-4.1.9-7.6 1.2-11.8.3-4.2-1.7-15.2-1.7-15.2l-7.8-7.4-17.2 7.4c0 4.4-1.6 11.4-1.3 15.8.3 4.4 1.1 8.3 1 11.2-.1 3.1-1.6 6.3-3.2 12.7h11.4c2.7 0 4.7-2.2 4.7-7.3 0 0-.7 7.1 3.8 7.3 4.6.1 12.1-.3 12.1-.3z" fill="#2ca6e0" stroke="#6a3906" stroke-width="1.625" stroke-linecap="round" stroke-linejoin="round" stroke-miterlimit="10"/><path fill="#fff" stroke="#6a3906" stroke-width="1.625" stroke-linecap="round" stroke-linejoin="round" stroke-miterlimit="10" d="M223.9 298.6l-7.4 8.5-3.3-4.8-2.9 4.8-6-7.3"/><path class="st72" d="M214.2 311.4c0 .5-.4.9-.9.9s-.9-.4-.9-.9.4-.9.9-.9.9.4.9.9zM214.2 320c0 .5-.4.9-.9.9s-.9-.4-.9-.9.4-.9.9-.9c.5-.1.9.3.9.9zM214.2 328.5c0 .5-.4.9-.9.9s-.9-.4-.9-.9.4-.9.9-.9.9.4.9.9z"/><path fill="none" stroke="#6a3906" stroke-width=".812" stroke-linecap="round" stroke-linejoin="round" stroke-miterlimit="10" d="M217.8 311.4h6.5v1.9h-6.5z"/></g><path d="M235.8 324.2s1.3 5.7-3.6 5.3c-4.9-.4-11.9-2.9-11.9-2.9s-3.6-6.2 2.1-6.2c5.7.1 7.6.8 7.6.8" clip-path="url(#SVGID_00000157302294183724520720000006541480130574331828_)" fill="#fff" stroke="#6a3906" stroke-width="1.625" stroke-linecap="round" stroke-linejoin="round" stroke-miterlimit="10"/><g clip-path="url(#SVGID_00000157302294183724520720000006541480130574331828_)"><path class="st74" d="M213.6 325.7c-.3 0-.7.1-1 .1-.5 0-.9-.1-1.3-.3-1.7-.5-1.8-2.5-1.2-3.9.3-.8.7-1.5 1.3-2.1 1-.8 2-1.2 3.2-1.7 1.3-.6 2.7-.6 4.1-.7 1.2-.1 2.3.3 3.4.9 1 .5 1.9 1.1 2.7 1.8.5.4.9.7 1.1 1.3.1.4.2.8.3 1.3.1 1.5-.5 3.7-2.4 3.6-.6 0-1.2-.5-1.7-.2-.5.4-.9.5-1.6.4-.6-.1-1.3-.6-1.8-.5-.7.2-1 .7-1.8.5-.3-.1-.7-.3-.9-.2-.4.1-.5.3-.9.3-.5-.1-.8-.6-1.2-.7-.2.2-.2.1-.3.1z"/><path class="st75" d="M219 325.4c0-.8.4-1.2.9-1.8M215.7 325.7c0-.5.3-1 .5-1.5.4-.7.8-.9.9-1.1M212.6 324.9c.3-1 .7-2 1.6-2.6l-.1.1"/></g><path d="M185.9 321.1s-2.4 5.4 2.5 5.9 12.2-.7 12.2-.7 4.7-5.4-.9-6.4c-5.7-1-7.6-.6-7.6-.6" clip-path="url(#SVGID_00000157302294183724520720000006541480130574331828_)" fill="#fff" stroke="#6a3906" stroke-width="1.625" stroke-linecap="round" stroke-linejoin="round" stroke-miterlimit="10"/><g clip-path="url(#SVGID_00000157302294183724520720000006541480130574331828_)"><path class="st74" d="M203.5 325.7c.3 0 .7.1 1 .1.5 0 .9-.1 1.3-.3 1.7-.5 1.8-2.5 1.2-3.9-.3-.8-.7-1.5-1.3-2.1-1-.8-2-1.2-3.2-1.7-1.3-.6-2.7-.6-4.1-.7-1.2-.1-2.3.3-3.4.9-1 .5-1.9 1.1-2.7 1.8-.5.4-.9.7-1.1 1.3-.1.4-.2.8-.3 1.3-.1 1.5.5 3.7 2.4 3.6.6 0 1.2-.5 1.7-.2.5.4.9.5 1.6.4.6-.1 1.3-.6 1.8-.5.7.2 1 .7 1.8.5.3-.1.7-.3.9-.2.4.1.5.3.9.3.5-.1.8-.6 1.2-.7.2.2.3.1.3.1z"/><path class="st75" d="M198.2 325.4c0-.8-.4-1.2-.9-1.8M201.4 325.7c0-.5-.3-1-.5-1.5-.4-.7-.8-.9-.9-1.1M204.5 324.9c-.3-1-.7-2-1.6-2.6l.1.1"/></g><path d="M243.9 268.6c0 23.2-13.4 33.8-29.9 33.8s-30-10.6-30-33.8 14.5-31.4 27.3-31.4c16.6 0 32.6 8.2 32.6 31.4z" clip-path="url(#SVGID_00000157302294183724520720000006541480130574331828_)" fill="#fdf2de"/><path d="M200.4 241.5c-.4 3.4-2.2 6-3.6 9-1.5 3.1-3.6 5.7-6 8.1-1.4 1.5-2.8 3.3-4.7 4.1-1.1.5-1.3.6-1.8 1.8-.6 1.6-.9 3.3-.8 5 0 1 0 1.3-1 1.3-1.8.1-2-1.5-2.3-3-.5-2.1 0-4.4 0-6.5 0-2.3.1-4.7.7-7 .5-2.3 1.5-4.3 2.6-6.4 1.6-3.2 2.9-5.9 5.3-8.6 1.7-1.9 4.8-3.2 6-5.6.3-.2.7-.2 1.1-.2.4.7 1.2 1.6 1.8 2 .2-2.5-3.7-5.6.3-6.8 2.5-.8 5.7-1.4 8.4-1.8 2.7-.4 5.3-.2 8-.2 2.1 0 4 .8 6 .9 1.6.1 3.1-.4 4.7.1 2.3.6 4.1 1.9 6.1 3.1.8.5 1.8.5 2.7.8 1 .4 1.9.9 2.8 1.5 1.8 1.2 3.7 2.9 5.1 4.7.8 1 1.6 2.1 2.3 3.3.7 1.1 1.5 2 2.2 3.1.6 1 .6 2.1 1.1 3.2.5 1.1 1.3 1.8 1.8 2.8.5 1 .5 2.3.5 3.4 0 2.1-.1 4-.4 6-.3 2.1 0 4.2-.7 6.3-.4 1.2-.8 2.5-1.5 3.5-.8 1.2-1.4.9-2.5.7-.1-1.8 0-3.5-.1-5.3-.1-1.1.3-2.7-1.2-2.5-1.2.1-2.2.8-3.4 1-1.3.2-2.7.1-4 .2-2.6.1-5.2-.4-7.5-1.2-1.2-.4-1.8-.8-3.2-.9-1.3-.1-2.5-.2-3.7-.5-2-.7-3.6-2.3-5.5-3.3-3.2-1.7-6.6-3.6-9.1-6.6-1.3-1.5-2.6-3.1-3.7-4.7-1-1.5-1.4-4.3-2.8-5" clip-path="url(#SVGID_00000157302294183724520720000006541480130574331828_)" fill="#946134"/><path d="M199.1 238.4c1.6 2.6 1.7 4.1 3.6 6.7 2.3 3.2 4.5 6.5 7.4 9.1 5.2 4.7 11.5 6.2 17.8 7.9 5.8 1.6 8.9 1.1 14.9.9M216.6 240.7c1.3 2.8 4.5 6.3 6.9 8.3 3.1 2.7 7.2 4.1 10.9 5.5M200.4 241.5c-.6 5.2-3.6 9.6-6.4 13.7-2.3 3.3-5.9 6.7-9.7 7.8" clip-path="url(#SVGID_00000157302294183724520720000006541480130574331828_)" fill="none" stroke="#6a3906" stroke-width="1.625" stroke-linecap="round" stroke-linejoin="round" stroke-miterlimit="10"/><path d="M185.8 282.7c-2.4.5-5-1.7-5.7-5.1-.7-3.3.6-6.4 3-7M242.1 282.7c2.4.5 5-1.7 5.7-5.1.7-3.3-.6-6.4-3-7" clip-path="url(#SVGID_00000157302294183724520720000006541480130574331828_)" fill="#fdf2de" stroke="#6a3906" stroke-width="1.625" stroke-linecap="round" stroke-linejoin="round" stroke-miterlimit="10"/><path d="M243.5 263c.2 1.7.3 3.6.3 5.5 0 23.2-13.4 33.8-29.9 33.8S184 291.8 184 268.6c0-2 .1-3.8.3-5.6" clip-path="url(#SVGID_00000157302294183724520720000006541480130574331828_)" fill="none" stroke="#6a3906" stroke-width="1.625" stroke-linecap="round" stroke-linejoin="round" stroke-miterlimit="10"/><path d="M185.8 298.6c-14.3-5.8-9.2-42.7-7.4-49.3 1.8-6.9 6.5-11.8 12-15.9 1-.7 2.1-1.2 3-2 1-.8.7-1 1.4-2 1-1.5 2.7-2.4 4.3-3.1 2.3-1 5-1 7.5-.8 6.2.4 12.8 1.6 18.9 3 1.9.4 3.5 1.3 5.3 2 8.6 3.5 13.8 8.8 17.3 17.7 1.2 3 1.1 8.1 1.5 11.4 1.1 10.1 5.9 28.3-8.1 39.2M183 284.2c0 3.7.9 6.1 3.3 8.8M245 284.9c.1 3.7-2.4 8.8-5.5 10.9" clip-path="url(#SVGID_00000157302294183724520720000006541480130574331828_)" fill="none" stroke="#6a3906" stroke-width="1.625" stroke-linecap="round" stroke-linejoin="round" stroke-miterlimit="10"/><path clip-path="url(#SVGID_00000157302294183724520720000006541480130574331828_)" fill="#d9e1e6" stroke="#6a3906" stroke-width="1.625" stroke-linecap="round" stroke-linejoin="round" stroke-miterlimit="10" d="M158 326.6h65.7v4H158z"/><path clip-path="url(#SVGID_00000157302294183724520720000006541480130574331828_)" fill="#d9e1e6" stroke="#6a3906" stroke-width="1.625" stroke-linecap="round" stroke-linejoin="round" stroke-miterlimit="10" d="M205.6 327h-49.5l-9.6-31.4h49.6z"/><path clip-path="url(#SVGID_00000157302294183724520720000006541480130574331828_)" fill="#bdc5ca" stroke="#6a3906" stroke-width="1.625" stroke-linecap="round" stroke-linejoin="round" stroke-miterlimit="10" d="M205.6 327h3.7l-10.6-33.6-2.6 2.2z"/><path clip-path="url(#SVGID_00000157302294183724520720000006541480130574331828_)" fill="#bdc5ca" stroke="#6a3906" stroke-width="1.625" stroke-linecap="round" stroke-linejoin="round" stroke-miterlimit="10" d="M198.7 293.3h-48.4l-3.8 2.3h49.6z"/><path clip-path="url(#SVGID_00000157302294183724520720000006541480130574331828_)" fill="#c79f62" stroke="#6a3906" stroke-width="1.625" stroke-linecap="round" stroke-linejoin="round" stroke-miterlimit="10" d="M151.4 330.6H245v5.4h-93.6zM155.3 336h5v62.3h-5zM235.4 336h5v62.3h-5z"/><path clip-path="url(#SVGID_00000157302294183724520720000006541480130574331828_)" fill="#fff" d="M185.6 296.6L174.3 314h2.4l11.9-17.4zM191.1 296.6L179.8 314h2.5l11.9-17.4z"/><path d="M197 261.2s2-3.3 4.7 0M224.8 261.2s2-3.3 4.7 0" clip-path="url(#SVGID_00000157302294183724520720000006541480130574331828_)" fill="none" stroke="#6a3906" stroke-width="1.252" stroke-linecap="round" stroke-linejoin="round" stroke-miterlimit="10"/><path d="M210.3 279.5c.6.4 1 1 1.6 1.4" clip-path="url(#SVGID_00000157302294183724520720000006541480130574331828_)" fill="none" stroke="#6a3906" stroke-width="1.219" stroke-linecap="round" stroke-linejoin="round" stroke-miterlimit="10"/><radialGradient id="SVGID_00000015315896071325831580000010800826839648433286_" cx="232.105" cy="397.559" r="6.948" gradientTransform="matrix(1 0 0 .7318 0 -10.748)" gradientUnits="userSpaceOnUse"><stop offset=".344" stop-color="#f8ceb9"/><stop offset="1" stop-color="#fdf2de"/></radialGradient><ellipse cx="232.1" cy="280.2" rx="7.1" ry="5" clip-path="url(#SVGID_00000157302294183724520720000006541480130574331828_)" fill="url(#SVGID_00000015315896071325831580000010800826839648433286_)"/><radialGradient id="SVGID_00000039127580304294712230000001900246150193202334_" cx="195.348" cy="397.559" r="6.948" gradientTransform="matrix(1 0 0 .7318 0 -10.748)" gradientUnits="userSpaceOnUse"><stop offset=".344" stop-color="#f8ceb9"/><stop offset="1" stop-color="#fdf2de"/></radialGradient><ellipse cx="195.3" cy="280.2" rx="7.1" ry="5" clip-path="url(#SVGID_00000157302294183724520720000006541480130574331828_)" fill="url(#SVGID_00000039127580304294712230000001900246150193202334_)"/><path d="M201.4 286.5s2.3 5.3 11.8 5.3 11.2-5.6 11.2-5.6" clip-path="url(#SVGID_00000157302294183724520720000006541480130574331828_)" fill="none" stroke="#6a3906" stroke-width="1.219" stroke-linecap="round" stroke-linejoin="round" stroke-miterlimit="10"/><g clip-path="url(#SVGID_00000157302294183724520720000006541480130574331828_)"><path class="st24" d="M202.3 273.2c0 2-1.4 3.7-3.2 3.7-1.7 0-3.2-1.6-3.2-3.7 0-2 1.4-3.7 3.2-3.7 1.8 0 3.2 1.7 3.2 3.7z"/><path class="st8" d="M201.5 273c0 .5-.4.9-.9.9s-.9-.4-.9-.9.4-.9.9-.9.9.4.9.9z"/></g><g clip-path="url(#SVGID_00000157302294183724520720000006541480130574331828_)"><path class="st24" d="M231.9 273.2c0 2-1.4 3.7-3.2 3.7-1.7 0-3.2-1.6-3.2-3.7 0-2 1.4-3.7 3.2-3.7 1.8 0 3.2 1.7 3.2 3.7z"/><path class="st8" d="M231 273c0 .5-.4.9-.9.9s-.9-.4-.9-.9.4-.9.9-.9.9.4.9.9z"/></g><path d="M168.9 266.4c-2.3-1.6-4.9-2.7-4.9-2.7l-.2-.4-1.7.8 5.2 10.7c-.9-.2-1.9-.1-2.8.4-2.3 1.1-3.3 3.9-2.2 6.2 1.1 2.3 3.9 3.3 6.2 2.2 2.3-1.1 3.3-3.9 2.2-6.2l-5.1-10.5c3.1.5 6.5 5.8 6.5 5.8.2-1.1-.9-4.6-3.2-6.3z" clip-path="url(#SVGID_00000157302294183724520720000006541480130574331828_)" fill="#f7b52c"/></g></svg>